<svg xmlns="http://www.w3.org/2000/svg" width="100" height="100" stroke="#000" stroke-linecap="round" stroke-linejoin="round" fill="#fff" fill-rule="evenodd">
    <path d="M70.6006 83.0936c20.8738-10.24 25.9236-38.3356 10.6971-57.086C69.6591 11.6759 49.4602 6.1962 31.4893 12.4044 20.6382 16.1531 12.3274 23.1192 5.6343 32.242c-.6283.8565-1.1655 1.8534-1.9823 2.4717-.5878.445-1.5701.3689-2.3768.5253-.0721-.7371-.4632-1.6571-.1638-2.1814 1.9376-3.3943 3.729-6.9322 6.1117-10.0019 20.5721-26.5061 62.5741-26.1566 82.4238.5977 16.564 22.326 10.4871 54.3467-13.1666 67.5828-18.9515 10.6044-43.4719 5.4168-54.3386-14.4534-8.5691-15.6686-4.553-37.4214 13.8697-46.1717 13.2515-6.2943 31.105-1.5888 36.7812 14.1889 3.9817 11.0669-2.3845 23.8777-13.0563 26.1954-7.1194 1.5452-14.2464-1.9067-16.388-7.9596-1.2642-3.5738-.6165-6.8301 2.0208-9.5163 2.9815-3.0369 7.1872-1.8431 8.258 2.227.5565 2.1155 1.7138 2.5483 3.5901 1.3422 3.3274-2.1392 3.9304-6.9319 1.3442-10.682-4.1444-6.0087-13.3635-7.3671-20.0108-2.9483-9.2915 6.1759-11.6624 19.6741-5.2643 29.9711 6.2289 10.0243 18.6476 14.7155 31.3789 11.757 1.973-.4583 3.8511-1.3272 5.9354-2.0929z" fill="#0460a2" fill-rule="nonzero" stroke="none"/>
</svg>