<svg xmlns="http://www.w3.org/2000/svg" width="100" height="100" stroke="#000" stroke-linecap="round" stroke-linejoin="round" fill="#fff" fill-rule="evenodd">
    <path d="M67.7578 55.3875c-3.7455.0019-7.3082 1.6192-9.775 4.4375l-6.125-4.3375c.65-1.7906 1.025-3.7125 1.025-5.725a16.719 16.719 0 0 0-.9907-5.6312l6.1125-4.2907c2.4661 2.8064 6.0204 4.4161 9.7563 4.4188 7.1947-.0138 13.0237-5.8428 13.0375-13.0375-.0138-7.1947-5.8428-13.0238-13.0375-13.0375-7.1947.0137-13.0238 5.8428-13.0375 13.0375 0 1.2875.1937 2.5.5437 3.7031l-6.1156 4.2938c-2.5562-3.1688-6.2344-5.3844-10.425-6.0625v-7.375c6.0278-1.278 10.3427-6.5946 10.3531-12.7563C49.059 5.8339 43.2299.012 36.039 0c-7.1947.0138-13.0237 5.8428-13.0375 13.0375 0 6.1875 4.3344 11.3656 10.125 12.6969v7.5c-7.9 1.35-13.925 8.2437-13.925 16.5312 0 8.3282 6.0844 15.25 14.0406 16.5875v7.8844c-5.8437 1.25-10.2375 6.5-10.2375 12.725.0138 7.1934 5.841 13.022 13.0344 13.0375 7.1947-.0137 13.0238-5.8428 13.0375-13.0375 0-6.2281-4.3906-11.4375-10.2375-12.725v-7.8844c4.1094-.6875 7.7188-2.8625 10.25-5.9593l6.1656 4.3656a12.969 12.969 0 0 0-.5343 3.6656c.0137 7.1947 5.8428 13.0238 13.0375 13.0375 7.1947-.0137 13.0237-5.8428 13.0375-13.0375-.0138-7.1947-5.8428-13.0237-13.0375-13.0375zm0-30.4812c3.4843 0 6.3187 2.8375 6.3187 6.3218s-2.8344 6.3188-6.3187 6.3188-6.3188-2.8344-6.3188-6.3188 2.8344-6.3218 6.3188-6.3218zM29.7203 13.0375c0-3.4844 2.8343-6.3187 6.3218-6.3187s6.3188 2.8343 6.3188 6.3187-2.8344 6.3188-6.3188 6.3188-6.3218-2.8344-6.3218-6.3188zm12.6375 73.9313c0 3.4843-2.8344 6.3187-6.3188 6.3187s-6.3219-2.8344-6.3219-6.3187S32.5515 80.65 36.039 80.65s6.3188 2.8344 6.3188 6.3188zm-6.3219-28.3813c-4.8625 0-8.8125-3.9531-8.8125-8.8125s3.9531-8.8125 8.8125-8.8125 8.8125 3.9531 8.8125 8.8125-3.9531 8.8125-8.8125 8.8125zM67.7546 74.75c-3.4843 0-6.3187-2.8375-6.3187-6.3219s2.8344-6.3187 6.3187-6.3187 6.3188 2.8344 6.3188 6.3187S71.239 74.75 67.7546 74.75z" fill="#000" fill-rule="nonzero" stroke="none"/>
</svg>