<svg xmlns="http://www.w3.org/2000/svg" width="100" height="100" stroke="#000" stroke-linecap="round" stroke-linejoin="round" fill="#fff" fill-rule="evenodd">
    <defs>
        <linearGradient id="A" x1="15.10%" y1="86.65%" x2="87.22%" y2="14.64%">
            <stop offset="0%" stop-color="#91d443"/>
            <stop offset="100%" stop-color="#48bfe0"/>
        </linearGradient>
        <linearGradient id="B" x1="-4.36%" y1="163.20%" x2="107.76%" y2="50.80%">
            <stop offset="0%" stop-color="#91d443"/>
            <stop offset="100%" stop-color="#48bfe0"/>
        </linearGradient>
        <linearGradient id="C" x1="-71.97%" y1="432.78%" x2="179.85%" y2="178.18%">
            <stop offset="0%" stop-color="#91d443"/>
            <stop offset="100%" stop-color="#48bfe0"/>
        </linearGradient>
        <linearGradient id="D" x1="-4.44%" y1="51.19%" x2="107.96%" y2="-61.20%">
            <stop offset="0%" stop-color="#91d443"/>
            <stop offset="100%" stop-color="#48bfe0"/>
        </linearGradient>
        <linearGradient id="E" x1="-72.35%" y1="-73.66%" x2="179.47%" y2="-328.26%">
            <stop offset="0%" stop-color="#91d443"/>
            <stop offset="100%" stop-color="#48bfe0"/>
        </linearGradient>
    </defs>
    <g fill-rule="nonzero" stroke="none">
        <path d="M71.5625 87.3437c0 7.0313 5.625 12.6563 12.6562 12.6563h15.625V84.375c0-7.0313-5.625-12.6563-12.6562-12.6563H84.375c-11.0938 0-20.1563-9.0625-20.1563-20.1562v-3.125c0-7.0313-5.625-12.6563-12.6562-12.6563h-3.125c-11.0938 0-20.1563-9.0625-20.1563-20.1562h0v-2.9688C28.4375 5.625 22.6562 0 15.625 0H0v15.625c0 7.0312 5.625 12.6562 12.6562 12.6562h2.9688c11.0937 0 20.1562 9.0625 20.1562 20.1563v2.9687c0 7.0313 5.625 12.6563 12.6563 12.6563h3.125c11.0937 0 20.1562 9.0625 20.1562 20.1562h0v3.125z" fill="url(#A)"/>
        <path d="M99.9999 48.4375c0-7.0313-5.625-12.6563-12.6562-12.6563h-2.9688c-11.0937 0-20.1562-9.0625-20.1562-20.1562v-2.9688C64.0624 5.625 58.4374 0 51.4062 0h-15.625v15.7812c.1562 6.875 5.7812 12.5 12.6562 12.5h3.125c11.0938 0 20.1563 9.0625 20.1563 20.1563h0v2.9687c0 7.0313 5.625 12.6563 12.6562 12.6563h15.625v-15.625z" fill="url(#B)"/>
        <path d="M100 12.6562C100 5.9375 94.5313.3125 87.8125 0H71.4063v15.7812c.1562 6.875 5.7812 12.5 12.6562 12.5H100v-15.625z" fill="url(#C)"/>
        <path d="M0 51.5625c0 7.0312 5.625 12.6562 12.6562 12.6562h2.9688c11.0937 0 20.1562 9.0625 20.1562 20.1563v2.9687c0 7.0313 5.625 12.6563 12.6563 12.6563h15.625V84.2187c-.1563-6.875-5.7813-12.5-12.6563-12.5h-2.9687c-11.0938 0-20.1563-9.0625-20.1563-20.1562h0v-2.9688c0-7.0312-5.625-12.6562-12.6562-12.6562H0v15.625z" fill="url(#D)"/>
        <path d="M0 87.3438C0 94.0625 5.4687 99.6875 12.1875 100h16.4062V84.2188c-.1562-6.875-5.7812-12.5-12.6562-12.5H0v15.625z" fill="url(#E)"/>
    </g>
</svg>