<svg xmlns="http://www.w3.org/2000/svg" width="100" height="100" stroke="#000" stroke-linecap="round" stroke-linejoin="round" fill="#fff" fill-rule="evenodd">
    <path d="M94.8354 5.076c2.3038 2.2151 3.8102 5.1392 4.1646 8.3291 0 1.3291-.3544 2.2152-1.152 3.8987S87.2152 36 84.2912 40.6962c-1.6835 2.7468-2.5697 6.0254-2.5697 9.2152 0 3.2785.8862 6.4684 2.5697 9.2152 2.924 4.6962 12.7594 21.7974 13.5568 23.4811S99 85.0886 99 86.4177c-.3544 3.1899-1.7722 6.114-4.0759 8.2406-2.2153 2.3037-5.1393 3.8101-8.2405 4.0759-1.3291 0-2.2152-.3544-3.8102-1.1519s-18.962-10.3671-23.6582-13.2911c-.3545-.1773-.7089-.4431-1.1519-.6204L34.8481 69.9367c.5316 4.4303 2.481 8.6835 5.6709 11.7848.6203.6203 1.2405 1.1519 1.9494 1.6835-.5317.2658-1.152.5317-1.6836.8862-4.6962 2.924-21.7974 12.7595-23.481 13.5568S14.8228 99 13.405 99c-3.1898-.3544-6.1139-1.7722-8.2405-4.0759C2.8608 92.7088 1.3544 89.7848 1 86.595c.0886-1.3292.443-2.6583 1.1519-3.8102C2.9494 81.1013 12.7848 64 15.7088 59.3038c1.6837-2.7468 2.5697-5.9367 2.5697-9.2152s-.886-6.4684-2.5697-9.2152C12.7848 36 2.8608 18.8987 2.1519 17.2152 1.443 16.0633 1.0886 14.7342 1 13.4051c.3544-3.1899 1.7722-6.114 4.076-8.3291C7.2911 2.7722 10.2152 1.3544 13.405 1c1.3292.0886 2.6583.443 3.8988 1.1519 1.4177.6203 13.9113 7.8861 20.5569 11.7849l1.5064.886c.5316.3544.9747.6202 1.3291.7975l.7089.443 23.6582 14c-.5317-5.3165-3.2785-10.1899-7.5317-13.4683.5317-.2658 1.152-.5317 1.6836-.8862 4.6962-2.924 21.7974-12.8481 23.481-13.5569C83.8481 1.443 85.1772 1.0886 86.595 1c3.1012.3544 6.0253 1.7722 8.2404 4.076zM51.2405 56.2912l5.0507-5.0507c.7088-.7089.7088-1.7721 0-2.481l-5.0507-5.0507c-.7089-.7088-1.7721-.7088-2.481 0l-5.0507 5.0507c-.7088.7089-.7088 1.7721 0 2.481l5.0507 5.0507c.6203.6202 1.7721.6202 2.481 0z" fill="#ff694a" fill-rule="nonzero" stroke="none"/>
</svg>