<svg xmlns="http://www.w3.org/2000/svg" width="100" height="100" stroke="#000" stroke-linecap="round" stroke-linejoin="round" fill="#fff" fill-rule="evenodd">
    <path d="M74.938 72.5807c.6438-5.254.4509-6.0245 4.4451-5.1737l1.0141.0875c3.0714.1369 7.089-.4839 9.4494-1.5583 5.0811-2.3099 8.0938-6.1667 3.0838-5.1534-11.4284 2.3099-12.2141-1.4814-12.2141-1.4814C92.784 41.7578 97.8287 19.488 93.4744 14.0368 81.5977-.8319 61.0394 6.1993 60.6953 6.3815l-.1096.0199c-2.2581-.4589-4.7852-.7333-7.624-.7781C47.79 5.54 43.8656 6.9518 40.8889 9.1637c0 0-36.6751-14.804-34.9686 18.6178.3625 7.1098 10.4011 53.7984 22.3741 39.6961 4.376-5.1568 8.605-9.5169 8.605-9.5169 2.0999 1.3671 4.614 2.0644 7.251 1.8136l.2038-.1704c-.0637.6404-.0356 1.2669.0814 2.0082-3.0836 3.3766-2.1775 3.9696-8.3439 5.2128-6.2387 1.2599-2.5735 3.503-.1813 4.0889 2.9012.7111 9.6126 1.7181 14.1486-4.5023l-.1808.71c1.2101.9483 1.1282 6.8165 1.2998 11.0092s.4582 8.1052 1.3307 10.4122 1.9015 8.248 10.0057 6.5463c6.7731-1.4218 11.9518-3.469 12.4236-22.5087" fill="#000" stroke-linecap="butt" stroke-width="6"/>
    <path d="M92.9318 60.7823c-11.4294 2.3099-12.2152-1.4815-12.2152-1.4815 12.0677-17.5445 17.1125-39.8149 12.759-45.2653C81.5988-.8323 61.0397 6.1993 60.6967 6.3816l-.1105.0194c-2.2581-.4592-4.7852-.7329-7.6255-.7782-5.1718-.083-9.0947 1.3285-12.0715 3.54 0 0-36.6756-14.8033-34.97 18.6183.363 7.1099 10.4013 53.7983 22.3746 39.6965 4.3762-5.1569 8.6046-9.5168 8.6046-9.5168 2.1001 1.3669 4.6143 2.0643 7.2501 1.8136l.2047-.1704c-.0637.6404-.0346 1.2669.0821 2.008-3.0846 3.3764-2.1782 3.9692-8.3442 5.2129-6.2394 1.2598-2.574 3.5027-.1809 4.089 2.9011.7109 9.6129 1.7175 14.148-4.5024l-.1808.7099c1.2085.9483 2.0571 6.1689 1.9148 10.9017s-.2371 7.9819.7151 10.5198 1.9014 8.2481 10.0073 6.5463c6.7732-1.4219 10.283-5.1071 10.7712-11.2545.3466-4.3704 1.1307-3.7243 1.1802-7.6319l.629-1.8496c.7253-5.9244.1153-7.8353 4.2881-6.9466l1.014.0874c3.0714.1366 7.0911-.4843 9.4503-1.5582 5.0801-2.3104 8.0932-6.1668 3.084-5.1535z" fill="#336791" stroke="none"/>
    <g fill="none" stroke="#fff" stroke-width="2">
        <path d="M50.549 64.1782c-.315 11.0233.0788 22.1235 1.1797 24.8213s3.459 7.945 11.5656 6.2436c6.7725-1.4224 9.2365-4.1756 10.306-10.252.7877-4.4709 2.3057-16.887 2.5005-19.4309M40.8327 8.9168S4.132-5.78 5.8381 27.6415c.363 7.11 10.402 53.8 22.3752 39.6973 4.3751-5.1572 8.3322-9.2021 8.3322-9.2021M60.6562 6.2343c-1.2704.3904 20.4152-7.767 32.7392 7.662 4.3533 5.4507-.6912 27.7209-12.7589 45.2662m-.0002-.0004s.7864 3.7927 12.2164 1.4813c5.0077-1.0135 1.9939 2.8437-3.0852 5.1548-4.1684 1.8954-13.5135 2.3812-13.6662-.2379-.3929-6.7578 4.9186-4.7048 4.5352-6.3982-.3463-1.5249-2.7219-3.0216-4.293-6.7539-1.3718-3.2576-18.8128-28.2396 4.8368-24.5294.8663-.1757-6.1682-22.0402-28.3007-22.3956S31.4778 32.145 31.4778 32.145m12.8766 29.3284c-3.0849 3.3764-2.1777 3.9693-8.3441 5.2133-6.2392 1.2598-2.5736 3.5025-.1812 4.0885 2.9012.7112 9.613 1.7182 14.148-4.5034 1.381-1.8945-.008-4.9169-1.9051-5.6875-.9168-.3721-2.1422-.8381-3.7176.8891z"/>
        <path d="M44.1525 61.4143c-.3109-1.9849.6656-4.3472 1.7123-7.1108 1.5728-4.1467 5.2018-8.2939 2.2987-21.4474-2.1637-9.802-16.6768-2.0399-16.6859-.711s.6563 6.7367-.2426 13.0344c-1.1729 8.2175 5.337 15.1677 12.8331 14.4567"/>
        <path d="M40.699 31.9459c-.0654.4539.8483 1.6652 2.0395 1.827s2.2073-.7839 2.2718-1.2373-.8478-.9542-2.0398-1.1167-2.2084.0743-2.2712.527zm36.2242-.9256c.0645.454-.848 1.6653-2.0395 1.8271s-2.2082-.7839-2.2733-1.2375.8497-.954 2.0402-1.1165 2.2081.0742 2.2726.5271zm4.2572-3.1414c.1959 3.5606-.7829 5.9859-.9064 9.7764-.1824 5.5094 2.681 11.8155-1.6338 18.1292"/>
    </g>
</svg>