<svg xmlns="http://www.w3.org/2000/svg" width="100" height="100" stroke="#000" stroke-linecap="round" stroke-linejoin="round" fill="#fff" fill-rule="evenodd">
    <defs>
        <linearGradient id="A" x1="-168.41%" y1="-181.80%" x2="-168.29%" y2="-181.80%">
            <stop offset="0%" stop-color="#909ca9"/>
            <stop offset="100%" stop-color="#ededee"/>
        </linearGradient>
        <linearGradient id="B" x1="-359.15%" y1="-293.99%" x2="-358.92%" y2="-293.99%">
            <stop offset="0%" stop-color="#939fab"/>
            <stop offset="100%" stop-color="#dcdee1"/>
        </linearGradient>
        <radialGradient id="C" cx="44%" cy="44%" r="19%" fx="44%" fy="44%">
            <stop offset="0%" stop-color="#ee352c"/>
            <stop offset="100%" stop-color="#a91d22"/>
        </radialGradient>
    </defs>
    <g fill-rule="nonzero" stroke="none">
        <path d="M60.6703 52.5257l-17.818 5.8362-15.519 6.8531-4.3329 1.1495-3.5371 3.1834-3.6255 3.0508c-1.1053.8842-2.697 2.4759-3.5371 3.4928-1.2379 1.5475-2.2106 3.1834-2.6086 4.4214-.7516 2.2549-.3979 4.554 1.0612 6.6762 1.8127 2.6971 5.4824 5.4383 9.7269 7.2953 2.1665.9727 5.8362 2.1664 8.5775 2.8738 4.554 1.1496 13.3967 2.4318 18.2602 2.6086.9727.0443 2.2991.0443 2.3433 0 .0884-.0884.8842-1.5032 1.7243-3.316 3.0065-6.1014 5.1288-11.8492 6.3225-16.7127.7075-2.9623 1.238-6.8973 1.6359-11.5839.0885-1.3265.1327-5.7036.0443-7.1626-.1327-2.4318-.3538-4.3772-.6632-6.3226-.0443-.2653-.0885-.5305-.0443-.5305.0443-.0443.2211-.0885 2.4318-.7075l-.4422-1.1053h0 0 0zm-4.0676 2.3875c.1769 0 .5748 4.1561.7074 6.7647.0442.5306 0 .9285 0 .9285-.0884 0-2.2549-1.2822-3.8466-2.2549-1.3264-.8401-3.8908-2.5644-4.2887-2.8739-.1326-.0884-.1326-.0884.9727-.4863 1.857-.6632 6.2783-2.0781 6.4552-2.0781zm-9.108 3.0066c.1327 0 .4421.1768 1.1938.6189 2.7854 1.7244 6.5436 3.8466 8.1795 4.554.4863.2211.5305.1327-.5748.9285-2.4317 1.6801-5.5267 3.316-9.2406 4.9519-.6632.3095-1.1938.5306-1.238.5306s.0442-.3537.1769-.7516c.8842-3.3603 1.4148-6.7647 1.459-9.4617-.0884-1.3706-.0884-1.3706.0442-1.3706zm-1.857.7074c.0885.0884.0443 3.0949-.0884 3.935-.2211 1.9454-.619 3.8023-1.238 5.8804-.1326.4863-.2652.9285-.3095.9285-.0442.0884-1.9011-1.7244-2.5201-2.4318-1.0612-1.1937-1.857-2.4317-2.476-3.6255-.3095-.619-.7958-1.8127-.7516-1.8127.221-.1769 7.3394-2.9181 7.3836-2.8739zm-8.7985 3.4486c.0885.0442.1769.2653.2211.4864.4422 1.1937 1.4148 2.9181 2.2549 3.9792.9285 1.1938 2.1223 2.5202 3.095 3.3602l.6632.5748c.0884.0884.0884.0884-2.0781.8843-2.5644.9727-5.3056 1.9454-8.489 2.9623-.7516.2653-1.5032.4863-2.2549.7516-.1326.0442-.0884-.0442.2653-.5748 1.5917-2.4759 3.9792-7.2952 5.3056-10.7439.2211-.5747.4422-1.1937.4864-1.3264.0442-.1768.1326-.2652.3095-.3537.0884.0442.1768 0 .221 0zm-2.697 1.1054c.0442.0442-.6632 1.459-1.3264 2.7854-1.3264 2.5644-2.7412 5.0404-4.6424 8.0911-.3095.5306-.619 1.0169-.6632 1.0611-.0884.0885-.0884.0885-.3095-.3537-.4421-.8843-.8401-2.078-1.0169-3.1391-.2211-1.0612-.1769-2.8739.0884-4.0235.1769-.84.1769-.84.5748-1.0169 1.6359-.84 7.2068-3.4486 7.2952-3.4044zm23.2121.9727v.5747c0 3.0066-.3095 7.1184-.7958 10.1249-.0884.5306-.1327.9727-.1769.9727 0 0-.3979-.0884-.84-.221-2.0338-.619-4.2003-1.5475-6.1899-2.6528-1.3264-.7075-3.2276-1.9012-3.1392-1.9454l1.238-.6632c2.6528-1.3707 5.173-2.8739 7.3837-4.333.84-.5305 2.078-1.459 2.3433-1.6801l.1768-.1768zm-33.3812 3.9792c.0442 0 .0442.0884-.0442.5748-.0442.3537-.1326 1.0169-.1326 1.459-.0885 1.9454.221 3.4045 1.1937 5.3941a34.315 34.315 0 0 1 .4864 1.0169c-.0885.0884-9.0196 2.697-11.805 3.4486l-1.636.4422c-.0884.0442-.0884 0-.0884-.2211.3095-1.9896 1.8128-4.554 3.935-6.7647 1.4149-1.459 2.5202-2.2991 4.4214-3.4044 1.3706-.7074 3.4486-1.9012 3.6697-1.9454-.0442 0-.0442 0 0 0zm21.0014 3.7581s.3537.1769.7075.398c2.8738 1.6801 6.8973 3.2275 10.3017 4.0234l.3095.0884-.4421.2211c-1.8128 1.0169-7.6932 3.4486-13.7062 5.7035-.8843.3095-1.7244.6632-1.9012.7075-.1769.0884-.3095.0884-.3095.0884s.2211-.4864.5306-1.0611c1.6801-3.1392 3.3602-6.9858 4.2445-9.6386.1768-.3095.2652-.5306.2652-.5306h0zm-2.1222.7075s-.0884.3094-.2211.6189c-1.1937 2.8297-2.697 5.9247-4.6866 9.4175-.4864.8843-.9285 1.5917-.9285 1.5917s-.3979-.2211-.8843-.5305c-2.8738-1.7686-5.394-3.8908-7.0299-6.0131l-.2211-.3095 1.238-.3537c4.3771-1.1938 8.1353-2.476 11.8492-4.0676.3979-.1769.8401-.3537.8843-.3537zm13.3083 4.6424c0 .3095-.6632 3.0949-1.238 5.0845l-1.6359 5.3499c-.3095 1.0169-.619 1.8569-.619 1.8569s-.0884 0-.1769-.0442c-3.9792-.7074-7.6047-1.7243-10.9649-3.0949-.9285-.3979-2.2991-.9727-2.3875-1.0611-.0443-.0443.7958-.398 1.8127-.8401 6.1457-2.697 12.4682-5.7036 14.6789-7.03.2653-.1326.4864-.221.5306-.221zm-30.7284 1.0611c.0442.0442-1.6802 2.476-4.0677 5.8362l-2.1665 3.0507-1.2379 1.8128-.5748.8843-.619-.5306c-.7074-.5748-1.9454-1.857-2.5202-2.5644-1.1495-1.459-1.9454-2.9623-2.2549-4.3329-.1326-.6632-.1326-.9727 0-1.0169.2211-.0443 3.8024-.8843 7.1626-1.6802l4.8193-1.1495 1.4591-.3095zm1.7243.6632l.4421.4864c1.9454 2.1664 3.935 3.7581 6.3226 5.1729.4421.2211.7516.4422.7074.4864-.0885.0884-8.3122 3.0065-12.1588 4.2887l-3.935 1.3706-.2652-.1768-.2211-.1769.3979-.5748c1.2822-1.8127 2.8739-3.8465 6.3225-8.0026l2.3876-2.8739h0zm10.7439 7.6932l1.3264.4863c1.7685.6632 3.1391 1.0611 4.9961 1.5475 2.2991.5748 5.6151 1.1495 7.5605 1.3264.3095.0442.4422.0442.3979.0884-.0884.0442-2.078.7074-3.537 1.1938L33.479 95.7666l-2.0338.5747c-.1326.0442-.5748-.0884-.5748-.1326s.3095-.4421.7074-.8843c1.9454-2.2991 3.8466-4.9077 5.4825-7.3394.4422-.7959.8401-1.3264.8401-1.3264zm-2.3876.0442s-.9284 1.5474-2.6086 4.2003l-1.8127 2.8296-.8843 1.5033-.3979.7074-.2211-.0442c-.4863-.1326-3.8908-1.3264-4.775-1.6801-1.1054-.4422-2.2549-.9727-3.1392-1.4591-1.0611-.5747-2.4317-1.459-2.2991-1.459.0442 0 1.857-.5306 4.1119-1.1054l11.3186-3.2275c.3537-.1769.7074-.2653.7074-.2653zm16.757 3.935h0c.0884.1326-2.1223 6.1899-2.9181 8.0911-.1769.4421-.2211.5305-.3537.5305-.2211 0-3.4045-.4421-5.3057-.7516-3.3602-.5306-8.9753-1.5033-10.3901-1.8128l-.3095-.0884 1.9896-.4421c4.3329-.9727 6.3667-1.5033 8.489-2.1223 2.6528-.7958 5.2614-1.8127 7.9142-3.0507.4421-.1769.7958-.3537.8843-.3537z" fill="url(#A)"/>
        <path d="M42.2775 11.0092c-.3095-.0442-5.0846 1.6801-8.1795 2.9181-4.1561 1.6801-7.3837 3.316-9.3733 4.7309-.7516.5305-1.6801 1.459-1.8128 1.8127-.0442.1327-.0884.3095-.0884.4422l1.8128 1.7243 4.2887 1.3706 10.2133 1.8128 11.6724 1.9896.1326-1.0169h-.0884l-1.5475-.2211-.3095-.5306c-1.5917-2.7854-3.3602-6.2783-4.3771-8.6216-.7959-1.8128-1.5475-3.935-1.9454-5.4383-.2211-.9285-.2653-.9727-.3979-.9727h0 0 0zm-.2211.6632h0c.0442 0 .0884.398.1326.8401.2211 1.9012.6632 3.7139 1.3264 5.6593.4864 1.5033.4864 1.4149-.0884 1.238-1.3706-.3979-7.5163-1.459-11.9819-2.078-.7074-.0885-1.3264-.1769-1.3264-.2211-.0442-.0442 3.2276-1.7685 4.6425-2.4317 1.8569-.8401 6.9415-2.9181 7.2952-3.0066zm-12.9988 6.0573l.5306.1768c2.8739.9727 10.0364 2.3434 14.0157 2.6529l.84.0884s-.3537.2211-.84.4421c-1.9012.9727-4.0235 2.1223-5.4825 3.0508-.4421.2652-.8401.4863-.8843.4863s-.3537-.0442-.619-.0884l-.5305-.0884-1.3264-1.3265-4.952-4.775-.7516-.619zm-.5306.3979l1.9012 2.3875c1.0169 1.3265 2.0781 2.5644 2.2991 2.8739a7.038 7.038 0 0 1 .398.5306c-.0443.0442-2.7413-.4864-4.1561-.7959-1.4591-.3537-2.0781-.4863-2.9623-.7958l-.7517-.2211V21.93c0-.8843 1.1496-2.2549 3.095-3.6255l.1768-.1769zm16.138 3.2276c.0442 0 .1326.1326.2653.4864.4421 1.0169 1.9012 3.7139 2.2549 4.2445.0884.1768.3095.1768-1.5917-.1327l-6.0131-1.0169s.1327-.0884.3095-.2211c1.4149-.7958 2.8297-1.7685 4.1119-2.8296.3095-.2653.5748-.4864.6632-.5306-.0442 0 0 0 0 0z" fill="url(#B)"/>
        <path d="M23.0004 20.2498s-.3095.4863 0 1.1938c.1768.4421.7074.9727 1.2821 1.5032l6.7205 6.6763c3.316 3.8466 4.7751 7.6047 4.9077 12.7777.0884 3.3602-.5306 6.2783-2.1222 9.6828-2.7855 6.1014-8.7101 12.8661-17.8181 20.3382l1.3264-.4421c.8401-.6632 2.0338-1.3265 4.7751-2.8297 6.3667-3.4929 13.4851-6.6763 22.2394-9.9481 12.6008-4.7308 33.337-10.3017 45.142-12.1145l1.238-.1768-.1769-.3095c-1.0611-1.6801-1.8127-2.697-2.697-3.8024-2.5644-3.2276-5.7035-5.792-9.5501-7.9584-5.2614-2.9623-12.1145-5.2614-20.7804-6.9858-1.6359-.3095-5.2172-.9285-8.1353-1.3706l-14.5462-2.3875c-1.5917-.2653-3.935-.6632-5.4825-1.0169-.7959-.1769-2.3433-.5306-3.5813-.9727-1.0611-.3095-2.4318-.7074-2.7412-1.857zm3.4928 3.4044s.2211.0885.5306.1769c.5305.1769 1.1938.3979 1.9454.5748.5748.1768 1.1937.3095 1.7685.4863l1.5033.3979c.0884.0885 1.459 4.4656 1.9012 6.1015a27.18 27.18 0 0 1 .3095 1.1938s-.1769-.2211-.3537-.5306c-1.5917-2.7854-4.0677-5.5709-6.9416-7.87l-.6632-.5306zm6.6321 1.8128c.0884 0 .3537.0442.7074.1326 2.2991.5306 6.4109 1.2822 9.0195 1.7244.4422.0884.7959.1326.7959.1768s-.1769.1327-.3537.2211c-.4422.2211-2.2549 1.2822-2.8297 1.6801-1.5033 1.0169-2.8297 2.078-3.8024 3.0507l-.7074.7075s-.0884-.2211-.1326-.5306c-.4864-1.857-1.5033-4.6424-2.4318-6.5878-.1768-.2653-.3095-.5748-.2652-.5748-.0443 0-.0443 0 0 0h0zm11.6281 2.2107c.0884.0442.2211.4863.4864 1.5032.4863 1.9454.7074 4.1561.6632 6.1899-.0442.5748-.0442 1.1054-.0885 1.1496l-.0442.1326-.7074-.221-5.792-1.7244c-1.1495-.3095-2.078-.5747-2.078-.619 0-.0884 1.6801-1.7685 2.3875-2.3875 1.3707-1.1938 5.0846-4.0676 5.173-4.0234zm.9285.1326c.0442-.0442 5.5709.9285 8.0911 1.4149 1.8569.3537 4.5982.9284 4.775 1.0169.0885.0442-.221.1768-1.1053.5747-3.5371 1.5917-6.1899 3.0508-8.8427 4.7751-.7074.4421-1.2822.8401-1.2822.8401s-.0442-.398-.0442-.8401c0-2.5644-.5306-5.1288-1.4591-7.3394-.0442-.2211-.1326-.398-.1326-.4422zM60.0071 30.64c.0442.0442-.1327 1.1495-.3095 1.7685-.4864 1.9896-1.8128 4.9962-3.4044 7.7816-.2653.4864-.5306.8843-.5748.9285-.0442 0-.3979-.1769-.7959-.4421-1.5474-.9285-3.3602-1.7686-5.2614-2.5644-.5305-.2211-1.0169-.3979-1.0169-.4422-.0884-.0884 4.2445-2.9623 6.5436-4.3329 1.8128-1.1053 4.7751-2.7412 4.8193-2.697zm1.0169.1768c.1326 0 2.5644.6632 3.8466 1.0612 3.1834.9284 6.8089 2.2549 9.1522 3.3602l.9727.4421-.7074.1769c-5.792 1.3264-10.7439 2.8739-15.519 4.8193-.3979.1768-.7516.3095-.7516.3095-.0442 0 .0884-.3095.2653-.7075 1.459-3.0507 2.3875-6.2341 2.6086-8.9753.0884-.2653.1326-.4864.1326-.4864h0zM36.6181 36.432c.0442-.0443 1.9012.3979 2.9181.7074 1.5475.4421 4.7751 1.5032 4.7751 1.5917l-.7959.7074c-1.7685 1.459-3.4486 3.0065-5.4824 4.9961-.619.5748-1.1054 1.0611-1.1496 1.0611s-.0442-.0884-.0442-.1768c.3095-2.2549.2211-5.173-.1769-8.1353 0-.4421-.0442-.7516-.0442-.7516zm39.3501.0442c.0442.0442-.8843 1.4148-1.4149 2.2107-.7958 1.1495-1.9896 2.697-4.6866 6.0572l-3.5371 4.4656c-.5305.6632-.9727 1.238-1.0169 1.238 0 0-.1768-.2211-.3979-.5306-1.5033-2.2549-3.316-4.2445-5.4383-6.013-.3979-.3538-.84-.7075-1.0169-.7959-.1326-.0884-.2653-.2211-.2653-.2211 0-.0442 2.2991-1.0169 4.0235-1.7243 3.0507-1.238 7.2068-2.7412 10.3017-3.6697 1.6801-.5748 3.4487-1.0611 3.4487-1.0169zm1.0611.2653c.0442 0 .3979.1326.7516.3979 3.2718 1.8569 6.4994 4.2887 9.0196 6.7647.7074.7074 2.476 2.5201 2.4317 2.5643l-1.3264.0885c-5.6593.4421-12.9103 1.6359-19.8961 3.316-.4863.0884-.8842.221-.9284.221s.4863-.5305 1.1495-1.1495c4.1119-3.935 5.9688-6.4552 8.1795-10.8765.3095-.7517.5748-1.2822.619-1.3264-.0442 0-.0442 0 0 0zm-30.021 3.0507c.1769.0442 1.9454.8843 3.2718 1.5033l3.1392 1.6359s-.619.3537-1.4149.7516c-2.5201 1.2822-4.6866 2.4759-6.9857 3.8466l-1.1938.7074c-.0442 0-.0442-.0442.3095-.7074 1.1938-2.2107 2.1665-4.8635 2.7413-7.4279.0442-.1769.0884-.3095.1326-.3095zm-1.7243.3537c.0442.0442-.3979 1.6801-.7074 2.6086-.5306 1.7243-1.5033 3.8466-2.3876 5.4825l-.7074 1.238-.3537.5305-.7516-.7074c-.8843-.8401-1.5917-1.3706-2.5202-1.857-.3537-.1768-.6632-.3537-.6632-.3979 0-.0884 2.2991-2.2107 4.0676-3.7139 1.2822-1.1054 3.9793-3.2276 4.0235-3.1834zm10.6997 4.3771l.6632.4422c1.5032.9727 3.2718 2.2991 4.6424 3.4486.7516.619 2.2549 1.9454 2.5644 2.2991l.1768.1769-1.1053.3095c-6.1899 1.7243-10.9208 3.2276-16.4917 5.2614-.619.2211-1.1495.3979-1.1937.3979-.0885 0-.1327.0884 1.2379-1.1937 3.5371-3.2718 6.7205-6.8974 9.0638-10.3902l.4422-.7517zm-2.8297.7075c.0442.0442-1.8128 2.6086-2.9181 4.1118-1.3264 1.7686-3.6697 4.6867-5.2614 6.5878-.6632.7959-1.238 1.4591-1.2822 1.4591s-.0442-.1769-.0442-.4864c0-1.6359-.3979-3.3602-1.1496-4.8635-.3095-.6189-.3537-.7516-.3095-.84.2653-.2211 4.1561-2.476 6.6763-3.8024 1.6359-.8843 4.2445-2.2107 4.2887-2.1664h0zm-17.0222 4.156c.0442 0 .3537.1769.7074.3537.8401.4864 1.6359 1.017 2.2991 1.5475.0442.0442-.3095.3095-.7958.6632-1.2822.9285-3.2276 2.3875-4.333 3.2718-1.1937.9285-1.238.9727-1.1053.7516.8843-1.3706 1.3264-2.1222 1.8127-3.0949.398-.8843.8401-1.9012 1.1496-2.8297.0884-.3537.2211-.6632.2653-.6632zm4.554 3.5813c.0884 0 .1326.0885.5305.6632.7517 1.1496 1.3707 2.6971 1.5033 3.935l.0442.2653-1.857.7074c-3.316 1.2822-6.3667 2.5644-8.4005 3.4929l-2.2549 1.0611c-.6632.3537-1.1938.5748-1.1938.5748l.9285-.7074c4.0234-2.9181 7.5163-6.1457 10.1249-9.3291.2653-.3537.5306-.6632.5748-.6632h0 0zm-2.0781.4864c.0442.0442-1.5032 1.8127-2.5201 2.8739-2.6086 2.6528-5.173 4.7308-8.3564 6.7646l-.7958.5306c-.0885.0442.0442-.0884 1.4148-1.5917.8843-.9727 1.5475-1.7685 2.3433-2.7412.5306-.6632.619-.7517 1.3264-1.2822 1.9454-1.5033 6.4994-4.5982 6.5878-4.554z" fill="url(#C)"/>
    </g>
</svg>