<svg xmlns="http://www.w3.org/2000/svg" width="100" height="100" stroke="none" stroke-linecap="round" stroke-linejoin="round" fill="#fff" fill-rule="evenodd">
    <path d="M0 75c0-6.925 5.575-12.5 12.5-12.5h75c6.925 0 12.5 5.575 12.5 12.5v12.5c0 6.925-5.575 12.5-12.5 12.5h-75C5.575 100 0 94.425 0 87.5z" fill="#01992c"/>
    <g fill="#000">
        <path d="M0 12.5C0 5.575 5.575 0 12.5 0h75C94.425 0 100 5.575 100 12.5V25c0 6.925-5.575 12.5-12.5 12.5h-75C5.575 37.5 0 31.925 0 25z"/>
        <path d="M0 12.5h100V50H0z"/>
    </g>
    <path d="M87.4996 14.6541H75.016l.7686-2.1521h11.715zm-33.2802-2.1532L65.8101 12.5l.7597 2.1576c.0048-.003-12.3463.0034-12.3463 0l-.0041-2.1558zm-9.2054.0001c1.9104.1836 3.5712.865 4.9856 2.1566H28.9898V12.501zm-32.5122 2.1526h14.596V12.501h-14.596zm74.9983 4.0394H73.5845l.7546-2.1426h13.161zm-19.4968.002H54.2185v-2.1446h13.0296zm-16.3669-2.1456c.2765.7066.6045 1.3114.6045 2.1426H28.9938v-2.1426zM12.5018 18.692h14.596v-2.1426h-14.596zm59.6593 4.0499l.7646-2.1521 10.4473.0029v2.1437zm0 0"/>
    <path d="M68.6738 20.5888l.761 2.1526H58.3292v-2.1526zm-16.2497 0c0 .7374-.0923 1.5068-.307 2.1526H45.752v-2.1526zm-35.8538 2.1516h6.2731v-2.1416h-6.2731zm0 0"/>
    <path d="M33.216 22.7409h6.2624v-2.1521H33.216zm31.2822 2.3245v1.6322h-6.169v-2.1412h11.756l.7311 1.997c.0025.001.703-2.002.7048-1.9986h11.8485v2.1428h-6.1392l-.0032-1.6307-.5684 1.6307-11.5942-.0026zm0 0"/>
    <path d="M33.216 24.5548h17.9789c-.3939.7174-1.1068 1.5891-1.7847 2.1426H33.216v-2.1426zm-16.6457 2.1426h6.2731v-2.1426h-6.2731zm60.6598 4.0384h6.14v-2.1416h-6.14zm-12.7318-2.1416h-6.1691v2.1416c-.0038-.001 6.1708.001 6.1708 0l-.0017-2.1416zm0 0"/>
    <path d="M75.9908 28.5942c-.0284-.0028-.7194 2.1408-.7488 2.1426l-8.7446.004c-.007-.0038-.7687-2.1494-.7696-2.1466zm-42.7758-.001h16.1658c.737.6159 1.4042 1.3736 1.9268 2.1426.03-.001-18.0917.0012-18.0917 0l-.0009-2.1426zm-10.3721 2.1426v-2.1426h-6.2626v2.1416c-.0009 0 6.2596.001 6.2626.001zm54.3872 4.0394h6.1386v-2.1426h-6.1386zm-18.902-.001h6.1701v-2.1416h-6.1701zm0 0"/>
    <path d="M73.8064 34.7856c.002-.0102.7574-2.1548.7682-2.153h-7.4334c-.013-.0008.7622 2.1428.7622 2.1428l5.903.0102zm-40.5903-.0114c0 .009-.0013-2.1416 0-2.1416h6.3561v2.1426c-.0061 0-6.3561-.002-6.3561-.001zm0 0"/>
    <path d="M52.1994 32.6326c.3072.6446.3387 1.4146.3997 2.1521h-6.7346v-2.1521zm-35.6191 2.1416h6.2624v-2.1416h-6.2624zm60.6498 3.9569h10.2696v-2.1426H77.2301zm-23.0116 0h10.2799v-2.1426H54.2185zm0 0"/>
    <path d="M72.4254 38.7311h-3.1352l-.7526-2.1426h4.6126zm-59.9246-2.1425v2.1416h14.5869c.0062.0043-.0062-2.1407 0-2.1407s-14.6021-.0009-14.5869-.0009zm0 0"/>
    <path d="M52.3324 36.5885c-.1546.7066-.2944 1.5684-.811 2.1426l-.193-.001H28.9928v-2.1416zm18.6715 6.1863h-.2886l-.7332-2.1479h1.7742zm6.2262.0047h10.2696v-2.1526H77.2301zm-48.2403-.0048v-2.1438l21.1331.0029c-1.4151 1.3521-3.3555 2.1152-5.4473 2.1457l-15.6829-.004zm0 0"/>
    <path d="M54.2185 42.7795h10.2799v-2.1526H54.2185zm-27.1313-2.1427v2.1379c.0064 0-14.5812.0088-14.5864.0041s.0042-2.1479 0-2.1479 14.5794.0132 14.5864.0059zm0 0"/>
    <path fill="#01992c" d="M0 50h100v37.5H0z"/>
    <path d="M34.2545 62.9634h-1.7197v14.1528h1.8042q2.0582 0 2.7206-1.5085.6626-1.5084.6626-5.737h0q0-1.8889-.1128-3.0305-.1128-1.142-.4649-2.1006-.3527-.9586-1.0576-1.3675-.7048-.4087-1.8324-.4087h0zm.6203 17.1411H28.475V59.975h6.6534q2.058 0 3.3974.6627 1.3389.6624 2.0439 2.0301.7046 1.367.9585 3.0161.2537 1.6495.2537 4.0741h0q0 5.5254-1.4942 7.9359-1.4941 2.4106-5.4129 2.4106h0zm15.3931-9.0498H48.52v6.0615h1.5786q1.5789 0 2.4246-.6905.8459-.691.8459-2.3544h0q0-3.0166-3.1012-3.0166h0zm-.282-8.0913H48.52v5.2719h1.1557q1.7199 0 2.481-.6057.7613-.6065.7613-2.0442h0q0-1.4099-.6906-2.0155-.6909-.6065-2.2415-.6065h0zm1.3251 17.1411h-6.8508V59.975h6.7946q5.723 0 5.723 5.1028h0q0 1.6634-.7754 2.8194-.7752 1.1558-2.2695 1.5787h0v.0565q1.7199.2256 2.6927 1.4518.9722 1.2263.9722 3.228h0q0 2.6219-1.4797 4.2571-1.4804 1.6352-4.8071 1.6352h0zm12.6867-3.1575h7.5275v3.1574H59.2331q0-2.5935 1.0575-4.6093 1.057-2.0158 3.3406-4.1302h0l1.6352-1.5225q1.2968-1.1276 1.6914-2.0436.3948-.9165.3948-2.5235h0q0-2.481-1.9735-2.481h0q-.9586 0-1.4798.5781-.5218.5778-.6487 1.3252-.127.7468-.127 1.9872h0-3.8905v-.7611q0-5.7795 6.2023-5.7795h0q2.9884 0 4.4828 1.3958 1.4942 1.3953 1.4942 4.0453h0q0 1.9453-.7049 3.3832-.7048 1.4377-2.3964 2.9602h0l-2.2554 2.0862q-1.6915 1.5507-2.058 2.9321h0z" fill-rule="nonzero"/>
</svg>