<svg xmlns="http://www.w3.org/2000/svg" xmlns:xlink="http://www.w3.org/1999/xlink" xmlns:v="http://vecta.io" width="100" height="100" viewBox="0 0 100 100">
    <style>
        <![CDATA[svg{stroke:#000;stroke-linecap:round;stroke-linejoin:round;fill:#fff;fill-rule:evenodd;font-family:Roboto;font-size:14px;text-anchor:middle;}svg text{paint-order:stroke;white-space:pre;}svg .Text\.cls{stroke:none;}]]>
    </style>
    <g>
        <g>
            <g transform="translate(25.7647 1)">
                <g>
                    <g transform="translate(0.0072 0.0176)">
                        <path d="M 30.9122 97.8249 C 30.7937 97.7613 29.4655 96.4747 27.9609 94.9659 L 25.2248 92.2226 L 25.2248 74.3809 C 25.2248 64.5682 25.2 56.5145 25.1697 56.4841 C 25.1136 56.4283 20.6291 58.6821 7.4378 65.3956 C 3.4609 67.4196 0.1522 69.0545 0.0853 69.0287 C 0.0073 68.9989 -0.0185 68.9116 0.0133 68.7851 C 0.0405 68.6768 0.1011 68.2265 0.1479 67.7844 C 0.3852 65.5453 2.1519 60.2853 4.0261 56.2375 C 9.1336 45.2072 17.3977 36.0658 27.9121 29.8159 C 29.628 28.7959 31.0693 28.05 31.2155 28.1059 C 31.327 28.1488 31.3431 29.3097 31.3431 37.3349 C 31.3431 43.9087 31.3698 46.5149 31.437 46.5149 C 31.4888 46.5149 31.883 46.333 32.313 46.111 C 35.3293 44.5532 37.5186 41.6432 38.2501 38.2194 C 38.4976 37.0616 38.5198 34.9517 38.2964 33.8319 C 37.8861 31.7747 36.9388 29.8392 35.6034 28.3297 C 34.9439 27.5843 32.7549 25.2822 28.8867 21.2666 C 23.0378 15.1949 21.9669 14.0342 21.2817 13.0243 C 20.7791 12.2833 20.3449 11.3773 20.082 10.5201 C 19.871 9.8325 19.8494 9.6318 19.8447 8.3409 C 19.8391 6.7652 19.9286 6.2747 20.4466 5.045 C 21.4462 2.6721 24.0505 0.4587 26.2158 0.1417 C 27.7349 -0.0808 29.6539 -0.0379 30.9025 0.2465 C 31.92 0.4782 33.5687 1.4723 34.6987 2.5353 C 36.0255 3.7835 36.6934 4.7796 41.6821 12.9512 C 47.5689 22.5936 48.2708 23.782 48.3715 24.2778 C 48.4709 24.7682 48.3988 24.9755 48.1311 24.9694 C 47.908 24.9645 47.9755 25.0337 37.3768 13.9421 C 36.4484 12.9705 34.8316 11.2643 33.7841 10.1504 C 31.0499 7.2439 29.9153 6.1488 29.4011 5.9197 C 28.7427 5.6263 27.829 5.6399 27.1929 5.9523 C 25.9455 6.5648 25.3551 7.9778 25.8257 9.2242 C 26.059 9.8422 25.7339 9.488 33.3977 17.4751 C 36.8312 21.0534 39.9325 24.3301 40.2898 24.7565 C 46.0533 31.6404 45.5846 41.8688 39.2159 48.1945 C 37.7537 49.6469 36.2919 50.6421 33.5835 52.0286 C 32.6592 52.5017 31.7771 52.9663 31.6232 53.0613 L 31.3431 53.2336 L 31.3431 75.4601 C 31.3431 87.6847 31.3195 97.7479 31.2908 97.8227 C 31.2301 97.9807 31.2019 97.9809 30.9122 97.8249 Z M 15.6056 54.7061 C 23.1497 50.8339 24.7067 50.0149 24.9277 49.8019 C 25.0665 49.6685 25.1272 49.4763 25.1684 49.0387 C 25.2519 48.1543 25.2358 38.8627 25.1508 38.81 C 24.9632 38.6941 21.7942 41.5103 19.6669 43.684 C 15.9888 47.4409 12.914 51.6834 10.3861 56.4884 C 10.0556 57.1168 9.8126 57.6309 9.8461 57.6309 C 9.8796 57.6309 12.4714 56.3149 15.6058 54.7061 Z" fill="#f8e6ea" fill-rule="nonzero" stroke="none" stroke-linecap="butt" stroke-linejoin="miter" stroke-width="2.1778"/>
                    </g>
                    <g transform="translate(0 0.0211)">
                        <path d="M 28.1441 95.0471 L 25.232 92.1385 L 25.232 56.3207 L 19.9108 59.0107 C 16.9843 60.4902 11.3637 63.3434 7.4207 65.3514 C 3.4776 67.3594 0.1871 69.0022 0.1083 69.0022 C -0.004 69.0022 -0.0225 68.9522 0.0232 68.7712 C 0.055 68.6441 0.1147 68.2466 0.1559 67.888 C 0.3321 66.3552 1.5532 62.3335 2.7541 59.3299 C 7.949 46.338 17.2845 35.7459 29.5361 28.9439 C 30.3158 28.5111 31.0193 28.1569 31.0997 28.1569 C 31.1798 28.1569 31.2689 28.2183 31.2978 28.2933 C 31.3267 28.3682 31.3502 32.52 31.3502 37.5193 L 31.3502 46.6092 L 31.544 46.5492 C 31.8243 46.4627 32.318 46.2054 32.9739 45.8043 C 35.6236 44.1839 37.4444 41.687 38.2221 38.6073 C 38.4382 37.7518 38.4567 37.5435 38.458 35.9554 C 38.4595 34.1151 38.3874 33.6108 37.9225 32.207 C 37.6249 31.3078 36.8631 29.8648 36.2651 29.0658 C 35.5719 28.1403 34.1068 26.5842 26.5672 18.766 C 24.1549 16.2644 22.2029 14.1563 21.7427 13.5553 C 19.6559 10.8311 19.2558 7.708 20.6236 4.821 C 21.1134 3.787 21.5963 3.1168 22.4438 2.2958 C 23.5957 1.1797 25.1073 0.3434 26.3421 0.1391 C 27.3481 -0.0272 28.9909 -0.0474 29.9427 0.0949 C 32.2225 0.4362 34.3444 1.8603 36.1449 4.2579 C 37.078 5.5004 39.7835 9.8599 46.3323 20.6732 C 48.316 23.9485 48.6273 24.5934 48.3559 24.8649 C 48.1192 25.1015 48.5231 25.5032 39.2736 15.8305 C 37.3042 13.7709 34.8179 11.1554 33.7485 10.0179 C 30.8271 6.9104 29.9475 6.0788 29.343 5.8526 C 27.954 5.333 26.5596 5.8874 25.8651 7.236 C 25.5368 7.873 25.5329 8.6929 25.8543 9.3898 C 26.1259 9.9793 25.718 9.5382 33.4508 17.6009 C 36.8599 21.1555 39.899 24.3547 40.2045 24.71 C 42.3098 27.1604 43.7215 30.3974 44.1503 33.758 C 44.3286 35.1553 44.285 37.4735 44.0568 38.7561 C 43.4118 42.3777 41.7633 45.5711 39.2319 48.1026 C 37.6578 49.6766 36.363 50.5513 33.2029 52.1748 L 31.3933 53.1046 L 31.3497 75.5086 C 31.3259 87.8309 31.2968 97.9223 31.2852 97.9342 C 31.1808 98.0405 30.6832 97.5832 28.1441 95.0471 Z M 15.9039 54.6055 C 23.9538 50.4794 24.7233 50.071 24.9952 49.7791 L 25.232 49.5246 L 25.232 44.0972 C 25.232 41.1122 25.2064 38.6698 25.1749 38.6698 C 25.1435 38.6698 24.8237 38.9102 24.464 39.2042 C 20.1257 42.7491 16.4563 46.7645 13.4536 51.2529 C 11.7614 53.7825 9.5067 57.8126 9.8567 57.6819 C 9.948 57.6478 12.6692 56.2635 15.9039 54.6056 Z" fill="#f5dbe0" fill-rule="nonzero" stroke="none" stroke-linecap="butt" stroke-linejoin="miter" stroke-width="2.1778"/>
                    </g>
                    <g transform="translate(0 0)">
                        <path d="M 29.6064 96.5335 C 28.8018 95.7396 27.4884 94.4044 26.6878 93.5662 L 25.2321 92.0425 L 25.2321 74.1994 C 25.2321 64.3854 25.2175 56.356 25.1998 56.356 C 25.1558 56.356 14.6727 61.6663 6.7199 65.7169 C 3.1497 67.5355 0.1692 69.0233 0.0968 69.0233 C -0.0012 69.0233 -0.0209 68.9672 0.0201 68.804 C 0.0505 68.6833 0.1106 68.3051 0.1541 67.9635 C 0.1973 67.6219 0.3867 66.7414 0.5749 66.007 C 1.5422 62.2304 2.8364 58.8189 4.8082 54.848 C 6.0565 52.3339 7.1301 50.4583 8.5568 48.2991 C 13.2572 41.1848 19.6331 35.0256 27.0417 30.4423 C 28.5988 29.4788 30.9464 28.1781 31.1279 28.1781 C 31.2511 28.1781 31.2641 29.0492 31.2641 37.3579 C 31.2641 45.1269 31.2825 46.5451 31.3842 46.5842 C 31.4502 46.6094 31.7725 46.4951 32.1003 46.3298 C 34.7888 44.9761 36.8991 42.5898 37.8888 39.7842 C 38.3502 38.4765 38.5255 37.4331 38.5294 35.9765 C 38.5354 33.5909 37.917 31.5113 36.6208 29.5568 C 35.9382 28.527 35.2083 27.7348 29.1568 21.455 C 22.7394 14.795 21.9815 13.9683 21.2104 12.785 C 20.274 11.3487 19.864 9.9833 19.868 8.3154 C 19.8695 7.7039 19.9257 7.0311 20.0056 6.6684 C 20.5909 4.0122 22.3344 1.8505 24.8278 0.6895 C 25.9265 0.1779 26.817 0 28.2805 0 C 30.3598 0 31.8212 0.4586 33.486 1.6337 C 35.4089 2.991 36.1202 3.9675 40.9586 11.8921 C 46.5114 20.9867 48.2659 23.9327 48.3712 24.3385 C 48.4334 24.5781 48.4778 24.7754 48.4697 24.7771 C 48.4617 24.7787 48.3893 24.8304 48.3086 24.8921 C 48.1809 24.9894 48.1035 24.9498 47.7145 24.5876 C 47.0996 24.0147 36.7179 13.1737 33.4882 9.7318 C 30.5882 6.6413 30.1522 6.2308 29.4081 5.8903 C 28.0915 5.2872 26.5217 5.8758 25.8616 7.2199 C 25.6612 7.6284 25.6202 7.8226 25.6217 8.3586 C 25.6232 8.9 25.6647 9.0869 25.8773 9.5098 C 26.1345 10.0217 26.2273 10.1203 37.3229 21.6896 C 38.7357 23.1627 40.1512 24.6921 40.4685 25.0882 C 44.6411 30.2974 45.4481 37.4037 42.5496 43.4179 C 41.6178 45.3515 40.5274 46.8413 38.9084 48.3935 C 37.3649 49.8731 36.2776 50.5947 33.2029 52.1801 C 32.2077 52.6932 31.3649 53.1544 31.3299 53.205 C 31.2952 53.2557 31.2662 63.35 31.2654 75.6369 C 31.2644 92.183 31.2389 97.9768 31.1667 97.9768 C 31.1131 97.9768 30.411 97.3274 29.6064 96.5335 Z M 11.0317 57.1412 C 11.6616 56.8149 14.5037 55.3545 17.3474 53.896 C 24.1077 50.4289 24.902 50.0062 25.0793 49.7808 C 25.2168 49.6061 25.2285 49.1731 25.2302 44.1413 C 25.2313 41.1103 25.1988 38.6909 25.1572 38.6909 C 25.1159 38.6909 24.486 39.1909 23.7569 39.8021 C 19.0181 43.7747 15.1188 48.331 11.9859 53.5555 C 11.2512 54.7807 9.7212 57.5686 9.7212 57.6819 C 9.7212 57.7979 9.9322 57.7109 11.0317 57.1412 Z" fill="#f3d5da" fill-rule="nonzero" stroke="none" stroke-linecap="butt" stroke-linejoin="miter" stroke-width="2.1778"/>
                    </g>
                    <g transform="translate(0.0004 0.008)">
                        <path d="M 28.2222 95.1053 C 26.6679 93.5285 25.3591 92.1485 25.314 92.0388 C 25.2626 91.9143 25.2316 85.1661 25.2316 74.0936 C 25.2316 64.3334 25.2067 56.348 25.1764 56.348 C 25.1129 56.348 20.1297 58.8692 8.377 64.8471 C 3.8701 67.1396 0.1335 69.015 0.0738 69.015 C 0.0022 69.015 -0.0176 68.9453 0.0157 68.8118 C 0.044 68.7001 0.1074 68.3221 0.1571 67.9718 C 0.4788 65.7021 2.0537 60.8807 3.6442 57.2958 C 8.3631 46.6611 15.7483 37.9177 25.447 31.4835 C 27.8437 29.8936 30.9926 28.0989 31.1809 28.2151 C 31.233 28.2472 31.2637 31.6697 31.2637 37.4385 C 31.2637 45.7429 31.2767 46.6106 31.3999 46.6106 C 31.6107 46.6106 32.6932 46.044 33.504 45.5093 C 34.3934 44.923 35.8817 43.4531 36.4931 42.5567 C 37.3986 41.2298 38.0708 39.6171 38.3861 38.0169 C 38.5883 36.9893 38.5891 34.8648 38.3875 33.8417 C 38.0906 32.3344 37.5045 30.8915 36.6705 29.6142 C 35.9429 28.5001 35.5681 28.0918 28.8129 21.0608 C 22.4449 14.4327 22.3313 14.3111 21.6187 13.35 C 19.728 10.7999 19.3498 7.9109 20.535 5.0712 C 21.5732 2.5839 24.0443 0.5786 26.6359 0.1203 C 27.5332 -0.0385 29.0238 -0.0403 29.9787 0.1163 C 31.3524 0.3414 32.7215 1.0024 34.0737 2.0925 C 35.7106 3.4126 36.3237 4.302 41.8623 13.3915 C 47.6408 22.875 48.3113 24.0092 48.37 24.4006 C 48.4333 24.8224 48.3533 24.9433 48.0706 24.8534 C 47.9785 24.8243 46.6104 23.4548 45.0302 21.8102 C 39.4042 15.9556 36.0989 12.4894 33.7126 9.9422 C 29.9501 5.9262 29.6062 5.6514 28.3339 5.6413 C 27.7956 5.637 27.6063 5.6761 27.2013 5.8748 C 26.6611 6.1402 26.1222 6.6744 25.8209 7.2432 C 25.6619 7.5432 25.6222 7.7554 25.6211 8.3074 C 25.6188 9.3044 25.8442 9.7136 27.1535 11.0868 C 27.7294 11.6909 30.7975 14.8934 33.9715 18.2036 C 37.1452 21.5138 39.9897 24.5191 40.2929 24.882 C 43.1632 28.3189 44.6262 33.0556 44.1871 37.4887 C 43.6968 42.4388 41.2458 46.8122 37.3284 49.7271 C 36.2676 50.5165 35.5498 50.938 33.1818 52.1627 L 31.3066 53.1324 L 31.285 75.5507 C 31.2677 93.3967 31.2414 97.9691 31.1557 97.9706 C 31.0967 97.9717 29.7766 96.6821 28.2222 95.1053 Z M 15.7529 54.732 C 23.6424 50.6846 24.8319 50.0565 25.0378 49.8301 L 25.2316 49.6169 L 25.2316 44.15 C 25.2316 40.6265 25.2014 38.6829 25.1469 38.6829 C 25.0246 38.6829 22.9964 40.3922 21.5424 41.7211 C 17.9157 45.0349 14.3086 49.5379 11.6764 54.0367 C 10.816 55.507 9.7208 57.5664 9.7208 57.7136 C 9.7208 57.833 9.3777 58.0024 15.7529 54.732 Z" fill="#f0cdd3" fill-rule="nonzero" stroke="none" stroke-linecap="butt" stroke-linejoin="miter" stroke-width="2.1778"/>
                    </g>
                    <g transform="translate(0.0085 0.003)">
                        <path d="M 28.2029 95.0769 L 25.317 92.1572 L 25.3132 74.3033 C 25.3108 62.2538 25.281 56.4317 25.2217 56.3949 C 25.1321 56.3396 19.9137 58.9566 7.2404 65.4123 C 3.3452 67.3968 0.1143 69.0202 0.0609 69.0202 C 0.0074 69.0202 -0.0151 68.9524 0.0107 68.8695 C 0.0364 68.7864 0.0971 68.4382 0.1452 68.0953 C 0.4323 66.0523 1.714 61.8991 3.0377 58.7228 C 5.7275 52.2684 9.3128 46.5477 13.8119 41.5315 C 15.0457 40.1559 17.9947 37.2554 19.2778 36.1556 C 21.6478 34.1236 24.1869 32.2513 26.6885 30.6906 C 28.4125 29.6151 30.846 28.2466 31.0647 28.2295 C 31.2031 28.2189 31.2153 28.8001 31.2556 37.4385 C 31.2983 46.5988 31.2997 46.6586 31.471 46.6306 C 31.7056 46.5922 32.7885 46.0059 33.5318 45.5147 C 34.3641 44.965 36.0299 43.2873 36.5884 42.4364 C 37.4421 41.1357 38.0553 39.6473 38.3806 38.0847 C 38.5935 37.0623 38.5925 34.7897 38.3787 33.7761 C 37.9797 31.8858 37.0643 29.9314 35.9567 28.6058 C 35.4238 27.9682 33.523 25.9593 29.1889 21.4537 C 22.5417 14.5431 22.0747 14.0352 21.296 12.8702 C 20.7418 12.0409 20.3843 11.2795 20.1185 10.3625 C 19.9502 9.7817 19.9247 9.4998 19.9293 8.2694 C 19.9342 6.9788 19.956 6.7777 20.1668 6.0904 C 20.9637 3.4921 22.7187 1.5729 25.2595 0.5209 C 26.0618 0.1889 27.173 0.0001 28.3257 0 C 30.7979 -0.0001 32.7678 0.8428 34.7176 2.7347 C 36.1513 4.1258 36.7771 5.0758 42.9971 15.3036 C 48.2108 23.8769 48.3005 24.0291 48.3631 24.3987 C 48.4372 24.8367 48.3212 24.9777 48.0201 24.8165 C 47.7722 24.6838 39.2475 15.8235 34.0043 10.2489 C 29.8393 5.8209 29.6146 5.6399 28.2826 5.6429 C 27.423 5.6449 26.9198 5.8808 26.2784 6.5826 C 25.7229 7.1905 25.531 7.7285 25.5878 8.518 C 25.6459 9.324 25.9391 9.841 26.9282 10.8813 C 27.3872 11.3642 30.4917 14.6056 33.8267 18.0842 C 37.162 21.5628 40.1258 24.7036 40.4129 25.0639 C 41.2345 26.0944 41.9143 27.1765 42.5029 28.3904 C 46.104 35.8181 43.9376 44.7678 37.3472 49.6882 C 36.237 50.5171 35.672 50.8517 33.2912 52.0896 L 31.2986 53.1257 L 31.2556 75.4995 C 31.2318 87.805 31.1847 97.9011 31.1507 97.9351 C 31.1168 97.9689 29.7901 96.6828 28.2029 95.0769 Z M 16.1325 54.5438 C 24.3822 50.3148 24.8816 50.0485 25.0901 49.7693 C 25.2629 49.5379 25.2672 49.4207 25.2924 44.1407 C 25.3076 40.9802 25.2858 38.7156 25.2398 38.6697 C 25.078 38.508 22.2657 40.9436 20.0517 43.1633 C 16.8377 46.3854 14.2714 49.6823 11.8628 53.6839 C 10.7159 55.5893 9.5509 57.8649 9.7629 57.7859 C 9.8537 57.7522 12.72 56.2932 16.1325 54.5438 Z" fill="#eec3cb" fill-rule="nonzero" stroke="none" stroke-linecap="butt" stroke-linejoin="miter" stroke-width="2.1778"/>
                    </g>
                    <g transform="translate(0.0226 0.0003)">
                        <path d="M 30.6162 97.5291 C 30.3566 97.2776 29.0535 95.9628 27.72 94.6071 L 25.2956 92.1426 L 25.2956 74.2492 C 25.2956 58.3543 25.2813 56.3557 25.1656 56.3557 C 25.0441 56.3557 17.8835 59.9623 7.6306 65.1877 C 1.63 68.246 0.0387 69.0437 0.009 69.0092 C -0.0493 68.9411 0.1801 67.7525 0.5381 66.2655 C 1.94 60.4455 4.9705 53.7065 8.695 48.1264 C 13.4571 40.992 19.9075 34.8248 27.3757 30.2669 C 28.8416 29.3722 30.8902 28.264 31.0785 28.264 C 31.2374 28.264 31.2415 28.4947 31.2415 37.4361 C 31.2415 43.5523 31.2705 46.6263 31.3289 46.6625 C 31.3771 46.6922 31.7889 46.5204 32.2443 46.2806 C 36.161 44.2188 38.563 40.2972 38.5656 35.961 C 38.5671 33.2702 37.6917 30.7989 35.9809 28.6636 C 35.3809 27.915 34.6809 27.1717 29.3963 21.6719 C 22.6418 14.6424 22.4748 14.464 21.7477 13.5091 C 21.0662 12.6137 20.4551 11.4445 20.1591 10.4696 C 19.9481 9.774 19.9232 9.5565 19.9179 8.3583 C 19.9107 6.7506 20.0696 6.0326 20.7285 4.6961 C 21.5243 3.0818 22.8138 1.7629 24.4099 0.9314 C 25.7032 0.2574 26.7882 -0.0005 28.3283 0 C 31.4027 0.001 34.0311 1.5048 36.2348 4.5237 C 37.1552 5.7846 40.5977 11.3576 47.1217 22.1482 C 48.3272 24.1423 48.5839 24.748 48.2736 24.8671 C 48.0195 24.9646 48.5693 25.5169 39.983 16.5387 C 37.5159 13.9591 34.6605 10.9564 33.638 9.8664 C 29.9531 5.9383 29.5888 5.6497 28.3117 5.6461 C 27.4455 5.6436 26.9877 5.8263 26.3794 6.4175 C 25.8553 6.9269 25.6235 7.4166 25.5729 8.1202 C 25.524 8.8029 25.6469 9.3127 25.9838 9.8212 C 26.1158 10.021 28.1965 12.2423 30.607 14.7572 C 33.0176 17.2724 36.0714 20.4578 37.3933 21.8365 C 38.7151 23.2152 40.0257 24.6235 40.3056 24.9663 C 42.0608 27.1139 43.2759 29.6781 43.8697 32.4863 C 44.0584 33.3798 44.105 33.8683 44.1429 35.3513 C 44.1722 36.4975 44.1515 37.4403 44.0854 37.9795 C 43.6127 41.8284 41.8979 45.3534 39.1696 48.0848 C 37.5999 49.6567 36.3905 50.4633 32.7925 52.3383 L 31.2846 53.1243 L 31.2415 75.5003 C 31.2178 87.8069 31.1735 97.9009 31.1431 97.9312 C 31.1127 97.9618 30.8756 97.7806 30.616 97.5291 Z M 15.1074 55.0914 C 23.018 51.0325 24.6186 50.1903 24.951 49.9112 L 25.2525 49.6581 L 25.2761 44.2021 C 25.2892 41.1324 25.2664 38.713 25.2233 38.6702 C 25.1357 38.5826 24.2885 39.2384 22.7675 40.5711 C 18.4421 44.3611 14.7914 48.7389 11.8322 53.6845 C 11.1743 54.7836 9.6124 57.652 9.6124 57.7607 C 9.6124 57.7937 9.6519 57.8207 9.7 57.8207 C 9.7484 57.8207 12.1816 56.5925 15.1074 55.0914 Z" fill="#ecbbc4" fill-rule="nonzero" stroke="none" stroke-linecap="butt" stroke-linejoin="miter" stroke-width="2.1778"/>
                    </g>
                    <g transform="translate(0.0206 0.0003)">
                        <path d="M 28.1977 95.0397 L 25.2977 92.0927 L 25.2977 74.2388 C 25.2977 64.4189 25.2719 56.3587 25.2404 56.3271 C 25.181 56.2679 19.8622 58.9394 7.3023 65.3364 C 3.3056 67.3718 0.0217 69.0238 0.0048 69.007 C -0.0567 68.9457 0.4834 66.4438 0.829 65.1882 C 2.9684 57.4185 7.158 49.4685 12.4542 43.1284 C 16.0476 38.8271 20.5991 34.7448 25.2545 31.6472 C 27.6559 30.0497 30.8791 28.205 31.1128 28.2945 C 31.2285 28.3388 31.2434 29.4008 31.2434 37.5246 C 31.2434 44.8839 31.2653 46.7045 31.3528 46.7045 C 31.529 46.7045 32.702 46.0899 33.3554 45.6552 C 36.067 43.8515 37.8696 41.0867 38.4326 37.8682 C 38.6072 36.8697 38.6075 35.0011 38.4333 33.9942 C 38.2504 32.9373 37.7869 31.5843 37.2667 30.5898 C 36.3864 28.9064 36.0208 28.4961 28.0164 20.2068 C 22.3192 14.307 21.4085 13.2594 20.6906 11.7804 C 20.1063 10.5766 19.9161 9.694 19.9252 8.2289 C 19.934 6.789 20.097 6.0671 20.6922 4.8301 C 21.2013 3.7725 21.6727 3.1219 22.5083 2.324 C 24.1132 0.7912 26.0855 0.0007 28.3066 0 C 30.6556 -0.0009 32.7692 0.8981 34.6757 2.7093 C 35.9424 3.9125 36.8786 5.3324 42.576 14.6919 C 48.4395 24.3241 48.5421 24.5039 48.3519 24.8114 C 48.2561 24.9664 48.1445 24.9172 47.7295 24.5369 C 47.1845 24.0375 36.6348 13.0227 33.4088 9.5851 C 30.6265 6.62 30.0006 6.0418 29.2798 5.7716 C 27.8804 5.247 26.3972 5.894 25.7447 7.3139 C 25.2878 8.3077 25.5081 9.363 26.3776 10.3447 C 26.6061 10.6029 29.7292 13.8776 33.3178 17.6217 C 36.9062 21.3659 40.0355 24.6618 40.2716 24.9462 C 41.8658 26.8667 43.1466 29.47 43.742 32.0007 C 44.5316 35.3563 44.2338 39.1438 42.9256 42.3792 C 42.017 44.6262 40.9283 46.2531 39.1345 48.0453 C 37.3991 49.7792 36.3896 50.466 33.0744 52.1691 L 31.2434 53.1096 L 31.2422 75.4354 C 31.2415 87.7145 31.2086 97.8117 31.1693 97.874 C 31.1184 97.9544 30.2667 97.1424 28.1977 95.0396 Z M 19.438 52.8881 C 24.5889 50.235 24.9782 50.0193 25.1541 49.7213 C 25.284 49.5018 25.2977 48.9605 25.2977 44.0414 C 25.2977 39.7224 25.2752 38.6044 25.1889 38.6044 C 25.1292 38.6044 24.4602 39.1233 23.7025 39.7575 C 18.865 43.8067 14.913 48.4554 11.6908 53.8867 C 10.8937 55.2305 9.6145 57.6494 9.6145 57.8132 C 9.6145 57.9197 11.6993 56.8744 19.438 52.8881 Z" fill="#e7a8b4" fill-rule="nonzero" stroke="none" stroke-linecap="butt" stroke-linejoin="miter" stroke-width="2.1778"/>
                    </g>
                    <g transform="translate(0.083 0.0186)">
                        <path d="M 28.1434 95.0043 L 25.2352 92.027 L 25.2352 74.1391 C 25.2352 62.0738 25.2067 56.2513 25.1476 56.2513 C 25.0588 56.2513 17.7333 59.9521 6.409 65.7177 C 2.9979 67.4545 0.1517 68.8891 0.084 68.9058 C -0.0791 68.9461 -0.0167 68.4988 0.3772 66.8024 C 1.5846 61.604 4.0676 55.6485 7.1836 50.4761 C 12.3873 41.8382 19.809 34.5934 28.6695 29.5022 C 29.7583 28.8767 30.9535 28.2456 31.0498 28.2456 C 31.0746 28.2456 31.095 32.3335 31.095 37.3297 C 31.095 42.3258 31.1185 46.4751 31.1473 46.5499 C 31.2239 46.7497 31.3744 46.721 32.0666 46.3753 C 35.3006 44.7602 37.5768 41.7706 38.3451 38.1284 C 38.6058 36.893 38.6058 34.9367 38.3451 33.7013 C 38.0108 32.1175 37.5041 30.8811 36.6563 29.5812 C 35.9177 28.4489 35.646 28.153 28.9408 21.1796 C 21.4805 13.4209 21.4128 13.3437 20.626 11.6827 C 20.0712 10.5114 19.8668 9.5816 19.872 8.2539 C 19.8808 6.0317 20.7022 4.0721 22.2887 2.4877 C 23.8792 0.8991 25.6997 0.0953 27.9065 0.0074 C 30.1161 -0.0807 32.0607 0.612 34.0055 2.1798 C 35.5759 3.4458 36.1871 4.3386 41.8815 13.6827 C 46.8843 21.8915 48.1895 24.08 48.2688 24.3926 C 48.5211 25.3858 48.1193 25.0174 42.1569 18.7887 C 34.8481 11.1534 35.2986 11.6263 33.1896 9.374 C 30.6293 6.6399 30.1123 6.1551 29.4032 5.8225 C 28.2492 5.2816 27.1124 5.5058 26.231 6.4482 C 25.651 7.0683 25.4543 7.5477 25.4547 8.3401 C 25.455 9.2829 25.7084 9.747 26.905 10.9988 C 27.4326 11.5508 30.5011 14.7523 33.7235 18.1132 C 36.9462 21.4741 39.8289 24.5181 40.1297 24.8776 C 42.803 28.0725 44.2415 32.297 44.0785 36.4749 C 43.8981 41.1019 42.0228 45.2797 38.7341 48.3808 C 37.2937 49.7391 35.9877 50.5908 32.9476 52.1539 C 32.0472 52.617 31.2716 53.0322 31.2242 53.0768 C 31.1674 53.1301 31.1234 60.7958 31.095 75.5696 L 31.0518 97.9814 Z M 15.1344 55.0719 C 23.5703 50.7444 24.6534 50.1736 24.9551 49.8971 L 25.2352 49.6406 L 25.2352 44.1132 C 25.2352 39.3356 25.2183 38.5862 25.11 38.5862 C 24.9386 38.5862 23.0678 40.1455 21.4123 41.6682 C 16.8648 45.8509 12.6687 51.4397 9.8013 57.1325 C 9.4337 57.8623 9.4252 57.8885 9.5548 57.8885 C 9.6037 57.8885 12.1145 56.621 15.1344 55.0719 Z" fill="#e297a4" fill-rule="nonzero" stroke="none" stroke-linecap="butt" stroke-linejoin="miter" stroke-width="2.1778"/>
                    </g>
                    <g transform="translate(0.082 0.0051)">
                        <path d="M 28.1876 95.0406 L 25.3224 92.1285 L 25.3224 74.2371 C 25.3224 58.5644 25.3066 56.3395 25.1955 56.2969 C 25.0675 56.2478 20.5419 58.5139 7.2399 65.2876 C 3.2898 67.2991 0.037 68.9237 0.0113 68.898 C -0.1014 68.7853 0.6528 65.5998 1.2378 63.7186 C 3.6031 56.1094 7.7179 48.6435 12.874 42.6066 C 14.2529 40.9925 17.7341 37.5062 19.3332 36.1382 C 21.7289 34.0891 24.1639 32.2981 26.701 30.7191 C 28.4777 29.6134 30.924 28.2495 31.022 28.3099 C 31.0625 28.335 31.0958 32.4613 31.0958 37.4795 C 31.0958 43.6141 31.1247 46.6214 31.184 46.658 C 31.3465 46.7585 31.7598 46.6076 32.5294 46.1664 C 35.5833 44.4161 37.6166 41.6494 38.3435 38.255 C 38.5001 37.5241 38.5374 37.0771 38.5374 35.9284 C 38.5374 33.8013 38.2121 32.4576 37.2426 30.5791 C 36.3919 28.9307 36.2685 28.7903 29.3738 21.6239 C 22.3779 14.3525 21.8712 13.7966 21.0909 12.5336 C 20.1925 11.0793 19.8462 9.7331 19.9181 7.9727 C 19.9716 6.6528 20.1194 6.0187 20.6245 4.9391 C 21.3409 3.408 22.3007 2.2837 23.632 1.4159 C 27.135 -0.8675 31.3483 -0.3605 34.5544 2.7301 C 35.4296 3.5737 36.2406 4.6172 37.2142 6.1521 C 39.2161 9.3085 47.9238 23.6265 48.1694 24.1661 C 48.5512 25.0045 48.2098 25.0329 47.3898 24.2306 C 46.878 23.7298 43.1506 19.8425 36.9995 13.3945 C 36.0953 12.4467 34.537 10.7986 33.5368 9.7323 C 29.9138 5.8696 29.5264 5.5637 28.2522 5.5566 C 27.4708 5.5523 26.8271 5.8147 26.2819 6.3599 C 25.2117 7.43 25.1366 8.9505 26.0948 10.1417 C 26.2757 10.3667 28.0058 12.1989 29.9395 14.2132 C 31.8733 16.2274 34.8701 19.349 36.5993 21.15 C 38.3286 22.951 39.9757 24.7154 40.2596 25.0708 C 42.1943 27.494 43.4348 30.3161 43.9084 33.3731 C 44.1327 34.8209 44.1082 37.271 43.8549 38.7289 C 42.9898 43.7098 40.1668 47.8998 35.8914 50.5492 C 35.4577 50.8181 34.3078 51.4448 33.3363 51.9421 C 32.3646 52.4392 31.4631 52.9199 31.333 53.0101 L 31.0962 53.1741 L 31.0745 75.5635 L 31.0527 97.9527 Z M 15.7891 54.7703 C 23.494 50.8197 24.7179 50.1741 24.9728 49.9264 C 25.1254 49.7779 25.2004 49.5847 25.2456 49.2231 C 25.3209 48.6196 25.3415 38.9816 25.2681 38.7076 C 25.2395 38.6007 25.1833 38.5135 25.1432 38.5135 C 25.1032 38.5135 24.6133 38.8877 24.0546 39.3451 C 18.9059 43.5606 14.5491 48.7067 11.2411 54.4811 C 10.4708 55.8261 9.4668 57.742 9.4668 57.8677 C 9.4668 57.9969 10.1302 57.6718 15.7891 54.7703 Z" fill="#e08e9d" fill-rule="nonzero" stroke="none" stroke-linecap="butt" stroke-linejoin="miter" stroke-width="2.1778"/>
                    </g>
                    <g transform="translate(0.0785 0.0533)">
                        <path d="M 28.2126 95.0127 L 25.3689 92.1448 L 25.3258 74.2033 C 25.2871 58.0665 25.2693 56.2594 25.1488 56.2363 C 25.0189 56.2112 19.8497 58.8076 6.6697 65.5183 C 3.1625 67.3038 0.2254 68.7905 0.1423 68.8215 C -0.0525 68.8949 -0.0503 68.813 0.1674 67.8272 C 1.8178 60.3507 5.3244 52.6789 10.1018 46.0915 C 14.0218 40.6866 19.3852 35.5449 25.0715 31.7413 C 27.1636 30.342 30.6674 28.2971 30.9733 28.2971 C 31.0831 28.2971 31.0992 29.4773 31.0992 37.4651 C 31.0992 45.2847 31.1172 46.6401 31.2211 46.6799 C 31.3766 46.7396 32.3929 46.2533 33.1939 45.7363 C 36.7052 43.4692 38.7557 39.5272 38.5669 35.4062 C 38.4601 33.0747 37.7494 31.0039 36.4173 29.1436 C 35.7911 28.2693 34.8909 27.2905 30.848 23.0883 C 29.209 21.3848 27.3056 19.4059 26.6184 18.6908 C 22.3319 14.2302 21.351 13.0863 20.742 11.8383 C 20.0669 10.4544 19.8507 9.3953 19.9241 7.8314 C 20.0196 5.7908 20.7654 4.0834 22.2144 2.5872 C 23.0353 1.7397 23.7065 1.2558 24.7355 0.7701 C 26.0415 0.1537 26.7743 -0.0046 28.2989 0.0001 C 29.4473 0.0038 29.6777 0.0301 30.3669 0.2369 C 31.9602 0.715 33.2957 1.4899 34.5143 2.6433 C 35.8066 3.8667 36.4963 4.8863 40.8797 12.0538 C 44.5401 18.0386 48.1002 23.9414 48.2146 24.2149 C 48.4794 24.8489 48.2386 24.9493 47.6728 24.4407 C 47.2453 24.0562 38.0044 14.4043 34.4183 10.5965 C 29.8189 5.7126 29.5626 5.5026 28.2126 5.5074 C 27.3799 5.5105 26.867 5.7251 26.27 6.3206 C 25.6571 6.9323 25.4546 7.4261 25.4573 8.3054 C 25.4589 8.9371 25.4922 9.1009 25.6997 9.4984 C 25.9981 10.0698 25.7239 9.7747 33.241 17.6119 C 36.673 21.19 39.7434 24.4279 40.0638 24.8072 C 42.8785 28.1379 44.3838 32.7831 44.0315 37.0524 C 43.6048 42.2221 41.2367 46.5594 37.1652 49.6279 C 36.2641 50.3071 35.2434 50.9069 33.1538 51.9854 C 32.1272 52.5152 31.2451 52.9996 31.1935 53.0618 C 31.1264 53.1423 31.0936 59.5706 31.078 75.5276 L 31.0563 97.8804 Z M 14.613 55.3407 C 23.1757 50.9498 24.581 50.2095 24.9382 49.9012 L 25.2828 49.6037 L 25.3092 44.2321 C 25.3238 41.2775 25.3133 38.7714 25.2859 38.6628 C 25.2586 38.5541 25.1947 38.4652 25.1435 38.4652 C 25.0193 38.4652 23.4761 39.7366 22.0945 40.9779 C 17.2684 45.3126 13.3902 50.3047 10.2118 56.2731 C 9.5617 57.4935 9.373 57.9402 9.5073 57.9402 C 9.5278 57.9402 11.8254 56.7704 14.613 55.3408 Z" fill="#dd8595" fill-rule="nonzero" stroke="none" stroke-linecap="butt" stroke-linejoin="miter" stroke-width="2.1778"/>
                    </g>
                    <g transform="translate(0.083 0.052)">
                        <path d="M 28.1867 94.9707 L 25.3215 92.0332 L 25.3215 74.1307 C 25.3215 62.2236 25.2924 56.2102 25.2347 56.1746 C 25.1566 56.1264 17.9116 59.7687 4.7695 66.4631 C 2.163 67.791 0.0177 68.8417 0.0023 68.7982 C -0.0418 68.6717 0.5608 66.1236 0.9895 64.6245 C 3.1555 57.0507 7.308 49.2566 12.4465 43.1198 C 16.7608 37.9675 21.9984 33.5008 27.7774 30.0458 C 29.2372 29.173 30.8485 28.2983 30.9963 28.2983 C 31.0699 28.2983 31.0949 30.6413 31.0949 37.4784 C 31.0949 45.3665 31.1124 46.665 31.2184 46.7057 C 31.2862 46.7316 31.6543 46.5953 32.0366 46.4027 C 35.3512 44.7312 37.58 41.8502 38.3759 38.2081 C 38.5884 37.2361 38.6386 35.1599 38.4741 34.1569 C 38.1131 31.9561 37.1867 29.9357 35.7878 28.2983 C 35.2261 27.6407 33.1771 25.4808 29.3709 21.5339 C 21.8841 13.7702 21.4388 13.2643 20.6656 11.6466 C 20.212 10.6977 19.9751 9.7485 19.9184 8.6513 C 19.8609 7.5427 19.9797 6.7233 20.3588 5.6127 C 20.7597 4.4378 21.3359 3.517 22.2624 2.5695 C 23.4027 1.4037 24.5216 0.7334 26.1587 0.236 C 26.8237 0.0338 27.0673 0.0052 28.1651 0.0005 C 29.2614 -0.0043 29.515 0.023 30.2332 0.2222 C 31.8233 0.6638 33.2518 1.4715 34.4933 2.6308 C 35.7091 3.7665 36.5224 4.9703 40.8306 12.0119 C 43.8697 16.9794 48.1115 24.0139 48.2244 24.2739 C 48.475 24.8501 48.2481 24.9248 47.7126 24.4423 C 47.2298 24.0072 36.7797 13.0943 33.534 9.6355 C 30.673 6.5867 30.1495 6.0858 29.4727 5.7502 C 28.456 5.2461 27.2309 5.4246 26.3647 6.2037 C 25.1688 7.2786 25.0755 8.9459 26.1415 10.1946 C 26.3552 10.445 29.4925 13.7388 33.1128 17.5138 C 36.7333 21.289 39.9188 24.6491 40.1916 24.9808 C 42.1316 27.3393 43.4609 30.404 43.8957 33.5208 C 44.0697 34.7684 44.0287 37.6747 43.8216 38.7682 C 43.0062 43.0747 40.9333 46.5805 37.6318 49.2369 C 36.5309 50.1226 35.5864 50.6975 33.2062 51.93 C 32.116 52.4944 31.1952 52.9843 31.1598 53.0186 C 31.1245 53.0526 31.0951 63.1706 31.0946 75.5027 C 31.094 87.8348 31.0842 97.921 31.0728 97.9166 C 31.0613 97.9121 29.7625 96.5863 28.1867 94.9707 Z M 15.3175 54.9986 C 21.4556 51.8509 24.3268 50.3596 24.7928 50.077 C 25.3322 49.75 25.3215 49.8747 25.3215 43.9387 C 25.3215 39.2051 25.3055 38.5413 25.1912 38.4976 C 24.9557 38.4072 22.1499 40.8011 20.0915 42.8483 C 16.0492 46.8689 12.7541 51.3609 10.0581 56.5269 C 9.4637 57.6658 9.362 57.9414 9.5367 57.9414 C 9.56 57.9414 12.1613 56.6173 15.3175 54.9987 Z" fill="#d97587" fill-rule="nonzero" stroke="none" stroke-linecap="butt" stroke-linejoin="miter" stroke-width="2.1778"/>
                    </g>
                    <g transform="translate(0.0838 0.0477)">
                        <path d="M 28.0918 94.8358 L 25.3205 91.9958 L 25.3205 74.066 C 25.3205 58.8931 25.3023 56.136 25.2017 56.136 C 25.0885 56.136 20.1492 58.6224 8.474 64.5566 C 5.5356 66.0502 2.4183 67.6411 1.5465 68.0921 C 0.1115 68.8347 -0.0342 68.8928 0.0054 68.7069 C 1.4483 61.9237 4.0053 55.6421 7.7993 49.5602 C 12.1354 42.6094 18.1689 36.412 25.1629 31.7248 C 27.3119 30.2846 30.8434 28.2441 31.0093 28.3465 C 31.0639 28.3803 31.094 31.6424 31.094 37.5306 C 31.094 45.9916 31.1047 46.6666 31.2384 46.7179 C 31.4142 46.7854 32.501 46.2407 33.4608 45.6042 C 34.3465 45.0169 35.6115 43.8059 36.3163 42.8704 C 37.33 41.5249 38.158 39.5877 38.4516 37.8739 C 38.633 36.8158 38.633 34.9556 38.4516 33.8974 C 38.1546 32.1636 37.3875 30.3865 36.3253 28.9714 C 35.6227 28.0355 34.8004 27.1542 29.0264 21.1502 C 23.9897 15.913 23.2504 15.1335 22.4219 14.1861 C 21.1721 12.7575 20.4597 11.4688 20.0906 9.9684 C 19.8728 9.0838 19.8943 7.3571 20.1353 6.3825 C 20.7245 4.0005 22.3416 2.0024 24.5881 0.8809 C 25.1335 0.6086 25.4323 0.4999 26.6993 0.1135 C 26.9504 0.037 27.4971 -0.0029 28.2503 0.0002 C 29.6682 0.006 30.5361 0.2244 31.9988 0.9429 C 33.6011 1.7301 34.8229 2.7966 36.048 4.4779 C 36.9591 5.7279 38.984 8.9943 45.2095 19.2546 C 47.6991 23.3581 48.3283 24.452 48.3283 24.6763 C 48.3283 24.9212 47.8951 24.614 47.0767 23.7887 C 45.6227 22.3223 36.6117 12.8951 33.8858 9.9883 C 30.9895 6.9001 30.1394 6.0736 29.5289 5.7539 C 29.12 5.5396 28.9783 5.5126 28.2503 5.5115 C 27.2568 5.51 26.8376 5.6872 26.1737 6.3892 C 25.5867 7.0097 25.374 7.5078 25.3714 8.2678 C 25.3681 9.1935 25.6869 9.7924 26.8023 10.9567 C 27.2925 11.4683 30.3146 14.6209 33.5181 17.962 C 36.7214 21.3033 39.5709 24.3017 39.8499 24.6249 C 41.8757 26.9704 43.2383 29.8337 43.7738 32.8698 C 43.9985 34.1439 44.0752 36.3278 43.9405 37.618 C 43.511 41.7323 41.5696 45.6485 38.6037 48.3828 C 37.1191 49.7514 36.1117 50.4068 33.045 51.9998 L 31.137 52.9906 L 31.094 75.3019 C 31.0631 91.2814 31.0241 97.622 30.957 97.6444 C 30.9055 97.6617 29.6162 96.3977 28.0918 94.8358 Z M 10.8658 57.3089 C 11.5409 56.9588 14.42 55.4791 17.2637 54.0204 C 23.9171 50.6085 24.8014 50.139 25.062 49.8818 L 25.2775 49.6692 L 25.2775 44.0927 C 25.2775 38.9674 25.266 38.5141 25.1345 38.4888 C 25.0517 38.4729 24.4548 38.9092 23.7127 39.5285 C 18.853 43.584 14.969 48.1155 11.7289 53.5098 C 10.8709 54.9386 9.379 57.6917 9.379 57.8466 C 9.379 58.0376 9.649 57.94 10.8658 57.3089 Z" fill="#d5667a" fill-rule="nonzero" stroke="none" stroke-linecap="butt" stroke-linejoin="miter" stroke-width="2.1778"/>
                    </g>
                    <g transform="translate(0.0486 0.0213)">
                        <path d="M 28.1779 94.8736 L 25.3558 92.047 L 25.3558 74.1046 C 25.3558 57.5242 25.345 56.1625 25.2142 56.1625 C 25.1364 56.1625 23.0717 57.1761 20.6256 58.4146 C 12.3439 62.6088 0.5831 68.5905 0.2907 68.757 L 0 68.9227 L 0.0467 68.7253 C 0.0725 68.6169 0.2107 68.0238 0.3538 67.4073 C 2.1407 59.71 5.7799 52.0045 10.7446 45.4057 C 15.7782 38.7154 22.7877 32.7092 30.1168 28.8071 L 31.043 28.3139 L 31.043 37.4056 C 31.043 42.4059 31.0666 46.5584 31.0953 46.6335 C 31.1789 46.851 31.4686 46.7944 32.2005 46.4175 C 35.5274 44.7044 37.7996 41.6621 38.5019 37.9804 C 38.7285 36.7924 38.7125 34.8612 38.4663 33.6987 C 38.0983 31.9617 37.3652 30.2962 36.3947 28.9934 C 35.77 28.1546 34.7986 27.1124 29.7127 21.8231 C 22.7017 14.5326 22.1511 13.937 21.408 12.8414 C 19.1985 9.5842 19.5706 5.4419 22.3262 2.6209 C 23.4106 1.5104 24.8804 0.6412 26.2175 0.3192 C 26.4781 0.2562 26.7373 0.1708 26.7932 0.1292 C 26.9514 0.0118 28.704 -0.0476 29.2334 0.0465 C 31.2366 0.4027 33.0615 1.3335 34.5402 2.7531 C 36.0027 4.1571 36.5495 5.0016 44.8442 18.6626 C 46.6377 21.616 48.1048 24.0531 48.1048 24.0782 C 48.1048 24.1034 48.1683 24.257 48.2455 24.4199 C 48.6058 25.1794 47.9752 24.7121 46.3634 23.0258 C 45.5914 22.2179 42.8831 19.3873 40.3452 16.7351 C 37.8071 14.0833 34.8542 10.9828 33.7832 9.8454 C 31.4902 7.4103 30.1707 6.1063 29.7434 5.8531 C 29.2748 5.575 28.4166 5.3816 27.9506 5.4488 C 26.9814 5.5887 26.0568 6.2864 25.6296 7.2003 C 25.3082 7.8876 25.3052 8.7812 25.6222 9.4588 C 25.8964 10.0449 25.8234 9.9656 32.937 17.3853 C 39.6066 24.3419 39.9273 24.6823 40.4543 25.368 C 42.9068 28.5576 44.1908 32.5662 44.025 36.5153 C 43.7834 42.263 40.9728 47.1778 36.1273 50.326 C 35.7244 50.5877 34.4838 51.2735 33.3707 51.85 C 32.2574 52.4266 31.2784 52.9602 31.1951 53.0356 C 31.0512 53.1658 31.0422 54.3114 31.0218 75.4367 L 31 97.7007 Z M 15.3599 55.0691 C 24.0171 50.631 24.7664 50.233 25.0762 49.9084 L 25.3571 49.6146 L 25.3348 44.0417 C 25.3185 39.9636 25.2863 38.4601 25.2144 38.436 C 25.1605 38.418 24.6381 38.7948 24.054 39.2736 C 18.2713 44.0117 13.5806 49.7897 10.0925 56.4714 C 9.3978 57.8021 9.2879 58.1246 9.5649 58.0196 C 9.6479 57.9882 12.2555 56.6602 15.3599 55.0691 Z" fill="#d25b70" fill-rule="nonzero" stroke="none" stroke-linecap="butt" stroke-linejoin="miter" stroke-width="2.1778"/>
                    </g>
                    <g transform="translate(0.0765 0.031)">
                        <path d="M 28.193 94.9069 L 25.4141 92.123 L 25.4141 74.2615 C 25.4141 61.8182 25.3862 56.348 25.3225 56.2287 C 25.2365 56.0683 24.8864 56.2317 19.5706 58.9175 C 16.4573 60.4902 10.8381 63.3424 7.0834 65.2553 C 3.3285 67.1686 0.22 68.7335 0.1752 68.7335 C 0.1305 68.7335 0.0744 68.782 0.0505 68.8413 C 0.0247 68.9053 0.0042 68.8872 0.0003 68.797 C -0.0035 68.7133 0.0301 68.5777 0.0748 68.4955 C 0.1198 68.4132 0.2596 67.861 0.3861 67.2687 C 1.1549 63.665 2.7441 59.2401 4.7188 55.2048 C 10.153 44.0996 18.6133 35.2127 29.5621 29.1086 C 30.256 28.7218 30.8667 28.4055 30.9194 28.4055 C 30.9891 28.4055 31.0151 30.8972 31.0151 37.5366 C 31.0151 48.0879 30.9061 47.0451 31.9558 46.5423 C 35.3407 44.9199 37.726 41.7991 38.4825 38.0026 C 38.7091 36.8656 38.6884 34.7646 38.4392 33.5987 C 38.014 31.6085 37.0588 29.6851 35.7536 28.1899 C 35.1605 27.5108 33.1773 25.425 29.1586 21.2532 C 22.0458 13.8702 21.4774 13.2262 20.7621 11.741 C 20.2552 10.6883 20.0637 9.9126 20.009 8.6928 C 19.9371 7.0843 20.1719 5.9601 20.868 4.5791 C 21.4173 3.4892 22.514 2.2405 23.5447 1.5314 C 24.1558 1.111 25.4208 0.5254 26.0719 0.3616 C 26.3972 0.2797 26.7265 0.1799 26.8036 0.1399 C 27.041 0.0164 28.5305 -0.0477 29.0763 0.0419 C 31.114 0.3768 32.9653 1.2909 34.4673 2.7039 C 35.7883 3.9468 36.7075 5.3432 42.8204 15.3936 C 47.9486 23.8246 48.3356 24.4786 48.3356 24.7134 C 48.3356 24.8126 48.0656 24.6971 47.8171 24.4916 C 47.4878 24.2196 37.6857 13.9943 33.9742 10.0509 C 29.9671 5.7937 29.5313 5.4425 28.2558 5.4415 C 27.6966 5.4409 27.5287 5.4796 27.0324 5.7241 C 26.3958 6.0373 25.8861 6.5491 25.5689 7.1933 C 25.409 7.5178 25.3712 7.736 25.3721 8.3274 C 25.3732 8.9603 25.4059 9.1222 25.6131 9.5176 C 25.9193 10.1017 25.7753 9.9461 32.6503 17.1169 C 39.7569 24.5293 39.9221 24.7055 40.5276 25.5099 C 45.2949 31.8442 45.1377 40.6193 40.1475 46.7169 C 39.5379 47.4618 38.3105 48.6716 37.5641 49.2631 C 36.4285 50.1631 35.0418 50.9853 32.4368 52.3035 C 31.8208 52.6152 31.2585 52.9094 31.1875 52.9572 C 31.0733 53.0339 31.0532 55.6528 31.0151 75.3673 L 30.972 97.6908 Z M 15.2508 55.1132 C 23.4958 50.8862 24.8126 50.1917 25.071 49.9335 C 25.3967 49.6076 25.4127 49.3141 25.4135 43.6096 C 25.414 39.6403 25.3919 38.6625 25.2987 38.5352 C 25.2354 38.4484 25.1407 38.3925 25.0881 38.411 C 24.7875 38.5163 21.9299 41.0244 20.3869 42.5375 C 17.8287 45.0459 16.0407 47.1258 14.0906 49.862 C 12.5218 52.063 10.9734 54.6157 9.8707 56.819 C 9.4064 57.7465 9.3044 58.0484 9.4558 58.0484 C 9.494 58.0484 12.1017 56.7275 15.2508 55.1132 Z" fill="#d0556b" fill-rule="nonzero" stroke="none" stroke-linecap="butt" stroke-linejoin="miter" stroke-width="2.1778"/>
                    </g>
                    <g transform="translate(0.0713 0.0447)">
                        <path d="M 28.1413 94.813 L 25.4193 92.0386 L 25.4193 74.182 C 25.4193 64.3611 25.3958 56.2642 25.3671 56.1891 C 25.3383 56.1142 25.2787 56.0528 25.2348 56.0528 C 25.1577 56.0528 19.4132 58.9545 6.3324 65.601 C 2.9199 67.3348 0.0996 68.7943 0.0646 68.8445 C 0.0267 68.8989 0.0009 68.8773 0 68.7898 C -0.0006 68.7097 0.0332 68.6229 0.075 68.5968 C 0.1169 68.5711 0.1787 68.3651 0.212 68.1394 C 0.4423 66.5864 1.7067 62.3684 2.7116 59.8014 C 5.7371 52.0737 10.1985 45.2001 15.9405 39.4206 C 19.6054 35.7321 23.5633 32.6373 27.9183 30.0553 C 29.1142 29.3462 30.8612 28.3919 30.9631 28.3919 C 30.9945 28.3919 31.0205 32.4975 31.0205 37.5155 C 31.0205 45.6338 31.0351 46.6513 31.1535 46.7495 C 31.348 46.9109 32.8626 46.1355 33.9441 45.3206 C 39.2816 41.3001 40.256 33.7621 36.1079 28.5813 C 35.5246 27.8531 34.0691 26.3083 29.5547 21.6274 C 22.1419 13.9408 21.5866 13.3155 20.8325 11.8038 C 20.2399 10.6155 19.9897 9.5539 19.9917 8.2335 C 19.996 5.1753 21.7816 2.3439 24.6007 0.9252 C 25.1489 0.6493 26.4395 0.2138 26.7092 0.2138 C 26.7977 0.2138 26.8854 0.1676 26.9043 0.111 C 26.9501 -0.0267 29.2723 -0.041 29.5639 0.0947 C 29.6778 0.1476 30.08 0.2764 30.4576 0.3808 C 32.5697 0.9647 34.4913 2.3935 36.0376 4.5294 C 36.7892 5.5676 38.7642 8.7307 42.6244 15.0783 C 47.6594 23.358 48.1124 24.1153 48.1505 24.3146 C 48.1715 24.4244 48.2228 24.5142 48.2648 24.5142 C 48.3067 24.5142 48.3379 24.5822 48.3341 24.6649 C 48.3299 24.756 48.31 24.7728 48.2837 24.7075 C 48.2598 24.648 48.2017 24.6228 48.1548 24.6519 C 48.108 24.681 47.9703 24.6131 47.8491 24.5017 C 47.4324 24.1186 36.3117 12.4931 33.7234 9.735 C 30.7538 6.5703 30.1911 6.0313 29.4969 5.6849 C 29.0646 5.4693 28.8943 5.4342 28.2629 5.431 C 27.6329 5.4277 27.4628 5.4606 27.0457 5.6652 C 26.4985 5.934 25.8749 6.5539 25.5854 7.1169 C 25.4517 7.3768 25.3791 7.6976 25.3535 8.1416 C 25.3082 8.9288 25.5056 9.5315 26.0078 10.1386 C 26.1911 10.3601 29.3094 13.6367 32.9377 17.42 C 36.5658 21.2034 39.7781 24.5896 40.0762 24.9451 C 42.8323 28.2326 44.293 32.8166 43.9479 37.0952 C 43.6035 41.3623 41.8331 45.196 38.8917 48.0442 C 37.3185 49.5676 36.3174 50.2462 33.4333 51.7442 C 32.3195 52.3227 31.321 52.8511 31.2144 52.9185 L 31.0205 53.0409 L 31.0205 75.3141 C 31.0205 88.7029 30.9891 97.5874 30.9417 97.5874 C 30.8984 97.5874 29.6383 96.3389 28.1413 94.813 Z M 15.148 55.1751 C 22.733 51.2843 24.728 50.2394 25.0195 50.0046 C 25.2047 49.8557 25.2858 49.6951 25.3386 49.3744 C 25.4194 48.88 25.4464 38.7303 25.3671 38.524 C 25.2779 38.2917 25.0731 38.3699 24.4378 38.8788 C 18.725 43.4564 13.946 49.2018 10.4034 55.7513 C 9.306 57.7802 9.204 58.0348 9.4873 58.0348 C 9.5345 58.0348 12.0818 56.7478 15.148 55.1751 Z" fill="#ce4b62" fill-rule="nonzero" stroke="none" stroke-linecap="butt" stroke-linejoin="miter" stroke-width="2.1778"/>
                    </g>
                    <g transform="translate(0.0764 0.0234)">
                        <path d="M 28.1502 94.813 L 25.4142 92.0251 L 25.4142 74.09 C 25.4142 58.3865 25.3984 56.1488 25.2876 56.1062 C 25.1613 56.0578 20.2428 58.5198 7.232 65.1443 C 3.5117 67.0385 0.3943 68.6272 0.3044 68.6746 C 0.1516 68.7551 0.1448 68.7335 0.1982 68.3307 C 0.2296 68.0943 0.3917 67.3435 0.5587 66.6623 C 2.7671 57.6467 7.5466 48.6781 13.9161 41.5974 C 15.0408 40.3472 17.6622 37.7475 18.9083 36.6468 C 20.8785 34.9062 23.4596 32.9426 25.7158 31.4682 C 27.3273 30.4149 30.7629 28.4131 30.9591 28.4131 C 30.9897 28.4131 31.0244 32.5521 31.0364 37.6107 C 31.0617 48.1279 30.955 47.0596 31.9331 46.6018 C 34.2134 45.5347 36.5547 43.1847 37.5792 40.9347 C 38.388 39.1582 38.6393 37.9668 38.6393 35.91 C 38.6393 33.6823 38.3455 32.4412 37.3649 30.5255 C 36.528 28.8909 36.2529 28.5776 29.38 21.4333 C 24.702 16.5704 23.377 15.1783 22.6134 14.3242 C 21.3643 12.9268 20.609 11.6296 20.2299 10.231 C 19.9551 9.2171 19.9549 7.3362 20.2294 6.3101 C 20.4845 5.3573 21.1819 3.984 21.8025 3.2124 C 22.9481 1.7883 24.7511 0.658 26.4302 0.3111 C 26.7193 0.2515 26.939 0.1762 26.9188 0.1437 C 26.8988 0.1112 27.1954 0.0574 27.578 0.0241 C 28.3557 -0.0438 29.5736 0.0417 29.5012 0.159 C 29.4753 0.2008 29.5513 0.2351 29.6702 0.2351 C 30.0135 0.2351 31.2573 0.6526 31.9748 1.0088 C 33.4525 1.7422 34.7903 2.9124 35.9672 4.5005 C 36.7254 5.5235 38.6706 8.6385 43.1245 15.9613 C 47.4465 23.0673 48.1634 24.2832 48.1634 24.5048 C 48.1634 24.8905 48.6984 25.4264 39.6832 16.0094 C 37.9338 14.182 35.4285 11.5429 34.1157 10.1448 C 29.8827 5.6365 29.6456 5.4478 28.2147 5.4493 C 27.5416 5.45 27.3813 5.4805 27.001 5.6805 C 26.452 5.9692 25.8221 6.6014 25.5666 7.1198 C 25.4047 7.4487 25.3714 7.6566 25.3724 8.3352 C 25.3735 9.0613 25.4006 9.2053 25.6124 9.6093 C 25.8865 10.1324 25.5872 9.8113 33.299 17.8572 C 36.5243 21.2221 39.3385 24.1692 39.5525 24.4061 C 41.8516 26.9502 43.2896 30.0343 43.8117 33.5403 C 43.9814 34.6802 43.9788 37.0124 43.8062 38.2494 C 43.142 43.0119 40.5057 47.2759 36.5734 49.9477 C 35.6187 50.5966 34.4088 51.2773 32.6525 52.1538 C 32.0128 52.4732 31.3827 52.8099 31.2523 52.9022 L 31.0153 53.0698 L 31.0153 75.3392 C 31.0153 87.5875 30.9863 97.6069 30.9507 97.6047 C 30.9152 97.6027 29.6549 96.3464 28.1502 94.813 Z M 13.8242 55.8945 C 19.1383 53.1755 23.8638 50.7314 24.5194 50.363 C 24.7966 50.2071 25.1114 49.9489 25.2188 49.7895 L 25.4142 49.4996 L 25.4142 44.0907 C 25.4142 41.1157 25.3906 38.6203 25.3619 38.5454 C 25.255 38.2669 24.9568 38.4347 23.7078 39.4748 C 18.5939 43.7337 14.4016 48.7125 11.1594 54.3772 C 10.3104 55.8609 9.3002 57.8122 9.3002 57.9687 C 9.3002 58.0168 9.368 58.0559 9.4511 58.0554 C 9.5339 58.0551 11.5019 57.0826 13.8242 55.8946 Z M 0.0004 68.7773 C 0.0046 68.6768 0.0251 68.6564 0.0526 68.7252 C 0.0774 68.7873 0.0744 68.8616 0.0457 68.8903 C 0.0171 68.9189 -0.0032 68.8681 0.0004 68.7773 Z M 48.2564 24.6575 C 48.2606 24.5571 48.281 24.5367 48.3085 24.6054 C 48.3334 24.6676 48.3303 24.7419 48.3018 24.7706 C 48.273 24.7992 48.2527 24.7483 48.2564 24.6575 Z" fill="#cb425b" fill-rule="nonzero" stroke="none" stroke-linecap="butt" stroke-linejoin="miter" stroke-width="2.1778"/>
                    </g>
                    <g transform="translate(0.0765 0.0245)">
                        <path d="M 28.1483 94.7823 L 25.4142 92.0434 L 25.4142 56.0729 L 25.2388 56.0729 C 25.0731 56.0729 20.3717 58.4365 6.3448 65.5717 C 2.9894 67.2784 0.2232 68.6539 0.1975 68.6281 C 0.0665 68.4972 0.9862 64.9122 1.7161 62.7082 C 3.7657 56.5204 6.8595 50.6284 10.8104 45.3877 C 15.0654 39.7439 20.6443 34.6506 26.7499 30.8354 C 28.2947 29.87 30.7324 28.4982 30.903 28.4982 C 30.9934 28.4982 31.0186 30.2325 31.0363 37.6539 L 31.0585 46.8095 L 31.2443 46.8361 C 31.3466 46.8506 31.7538 46.7003 32.1491 46.502 C 35.5044 44.8186 37.9349 41.5505 38.5482 37.8972 C 38.723 36.8558 38.7251 34.9598 38.5524 33.9599 C 38.1984 31.9089 37.2618 29.8919 35.9378 28.3293 C 35.3699 27.6592 33.1315 25.2964 29.2022 21.2192 C 21.8849 13.6264 21.5923 13.2935 20.7941 11.6517 C 20.2079 10.4458 20.0475 9.7233 20.0475 8.2909 C 20.0475 6.9422 20.1869 6.2516 20.6992 5.0671 C 21.6734 2.8137 23.8372 0.9886 26.2614 0.3759 C 26.6956 0.2661 27.0304 0.1556 27.0052 0.1303 C 26.9799 0.1049 27.2338 0.0574 27.5693 0.0243 C 28.2867 -0.0463 29.6229 0.0488 29.4502 0.1583 C 29.3687 0.2099 29.3965 0.2317 29.5448 0.2326 C 29.9107 0.2349 31.0334 0.5836 31.7549 0.9194 C 33.3092 1.6422 34.6695 2.7947 35.8741 4.4089 C 36.8005 5.6501 39.6064 10.1861 47.1511 22.6385 C 48.2869 24.5132 48.4524 25.0148 47.7125 24.3404 C 47.5435 24.1864 45.5708 22.1409 43.3288 19.7948 C 41.0868 17.4488 38.4736 14.7151 37.5219 13.7198 C 36.5701 12.7245 34.9336 10.9989 33.8853 9.8851 C 30.0043 5.7621 29.6538 5.4774 28.387 5.4205 C 27.4548 5.3783 26.8717 5.5954 26.2278 6.2239 C 25.4025 7.0297 25.0923 8.031 25.3699 8.9926 C 25.6456 9.9484 25.0454 9.2717 32.7371 17.2959 C 35.9399 20.6371 38.8711 23.7028 39.2509 24.1085 C 41.6617 26.6825 43.0957 29.5635 43.7311 33.1083 C 43.9176 34.1491 43.9872 36.5026 43.8645 37.6241 C 43.2889 42.8877 40.5429 47.3479 36.0994 50.2368 C 35.6967 50.4986 34.3974 51.2179 33.2127 51.8351 L 31.0585 52.9573 L 31.0366 75.2394 C 31.0247 87.4945 30.9852 97.5214 30.9487 97.5214 C 30.9124 97.5214 29.652 96.2888 28.1483 94.7823 Z M 14.8867 55.3724 C 21.8596 51.7973 24.5303 50.4093 24.8674 50.186 C 25.4413 49.8055 25.4142 50.1123 25.4142 44.0345 C 25.4142 38.5622 25.4025 38.3217 25.1417 38.3217 C 25.1054 38.3217 24.6189 38.6964 24.0603 39.1542 C 19.7084 42.7207 15.8662 46.9726 12.8984 51.5059 C 11.2571 54.0133 9.2171 57.7145 9.3235 57.992 C 9.3551 58.074 9.4045 58.1411 9.4338 58.1411 C 9.4629 58.1411 11.9167 56.8951 14.8867 55.3724 Z M 0.0004 68.7761 C 0.0046 68.6757 0.0251 68.6552 0.0526 68.724 C 0.0774 68.7862 0.0744 68.8605 0.0457 68.8892 C 0.0171 68.9178 -0.0032 68.867 0.0004 68.7761 Z" fill="#c93953" fill-rule="nonzero" stroke="none" stroke-linecap="butt" stroke-linejoin="miter" stroke-width="2.1778"/>
                    </g>
                    <g transform="translate(0.0764 0.0261)">
                        <path d="M 28.1933 94.7817 L 25.5003 92.0239 L 25.5003 74.2256 C 25.5003 62.5596 25.4706 56.3493 25.4142 56.2005 C 25.3476 56.0253 25.2885 55.9862 25.1538 56.0291 C 24.9609 56.0903 16.4962 60.3705 6.6382 65.3915 C 3.1123 67.1873 0.2159 68.6451 0.2018 68.631 C 0.1876 68.6168 0.2666 68.178 0.3772 67.6559 C 1.784 61.0132 5.1899 53.4076 9.5618 47.1451 C 14.255 40.4227 20.6374 34.5016 27.8271 30.1998 C 28.8777 29.5713 30.8096 28.4966 30.8893 28.4966 C 30.9112 28.4966 30.9291 32.5651 30.9291 37.5377 C 30.9291 42.51 30.9527 46.6399 30.9815 46.7148 C 31.1987 47.2806 33.6013 45.9043 35.2496 44.2702 C 39.5421 40.0147 39.9294 33.2625 36.1507 28.5504 C 35.5592 27.8124 34.2304 26.403 29.033 20.9997 C 23.7571 15.5153 23.0199 14.7349 22.2728 13.8423 C 20.704 11.9683 20.0734 10.3849 20.0722 8.3166 C 20.0713 6.83 20.3372 5.7552 21.0255 4.4636 C 21.7956 3.018 23.0336 1.8342 24.5956 1.0492 C 25.4704 0.6096 26.5912 0.2446 27.13 0.2238 L 27.353 0.2152 L 27.1376 0.1528 C 26.7862 0.0501 28.1394 -0.0485 28.8715 0.0262 C 29.3455 0.0745 29.4526 0.1067 29.2919 0.1531 C 29.0854 0.2127 29.0875 0.2157 29.3404 0.2238 C 29.8308 0.2399 30.9679 0.5868 31.7679 0.9647 C 33.3585 1.7157 34.6498 2.8083 35.8605 4.427 C 36.5978 5.4126 38.8966 9.0934 43.2247 16.2172 C 48.1475 24.3206 48.3203 24.619 48.0904 24.619 C 48.0438 24.619 45.4348 21.9337 42.2927 18.6516 C 34.7834 10.8076 35.3538 11.4064 33.2842 9.1943 C 30.8662 6.6095 30.1781 5.9623 29.5215 5.6559 C 28.2449 5.0604 27.016 5.3181 26.0314 6.388 C 25.5486 6.9127 25.3117 7.4588 25.2634 8.1589 C 25.22 8.7894 25.4111 9.4276 25.8266 10.0386 C 25.9553 10.2277 29.05 13.4985 32.7039 17.3069 C 36.3577 21.1152 39.5683 24.4833 39.8383 24.7912 C 40.9249 26.031 42.0759 27.9408 42.7256 29.5824 C 45.2811 36.0386 43.627 43.5381 38.6083 48.2496 C 37.159 49.61 35.9296 50.4114 32.8902 51.9767 C 31.9072 52.4829 31.0735 52.9426 31.0376 52.9978 C 31.0016 53.0533 30.953 63.098 30.9291 75.3193 L 30.8862 97.5398 Z M 14.2712 55.7178 C 21.0359 52.249 24.4618 50.472 24.8304 50.2412 C 25.4954 49.8247 25.4541 50.2014 25.4848 44.2615 C 25.4997 41.3397 25.4778 38.8174 25.4362 38.6564 C 25.3925 38.4883 25.2971 38.3514 25.2118 38.3349 C 24.9095 38.2767 22.0545 40.7285 19.8123 42.9718 C 15.7334 47.0529 12.2864 51.8338 9.6042 57.1309 C 9.2087 57.9118 9.1691 58.1396 9.4292 58.1396 C 9.4944 58.1396 11.6734 57.0497 14.2712 55.7178 Z M 0.0003 68.7746 C 0.0046 68.6743 0.0251 68.6539 0.0526 68.7227 C 0.0774 68.7847 0.0744 68.8591 0.0457 68.8877 C 0.0171 68.9164 -0.0032 68.8654 0.0004 68.7746 Z" fill="#c7324d" fill-rule="nonzero" stroke="none" stroke-linecap="butt" stroke-linejoin="miter" stroke-width="2.1778"/>
                    </g>
                    <g transform="translate(0.0763 0.0315)">
                        <path d="M 28.1934 94.714 L 25.5009 91.9718 L 25.479 73.9974 L 25.4574 56.0231 L 25.2816 55.9979 C 25.1118 55.9737 20.2641 58.4034 6.6376 65.3427 C 3.1587 67.1142 0.2923 68.5437 0.2681 68.5193 C 0.2436 68.495 0.3109 68.0776 0.4175 67.5916 C 2.2495 59.2363 6.9195 49.94 12.7289 43.0847 C 17.6438 37.2854 23.4989 32.5315 30.2614 28.8503 L 30.9292 28.4868 L 30.9292 46.8425 L 31.145 46.8967 C 31.7023 47.0366 33.9816 45.6106 35.284 44.3073 C 36.6539 42.9365 37.5495 41.4812 38.1695 39.6179 C 39.3022 36.2148 38.7947 32.3654 36.8202 29.3827 C 36.125 28.3325 35.3297 27.4674 29.4258 21.3391 C 22.9793 14.6478 22.2912 13.9028 21.5299 12.7913 C 20.9461 11.9391 20.5736 11.1585 20.3042 10.223 C 20.0304 9.2717 20.0356 7.2823 20.3142 6.3022 C 20.8571 4.3939 22.1244 2.6347 23.7191 1.5763 C 24.7494 0.8926 26.4439 0.2492 27.3047 0.2148 L 27.6117 0.2027 L 27.267 0.1457 C 26.6676 0.0467 28.2945 -0.0578 28.9472 0.0376 C 29.4385 0.1096 29.4649 0.1223 29.1627 0.1409 C 28.8487 0.1601 28.864 0.1685 29.3352 0.2357 C 31.7645 0.5825 34.1382 2.1445 35.9224 4.5708 C 36.7374 5.6793 43.9543 17.3876 47.5882 23.4972 C 48.1418 24.4279 48.212 24.6863 47.8083 24.3066 C 47.2974 23.826 36.2956 12.3258 33.6715 9.5295 C 30.6594 6.3191 30.3192 5.9969 29.5506 5.6253 C 29.0484 5.3823 28.91 5.3545 28.2148 5.3561 C 27.2511 5.3581 26.7979 5.5532 26.0908 6.2694 C 25.4274 6.9418 25.2116 7.5111 25.262 8.4564 C 25.3028 9.2246 25.5138 9.7407 26.0473 10.3795 C 26.2134 10.5784 28.9994 13.5037 32.2383 16.8803 C 35.4772 20.2567 38.5314 23.4461 39.0251 23.9674 C 41.4028 26.477 42.8756 29.2446 43.5638 32.4953 C 43.8645 33.9162 43.9477 36.7404 43.7326 38.2286 C 43.2885 41.2999 41.9894 44.274 40.0626 46.6304 C 39.3244 47.5331 37.7933 48.9684 36.8722 49.6214 C 35.7766 50.398 35.2963 50.6763 32.9644 51.8869 L 30.9724 52.921 L 30.9292 75.1886 L 30.8862 97.4563 Z M 14.3785 55.7018 C 20.222 52.706 24.1145 50.6929 24.694 50.3674 C 25.5165 49.9052 25.4541 50.3964 25.4821 44.1746 C 25.4957 41.165 25.4854 38.6153 25.4589 38.5088 C 25.3737 38.1641 25.0305 38.2658 24.3089 38.85 C 18.201 43.7937 13.596 49.4486 9.7878 56.6817 C 9.1198 57.9507 9.0508 58.3112 9.5035 58.1676 C 9.5985 58.1374 11.7922 57.0278 14.3784 55.7018 Z M 0.0004 68.7693 C 0.0046 68.6688 0.0251 68.6484 0.0526 68.7173 C 0.0774 68.7794 0.0744 68.8536 0.0457 68.8822 C 0.0171 68.911 -0.0032 68.8602 0.0004 68.7693 Z" fill="#c62b47" fill-rule="nonzero" stroke="none" stroke-linecap="butt" stroke-linejoin="miter" stroke-width="2.1778"/>
                    </g>
                </g>
            </g>
            <g class="l0rzlnx25sa.lay" v:layer_name="Collect Layer">
                <rect fill="none" fill-opacity="0" height="100" stroke="none" stroke-opacity="0" stroke-width="1" width="100" x="0" y="0"/>
            </g>
        </g>
    </g>
</svg>