<svg xmlns="http://www.w3.org/2000/svg" width="100" height="100" stroke="none" stroke-linecap="round" stroke-linejoin="round" fill="#fff" fill-rule="nonzero">
    <path d="M74.3043 25c-8.5741 0-16.4723 4.8238-24.1055 13.2521C42.6981 29.6912 34.6674 25 25.6957 25 10.8402 25 0 35.6016 0 49.8741s10.8402 24.7416 25.6957 24.7416c9.1307 0 16.2073-4.2804 24.1055-12.8147 7.6332 8.5608 15.3989 12.8412 24.5031 12.8412C89.1598 74.6157 100 64.1863 100 49.8741S89.1598 25 74.3043 25zM25.8017 59.6409c-6.2947 0-10.045-4.1479-10.045-9.6343s3.7503-9.7535 10.045-9.7535c5.3009 0 9.6343 4.2672 14.3255 10.0186-4.4262 5.3538-9.1041 9.3692-14.3255 9.3692zm48.052 0c-5.2213 0-9.6342-4.1479-14.3255-9.6343 4.8238-5.7514 8.9717-9.7535 14.3255-9.7535 6.2947 0 10.0053 4.3202 10.0053 9.7535s-3.7106 9.6343-10.0053 9.6343z" fill="#484848"/>
    <path d="M60.9859 71.0774l9.9921-11.9268c-3.9757-1.1927-7.6465-4.7708-11.4498-9.2102l-9.727 11.8606a43.71 43.71 0 0 0 11.1847 9.2764zM50.1988 38.2388c-3.1633-3.7477-6.9202-6.9534-11.1185-9.4885L29.075 40.8097c3.8034 1.3252 7.1694 4.7442 10.7474 9.1041l.3976.2783 9.9788-11.9533z" fill="#20a7c9"/>
</svg>