<svg xmlns="http://www.w3.org/2000/svg" width="101" height="101" stroke="#000" stroke-linecap="round" stroke-linejoin="round" fill="#fff" fill-rule="evenodd">
    <defs>
        <mask id="A" maskUnits="userSpaceOnUse" x="200" y="0" width="1200" height="1600" mask-type="alpha">
            <path d="M1333.25 0c36.86 0 66.75 29.885 66.75 66.75v1466.5c0 36.86-29.89 66.75-66.75 66.75H266.667c-36.819 0-66.667-29.85-66.667-66.67V866.667C200 829.848 229.848 800 266.667 800H525V466.667C525 429.848 554.848 400 591.667 400H850V66.75C850 29.885 879.885 0 916.75 0h416.5z" fill="#fff"/>
        </mask>
        <linearGradient id="B" x1="758.333" y1="0" x2="1447.82" y2="1507.15" gradientUnits="userSpaceOnUse">
            <stop stop-color="#e6ad10"/>
            <stop offset="1" stop-color="#c87e0e"/>
        </linearGradient>
        <filter id="C" x="391.667" y="300" width="816.667" height="1466.67" filterUnits="userSpaceOnUse" color-interpolation-filters="sRGB">
            <feFlood flood-opacity="0" result="A"/>
            <feColorMatrix in="SourceAlpha" values="0 0 0 0 0 0 0 0 0 0 0 0 0 0 0 0 0 0 127 0"/>
            <feOffset dy="6.333"/>
            <feGaussianBlur stdDeviation="6.333"/>
            <feColorMatrix values="0 0 0 0 0 0 0 0 0 0 0 0 0 0 0 0 0 0 0.2 0"/>
            <feBlend in2="A" result="C"/>
            <feColorMatrix in="SourceAlpha" values="0 0 0 0 0 0 0 0 0 0 0 0 0 0 0 0 0 0 127 0"/>
            <feOffset dy="33.333"/>
            <feGaussianBlur stdDeviation="66.667"/>
            <feColorMatrix values="0 0 0 0 0 0 0 0 0 0 0 0 0 0 0 0 0 0 0.18 0"/>
            <feBlend in2="C"/>
            <feBlend in="SourceGraphic"/>
        </filter>
        <linearGradient id="D" x1="524.955" y1="400" x2="1105.79" y2="1561.67" gradientUnits="userSpaceOnUse">
            <stop stop-color="#f6d751"/>
            <stop offset="1" stop-color="#e6ad10"/>
        </linearGradient>
        <linearGradient id="E" x1="199.955" y1="800" x2="519.784" y2="1581.68" gradientUnits="userSpaceOnUse">
            <stop stop-color="#f9e589"/>
            <stop offset="1" stop-color="#f6d751"/>
        </linearGradient>
    </defs>
    <g transform="translate(.5 .5)">
        <svg height="100" viewBox="0 0 1600 1600" width="100">
            <g mask="url(#A)" stroke="none" fill="#000">
                <path d="M1400 66.75v1466.5c0 36.86-29.89 66.75-66.75 66.75h-416.5c-36.865 0-66.75-29.89-66.75-66.75V66.75C850 29.885 879.885 0 916.75 0h416.5c36.87 0 66.75 29.885 66.75 66.75z" fill="url(#B)"/>
                <g filter="url(#C)">
                    <path d="M1075 466.667V1600H525V466.667C525 429.848 554.848 400 591.667 400h416.663c36.82 0 66.67 29.848 66.67 66.667z" fill="url(#D)"/>
                </g>
                <path d="M200 866.667v666.663c0 36.82 29.848 66.67 66.667 66.67H750V866.667C750 829.848 720.152 800 683.333 800H266.667C229.848 800 200 829.848 200 866.667z" fill="url(#E)"/>
            </g>
        </svg>
    </g>
</svg>