<svg xmlns="http://www.w3.org/2000/svg" width="100" height="100" stroke="#000" stroke-linecap="round" stroke-linejoin="round" fill="#fff" fill-rule="evenodd">
    <style>
        <![CDATA[.B{stroke:none}.C{fill-rule:nonzero}]]>
    </style>
    <g class="B C">
        <path d="M2.5803 98.609l46.9205-48.0972c.294-.3013.3503-.7671.1052-1.1093-2.8542-3.9841-8.1181-4.6747-10.0694-7.3513-5.7801-7.9289-7.2467-12.4167-9.7304-12.1384-.1735.0195-.3282.1129-.4501.2378L12.4059 47.5258C2.6548 57.5214 1.2564 79.5291 1 97.9572c-.0116.8327.9987 1.2476 1.5803.6518z" fill="#017cee"/>
        <path d="M98.6097 97.4201L50.5126 50.4993c-.3013-.2939-.7672-.3503-1.1094-.1051-3.984 2.8543-4.6746 8.118-7.3513 10.0694-7.9289 5.7799-12.4167 7.2467-12.1384 9.7305.0195.1736.1129.3282.2379.4498l17.3751 16.9504C57.5221 97.3454 79.5298 98.7437 97.9579 99c.8327.0119 1.2476-.9982.6518-1.5799z" fill="#00ad46"/>
    </g>
    <path d="M47.5263 87.5942c-5.4601-5.3261-7.9933-15.8637 2.4743-37.5938-17.012 7.6025-22.9735 17.5962-20.0408 20.4573l17.5665 17.1365z" fill="#04d659" class="B"/>
    <path d="M97.4197 1.3917L50.4992 49.4888c-.2939.3013-.3502.7671-.1051 1.1092 2.8542 3.9842 8.1183 4.6747 10.0691 7.3515 5.7804 7.9287 7.2472 12.4164 9.7305 12.1385.1735-.0194.3282-.113.4503-.238l16.9499-17.3753c9.7516-9.9956 11.15-32.0031 11.4062-50.4314.0114-.8327-.9988-1.2477-1.5804-.6516z" fill="#00c7d4" class="B C"/>
    <path d="M87.5944 52.4747C82.2677 57.9345 71.7301 60.4681 50 50.0004c7.6025 17.0118 17.5962 22.9737 20.4573 20.0407l17.1371-17.5664z" fill="#11e1ee" class="B"/>
    <path d="M1.3916 2.5804l48.0971 46.9205c.3013.294.7671.3504 1.1093.1052 3.9841-2.8542 4.6746-8.118 7.3511-10.0693 7.9293-5.7801 12.4169-7.2467 12.1385-9.7305-.0194-.1735-.1131-.3281-.2374-.45L52.4747 12.4061C42.479 2.6549 20.4714 1.2565 2.0432 1.0001c-.8327-.0116-1.2477.9987-.6516 1.5803z" fill="#e43921" class="B C"/>
    <path d="M52.4743 12.4058c5.4598 5.3265 7.9934 15.8638-2.4743 37.594 17.0118-7.6024 22.9737-17.5962 20.0407-20.4572L52.4743 12.4058z" fill="#ff7557" class="B"/>
    <path d="M12.4065 47.5258c5.3265-5.4601 15.8638-7.9933 37.594 2.4743-7.6024-17.012-17.5962-22.9735-20.4572-20.0408L12.4065 47.5258z" fill="#0cb6ff" class="B"/>
    <path d="M47.9098 50.0196c-.0144-1.1623.9097-2.1096 2.0719-2.1239s2.1095.9097 2.1239 2.0719-.9097 2.1095-2.072 2.1239-2.1095-.9097-2.1238-2.0719z" fill="#4a4848" class="B C"/>
</svg>