<svg xmlns="http://www.w3.org/2000/svg" width="100" height="100" stroke="#000" stroke-linecap="round" stroke-linejoin="round" fill="#fff" fill-rule="evenodd">
    <g fill-rule="nonzero" stroke="none">
        <path d="M33.3041 95.9477c0 .5572.1212 1.1146.3425 1.625a4.001 4.001 0 0 0 .9601 1.3492c.4093.3758.8928.671 1.4228.8528s1.088.2547 1.6451.2142c21.1663-1.5167 41.1586-16.4941 47.5431-39.8975.3355-1.3425 1.3425-2.0204 2.692-2.0204.6912.0266 1.3424.3287 1.8124.8319s.7251 1.1753.7049 1.8666c0 5.2164-6.7068 18.8514-16.2998 26.7665-.4901.4093-.8792.9266-1.141 1.5106s-.3897 1.2148-.3697 1.8524c.007.5175.1212 1.0339.3293 1.5108s.5104.9064.8792 1.2691a3.938 3.938 0 0 0 1.3026.8321c.4831.188 1.0004.282 1.5168.2686.8397 0 2.1888-.5033 3.8672-2.0207 6.7065-6.062 19.4882-23.0602 19.4882-41.7504C99.9998 23.6109 78.8201 0 49.2612 0 22.8856 0 .0336 21.55.0336 46.4632c0 16.4951 13.1044 28.9552 30.4107 28.9552 13.2722 0 25.537-9.4255 28.9006-22.3895.3358-1.3423 1.3424-2.0204 2.6853-2.0204.6912.0264 1.3426.3284 1.8126.8324a2.625 2.625 0 0 1 .7047 1.8661c0 5.8943-11.0904 26.444-33.606 26.444-5.3777 0-12.0975-1.517-16.8034-4.209-.6312-.3091-1.3159-.4771-2.0139-.5034-.5373-.0202-1.0678.0667-1.5711.2683s-.953.4901-1.3288.8727-.6781.8326-.8731 1.3359c-.1949.4971-.2819 1.0338-.2617 1.5713.0202.6842.2213 1.3561.5708 1.9464.3559.5911.8519 1.0813 1.4431 1.4237 6.2167 3.5512 13.6078 5.384 21.1666 5.384 18.8172 0 35.9563-12.796 40.9979-31.647.3354-1.343 1.3426-2.021 2.6849-2.021.6917.0271 1.3429.3293 1.8128.8326a2.627 2.627 0 0 1 .7048 1.8664c0 7.7409-13.7756 32.661-40.3193 34.6812-1.0276.0738-1.9875.5305-2.7055 1.2758-.6918.7048-1.108 1.6851-1.1415 2.7188z" fill="#474e9c"/>
        <path d="M59.6065 31.472c3.6252-.0263 7.1766.974 10.2579 2.8871.3089-1.7051.4834-3.4308.5103-5.1558 0-7.9893-6.0889-15.1522-13.507-15.1522-5.7668 0-9.3717 4.7799-9.3717 10.6809-.027 3.1889 1.0941 6.284 3.1551 8.714 2.7994-1.3293 5.8606-2.0074 8.9554-1.974z"/>
        <path d="M76.9872 60.4271c1.0266-3.5177 1.4834-5.9613 1.4834-7.5526-.0334-.6843-.3223-1.3291-.8188-1.806s-1.1547-.738-1.8399-.7449c-.6376.0132-1.2551.2349-1.752.6377s-.8459.96-.9865 1.5845l-1.4703 6.2767.6709-2.2689c.336-1.3491 1.343-2.0211 2.6859-2.0211.6914.0273 1.3422.3224 1.812.826a2.627 2.627 0 0 1 .7053 1.8662c-.0334 1.0878-.2081 2.1618-.5173 3.2024h.0273zm14.2786-3.679c-.0334-.6843-.322-1.3291-.8186-1.806s-1.1479-.738-1.833-.7449c-.6377.0132-1.2552.2349-1.7453.6377-.497.4031-.8389.96-.9869 1.5845l-1.4969 6.3507h.0269l.792-2.692c.336-1.3496 1.3426-2.0206 2.6919-2.0206.6919.0266 1.3428.3223 1.8127.8256a2.627 2.627 0 0 1 .7052 1.8665c-.0202.8388-.1344 1.6715-.3425 2.4839.8256-2.9406 1.1945-5.0618 1.1945-6.4854z" fill="#353089"/>
        <path d="M59.6067 31.4724c1.7988-.0069 3.5913.235 5.3305.7115.9123-1.2418 1.3692-2.7658 1.2882-4.3032-.0737-1.5373-.6842-3.0073-1.7117-4.1553s-2.4233-1.9-3.947-2.1419c-1.524-.2349-3.0812.0539-4.411.8325l2.7596 4.5453-5.1695-2.2358c-.698 1.1279-1.0541 2.444-1.0067 3.7729.0404 1.3291.4767 2.6183 1.2487 3.6991 1.8258-.4834 3.7192-.732 5.6189-.7251z" fill="#163b36"/>
        <g fill="#353089">
            <path d="M19.7634 60.736c2.1816 0 3.9476-1.766 3.9476-3.9477s-1.766-3.9472-3.9476-3.9472-3.9471 1.7655-3.9471 3.9472c0 2.1757 1.7655 3.9477 3.9471 3.9477z"/>
            <use href="#B"/>
            <use href="#B" x="-7.888" y="7.895"/>
            <path d="M29.6255 75.3983h.7923c13.2719 0 25.5369-9.426 28.8999-22.3896.3356-1.3424 1.343-2.0204 2.6855-2.0204.6917.0266 1.3425.3287 1.8124.832s.7255 1.1752.7053 1.8665c-.0606 1.3763-.3697 2.7325-.9197 3.9946.094-.1475.181-.3021.248-.4631 1.0002-2.2825 1.5174-4.7463 1.5174-7.2372 0-3.8735-2.692-6.3978-6.5521-6.3978-6.7332 0-8.083 5.881-10.9227 12.1649-2.9467 6.5252-8.358 13.5879-22.0056 13.5879-14.1853 0-28.753-9.9358-25.2013-30.1298l.1074-.6849C.2688 41.1327.0069 43.7843 0 46.4431.0404 62.71 12.7346 75.0223 29.6255 75.3983z"/>
        </g>
    </g>
    <defs >
        <path id="B" d="M19.7634 44.9461c2.1816 0 3.9476-1.766 3.9476-3.9477s-1.766-3.9472-3.9476-3.9472-3.9471 1.7655-3.9471 3.9472 1.7655 3.9477 3.9471 3.9477z"/>
    </defs>
</svg>