<svg xmlns="http://www.w3.org/2000/svg" width="100" height="100" stroke="#000" stroke-linecap="round" stroke-linejoin="round" fill="#fff" fill-rule="evenodd">
    <defs>
        <clipPath id="A">
            <path d="M24.0986 8.9581C10.7749 8.9581.0024 5.0459.0024 0v32.147 52.5011c-.0316 1.7532 1.3641 3.2003 3.1172 3.2316.0381.0007.0761.0007.1144 0h44.9607V.0002c0 5.0457-10.7722 8.9579-24.0961 8.9579" stroke="none" stroke-linejoin="miter" stroke-linecap="butt" fill="#000" fill-rule="nonzero" transform="translate(.0308 -.0002)"/>
        </clipPath>
        <linearGradient id="B" x1="-72.37%" y1="140.34%" x2="-72.09%" y2="140.34%">
            <stop offset="0%" stop-color="#095ca2"/>
            <stop offset="7.000000000000001%" stop-color="#0b61aa"/>
            <stop offset="36%" stop-color="#2170b7"/>
            <stop offset="52%" stop-color="#2974ba"/>
            <stop offset="64%" stop-color="#2471b8"/>
            <stop offset="81%" stop-color="#176ab3"/>
            <stop offset="99%" stop-color="#095ca2"/>
        </linearGradient>
    </defs>
    <g fill-rule="nonzero" stroke="none">
        <path d="M74.0963 58.1865V36.0179c.0064-.4383-.3437-.7987-.782-.8049-.2174-.0031-.4265.0827-.5785.238L50.0569 58.1298 26.4711 81.7155v16.2721h68.4895c1.7532.0316 3.2002-1.3641 3.2316-3.1173v-.1143-58.7378c.0065-.4383-.3437-.7988-.782-.805a.794.794 0 0 0-.5787.2381L74.0963 58.1865z" fill="#095ca2"/>
        <path clip-path="url(#A)" d="M0 0h48.2237v87.8804H0z" fill="url(#B)" transform="translate(1.7764 10.1078)"/>
        <path d="M73.7561 72.3041h9.6952c.8769 0 1.5875.7108 1.5875 1.5876v9.695a1.588 1.588 0 0 1-1.5875 1.5877h-9.6952a1.588 1.588 0 0 1-1.5876-1.5877v-9.695a1.588 1.588 0 0 1 1.5876-1.5876m-22.3385 0h9.6952a1.588 1.588 0 0 1 1.5875 1.5876v9.695a1.588 1.588 0 0 1-1.5875 1.5877h-9.6952a1.588 1.588 0 0 1-1.5876-1.5877v-9.695a1.588 1.588 0 0 1 1.5876-1.5876m-22.3386 0h9.6952a1.588 1.588 0 0 1 1.5874 1.5876v9.695a1.588 1.588 0 0 1-1.5874 1.5877H29.079c-.8768 0-1.5874-.7106-1.5874-1.5877v-9.695c0-.8768.7106-1.5876 1.5874-1.5876"/>
        <path d="M50.0002 10.1079c0 4.819-10.7723 8.7311-24.0962 8.7311S1.8081 15.1538 1.8081 10.1079s10.7722-8.5045 24.0962-8.5045 24.0959 3.9119 24.0959 8.5045" fill="#eaeaea"/>
        <path d="M44.3303 9.5975c0 3.1183-8.2778 5.6696-18.4831 5.6696S7.3641 12.8293 7.3641 9.5975s8.6179-5.4996 18.5398-5.4996 18.4264 2.438 18.4264 5.4996" fill="#76cae7"/>
        <path d="M25.904 10.9015a45.759 45.759 0 0 0-14.6277 2.0978 43.314 43.314 0 0 0 14.6277 2.1543 43.313 43.313 0 0 0 14.6276-2.1543c-4.73-1.4871-9.6702-2.1957-14.6276-2.0978" fill="#1c8ab4"/>
    </g>
</svg>