<svg xmlns="http://www.w3.org/2000/svg" width="100" height="100" stroke="#000" stroke-linecap="round" stroke-linejoin="round" fill="#fff" fill-rule="evenodd">
    <style>
        <![CDATA[.B{fill-rule:nonzero}.C{stroke:none}.D{fill:#000}.E{fill:#040002}]]>
    </style>
    <g fill="#797979" class="B C">
        <path d="M22.5582 29.7654c.5304-.4407 1.0075-.5924 1.0075-.5924-.0559 1.0166.0724 1.8811.3033 2.6099.1614.5243.3941 1.0238.6918 1.4845.8795 1.3544 2.0123 1.8847 2.0123 1.8847.1351-2.605 1.4712-3.4848 1.4712-3.4848-.2218 1.5206-.2072 5.4172 1.1231 8.5094 1.5524 3.6007-.0507 3.4393 2.1087 7.9553 2.7184 5.678 10.4233 5.6082 10.4233 5.6082-4.4176 1.2721-9.298-.2677-11.6886-4.2227-.9422-1.5638-1.3231-2.8483-1.494-3.9665-1.0896-.3663-2.8703-1.9087-2.9785-2.0051.0864.0194 1.5011.3419 2.8311.3475-.0455-.9718-.0695-1.8334-.419-2.7015-1.287-.1565-2.68-1.0149-2.68-1.0149-.1419 2.4968-1.4228 3.7404-2.8723 4.1727l-.3676 1.8905c1.3997 1.8772 4.9307 4.6416 4.9307 4.6416s-2.9665-.9256-5.2295-3.1184L20.9048 52c1.4439 1.1663 2.9496 2.1741 4.3896 3.0607 4.2367 2.6099 10.0219 3.7966 11.5204 3.7245a77.862 77.862 0 0 0 4.4052-.9234c-1.5157-.3491-5.121-1.2536-7.131-2.3588 1.4848.0744 7.2417.836 12.7587.8698 5.157-1.4894 9.1865-2.9642 9.1865-2.9642s-2.1224-2.9668-.6171-6.4322 4.731-4.2902 6.2805-4.5101c1.3134-.9905 3.0678-4.7238 3.2802-8.1313.2189-3.5547-2.2705-4.7813-3.6969-6.6273s-2.3501-4.2585-4.2058-6.6397c1.7356.8555 2.8801 2.4007 2.8801 2.4007.2458-.6482 1.5329-4.297.4024-6.5071-1.2462-2.4293-4.0607-3.5235-4.0607-3.5235.3157-.3618 1.1277-.7323 1.1277-.7323-4.076-2.0487-7.8056.6216-7.8056.6216-.1062-.6028-.0315-1.2507-.0315-1.2507-2.0773 1.7472-2.6655 5.0005-2.6655 5.0005 4.3984-.0289 5.9645 1.6726 5.9645 1.6726-4.7303-.8146-10.042-.3807-14.1585 1.7063s-7.8033 6.4273-7.8033 6.4273c.4992-2.4991 1.8077-3.6245 1.8077-3.6245-2.1786-1.7063-4.4923-1.4267-4.4923-1.4267.4362.3157.9279 1.1348.9279 1.1348-.9427.0548-1.8673.2819-2.7281.67a7.653 7.653 0 0 0-1.099.6031c-.9497.6193-1.7203 1.4101-2.2462 2.2461-.73 1.152-.9973 2.3877-.6482 3.3789a3.805 3.805 0 0 1 .1117-.0997m22.181-1.2845s.6366-2.159 2.9068-3.1327 6.8082-.1975 9.3843 2.5884 1.822 5.7501-.2871 6.8852c-3.2098 1.7255-4.3789-.1663-7.0294-1.0701s-5.8946-1.6265-4.9746-5.2708m1.8675 7.3581c1.5595-.2195 2.085.7733 1.4991 2.1302s-1.4338 2.0016-2.1565 2.1737c-1.439.3378-3.16-.9084-3.2032-1.8723s2.302-2.215 3.8606-2.4316m.8509 5.6462c1.0987.6632 3.5426.1403 3.7018-2.8726 0 0 1.4072 1.8414-.1472 3.439.4317.6047 1.1231 3.8875-1.3325 5.1645-2.6969 1.405-4.5647-1.4192-4.9671-2.2071-1.8246-.1858-2.1568-1.8269-2.1568-1.8269 3.403 1.6411 4.9018-1.6969 4.9018-1.6969m-15.7781-4.2994c.3618-4.198 3.4848-8.1648 7.1839-7.2752 3.5839.8626 2.9526 4.1571 2.1838 6.2824s-.5112 3.2825-1.1036 4.8898-2.1282 2.8632-4.16 2.7378c-2.6105-.1614-4.4244-2.5787-4.1038-6.6348"/>
        <path d="M66.6053 41.4033s-.8246 1.922-4.2396 2.5911c-3.8144.7472-6.425 3.5013-4.668 5.8845 1.798 2.4391 6.2903 1.7953 6.2903 1.7953-4.037 2.215-7.0931-.3442-7.0931-.3442 1.4297 3.4491 6.6569 4.5617 10.8744 1.0672s4.5884-7.9212 4.5884-7.9212c-.5034 1.1276-1.5544 2.3448-1.6193 2.4196.0574-.14 1.3228-3.2393 1.1471-5.5936-.1809-2.4098-2.0559-4.2562-5.3646-5.743-.1472 3.3786-2.6031 6.6514-2.6031 6.6514 1.0896-.1634 2.6875-.8071 2.6875-.8071m-22.6588-2.6605c1.1617.9204 2.0412.5375 2.8103-.3229s.5274-1.581-.6073-1.2438-1.7087.6755-2.2296.9931c-.1228.0747-.393.241.0266.5736m16.8603 23.1053c2.4316 1.3039 6.3308 4.5069 7.5623 10.8377-.1276-.2699-4.1723-8.7699-13.1201-9.0953-9.9076 2.8798-20.263 4.8294-22.0924 4.7862-.0312 1.5449 2.9402 19.6802 4.1863 25.8065 6.8368 3.5857 16.9308 2.0941 21.3279 1.0096 7.623-2.1545 12.7538-11.0305 12.7538-11.0305-.3787 4.449-3.4971 7.9988-3.5936 8.1099 4.4991-2.1088 10.6012-7.4591 11.4953-9.4448L71.383 57.1892c-2.5439 1.6356-6.3418 3.2214-10.5762 4.6586M19.1287 44.0781c-.4339-.2211-.7759-.5131-.976-.8476 0 0 .4411.149 1.0773.2215a5.746 5.746 0 0 0 1.0893.0214c.4362-.0357.8941-.1321 1.3329-.3322a3.229 3.229 0 0 0 1.1516-.8652c.9039-1.0678 1.075-2.4488.7353-3.7742-.1458-.5623-.3706-1.1011-.6677-1.6002a6.399 6.399 0 0 0-1.2316-1.5085 5.746 5.746 0 0 0-.9759-.7181c-.3865-.2275-.8015-.4027-1.2342-.5209-3.3545-.9036-7.36 3.2438-5.2814 8.9364.9181 2.5183 2.3783 4.6413 4.0873 6.4516z"/>
        <path d="M73.5119 40.4793s2.2101 5.6829-3.5453 11.9799c-3.7352 3.9766-9.6977 4.9405-12.8308 2.227 0 0-9.5194 3.5569-17.4133 5.0924s-13.6405 1.8795-12.3031-1.8174c-.5949-.2533-1.3107-.6313-2.0145-1.0311-3.9571 1.3828-4.9356 4.5182-3.9071 6.779-2.0632-1.1254-3.0804-4.9184 1.8603-8.0012l-.9061-.5787s-4.3477 1.7979-6.2564 4.9502-.4024 6.285 3.656 6.8079 15.4436.2426 31.7718-4.0954 28.797-11.99 30.4852-16.8096-5.2223-5.9239-8.5967-5.503M46.672 31.5224c.0649.1481.7028.6931.8278.8347s.3972.2296.3972.2296l1.3959.432c.4651.1438 1.5063.3215 1.5566.3517s1.2575.3274 1.2575.3274l2.3774-.0666c.0399 0 .7934-.2306.8233-.2511s.7931-.7236.7931-.7236l.3114-1.667v-1.5362c0-.5122-.8535-1.7973-.8639-1.8376s-.3767-.5547-.3767-.5547l-.6674-.5293-1.6671-.5716-.8197-.229c-.0296-.0068-1.0487-.0819-1.0789-.0549s-1.085 0-1.085 0l-1.0238-.0435c-.3409-.0146-1.1905.3098-1.2298.3274s-.9988.7638-1.0192.7937-.4017 1.05-.4017 1.05l-.1705.858c-.0101.0302.2111 1.7674.2111 1.7674l.4524 1.0936M34.15 41.012l1.2952.4823h1.9431c.0455 0 1.0997-.6476 1.0997-.6476l.949-.647c.3163-.2156.5121-1.0854.5271-1.2059s.1357-1.4981.1357-1.4981l.3628-1.153c.0305-.0864.1342-.6473.2053-.7233s.2316-.7235.2316-.7235l.2081-.7837-.0298-.8509.0298-.8811-.542-.8282-.6031-.6908-1.1594-.1689-.1511 1.9282-2.3195-.4066-3.3205 1.6157-.2553.5236-.655 2.2747.3462 2.3643c.1156.7886.9493 1.4761.9945 1.5063s.7076.5135.7076.5135"/>
    </g>
    <g fill="#4b4b4b" class="B C">
        <path d="M79.5627 80.189l-1.2799-3.5692-1.4615-4.7602-1.8223-5.453-1.2504-4.5039-1.9428-5.7686-11.7893 5.1314-6.6084 1.8476-5.7842 1.707-5.9431 1.2244-6.4262 1.3657-2.0286.5826c5.5429 2.5105 11.5288-1.9681 19.0791.6031S64.7966 76.79 64.9573 80.8064c0 0 1.9883-2.2494 2.1088-4.679 2.1889 9.3788-2.9522 17.6131-20.0229 20.7459 0 0 6.8891.5021 10.5437-.3414s6.8283-1.948 6.8283-1.948l4.1669-1.7424q1.5219-.7528 3.0431-1.5063l3.2682-2.5605 3.5849-3.389 1.732-2.44zM43.4285 58.0171l1.5361-.7531-4.6092-12.065-11.6375-2.6404s-2.0088-.4122-3.9074-1.5466l-.6918-1.642c-1.9096-3.3939-5.4529-3.8106-7.6214-1.3001s-1.2059 6.7676 2.4702 10.2622 12.0095 9.2583 21.8102 10.142zm5.8949-25.521c1.9775.7834 4.9041 2.5667 6.8319 1.4508s1.9519-3.6388-.6366-5.8391c-.4721-.4001-3.0385-2.3692-5.7955-2.1282s-4.3861 2.4101-3.9554 4.0778 1.7187 1.7109 3.5556 2.4391m-.6343-2.6583c.1014-1.2241 1.2413-2.1325 2.5498-2.0259s2.2874 1.1818 2.1883 2.4052a1.934 1.934 0 0 1-.0481.3157c-.34-.7327-1.0918-1.2783-2.0019-1.3523-1.1931-.0962-2.2483.6485-2.4968 1.7089-.1529-.3283-.2188-.6905-.1913-1.0516M35.8658 42.8034c2.9087-.0889 3.2848-2.9064 3.7359-5.1353s2.1542-4.5741 0-6.2518c-2.302-1.7928-6.3818 1.0003-6.7917 5.0008-.2215 2.1594.1494 6.4779 3.0562 6.3863m-.6964-7.0488c.5856-1.1738 1.9519-1.6798 3.051-1.1335.3236.1626.6.4058.8025.7061-1.037-.3352-2.2189.1828-2.7541 1.2539-.4076.8168-.3306 1.7424.1224 2.4118a1.958 1.958 0 0 1-.2965-.1202c-1.099-.5489-1.5134-1.9444-.9253-3.1181m9.7247 3.6394c.7236.2712.7882.3917 1.2803 0s1.1851-1.0692 1.1851-1.0692l.2708-.5771v-.4021c0-.0198-.2208-.567-.2208-.567l-.2813-.1809c-.0155 0-.3816-.0098-.4871.0201s-.3462.0452-.5018.1205l-1.3056.6677s-.6632 1.7181.0604 1.988m-19.8722-7.9469c.1429-.5118.9942-1.2699.9942-1.2699-.4216 2.5105.994 3.9964.994 3.9964 3.1029.4417 4.4085-.5219 4.4085-.5219s6.0051-8.2545 1.0237-9.5799-7.3454 2.4358-7.3454 2.4358c.6704-.2634 1.913-.2257 1.913-.2257-2.5304 1.8213-1.9883 5.1652-1.9883 5.1652M57.1248 23.61l1.8275-.643c1.7872-4.1769-1.1094-6.0246-1.1094-6.0246.6049-.0192 1.2103.0008 1.8125.0601-2.7355-3.3338-6.8082-2.0785-6.8082-2.0785.3411-.7532 1.1848-1.5164 1.1848-1.5164-3.2532.0805-5.6933 2.3598-6.0145 4.1171l1.3557 2.6713zm8.7088 18.4789c1.7018-.9265 1.1425-3.0756-.0828-4.1002 0 0-1.9282 3.2032-2.2594 4.2207s.6401.8055 2.3422-.1205"/>
        <path d="M56.7186 58.8758c12.2049-2.8921 22.0962-10.0416 22.8591-13.2348s-4.3779-3.173-4.3779-3.173c-.4219 1.7872-1.8574 3.3484-1.8574 3.3484s-1.3524 2.0922-1.6667 2.7648l.8333-1.7847.3517-1.2351.2713-2.1289-.2112-2.0382-.6826-2.0286-1.4362-2.1789-1.225-.8132-.5521.191c-.1842.0636 2.9317 3.906.7934 8.8468 0 0 .2913-2.0188-.151-3.214 0 0-1.2144 4.9911-5.5725 7.2805s-7.5425-1.8318-4.5793-4.8401c0 0-1.6872.2309-1.9658.871s-1.0669.8964-1.3076 2.0211a8.77 8.77 0 0 0-.1812 2.1084 7.144 7.144 0 0 0-.0065 1.6885c.1072.9236.9906 1.9681.9906 1.9681l.3514.2868-2.0981.8379-6.6877 2.3634-6.4156 1.5362-6.2509 1.416-3.8258.06-2.3497-.4364-.9039-1.5817-3.5322-1.7846-1.3631.354-1.948 1.2059c-.6492.402-1.9077 2.6105-1.5663 4.0759.3514 1.5264.8031 5.081 14.6602 2.832s21.6033-5.5845 21.6033-5.5845m13.3309-7.8527l.6489-.8509-.9097 1.353c-.7674 1.1669-1.8869 1.557-2.7148 2.1916l1.4696-1.127zm-5.0908 3.5248l1.974-.7288c-.6996.4881-1.631.8006-2.9344 1.0766zm-6.5364-.1306l2.7518.8324c-.7209 0-1.3137-.0903-1.7957-.2452-.8856-.2848-1.9749-1.416-1.9827-1.4241z"/>
    </g>
    <g fill="#383838" class="B C">
        <path d="M47.0432 38.8331c.5326-.2514.457-.7837.4625-.8087s.1299-.341.1851-.6528-.2458-.3917-.6268-.5973-1.1244-.0704-1.1244-.0704l-.3517.3618c1.1351.6326-.2709 1.3455-.3715 2.4906.5716.2154 1.2942-.4722 1.8268-.7235m-15.9808-.9539c0 .0601.3914 2.7411.4369 3.2464s.7979 1.9503.844 2.0704 2.8165 1.9279 3.0578 2.0338 1.9278.1351 1.973.1052l2.2744-1.3705c.0451-.0442 1.2201-3.3592 1.2201-3.3592l-.6476-3.374c-.7382.0156-2.5858 3.4195-4.3633 3.5695s-2.7209-1.5663-3.2331-3.8959c-.001 0-1.5622.9142-1.5622.9743m23.8335-.974c.0601 0 2.8317-.4622 3.4543-.6629s1.5865-1.6267 1.5865-1.6267l.9646-2.8516c.3215-.9506-.7632-1.9885-.783-2.0489s-2.8928-4.0162-4.58-4.7677-1.1847-.4125-1.3855-.4726-1.1247.4216-1.1649.4729-.1007 1.3946-.1007 1.3946c2.8723 1.5063 3.4796 4.7599 1.8983 5.829s-3.1636.151-5.2318.7684l.3618 1.5567c.0406.061 4.9197 2.4088 4.9804 2.4088m-27.2728-8.1534c-.3212 1.0126-.2813 2.5754.0049 3.6823l.0152.5651c0 .0448 3.9311-1.7174 3.9311-1.7174l2.3046-3.0724c.7681-1.0243.3163-2.0789-2.0786-2.8167s-3.716.743-3.716.743c.3416-.0204.8236.1004.8236.1004-1.8678 1.2504-2.1289 3.1379-2.1289 3.1379.1718-.2611.8444-.6222.8444-.6222M56.171 23.042s.8889.3767 1.6271-1.3105-1.0282-3.3549-1.0282-3.3549q.4092.1267.8021.2975c-1.2802-2.5904-3.9469-2.1987-3.9469-2.1987.1997-.2673.7382-.5573.7382-.5573-2.7716-.6476-4.4686 1.7973-4.4686 1.7973l-.1257 1.1094 1.5063 2.1389zm8.9673 16.363l-1.8879 2.591-.0803 1.0039 2.1793-.8639c.9136-1.1945.4111-2.2594-.2111-2.731m-7.348 11.8867l-.9646-.5271q-.252.1312-.5044.2637v.6927c0 .0228.3011.7155.3011.7155l.9405 1.2803 1.559.8736 2.0483.467 1.3634.1355c.454.0451 1.7846-.3086 1.8152-.3313s1.5063-.4894 1.5361-.5274.9688-.3186 2.6768-.9516 3.0126-2.048 3.4744-2.721c1.6771-.8635 3.7005-3.4893.989-4.2275 0 0-.5823-.3313-.3859-1.3855s-.4566-1.9279-1.0896.1357-2.897 4.3026-2.897 4.3026c.2813-.5823.3966-2.5566.3966-2.5566-1.265 1.8528-3.7102 5.1158-7.0037 5.096l-3.1029-.3134z"/>
        <path d="M62.151 55.7577l-4.805-1.6719-.693-.1904-4.6391 1.8571-4.2675 1.2653-1.1611.2923 1.7847-.5739 2.7115-.8583 5.9927-2.2439-.8736-1.5816-.4969-2.4703-.3768-.4517.4719-1.1799-14.1575.683c-4.7189.2273-12.2306-2.9324-14.2192-4.4786 0 0-1.6667-.4521-2.2491-.7633 0 0 .6174 1.2956 1.4388 1.913 0 0-2.1617-.9487-3.3819-1.9656l.6398-1.4913-.1127-.4745c-.0373-.1582-.7236-3.404-4.1769-2.681s-2.6612 5.5429-.2715 7.1697c0 0 1.2355-.1608 2.7417 1.3056s2.2868 2.0606 2.2868 2.0606l1.416.8964c1.8639 1.2579 5.3393 2.9973 8.1109 4.0064 0 0-2.4956.1656-4.122-.0965 0 0 5.0908 2.0084 9.0471 2.5307s5.6332 1.225 5.6332 1.225l.7369-.1208-1.3595.3443-3.9862 1.0545-3.6852.6327q-2.1192.1851-4.2377.3712l-3.3536-2.5505-2.4604-.4624c-1.8977 1.2257-2.9922 4.4084.984 5.7137s18.6573-.5219 30.466-6.5471c0-.001 3.5995.3303 4.6244-.4677m17.0152 23.6224l-.8035-2.8717-1.4056-3.9762-1.2754-4.1571-.9438-3.0528-.9743-3.4043q-.5469-1.7729-1.0945-3.5455l-1.1042-2.1588-2.0181.9038-2.9928 1.4953-4.5585 1.8983-4.1367 1.1747c-1.3789.3913 3.0724 1.225 3.9158 2.2042s2.4401 1.5511 2.9977 2.4852 1.3101 1.4913 1.5963 2.214.7235 1.0519 1.0393 1.9882c1.3107 2.6362 2.4705 5.729 2.5306 7.0346 0 0 .743-2.5511.7632-5.5231 0 0 3.5845 10.9955-1.6466 16.4881-5.0814 5.362-2.5508 5.1915-.9542 4.4484s4.5088-2.5709 4.5088-2.5709l2.9717-2.3393 2.5712-2.39 1.9984-2.4803.0698-.4521z"/>
    </g>
    <path d="M45.7782 83.9992c-1.3267-10.4229-9.851-14.6102-13.2247-14.4744l3.9762 24.9182.2312.2812 5.021 1.747c10.764-2.9324 6.2256-15.8857 5.0002-17.4322.2209 2.9716-1.0039 4.9606-1.0039 4.9606m37.2265-40.8113l-.6703-1.0766-1.0997-1.0471-1.5515-.6778-2.6582-.467-.2485.2786c4.4582.9039 5.4815 5.2717 2.1987 10.3025l1.3784-.595.8885-1.0091c.2962-.3365 1.1147-1.4007 1.1225-1.4228s.5875-1.5063.5875-1.5063l.1276-1.2959zM18.9676 65.0815c-3.3741-2.7313-1.5063-6.1758 2.7716-10.092 0 0-2.0984.8337-4.83 2.9727s-2.5105 3.9762-2.5105 3.9762l.2111 2.3396c.0701.7795.9736 1.7272 1.1344 1.888s2.2188 1.061 2.2188 1.061l2.3199.3738 3.3838.5524h2.2091q2.4504-.4969 4.9005-.9944c1.6333-.3313-8.435.6541-11.8087-2.0773m.2926-15.1237c-5.4442-5.2113-6.0294-10.699-4.1789-13.152s4.4485-2.6332 5.9749-2.1513l-.6879-.9035-1.4231-.3465h-1.4537l-1.4459.4579-1.6719 1.4086-.9263 1.642-.6398 1.7697v1.3933l.2481 2.1987.6778 1.8827 1.1673 2.3803 1.6872 2.6884 1.4082 1.5433 2.5381 2.1393 2.7261 1.8097 2.3498 1.3478 2.6287 1.3182 3.7202 1.2653 4.1805.5271c-5.2905-1.6238-11.4352-4.0067-16.8794-9.219m3.3922-19.0882l.2209-.492.4118 1.6872.7632 1.4862c.2546.4956 1.0042 1.2253 1.0344 1.2851s1.7674 1.1451 1.7674 1.1451l.04-1.1451c-.7684-.4066-3.0126-2.8015-2.6511-6.2054 0 0-.6626.0097-1.2056.3514 0 0 .3167-4.5992 5.8946-6.0954l-.2656-.3488c-.0884-.1163 2.3335-.3738 4.3315.9613l.3517-.2305-.2007-.5827-1.2254-.7934-1.6969-.532-1.3654-.1305-1.2455.1406-.3212.2812.1205.4417-.6917.683-1.4459.4219-1.707 1.3956-.8539 1.3559-.6723 1.4468-.3117 1.7775.2513 1.3745zM32.734 34.51l-.1357 1.1497v.6827c1.2958-2.5755 2.6963-5.1814 7.1547-5.0405l-.5219-.7479-.8132-.1403-.6983-.1108-1.2851.2459-.7931.427-.8684.7477-.8737.9136-.5521.7177zm16.6391-8.751s-.8086-.3442-2.1038.3638-1.8451 2.086-1.8451 2.086l-.4069.9473.2413 1.154c.0805.3845.5349.9714.5651 1.0016s.7681.579.7681.579l1.2198.6252 1.1598.1205c-3.2133-1.7473-3.1932-5.2558.4017-6.8774m10.3905-10.85l-.6479-.7382c-.0227-.0227-1.1595-.9714-1.1595-.9714l.6775-.4144c.2261-.138-.5573-.4823-.58-.5047s-.9714-.557-.9714-.557l-1.5739-.3303h-2.3656l-1.2202.2332-1.2124.2413c-.404.0805-.6323-.0828-.6323-.1429s-.0529-.4969-.0529-.4969l-.5116.141s-.8587.4368-1.3556 1.288-.9866 1.6115-.9866 1.6115l-.6476 1.4388-.4216 1.9203 1.2878-.098c.429-.0325.6625-2.7411 1.9281-4.0668l.1657.8885c.0552.2962 3.1178-2.9372 6.8975-1.6868l-.7681.9262c-.2562.3089 3.9018 1.0425 5.2477 4.2757l.0325-1.0442-.5798-1.1523zm8.6682 24.4661c-.5122.1104-.4134 2.5203-2.0386 4.0369-.7544.7041-.9366.6662-1.1922 1.2147-.4278.9178.5196 2.0334 2.2818 0s1.4608-5.362.949-5.2516m-4.7219 6.1476a.919.919 0 0 0-.7959 1.3787.919.919 0 0 0 .7959.4596c.5076 0 .9191-.4115.9191-.9192s-.4115-.9191-.9191-.9191" fill="#a7a5a5" class="B C"/>
    <path d="M59.4499 23.7942l-.9406-1.2634-.3348-.4527c-.9497-1.1517-4.1331-3.2487-6.9599-3.8249l-2.379-.4527h-2.5153l-3.5089.2864-3.54 1.1445-2.832 1.7015 1.2799 2.441 2.7375 1.5719 1.6869 3.0412c.0406.1205 1.0026 3.6969 1.0026 3.856s-.6411 3.2536-.8445 3.9645-1.0435 6.8612-1.7953 8.4279-4.0389 4.3688-5.6056 5.0606-1.2338 2.7619-1.2146 2.7908 1.5881.8557 1.5881.8557l1.7161.6122 1.405.0189c2.6871.3761 7.2947.1591 11.215-.7496l2.7229-1.7012 1.2439-3.121.6651-3.5569 1.4148-3.7642c.4715-1.2549 1.7472-2.6511 1.8388-2.8924l1.5352-3.9161.5729-6.4165zM44.6818 39.6113l-.2965-.1566c-.0335-.0195-.3329-.164-.4002-.2773s-.2867-.3712-.3085-.3953-.393-.3325-.393-.3325.0533-.3904.0627-.4125.33-.3683.33-.3683l.0536-.2121c.0214 0 .6359-.1494.6554-.164s1.1575-.5856 1.1575-.5856l.8242-.1227.5353-.053.2481.0676.113.1081.2774.2384a.392.392 0 0 0 0 .1738c.024.0964 0 .3377 0 .3377q.011.1248.0097.2504c-.0026.0822-.1738.4823-.1906.5109s-.3011.4076-.3154.4605-.2939.33-.3546.3904-.3758.2868-.4073.3157-.518.2046-.518.2046l-.5736.0676c-.0243 0-.4829-.0348-.5092-.0458m5.6825 5.9186c-.1591.4917-.7687.8149-.7833.8363s-.9711.4313-.9928.4385-.8146 0-.8292 0-1.2124-.4528-1.2124-.4528l-.7232-.6096-.5736-1.3039.2939-.4508 1.5736-.9568.4072-.3686 2.7041-.1663c.9012-.0552.3014.7541.3832 1.2725s-.0883 1.2718-.2475 1.7609zm7.6851-13.163c-.0721.542-.3614.9737-.8239 1.3663s-1.3663.9737-2.2484 1.1231-2.1909-.1709-3.3549-.8314-2.4098-1.1254-2.4196-1.1666c0 0-1.9278-.4723-2.4195-.6821s-1.0653-1.0145-1.4472-1.5975-.342-1.0533-.19-1.7473 1.1734-1.9567 1.1734-1.9567l1.1952-.9857 1.4848-.2894 1.6076-.1302 1.0143.1688 1.6362.3829c.5456.1277 1.4777.7422 1.5063.7519s1.3449.9737 1.3449.9737.694.7447.7135.7927.8844 1.3063.8555 1.3378.4001 1.2845.4098 1.3348.0319.6119-.038 1.1539zM25.4591 9.8406l-.2033.3086-2.214 13.2962.7236.1169 1.0016.0529 1.6612-.6995c.5535-.2332.1511-3.2608.9146-6.6751s1.1445-5.844 1.1445-5.844-1.5219-.9178-3.0282-.5563m-3.0204 21.2762l-.5294.5667-.6527 2.4401L23.466 35.69l.5424-1.7372-1.1549-2.9022zm-3.4413 16.7921l-.6703 5.1226.4972.5125h1.1975l1.9178-9.3486-2.0987-.1507z" fill="#c6cacd" class="B C"/>
    <path d="M65.5598 32.3659c-.3413-1.6064-1.1445-2.3296-1.1445-2.3296l-1.9278-2.1289c-.8428-.9438-1.4862-2.0279-1.4862-2.0279l-1.8625-2.5021-.1446.1722c-4.2376-3.7352-8.7965-3.6352-8.7965-3.6352 2.7918 1.8278 2.4702 4.238 2.4702 4.238 4.5995 2.249 5.1211 5.1937 5.1211 5.1937s-.3514.0075-.1507.379.2007 1.215.4215 1.9682-.2708.7531-.4319 1.5063-.5018.4618-.9536.9541-1.3152.4313-2.2695.7028-3.0626-.7833-3.0626-.7833c1.0036 1.0042 1.2056 3.8758-.1182 4.7245l.0828.6099c.0604.3611-.3238 1.2127-.5787 1.9506l-.2787.7681s.0802 1.2955.2511 2.1389-.1806 1.5566-.1806 1.5566c2.2289 3.4745-.9051 7.0025-.9051 7.0025 2.3708-.5482 4.4912-1.3504 5.7851-2.4235l-.0604-.3618 1.7074-4.6994 1.3263-.8035 1.1043-.4417 1.6872-.5823c.4605-.1838.888-.4416 1.2653-.7633.6028-.5219.783-.8437 1.2854-1.8271s1.0244-1.6469 1.3657-2.7918.3618-1.5865.4823-2.6914.3378-1.466-.0033-3.0723m-40.5076-9.1177l1.3351-.5878q.0585-.7551.1157-1.5112l.0503-.5771c.0166-.1926.2913-1.431.2965-1.4511l.5021-2.1948.1705-1.5213.4667-1.6771.2261-1.757.1861-1.2903.0649-.5976-1.3504-.2962c.5875 1.5816-1.7622 11.0514-2.0636 13.4615m-2.3199 11.9594l.6028.5122.673-1.7271-.7435-.7934zm-1.732 11.9491l.9094-2.8713-1.7226-.0965c.4969.4385.8886 1.3111.8132 2.9678" fill="#a1a5a8" class="B C"/>
    <path d="M44.1053 37.4873l1.5378-1.0702c3.2078-1.8531 2.0727-2.9807 1.0799-3.9498-2.591-4.0175-1.0964-4.1377-1.6882-6.9288-1.1666-5.8653-8.5964-4.6052-8.5964-4.6052l-2.9934 2.9882c-1.8265 1.6161-4.7933 5.9284-5.9239 8.941l-.1802 1.5401.1805 2.4968.2868 1.4771c.0955.4924.7064 2.2123.7236 2.3189s.4651 1.1903.4651 1.1903l.3183 1.9447.39 2.6943c.1303.898.4219.8893 1.4472 2.9233s2.9691 2.4098 2.9691 2.4098c5.9622 2.1065 13.0283-.4936 12.0185-5.5887l-.5277-1.2218c-.3758-.8749-.1351-1.3263-.1351-1.3263 2.2149-2.3329-.0458-3.7502-.0458-3.7502s.0844-.1494-.4362-.2553-1.2796-.694-1.6482-1.1519.7587-1.0763.7587-1.0763m-3.0653-3.2754c0 .0364-.2555 1.2199-.2555 1.2199l-.3833 1.0854-.4456 1.4459-.1952 1.1302-.3013 1.3991-.8217 1.5881-1.1591.9035-.8363.256c-.0218.0091-1.0533 0-1.0533 0l-.8145-.2248c-.039-.0214-.7444-.3929-.7444-.3929l-.8509-.8867-.5878-1.0769-.3235-.8003c-.1072-.2669.0075-1.2796 0-1.376l-.0987-1.6749c0-.0191.3618-1.3907.3761-1.429s.3182-1.2341.3182-1.2582.8263-1.5348.8578-1.5738 1.1497-1.024 1.1818-1.0458 1.658-1.0555 1.658-1.0555l.7015-.1062c.0386-.0078 1.0146 0 1.0146 0l1.1302.3014q.3702.2744.7398.5495l.6918.989.2413 1.085c.0802.3618-.04.9094-.04.9484M25.1327 10.0339l-.7236 5.4627-1.466 8.5171c-.4888 2.8392.3768.5047.3992.5122s.4969.0452.4969.0452l.8811-1.0611c-.5768-.7593.3312-3.4345.7236-5.8443s1.4459-6.7929.7531-7.8926zM21.671 31.6206l-.2712 2.2971.9919.6674.5722-2.1588-.3063-1.4537zm-1.9103 12.936l-.7931 3.4842-.3215 2.6309c-.1072.8769-.5421.914-.0601 1.7074s1.1045-.8087 1.3153-2.2393.492-3.9558.0903-5.6235z" fill="#f6fbfd" class="B C"/>
    <path d="M37.3481 70.9905c-1.9425.0097-3.516-.1299-4.5644-.4073l.2072 1.6677.0072.0507 1.0269 6.437c3.501.3472 6.9742.3397 10.3362.0578-1.6856-3.8343-4.4487-6.3721-7.0131-7.8059" fill="#df6064" class="B C"/>
    <path d="M47.7278 43.3023s-.646.9087-1.7593 1.4342c1.241 2.8655 5.0801 1.6242 3.9525-1.7521-.9883.6411-2.1932.3183-2.1932.3183M25.3945 17.6586q-.0215.1445-.0507.2894c.2267.0315.5336.1494.7216.2556l.3618-1.8256c-.2072-.0818-.5163-.1559-.7502-.1929l-.2825 1.4735M67.4078 70.579c-.3157-.9353-.7522-1.2653-1.039-1.9885s-1.0386-1.2797-1.5979-2.2144c-.2215-.3712-.605-.6846-1.0409-.9889-3.3328 1.4556-7.0057 2.6125-10.6428 3.49 3.7333 1.4073 6.7748 3.5547 8.8423 5.8417 2.2321-.8749 4.2779-1.8388 6.0927-2.8437a39.325 39.325 0 0 0-.6148-1.2962" fill="#aa282a" class="B C"/>
    <path d="M72.8299 59.6773c-2.3422 2.2559-5.5286 4.1549-9.1001 5.7092.4361.3037.8204.6171 1.0412.9889.5593.9351 1.3111 1.4914 1.5979 2.2143s.7236 1.0533 1.0386 1.9883c.2126.4286.4174.8609.6145 1.2968 2.9259-1.6196 5.2467-3.3474 6.765-4.9862zM26.3877 16.3614l-.3618 1.8194a3.115 3.115 0 0 1 .7135.5547q.1874-.8594.3758-1.7181c-.1104-.316-.3855-.5209-.7275-.656m22.689 30.3741s.7937-.2394 1.2201-.9487.3216-.7587.4281-1.3621-.4281-1.1984-.4281-1.1984c-1.3403.9938-2.0184 2.3494-1.2201 3.5092" fill="#771c1c" class="B C"/>
    <path d="M53.0875 68.8772c-5.8563 1.4095-11.621 2.0945-15.7394 2.1133 2.5644 1.4339 5.3282 3.9717 7.0131 7.8059 6.4442-.5372 12.4859-2.0798 17.5683-4.0775-2.0672-2.2871-5.1087-4.4345-8.842-5.8417M24.2954 16.1494l-.1185.6917v1.6388c.3858-.4774.8201-.5855 1.2169-.5255q.0293-.1448.0507-.289c.0698-.4365.164-.9409.2653-1.4754-.5803-.0887-1.1711-.0598-1.4144-.0406m22.8985 30.3652h.3416c-.1909-1.0642.8786-3.0327 2.0383-3.5747l-2.0607-.2962-2.2519 1.8976.9587 1.3706z" fill="#d63d3d" class="B C"/>
    <g class="D B C">
        <path d="M82.5851 48.484c3.1042-4.097 1.5375-10.5343-9.7292-9.8403 0 0-1.9279-3.7329-6.1597-4.892-.1058-2.3088-1.4507-3.9574-2.716-5.0408s-2.0364-2.7379-2.7233-3.4075c0 0 1.2962-2.5355 1.0747-5.6297s-1.5712-4.8852-2.882-6.0297l1.0815-.0942c-1.5784-1.9229-4.0772-3.6416-9.4396-2.5858l.5109-1.3205c-2.9665.3903-5.1161 2.8216-6.3818 7.4805-2.7109-.13-8.5837 1.9976-11.406 4.88-1.3134-1.0289-4.478-1.846-6.8443-1.2627l2.026-10.3798c-.6795-1.2796-3.1136-2.1061-4.3309-.4121l-2.518 15.4189a9.116 9.116 0 0 0-.5927.899c-1.0003 1.7304-.772 3.4296-.3014 4.5793l-.3881 2.3708c-2.3857-1.0366-6.2294-.8746-8.1576 3.4683-1.8652 4.198.5307 10.4158 5.1405 15.0139l-.2121 1.3023c.0819.8769 1.7125 1.9227 2.834.9494q.1598.1188.3231.2338s-4.1308 2.2412-6.4396 5.3545-1.6268 8.1336 4.478 8.9573 12.3316.2003 12.3316.2003l4.2536 26.2953c1.4179 8.7649 4.5429 3.287 12.3151 3.6196S73.8806 95.9288 81.11 83.0356l-8.184-26.8554s6.5578-3.5995 9.6594-7.6962m-10.7337-7.1817c.1754 2.3546-1.0896 5.4536-1.1474 5.5936.0649-.0747 1.1155-1.292 1.6193-2.4199 0 0-.3709 4.4273-4.5887 7.9215s-9.4444 2.3813-10.8734-1.0672c0 0 3.0557 2.5592 7.0923.3443 0 0-4.4922.6437-6.2898-1.7954-1.7571-2.3835.8532-5.1372 4.6679-5.8848 3.415-.67 4.2393-2.5907 4.2393-2.5907s-1.5979.6433-2.6872.8073c0 0 2.4557-3.2727 2.6028-6.6513 3.3087 1.4865 5.1837 3.3325 5.3646 5.7426M25.7216 10.1992s1.188-.5109 2.2428.4121L25.9116 21.133c-.2274.1156-.4417.2552-.6385.417a1.767 1.767 0 0 1 .5228.1805l-.1373.7015c-.2819.1348-1.1907.6074-2.1786 1.4891zM23.061 26.4859c.5255-.8363 1.2965-1.6268 2.2462-2.2462a7.638 7.638 0 0 1 1.099-.6031 7.732 7.732 0 0 1 2.7287-.6697c.9428-.0545-.4917-.8197-.9278-1.1347 0 0 2.3136-.2796 4.4922 1.4267 0 0-1.3088 1.1254-1.808 3.6245 0 0 3.6878-4.338 7.8036-6.4273s9.4276-2.5209 14.1579-1.7073c0 0-1.5661-1.7015-5.9645-1.6726 0 0 .5879-3.2532 2.6654-5.0005 0 0-.0747.6482.0312 1.2507 0 0 3.7307-2.6703 7.8059-.6216 0 0-.8119.3712-1.1279.7323 0 0 2.8148 1.0945 4.061 3.5235 1.1302 2.2101-.1569 5.8589-.4024 6.5068 0 0-1.1445-1.5449-2.8801-2.4001 1.8557 2.3813 2.7813 4.7908 4.2055 6.6394s3.9161 3.0723 3.6969 6.6273c-.2121 3.4078-1.9668 7.1408-3.2803 8.1313-1.5491.2193-4.7741 1.0458-6.2801 4.5102s.6171 6.4311.6171 6.4311-4.0298 1.4748-9.1869 2.9645c-5.5166-.0337-11.2738-.796-12.7584-.87 2.0101 1.1061 5.6154 2.0097 7.1311 2.3594-1.4592.35-2.9282.6576-4.4052.9227-1.4992.0724-7.2853-1.1133-11.5223-3.7232-1.4388-.8866-2.9448-1.8944-4.3897-3.061l.8282-4.236c2.2624 2.1932 5.2292 3.1185 5.2292 3.1185s-3.5303-2.7638-4.9307-4.641l.3689-1.8921c1.4504-.4317 2.7304-1.6752 2.8723-4.1724 0 0 1.3933.8581 2.6797 1.0146.3498.8681.3738 1.7304.4196 2.7011-1.3303-.0048-2.745-.328-2.8314-.3468.1082.0964 1.8889 1.6385 2.9785 2.0048.1709 1.1182.5521 2.4027 1.494 3.9668 2.3906 3.9554 7.271 5.4948 11.6886 4.2227 0 0-7.7046.0695-10.4233-5.6082-2.1591-4.5166-.5567-4.3552-2.1084-7.9553-1.3306-3.0922-1.3449-6.9891-1.1234-8.5097 0 0-1.3374.8795-1.4712 3.4848 0 0-1.1335-.5307-2.0123-1.8843a5.977 5.977 0 0 1-.6918-1.4849c-.2312-.7278-.3589-1.593-.3033-2.6102 0 0-.4774.152-1.0075.593a3.79 3.79 0 0 0-.111.0988c-.3505-.9893-.0829-2.2254.6469-3.3777zm.9165 9.6058l.1712-.8795c.6031.7638 1.417 1.4842 2.5063 1.9522 0 0 .1805 1.2075.5375 1.8798 0 0-1.3306-.4196-2.2946-1.1205-.0006-.001-.2874-.8291-.9213-1.8317zm-1.8486-3.9015s.1712-.3037.3859-.5067c0 0 .1906 1.1094.8772 2.3741l-.1903.9737a7.599 7.599 0 0 0-1.3326-1.2504zm-8.0154 10.9013c-2.0775-5.6916 1.9279-9.8403 5.2818-8.9361.4326.1182.8477.2932 1.2341.5206.3498.2043.6769.445.976.7181a6.396 6.396 0 0 1 1.2315 1.5085 6.105 6.105 0 0 1 .6674 1.6002c.3401 1.3267.1689 2.7066-.7349 3.7742-.3139.3715-.7077.6672-1.152.8652-.4384.2-.8964.2965-1.3329.3325a5.701 5.701 0 0 1-1.0889-.0217c-.6366-.0721-1.0773-.2215-1.0773-.2215.2001.3348.5421.6271.9759.8483l-.8941 5.4636c-1.7086-1.8115-3.1691-3.9346-4.0872-6.4532zm5.9141 8.2038l-.3929 2.0119v.0052a1.234 1.234 0 0 1-.8941-.3809l.0555-.3397.3446-2.1065.9889-6.0515c.4005.0844.8107.1153 1.2195.0919zm-.2098 15.5946c-4.0583-.5229-5.5646-3.6557-3.6559-6.8082s6.2561-4.9499 6.2561-4.9499l.9064.5787c-4.9404 3.0828-3.9232 6.8755-1.8603 8.0012-1.0292-2.2605-.0506-5.3958 3.907-6.7794.7038.4002 1.4196.7785 2.0146 1.0315-1.3374 3.6969 4.4137 3.3527 12.3034 1.8174s17.413-5.0924 17.413-5.0924c3.1331 2.7135 9.0953 1.7496 12.8308-2.227 5.755-6.2973 3.5456-11.9799 3.5456-11.9799 3.3737-.4215 10.2833.6821 8.5961 5.5023S67.9174 58.4555 51.5891 62.7945s-27.7161 4.617-31.7719 4.0941zm59.4757 15.9369c-.8951 1.9847-6.9972 7.336-11.4973 9.4438.0965-.1108 3.2147-3.6609 3.5936-8.1096 0 0-5.1304 8.8754-12.7535 11.0303-4.398 1.0853-14.4913 2.5764-21.3281-1.0098-1.2459-6.1258-4.2175-24.2608-4.1864-25.8064 1.8298.0435 12.1849-1.9055 22.0924-4.7859 8.9478.3251 12.9922 8.8251 13.1205 9.0946-1.2315-6.3298-5.131-9.5334-7.5623-10.8357 4.234-1.4365 8.0316-3.022 10.5772-4.6585z"/>
        <path d="M44.7126 45.0089c.4027.7876 2.2702 3.6122 4.9674 2.2072 2.4553-1.278 1.7639-4.5598 1.3326-5.1645 1.5543-1.5979.1468-3.4391.1468-3.4391-.1592 3.013-2.6025 3.5358-3.7018 2.8727 0 0-1.4988 3.338-4.9018 1.6969-.001 0 .3325 1.6411 2.1571 1.8268m3.0149-1.7066s1.2059.3231 2.1935-.3183c1.1273 3.377-2.7118 4.6183-3.9528 1.7525 1.1139-.5255 1.7596-1.4342 1.7596-1.4342m-1.7788-3.1594c.7236-.1709 1.5677-.8168 2.1569-2.1737s.06-2.3498-1.4992-2.1305-3.907 1.4653-3.8609 2.4319 1.7642 2.2084 3.2032 1.8723m-2.0295-1.9737c.521-.3183 1.0945-.658 2.2296-.9931s1.3757.3858.6073 1.2438-1.6485 1.2433-2.8102.3229c-.4193-.3326-.1494-.4986-.0267-.5736m5.794-4.4175c2.6504.9038 3.8193 2.7956 7.0294 1.0701 2.1091-1.1351 2.8609-4.097.2871-6.8852s-7.1148-3.5641-9.3847-2.5884-2.9064 3.1327-2.9064 3.1327c-.92 3.644 2.3235 4.3669 4.9746 5.2711m.0097-7.7722c2.7564-.2409 5.3231 1.7278 5.7956 2.1283 2.5884 2.2003 2.5641 4.7271.6362 5.8391s-4.8534-.6674-6.8319-1.4508c-1.8369-.7275-3.1233-.7736-3.555-2.439s1.2001-3.8366 3.9548-4.0776M35.7839 43.8203c2.0315.1257 3.567-1.1335 4.1597-2.7375s.3378-2.7665 1.1036-4.8898 1.4004-5.4198-2.1831-6.2824c-3.6995-.8896-6.8228 3.0772-7.1843 7.2752-.3206 4.0564 1.4933 6.4734 4.1041 6.6345M32.81 36.4161c.4099-4.0002 4.4897-6.7936 6.7916-5.0005 2.1542 1.6771.4528 4.0223 0 6.2512s-.8271 5.047-3.7358 5.136-3.277-4.2263-3.0545-6.3861z"/>
    </g>
    <path d="M36.0947 38.873q.1436.0721.2966.1205c-.4531-.67-.5307-1.5956-.1228-2.4121.5349-1.0698 1.7181-1.5881 2.7544-1.2536-.2025-.3004-.4788-.5437-.8025-.7064-1.099-.5469-2.465-.0409-3.0509 1.1335s-.1738 2.5689.9255 3.1178m15.2816-9.6928c.9106.075 1.6629.6193 2.0019 1.3523q.037-.1559.0481-.3157c.099-1.2244-.8821-2.3016-2.1884-2.4052s-2.4487.8025-2.5494 2.0259c-.0278.3607.0377.7225.19 1.0506.2494-1.0594 1.3046-1.8044 2.4978-1.7079" class="B C E"/>
    <path d="M17.5502 71.981s-.7716 2.781-3.0223 4.6079c2.2513 1.8268 3.0223 4.6079 3.0223 4.6079s.7736-2.7811 3.0243-4.6079c-2.2507-1.8269-3.0243-4.6079-3.0243-4.6079" class="B C D"/>
    <use href="#B" class="B C E"/>
    <use href="#B" class="B C D"/>
    <use href="#C" class="B C E"/>
    <use href="#C" class="B C D"/>
    <use href="#D" class="B C E"/>
    <use href="#D" class="B C D"/>
    <path d="M89.7882 43.6826s-.4547 1.6401-1.7817 2.7164c1.3267 1.0769 1.7817 2.7164 1.7817 2.7164s.4557-1.6401 1.7827-2.7164c-1.327-1.0769-1.7827-2.7164-1.7827-2.7164" class="B C E"/>
    <path d="M89.7882 43.6826s-.4547 1.6401-1.7817 2.7164c1.3267 1.0769 1.7817 2.7164 1.7817 2.7164s.4556-1.6401 1.7826-2.7164c-1.327-1.077-1.7826-2.7164-1.7826-2.7164m-4.4916 8.5977s-.7113 2.565-2.7872 4.25c2.0759 1.6849 2.7872 4.2503 2.7872 4.2503s.7132-2.5654 2.7898-4.2503c-2.0766-1.685-2.7898-4.25-2.7898-4.25M33.7213 13.7665s.6051-2.0916 2.3656-3.466c-1.7602-1.3748-2.3656-3.466-2.3656-3.466s-.6031 2.0915-2.3637 3.466c1.7603 1.3744 2.3637 3.466 2.3637 3.466" class="B C D"/>
    <defs >
        <path id="B" d="M10.7927 51.4557s-.6034 2.1753-2.3637 3.6047c1.7606 1.429 2.3637 3.604 2.3637 3.604s.6051-2.175 2.3656-3.604c-1.7605-1.429-2.3656-3.6047-2.3656-3.6047"/>
        <path id="C" d="M41.0907 8.4987s.7136-2.5638 2.7908-4.2487C41.8052 2.5651 41.0917 0 41.0917 0s-.7122 2.5657-2.7885 4.25c2.0763 1.6849 2.7875 4.2487 2.7875 4.2487"/>
        <path id="D" d="M70.8341 25.8422s.6463-2.3221 2.5254-3.8473c-1.8791-1.5251-2.5251-3.8469-2.5251-3.8469s-.6437 2.3218-2.5228 3.8469c1.8791 1.5255 2.5228 3.847 2.5228 3.847"/>
    </defs>
</svg>