<svg xmlns="http://www.w3.org/2000/svg" width="100" height="100" stroke="none" stroke-linecap="round" stroke-linejoin="round" fill="#555" fill-rule="evenodd">
    <path d="M11.6813 68.013V31.8987c0-2.4389.8442-4.2212 2.345-5.253 1.6885-1.1257 3.377-1.9699 5.0654-3.0017l25.327-14.6334c5.3468-3.0955 5.6282-3.1893 10.975-.0938l30.0171 17.3537c1.6885.938 3.0017 2.5326 3.0017 4.9715v37.709c0 4.4088-4.2211 5.6283-7.6918 7.6919-2.5327 1.5009-27.8597 16.6032-29.7358 16.6032-2.4389 0-2.5327.2815-4.6901-1.0318-.9381-.5628-1.5009-.938-2.4389-1.407L23.9695 79.2694c-1.7822-.938-3.3769-1.9698-4.9716-2.9079-3.7521-2.1575-7.3166-3.1893-7.3166-8.3485zM4.9274 32.5553V67.075c0 6.4724 2.3451 10.1307 6.5663 12.6634 4.0335 2.4389 7.9732 4.5964 12.1006 7.0353l12.1945 7.0353C38.5091 95.4036 45.8257 100 48.7337 100c7.129 0 7.7856-1.9699 15.1023-6.0034 2.1575-1.1257 3.846-2.1575 5.9096-3.377l18.1041-10.4121c3.7522-2.2513 7.2229-5.5344 7.2229-11.5379V31.6173c0-5.8159-3.0017-9.2866-7.4105-11.8193-2.1575-1.1256-4.0335-2.2513-6.0972-3.4707-2.0637-1.3133-3.9398-2.2513-6.0972-3.5645L63.367 5.8213c-2.2513-1.2195-3.9397-2.3451-6.0972-3.5645-2.2513-1.2195-4.784-2.3451-7.5043-2.2513-4.315.1876-9.2866 3.5645-13.2263 5.9096-4.1274 2.5327-8.2547 4.6902-12.3821 7.1291-2.0636 1.3132-4.0335 2.345-6.0972 3.4707l-6.0972 3.5645c-4.1274 2.3451-7.0353 6.0034-7.0353 12.4759zm28.7977 8.6299H21.5307c0 2.0637-.2814 2.8141.938 2.8141h56.0007v-2.8141c-13.0387 0-11.7254.938-12.5697-2.4389l-6.0034-21.1996c-1.3132.6566-1.2194.8442-2.3451 1.7823l-4.784 3.8459c-.8442.6566-1.6884 1.5009-2.4389 1.9699-1.5946-.3752-6.0972-4.5026-7.598-5.8158-.4691-.3752-.7505-.5629-1.2195-.9381-.8442-.7504-.2814-.5628-1.407-.8442-.1876 1.7823-4.0336 14.4457-4.784 17.5413-.469 1.7822-1.5009 4.3149-1.5947 6.0972zm-1.9699 30.3923c5.253 0 8.6299.5629 12.7573-3.6583 2.6265-2.7203 3.2831-5.253 3.2831-9.1927 1.5009 0 1.0318-.2814 2.2513-.2814 1.1256 0 .7504.2814 2.1575.2814 0 4.5025 2.1574 9.4741 5.1592 10.2245.0938-1.0318 1.2194-3.2831 1.5946-4.1273l4.5964-10.506c.7504-1.8761.8442-1.6885-3.0017-1.6885-3.4707 0-5.3468.7505-7.0353 3.2832-1.407-.0938-1.2194-.3753-3.4707-.3753-1.7823 0-1.9699.3753-3.5645.3753-.6567-2.5327-4.6902-3.2832-7.0353-3.2832-.938 0-.469-.2814-1.5009 2.0637l-6.2848 14.821c-.469.938-1.4071 2.0636.0938 2.0636zm30.1109 0c6.191 0 8.2547.469 12.0068-2.3451 6.8477-5.0654 7.2229-16.6032-3.3769-16.6032-1.3132 0-4.1273 7.7857-4.6902 9.0989-.7504 1.7823-3.8459 8.63-3.9397 9.8494zM26.3147 68.951c.2814-1.1256 1.2194-2.8141 1.6884-4.0335.8442-1.8761 4.9716-11.0688 5.0654-12.2883-2.8141 0-5.6282-.0938-7.5981.7504-7.4105 3.0017-3.1893 14.5396.8443 15.5714zm1.9698 1.5947l2.2513.7504c.1876-1.0318.5628-1.5947.8442-2.3451l6.191-14.3519c.7505-1.5947 1.0319-1.9699-1.0318-1.9699-1.0318 0-1.2194.938-1.5008 1.6885l-.9381 2.2512c-.938 2.0637-5.722 12.6635-5.8158 13.9768z"/>
    <path d="M59.2396 70.5457l2.2513.7504c.0938-1.2195 3.1893-7.9733 3.9397-9.6618l3.0955-7.129c.7505-1.6885 1.1257-1.8761-1.2194-1.8761-1.0318 0-1.1256.938-1.5008 1.7823-.2815.938-.4691 1.3132-.9381 2.2512-.6566 1.6885-1.2194 2.8142-1.8761 4.5026-.7504 1.8761-3.6583 7.8795-3.7521 9.3804z"/>
</svg>