<svg xmlns="http://www.w3.org/2000/svg" width="100" height="100" stroke="#000" stroke-linecap="round" stroke-linejoin="round" fill="#fff" fill-rule="evenodd">
    <path d="M34.9283 12.8899c10.484-11.7788 27.8446-15.234 42.1176-8.435 18.9632 9.0342 25.8815 32.0479 15.557 49.8002l-23.226 39.8914c-1.298 2.2291-3.4339 3.8556-5.9385 4.5223s-5.1732.3189-7.42-.9669l28.1193-48.3048c7.4908-12.8842 2.4805-29.5848-11.268-36.1603-10.3158-4.9336-22.9264-2.469-30.5469 6.0155-4.2039 4.6578-6.564 10.6714-6.6427 16.9255s2.1294 12.3245 6.2143 17.0853c.7342.8543 1.5243 1.6596 2.3652 2.4108L27.8434 83.9242a9.722 9.722 0 0 1-2.5152 2.8488c-1.0186.7764-2.1812 1.3459-3.4216 1.676a9.844 9.844 0 0 1-3.8071.2481 9.825 9.825 0 0 1-3.6132-1.2174l17.8215-30.6701c-2.5598-3.6647-4.3983-7.7776-5.418-12.1212L15.9692 63.5201c-1.2981 2.229-3.4342 3.8556-5.9385 4.5222s-5.1733.319-7.42-.9668l28.2405-48.5761c1.1754-1.9947 2.5407-3.8732 4.0771-5.6095zM67.5234 28.352c6.8011 3.9004 9.1501 12.5751 5.2147 19.3262L45.6573 94.1409c-1.2981 2.2291-3.4336 3.8553-5.9385 4.522s-5.1733.3189-7.42-.9666l25.1454-43.2569a14.295 14.295 0 0 1-5.5728-2.4957c-1.654-1.2227-3.021-2.7871-4.0066-4.5852a14.071 14.071 0 0 1-1.7029-5.8308c-.1361-2.0429.1758-4.0908.9145-6.0023s1.886-3.6414 3.3633-5.0697 3.2491-2.5211 5.1932-3.2029 4.0138-.9369 6.0665-.7474 4.0401.8199 5.824 1.8466zm-9.8507 8.7318c-.4651.3548-.8557.7972-1.1491 1.3018h-.0012c-.4418.7602-.6465 1.6332-.5888 2.509s.376 1.7148.9142 2.4108 1.2718 1.2183 2.1087 1.5003 1.7391.3114 2.5931.0843a4.472 4.472 0 0 0 2.2024-1.3606 4.424 4.424 0 0 0 1.0708-2.3464c.1153-.8702-.0317-1.7547-.4226-2.5418s-1.0082-1.4414-1.7732-1.8802a4.487 4.487 0 0 0-1.6509-.5566c-.5818-.0759-1.1729-.0376-1.7396.1134a4.483 4.483 0 0 0-1.5638.766z" fill="#615eff" stroke="none"/>
</svg>