<svg xmlns="http://www.w3.org/2000/svg" width="100" height="100" stroke="#000" stroke-linecap="round" stroke-linejoin="round" fill="#fff" fill-rule="evenodd">
    <defs>
        <linearGradient id="A" x1="50.00%" y1="11.39%" x2="50.00%" y2="100.00%">
            <stop stop-color="#35198e" offset="0%"/>
            <stop offset="100%" stop-color="#8d6af1"/>
        </linearGradient>
    </defs>
    <g stroke="none">
        <path d="M8.3347 21h-.0014v58.3334h.0014C8.5137 90.7624 27.0994 100 50 100s41.4862-9.2376 41.6653-20.6666h.0014V21h-.0014C91.4862 32.4291 72.9007 41.6666 50 41.6666S8.5137 32.4291 8.3347 21z" fill="url(#A)" fill-rule="nonzero"/>
        <path d="M50 41.6666c23.0119 0 41.6667-9.3273 41.6667-20.8332S73.0119 0 50 0 8.3333 9.3274 8.3333 20.8334 26.9881 41.6666 50 41.6666zM50.1667 31.5C61.6726 31.5 71 26.8363 71 21.0834s-9.3274-10.4168-20.8333-10.4168-20.8334 4.6637-20.8334 10.4168S38.6608 31.5 50.1667 31.5z" fill="#8d6af1"/>
        <path d="M36.6666 70.6206V85.752c0 .853-.9218 1.388-1.6623.9647l-11.7778-6.7301c-.3462-.1979-.5599-.566-.5599-.9648V46.3082c0-.8664.9474-1.3994 1.6879-.9497l24.9089 15.1287a1.111 1.111 0 0 0 1.1434.0062l25.5821-15.1655c.7408-.4391 1.6777.0948 1.6777.9558V79.661a1.111 1.111 0 0 1-.5955.9843l-11.7778 6.1694c-.7398.3873-1.6267-.1492-1.6267-.9843V70.5727c0-.8512-.9179-1.3861-1.6585-.9668L50.3946 76.182c-.3471.1967-.7728.192-1.1158-.0117l-10.9329-6.5046c-.7408-.4408-1.6793.0931-1.6793.9549z" fill-rule="nonzero"/>
    </g>
</svg>