<svg xmlns="http://www.w3.org/2000/svg" width="100" height="100" stroke="none" stroke-linecap="round" stroke-linejoin="round" fill="#ff6310" fill-rule="evenodd">
    <path d="M.0089 49.1194c0 2.5618.0712 4.2697.3558 6.7603.2847 3.06.9251 6.0488 1.8502 8.8952l.4982 1.4944.925 2.4195 1.2098 2.8465 1.8502 3.4869c.1423.2847.2847.5693.4981.854l1.7079 2.633c.0712.0711.0712.1423.1423.2135l2.633 3.4157 8.8952-8.8952c-.1423-.3558-1.2809-1.779-1.5655-2.2772-1.3521-1.9925-2.4907-4.1274-3.4869-6.3334-.854-1.9925-1.5656-4.1274-1.9926-6.2622-.2846-1.2097-.4981-2.4907-.6404-3.7716-.0712-.2135-.0712-.5693-.1424-.8539l-.0711-1.3521c0-.2135-.0712-.2135-.0712-.427v-.9962c-.0711-.854 0-1.7079 0-2.5618l.0712-1.5656.427-2.9176c.0711-.9251.3558-1.9214.4981-2.7753.0712-.2135.1423-.3558.2135-.6405 0-.2135.0711-.427.1423-.6405.427-1.4232 1.1386-3.558 1.779-4.9101l1.4944-2.9888.427-.8539 2.3483-3.487 1.4944-1.8502c.2135-.2846.4982-.5693.7828-.8539 0-.0712 0-.0712.0712-.1423l.0711-.0712 1.8502-1.8502c1.4233-1.4232 2.9888-2.5618 4.5544-3.7004.2135-.1423.3558-.2847.5693-.3558l1.4944-.9251 3.2734-1.7791 3.5581-1.4232 4.4832-1.2809 3.5581-.5693 2.3483-.2135h3.2023l1.5656.0712c1.779.0711 5.4082.7828 7.045 1.2809.4981.0712.8539.2135 1.2809.3558l1.2809.427c1.779.5693 3.4869 1.4232 5.1236 2.2771.7828.3559 1.4233.7828 2.1349 1.2098l2.9176 2.0637c.1423.0711.3558.2846.4981.3558.3558-.2135 7.4009-7.3297 8.3971-8.3971.1423-.1423.4982-.3558.4982-.5693-.1424-.2135-2.7042-2.1348-3.06-2.4195-.4981-.3558-1.0674-.7116-1.5655-1.0674l-5.4083-3.1311c-.1424 0-.1424 0-.2847-.0712l-.427-.2135c-.0711-.0711-.1423-.0711-.2135-.1423-.1423 0-.1423 0-.2846-.0712s-.2846-.1423-.4981-.2134l-2.3484-.9963c-.9962-.427-1.9925-.7116-3.0599-1.0674-.0712-.0712-.1423-.0712-.2135-.0712l-.2135-.0712C60.6387 1.014 57.5076.4448 53.4514.1601c-2.2772-.2135-4.6256-.2135-6.9027 0-1.281.0712-2.633.1423-3.8428.3558-2.2771.427-4.1274.7116-6.4045 1.4233-.2135.0711-.3558.0711-.5693.1423l-.854.2846c-.0711 0-.2134 0-.2846.0712l-2.9176.9963c-.1424.0711-.3558.1423-.4982.2134L26.908 5.6396c-1.352.6404-2.633 1.4232-3.9139 2.2771l-1.352.9252c-.2135.1423-.2847.2134-.4982.2846l-1.352.9963c-.7117.5693-1.3521 1.1385-2.0637 1.7078l-2.9177 2.633-.7116.7116c-.0711.1424-.1423.1424-.2135.2135v.0712l-1.9925 2.206-2.0637 2.5618c-.6404.854-1.2809 1.7791-1.9213 2.7042-1.1386 1.779-2.0637 3.6292-3.06 5.4794-.0712.2135-.1423.3558-.2135.5693-.2135.3558-.3558.6405-.4981.9963-.427 1.1386-.9251 2.2771-1.2809 3.3446l-1.1386 3.5581c-.2847.9962-.4982 2.0637-.7116 3.1311-.2847 1.2097-.6405 3.3446-.7116 4.6966-.0712.9252-.2135 1.9214-.2135 2.9177 0 .2846-.0712.427-.0712.6404v.854h0 0zm87.3866.9251c0 2.9887-.3558 5.9775-1.0674 8.824l-.1424.6405-.2134.7116c-.2135.8539-.427 1.6367-.7828 2.4906l-.9251 2.3484-1.4944 2.9888-.4981.8539c-1.281 2.206-2.8465 4.2697-4.5544 6.1911l-.3558.4269c-.427.427-.7828.9251-1.2809 1.281-.7116.6404-1.3521 1.352-2.1349 1.9213-1.2097.9963-2.4906 1.9926-3.8427 2.8465l-1.5656.9251c-.1423.0712-.3558.2135-.4981.2846-.9251.5693-1.8502.9251-2.7753 1.4233-1.0674.4981-2.206.8539-3.2734 1.2809l-2.9177.8539-4.1273.7828c-.2135 0-.4982 0-.7117.0712l-2.3483.2135h-3.2023c-1.2097 0-3.3446-.2135-4.5543-.427l-1.4233-.2847c-1.352-.2135-2.6329-.5693-3.9138-.9962l-1.281-.427c-1.779-.5693-3.4869-1.4232-5.1948-2.2772l-3.0599-1.8502-1.4944-.9962c-.2135-.2135-.7828-.7117-.9963-.7828-.3558.2846-1.779 1.8502-2.206 2.206l-6.1199 6.1911c-.1423.1423-.4981.3558-.5693.5692.2135.2847 2.7042 2.1349 3.06 2.4195l3.3446 2.1349 3.985 2.1349.6405.3558c.0711.0711.0711.0711.2135.0711l1.9213.854 3.487 1.2809c.2134.0711.3558.0711.4981.1423l1.0674.3558c.2135 0 .3558.0712.5693.1423l2.1349.5693c2.5618.5693 5.1236.9251 7.7566 1.0674L48.47 100h.3558 2.1349c.9963 0 1.9925-.0712 2.4907-.1424h.3558c.2135 0 .4981 0 .7116-.0711l2.7753-.2847c2.5618-.4269 4.412-.7827 6.9738-1.5655l3.4158-1.1386c1.0674-.3558 2.3483-.9251 3.3446-1.4232l.2135-.0712 4.2697-2.2772 4.6255-3.1311 2.9888-2.4195c.0712-.0711.0712-.1423.2135-.2135.4269-.2846.7828-.7116 1.2097-1.0674l1.5656-1.5656v-.0711l.1423-.1423.427-.427 1.4232-1.6367 2.7042-3.4158 1.8502-2.7753c.1423-.3558.3558-.7116.5693-.9963.0711-.1423.2134-.3558.2846-.4981l.6405-1.2097c.0711-.1424.0711-.2135.1423-.2847l.7828-1.5655c.4269-.7828.9251-1.8503 1.2097-2.7042l.427-1.0674 1.2097-3.4869.6405-2.4907.5693-2.4907.5693-4.0562.2135-2.8464c0-.3559.0711-.427.0711-.7117v-1.7078l-.0711-2.7754c0-.2134-.0712-.6404-.0712-.8539 0-.2846-.0712-.6404-.0712-.9251H87.1108c0 .6405.2847 2.1349.2847 3.3446v1.2098zM66.901 73.1008l-8.8953-8.8952c-.2134 0-.2846.0712-.4269.1424-1.4944.7827-3.1311 1.4232-4.839 1.7078l-3.2735.2135c-1.0674 0-2.4195-.2135-3.4157-.4981-.1423 0-.2135-.0712-.3558-.0712l-2.5619-.9251c-3.4869-1.6367-6.1199-4.2697-7.8277-7.7566-.3558-.7828-.7117-1.6367-.9251-2.4195-.7117-2.4195-.7828-4.9813-.3559-7.472.1424-.9251.3559-1.8502.7117-2.7041l.7116-1.6367c.0711-.2135.2846-.5693.3558-.7828l-.3558-.3558v-.0712c-.0712-.0712-.1423-.0712-.2135-.1423l-1.9214-1.9214-.0711-.0711c0-.0712 0-.0712-.0712-.0712l-2.7753-2.7753c-.0712-.0712-.0712-.1423-.1423-.1423l-3.4158-3.4158c-.1423.2135-.2135.2847-.3558.4981-.2846.427-.6404.9251-.9251 1.4233l-.7116 1.2809c-.427.7828-.8539 1.5655-1.2098 2.4195-.0711.1423-.1423.3558-.2134.5693l-.854 2.3483c-.4981 1.4232-.9962 3.7716-1.0674 5.3371-.0712 1.1386-.2135 1.5656-.2135 2.9888l.0712.9963c0 .3558 0 1.2809.0711 2.0637l.2135 1.3521c0 .4269.1423.9962.2135 1.4232.3558 1.8502.9251 3.7004 1.7079 5.4794l.9962 2.1349c.3558.6404.7117 1.2809 1.1386 1.9214v.0711l.5693.7828c1.1386 1.5656 2.0637 2.7753 3.4158 4.1985 1.1386 1.0675 2.206 1.9926 3.4869 2.9177.1423.1423.2847.2135.427.3558.8539.6404 1.9925 1.3521 2.9888 1.779l.2846.1423 1.8502.9251c2.206.9963 4.5544 1.5656 6.9027 1.9214l1.4232.2135c.2135 0 .5693 0 .7117.0712l2.3483.0711c.2846 0 .427-.0711.7116-.0711l1.5656-.0712c.2846 0 .4981 0 .7116-.0712.9251-.0711 1.9214-.2134 2.7753-.4269.427-.0712.8539-.1423 1.2809-.2847.2135-.0711.427-.0711.6405-.1423.9962-.3558 1.9925-.6405 2.9888-1.0674.1423-.0712.3558-.1424.5692-.2135s.3559-.1423.5693-.2135c1.4944-.6405 3.2023-1.7079 4.5544-2.633.1423-.1423.3558-.2135.427-.427zM49.9644 51.3965c0 1.1386.0712 1.9214.4981 2.9176.4982 1.0675 1.2809 2.1349 2.2772 2.7042.5693.3558 1.1386.6404 1.7791.8539 1.2097.3558 3.1311.2135 4.6966.2135h5.0525c.0712.2135.4981.5693.7116.7116v.0712l.9251.9251c.0712 0 .0712 0 .0712.0711l.3558.3559c.0712 0 0 0 .0712.0711l4.839 4.839s.0711 0 .0711.0712l1.2809 1.2097c0 .0712 0 .0712.0712.0712v.0712h.0712l.1423.1423v.0711l.2846.2135 1.6367-2.4906c.9251-1.6368 1.9214-3.5581 2.4195-5.3372l.7828-2.7753.2135-1.2097c.2135-1.1386.427-2.5618.427-3.7716 0-.4981.0711-.8539.0711-1.3521 0-1.2097-.0711-2.206-.2134-3.3446-.0712-.2846-.1424-.7116-.1424-1.0674H55.7997c-.6405 0-1.2098.1423-1.7791.3558-.4981.2135-.9962.427-1.4232.7828-.4981.3558-.6405.5693-1.1386.9963-.7828.8539-1.4944 2.4195-1.4944 3.6292zM33.0279 26.917l8.9664 8.9663c.1423-.0711.2135-.1423.3558-.2135l.427-.2134c1.6367-.854 3.1311-1.2098 4.9813-1.5656.8539-.1423 1.8502-.1423 2.7753-.1423 1.4944 0 2.7041.3558 3.9139.6404 0-.1423.1423-.5693.2135-.7116l1.4944-3.6292c.0711-.1423.0711-.2135.1423-.3558l1.7079-3.9851.8539-2.1348c.0712-.2847.2135-.4982.2847-.7828-.854-.3558-4.1274-1.0674-4.9814-1.1386l-1.8502-.2135c-.7827-.1423-2.206-.1423-2.9176-.0712-.3558 0-.7116-.0711-1.0674 0-.427.0712-1.1386.0712-1.9214.1424-1.6367.2135-3.5581.6404-5.1236 1.1386l-3.3446 1.2809c-.1424.0711-.2135.1423-.3558.2135-.0712 0-.1424.0711-.1424.0711l-.3558.1423-4.0562 2.5619z"/>
</svg>