<svg xmlns="http://www.w3.org/2000/svg" xmlns:xlink="http://www.w3.org/1999/xlink" xmlns:v="http://vecta.io" width="100" height="100" viewBox="0 0 100 100.00000943571467">
    <style>
        <![CDATA[svg{stroke:#000;stroke-linecap:round;stroke-linejoin:round;fill:#fff;fill-rule:evenodd;font-family:Roboto;font-size:14px;text-anchor:middle;}svg text{paint-order:stroke;white-space:pre;}svg .Text\.cls{stroke:none;}]]>
    </style>
    <g class="l0rzlnx25sa.lay" v:layer_name="Collect Layer">
        <g>
            <g transform="translate(6.8057 0)" class="l0rzlnx25sa.lay" v:layer_name="Collect Layer">
                <path d="M 20.247 23.6997 L 20.363 23.8084 L 19.2973 24.874 C 18.5238 25.6425 17.7649 26.4256 17.0211 27.2228 C 15.593 28.7669 14.3244 30.4994 14.2011 30.9924 L 20.7979 30.9924 C 21.1029 31.0068 21.3964 30.8748 21.5881 30.6371 C 26.802 24.904 34.0489 21.434 41.7843 20.9667 C 50.8523 20.3885 59.694 23.9497 65.8298 30.6516 C 65.9789 30.8609 66.2181 30.9872 66.475 30.9924 L 70.7883 30.9851 L 72.9268 30.9851 C 73.0418 30.9722 73.1558 30.9504 73.2675 30.9199 C 71.713 28.6322 69.9009 26.5306 67.8668 24.6566 L 67.9611 24.5623 C 70.051 22.9095 71.8201 20.8873 73.1805 18.5963 C 74.1591 17.0522 74.8985 15.3631 75.3552 13.5943 C 75.5305 12.9082 75.5845 12.1968 75.5147 11.4921 C 75.4205 10.5352 74.8913 9.7305 73.6154 9.8827 C 73.3612 9.9109 73.1108 9.9669 72.8688 10.0495 C 71.993 10.3667 71.1824 10.8408 70.4765 11.4486 C 67.4405 13.9603 65.1326 17.2394 63.7928 20.945 L 63.6913 21.1625 L 63.6478 21.2422 C 63.2564 21.0247 62.8649 20.7928 62.4879 20.568 C 61.6035 20.0606 60.7481 19.5531 59.8492 19.1037 C 58.5444 18.4513 57.2105 17.8713 55.8404 17.3639 C 53.5312 16.5376 51.1471 15.938 48.7218 15.5734 C 48.2796 15.5009 47.8374 15.4284 47.3952 15.3414 C 48.3403 11.8332 48.4348 8.1501 47.6706 4.5981 C 47.4633 3.5604 47.1043 2.5589 46.605 1.6259 C 46.3387 1.0711 45.9312 0.5961 45.4234 0.2486 C 44.9301 -0.0881 44.2795 -0.0823 43.7923 0.2631 C 43.5518 0.4261 43.3348 0.6212 43.1471 0.843 C 42.6533 1.4548 42.2772 2.1528 42.038 2.9018 C 41.5451 4.3299 41.2406 5.816 41.1319 7.3238 C 40.8847 9.9319 41.0883 12.5631 41.7335 15.1022 L 41.7625 15.2689 C 35.9536 15.5896 30.3103 17.3214 25.3214 20.3143 L 25.2561 20.2636 C 25.2364 20.2497 25.2193 20.2325 25.2054 20.2128 C 24.1441 17.6385 22.6209 15.2799 20.7109 13.2536 C 19.7021 12.0846 18.4885 11.1093 17.1298 10.3757 C 16.7613 10.1828 16.3722 10.0321 15.9699 9.9262 C 14.6868 9.6145 13.8097 10.2814 13.7227 11.5935 L 13.7155 11.7603 L 13.7155 11.8763 C 13.6647 12.8912 13.9184 13.848 14.2519 14.7904 C 15.4553 18.154 17.4343 20.9957 19.9932 23.4605 L 20.247 23.6997 Z M 67.8668 75.3501 C 69.6719 73.6828 71.303 71.8342 72.7238 69.8407 L 72.6948 69.7175 L 70.5635 69.7175 C 69.1137 69.7175 67.6639 69.7247 66.214 69.703 C 65.7543 69.6826 65.3089 69.8656 64.9962 70.2032 C 58.1094 76.9304 49.8744 79.8301 40.3127 78.9022 C 36.7914 78.5393 33.369 77.5215 30.2218 75.901 C 27.2479 74.4062 24.5452 72.4239 22.226 70.0364 C 22.0378 69.8181 21.76 69.6979 21.4721 69.7102 L 17.0066 69.7175 L 15.071 69.7175 C 14.9157 69.7165 14.7605 69.7287 14.6071 69.7537 C 16.2744 72.0952 18.2099 74.2265 20.3847 76.1112 C 20.3649 76.157 20.3406 76.2007 20.3122 76.2417 L 20.131 76.4085 L 20.0295 76.5099 C 17.7266 78.6652 15.8951 81.2741 14.6506 84.1723 C 14.2288 85.0949 13.9338 86.0703 13.7734 87.072 C 13.6288 87.7825 13.6789 88.5189 13.9184 89.2033 C 14.0976 89.6746 14.5099 90.0181 15.0058 90.1094 C 15.4553 90.1819 15.912 90.1384 16.3324 89.9644 C 17.2258 89.6488 18.0538 89.1721 18.7754 88.5581 C 21.5011 86.2891 23.6541 83.4112 25.0459 80.149 L 25.1909 79.8301 L 25.2706 79.6561 C 30.2538 82.6602 35.8952 84.4021 41.7045 84.7305 L 41.7263 84.803 C 41.7408 84.8392 41.748 84.861 41.7408 84.8755 C 41.3645 86.2529 41.1432 87.668 41.0811 89.0945 C 40.9651 90.8923 41.0594 92.6974 41.3566 94.4662 C 41.5886 95.771 41.9075 97.0469 42.5309 98.214 C 42.7484 98.6272 43.0166 99.0114 43.3284 99.3594 C 44.1113 100.2148 45.0754 100.2075 45.8873 99.3738 C 46.0725 99.1943 46.2311 98.9892 46.3585 98.7649 C 46.6775 98.1922 46.9602 97.605 47.2067 96.9961 C 47.7141 95.5245 48.0186 93.9877 48.1056 92.4291 C 48.3333 89.8509 48.1076 87.2526 47.4386 84.7523 L 47.4096 84.5928 C 49.3524 84.3753 51.2735 84.0128 53.1583 83.5054 C 55.0068 82.9835 56.8191 82.3238 58.5734 81.5264 C 60.3325 80.7053 62.0286 79.7555 63.6478 78.6847 L 63.7131 78.8442 L 63.7928 79.0617 C 65.1266 82.7732 67.4391 86.0499 70.4838 88.5436 C 71.0637 89.0075 71.6799 89.399 72.3468 89.7252 C 72.7818 89.9354 73.2385 90.0732 73.7242 90.1311 C 74.4523 90.2585 75.1612 89.8232 75.377 89.1163 C 75.4571 88.8721 75.5058 88.6188 75.522 88.3623 C 75.5834 87.3682 75.4326 86.3724 75.0798 85.4409 C 73.7452 81.6159 71.3795 78.2341 68.2438 75.669 L 67.8668 75.3501 Z M 63.8363 39.3579 L 64.3582 39.3652 C 64.7424 39.3724 65.1194 39.3869 65.4891 39.3507 C 66.098 39.2927 66.533 39.5101 66.9752 39.9233 C 68.9035 41.6994 70.8463 43.4609 72.789 45.2152 L 74.7028 46.955 C 74.7826 47.0275 74.8768 47.1 74.971 47.1943 L 75.1305 47.332 L 75.2755 47.2015 L 75.5655 46.9478 L 83.5396 39.6841 C 83.7609 39.4558 84.0701 39.3342 84.3877 39.3507 C 85.0544 39.3764 85.7217 39.3788 86.3885 39.3579 L 86.3885 60.743 C 84.52 60.8543 82.6467 60.8592 80.7776 60.7575 L 80.7776 49.9272 L 80.6689 49.8765 L 75.1378 54.9219 L 69.5631 49.8982 L 69.4544 49.9345 L 69.4544 60.801 L 63.887 60.801 C 63.7856 60.4385 63.7421 40.5758 63.8435 39.3579 Z M 17.9997 39.3797 L 12.4686 39.3797 L 12.4686 46.9623 C 10.174 47.0663 7.8756 47.0567 5.5819 46.9333 L 5.5819 39.3941 L 0 39.3941 L 0 60.7575 C 0.4639 60.8662 5.1904 60.859 5.6109 60.7285 L 5.6109 52.6674 L 12.4686 52.6674 L 12.4686 58.0535 C 12.4686 58.9669 12.4613 59.8876 12.4831 60.8082 L 18.0215 60.8082 C 18.1375 60.2863 18.1157 39.7421 17.9997 39.3869 Z M 24.6327 60.7937 L 24.6327 39.4521 C 24.9589 39.3507 37.1231 39.3072 37.9205 39.4159 L 37.9205 43.9611 L 37.8117 43.9756 L 37.7537 43.9756 C 37.6285 43.9885 37.5027 43.9958 37.3768 43.9974 L 30.2726 43.9974 L 30.2726 47.5422 L 37.0433 47.5422 L 37.0433 52.2542 L 30.3306 52.2542 C 30.2091 53.5798 30.1921 54.9129 30.2798 56.2412 L 30.4466 56.2485 C 30.5698 56.263 30.693 56.2702 30.8235 56.2702 L 37.9205 56.2702 L 37.9205 60.801 L 24.6327 60.801 Z M 44.2853 39.3797 C 44.1838 39.7784 44.162 60.2283 44.2635 60.801 L 57.544 60.801 L 57.544 55.2046 L 50.4036 55.2046 L 50.0194 55.1829 L 49.8019 55.1684 L 49.8019 39.3869 L 44.2853 39.3869 Z" stroke="none" stroke-linejoin="miter" stroke-linecap="butt" fill="#0f1689" fill-rule="nonzero" stroke-width="50.0000476695504"/>
            </g>
            <g transform="translate(0 0)">
                <rect fill="none" fill-opacity="0" height="100" stroke="none" stroke-opacity="0" width="100" x="0" y="0"/>
            </g>
        </g>
    </g>
</svg>