<svg xmlns="http://www.w3.org/2000/svg" xmlns:xlink="http://www.w3.org/1999/xlink" xmlns:v="http://vecta.io" width="100" height="100" viewBox="0 0 100 100">
    <style>
        <![CDATA[svg{stroke:#000;stroke-linecap:round;stroke-linejoin:round;fill:#fff;fill-rule:evenodd;font-family:Roboto;font-size:14px;text-anchor:middle;}svg text{paint-order:stroke;white-space:pre;}svg .Text\.cls{stroke:none;}]]>
    </style>
    <g>
        <g>
            <g>
                <rect fill="none" fill-opacity="0" height="100" stroke="none" stroke-opacity="0" width="100" x="0" y="0"/>
            </g>
            <g transform="translate(17.8594 0)">
                <g>
                    <g transform="translate(0 35.7157)">
                        <path d="M 64.2813 0 L 35.7142 0 L 35.7142 28.5687 L 64.2813 28.5687 Z M 19.6406 53.5656 L 10.7109 53.5656 L 10.7109 44.6359 L 19.6406 44.6359 Z M 30.3547 33.925 L 0 33.925 L 0 64.2843 L 30.3563 64.2843 Z" fill="#ffa61a" fill-rule="nonzero" stroke="none" stroke-linecap="butt" stroke-linejoin="miter"/>
                    </g>
                    <g transform="translate(18.2969 17.9656)">
                        <path d="M 18.036 25.0031 L 0 6.9656 L 6.9656 0 L 25 18.0375 Z M 11.7703 58.6156 L 4.8047 51.65 L 19.0797 37.375 L 26.0453 44.3406 Z" fill="#ffa61a" fill-rule="nonzero" stroke="none" stroke-linecap="butt" stroke-linejoin="miter"/>
                    </g>
                    <g>
                        <path d="M 19.6406 19.6437 L 10.7109 19.6437 L 10.7109 10.7141 L 19.6406 10.7141 Z M 30.3547 0 L 0 0 L 0 30.3562 L 30.3563 30.3562 Z" fill="#ffa61a" fill-rule="nonzero" stroke="none" stroke-linecap="butt" stroke-linejoin="miter"/>
                    </g>
                </g>
            </g>
        </g>
    </g>
</svg>