<svg xmlns="http://www.w3.org/2000/svg" xmlns:xlink="http://www.w3.org/1999/xlink" xmlns:v="http://vecta.io" width="100" height="100" viewBox="0 0 100 100">
    <style>
        <![CDATA[svg{stroke:#000;stroke-linecap:round;stroke-linejoin:round;fill:#fff;fill-rule:evenodd;font-family:Roboto;font-size:14px;text-anchor:middle;}svg text{paint-order:stroke;white-space:pre;}svg .Text\.cls{stroke:none;}]]>
    </style>
    <g>
        <g>
            <g>
                <path d="M 0 0 L 49.825 100 L 100 0 Z M 55.7547 20.075 L 61.5547 20.075 L 61.5547 25.8359 L 55.7547 25.8359 Z M 44.2078 43.3281 L 38.4063 43.3281 L 38.4063 37.4625 L 44.2063 37.4625 Z M 44.2078 34.6344 L 38.4063 34.6344 L 38.4063 28.7688 L 44.2063 28.7688 Z M 44.2078 25.9406 L 38.4063 25.9406 L 38.4063 20.075 L 44.2063 20.075 Z M 52.9656 51.9563 L 47.1 51.9563 L 47.1 46.1563 L 52.9656 46.1563 Z M 52.9656 43.2625 L 47.1 43.2625 L 47.1 37.4625 L 52.9656 37.4625 Z M 52.9656 34.5688 L 47.1 34.5688 L 47.1 28.7688 L 52.9656 28.7688 Z M 52.9656 25.8344 L 47.1 25.8344 L 47.1 20.0734 L 52.9656 20.0734 Z M 55.8203 28.7281 L 61.6203 28.7281 L 61.6203 34.5313 L 55.7547 34.5313 Z M 55.8203 43.2219 L 55.8203 37.4609 L 61.6203 37.4609 L 61.6203 43.2609 Z" fill="#000000" fill-rule="nonzero" stroke="none" stroke-linecap="butt" stroke-linejoin="miter"/>
            </g>
            <g>
                <rect fill="none" fill-opacity="0" height="100" stroke="none" stroke-opacity="0" width="100" x="0" y="0"/>
            </g>
        </g>
    </g>
</svg>