<svg xmlns="http://www.w3.org/2000/svg" xmlns:xlink="http://www.w3.org/1999/xlink" xmlns:v="http://vecta.io" width="100.1075" height="100" viewBox="0 0 100.10748295733356 100">
    <style>
        <![CDATA[svg{stroke:#000;stroke-linecap:round;stroke-linejoin:round;fill:#fff;fill-rule:evenodd;font-family:Roboto;font-size:14px;text-anchor:middle;}svg text{paint-order:stroke;white-space:pre;}svg .Text\.cls{stroke:none;}]]>
    </style>
    <g>
        <g>
            <g transform="translate(0 0)">
                <path d="M 91.0425 5.2889 C 89.6418 8.6478 87.8481 11.8289 85.6992 14.7659 C 72.9323 1.9457 54.2504 -3.005 36.81 1.8101 C 19.3696 6.6253 5.8742 20.4601 1.4936 38.0146 C -2.887 55.5692 2.5262 74.1225 15.6594 86.5671 L 17.5129 88.2034 C 31.9355 100.356 51.9577 103.3865 69.3304 96.0465 C 86.7033 88.7065 98.4872 72.2379 99.8272 53.4257 C 101.1947 40.6574 97.4455 24.4977 91.0441 5.2905 Z M 22.7937 86.8578 C 21.7022 88.2066 19.9056 88.7646 18.2421 88.2717 C 16.5787 87.779 15.3759 86.3324 15.1952 84.6067 C 15.0144 82.8812 15.8913 81.2168 17.4165 80.3899 C 18.9418 79.563 20.8152 79.7368 22.1623 80.83 C 23.9998 82.3209 24.2823 85.0185 22.7937 86.8578 Z M 90.8362 71.839 C 78.4586 88.3269 52.0312 82.7632 35.087 83.5634 C 35.087 83.5634 32.0832 83.74 29.0591 84.2354 C 29.0591 84.2354 30.2 83.7509 31.6581 83.1992 C 43.5575 79.0577 49.1821 78.2607 56.4102 74.5412 C 70.0193 67.6225 83.4816 52.4708 86.279 36.7206 C 81.1014 51.8723 65.3793 64.9016 51.0685 70.1934 C 41.2601 73.8082 23.5408 77.3292 23.5408 77.3292 L 22.8265 76.9464 C 10.7709 71.0857 10.3989 44.9755 32.3239 36.5549 C 41.9243 32.8573 51.1091 34.8874 61.4769 32.4134 C 72.548 29.7832 85.357 21.4892 90.569 10.6651 C 96.3984 27.9813 103.4217 55.0839 90.8284 71.85 Z" fill="#68bd45" fill-rule="nonzero" stroke="none" stroke-linecap="butt" stroke-linejoin="miter"/>
            </g>
            <g transform="translate(0.0537 0)">
                <rect fill="none" fill-opacity="0" height="100" stroke="none" stroke-opacity="0" width="100" x="0" y="0"/>
            </g>
        </g>
    </g>
</svg>