<svg xmlns="http://www.w3.org/2000/svg" xmlns:xlink="http://www.w3.org/1999/xlink" xmlns:v="http://vecta.io" width="100" height="100" viewBox="0 0 100.00001259621888 100">
    <style>
        <![CDATA[svg{stroke:#000;stroke-linecap:round;stroke-linejoin:round;fill:#fff;fill-rule:evenodd;font-family:Roboto;font-size:14px;text-anchor:middle;}svg text{paint-order:stroke;white-space:pre;}svg .Text\.cls{stroke:none;}]]>
    </style>
    <g transform="translate(0 0)">
        <g>
            <g transform="translate(0 1.1458)">
                <g>
                    <g transform="translate(27.3381 45.5752)">
                        <path d="M 45.465 0 C 45.5806 0.7242 45.6994 1.4484 45.8415 2.1563 L 52.8376 2.1563 L 52.8376 0 Z M 46.6244 5.3875 C 46.7689 5.8828 46.922 6.3758 47.0915 6.8664 C 47.4978 7.0688 47.8939 7.2945 48.2767 7.5461 L 57.1454 7.5461 L 57.1454 5.3875 Z M 32.2251 6.3891 C 31.8922 6.5102 31.5664 6.6516 31.2469 6.8055 L 31.2469 6.8086 C 31.5673 6.6539 31.8916 6.5102 32.2251 6.3891 Z M 0 33.3971 L 0 35.5533 L 25.9041 35.5533 L 25.9041 33.3971 Z M 15.0859 38.7846 L 15.0859 40.9346 L 36.4119 40.9346 L 36.4119 38.7846 Z" fill="#3c6eb4" fill-rule="nonzero" stroke="none" stroke-linecap="butt" stroke-linejoin="miter" stroke-width="0.500001"/>
                    </g>
                    <g transform="translate(22.0389 11.5571)">
                        <path d="M 25.7064 0 C 21.8703 0 18.1117 0.443 15.8734 1.3336 C 9.7094 3.5898 4.975 9.7516 3.5719 17.2164 C 1.7242 25.9555 1.8344 32.7955 0 39.2306 C 0.8386 38.5913 1.7678 38.0805 2.757 37.715 C 4.1898 37.1478 6.5922 36.8635 9.0453 36.8635 C 11.4984 36.8635 14.0062 37.1486 15.632 37.715 C 19.2031 39.0197 22.0203 42.3713 23.1867 46.5307 L 30.7798 46.5307 C 32.3351 43.6549 34.7095 41.4346 37.5244 40.4072 C 40.5861 39.1931 47.8095 39.1963 51.2876 40.4072 C 51.665 40.5447 52.0314 40.7119 52.3923 40.8908 C 50.0001 33.9642 50.304 26.7102 48.297 17.2164 C 46.8947 9.7516 42.1587 3.5898 35.9953 1.3336 C 33.4533 0.4461 29.5416 0.0008 25.7064 0 Z" fill="#cccccc" fill-rule="nonzero" stroke="none" stroke-linecap="butt" stroke-linejoin="miter" stroke-width="0.500001"/>
                    </g>
                    <g transform="translate(32.7616 37.7502)">
                        <path d="M 2.6094 0 C 1.1678 0.0019 0 1.2336 0 2.7523 C 0 4.2711 1.1678 5.5028 2.6094 5.5047 C 4.0512 5.5033 5.2195 4.2714 5.2195 2.7523 C 5.2195 1.2336 4.0517 0.0019 2.6102 0 Z M 29.008 0 C 27.5662 0.0019 26.3986 1.2336 26.3986 2.7523 C 26.3986 4.2711 27.5662 5.5028 29.008 5.5047 C 29.7016 5.5059 30.3673 5.2166 30.8583 4.7003 C 31.3492 4.1841 31.6251 3.4831 31.6251 2.7523 C 31.6251 2.0216 31.3492 1.3208 30.8583 0.8044 C 30.3673 0.2881 29.7016 -0.0012 29.008 0 Z" fill="#e7e8e9" fill-rule="nonzero" stroke="none" stroke-linecap="butt" stroke-linejoin="miter" stroke-width="0.500001"/>
                    </g>
                    <g transform="translate(30.06 38.4674)">
                        <path d="M 9.7094 0 L 0 2.6031 L 0.2781 3.6438 L 9.9891 1.0406 Z M 28.0845 0 L 27.8047 1.0406 L 37.5134 3.6438 L 37.7931 2.6031 Z M 10.6812 1.5688 L 0.9164 7.2086 L 1.4555 8.1406 L 11.2187 2.5016 Z M 27.1181 1.5688 L 26.5791 2.5016 L 36.3431 8.1406 L 36.8822 7.2086 Z M 11.3953 3.4398 L 4.6711 10.1734 C 5.1289 10.2313 5.5648 10.3039 5.9812 10.3852 L 12.157 4.2008 Z M 26.4031 3.4398 L 25.6422 4.2008 L 34.0869 12.6586 C 34.565 12.6274 35.0533 12.6063 35.5476 12.5961 Z M 11.7219 5.8914 L 8.6305 11.2508 C 8.9516 11.4094 9.2664 11.5836 9.5719 11.7758 L 12.6555 6.4289 Z M 26.0773 5.8914 L 25.1437 6.4289 L 29.2744 13.5914 C 29.3508 13.5609 29.4251 13.525 29.5031 13.4969 C 29.7453 13.4008 30.0226 13.3149 30.3133 13.2344 Z" fill="#a7a9ac" fill-rule="nonzero" stroke="none" stroke-linecap="butt" stroke-linejoin="miter" stroke-width="0.500001"/>
                    </g>
                    <g transform="translate(40.4593 30.5908)">
                        <path d="M 16.7758 7.982 C 16.7761 10.0992 15.8925 12.1297 14.3195 13.6267 C 12.7464 15.1238 10.613 15.9649 8.3883 15.9649 C 6.1634 15.9652 4.0298 15.1241 2.4566 13.627 C 0.8834 12.1299 -0.0002 10.0992 0 7.982 C 0 5.865 0.8837 3.8345 2.4569 2.3377 C 4.0302 0.8406 6.1636 -0.0002 8.3883 0 C 13.0203 0.0005 16.775 3.5739 16.775 7.982 Z" fill-rule="nonzero" stroke="none" stroke-linecap="butt" stroke-linejoin="miter" stroke-width="0.500001"/>
                    </g>
                    <g transform="translate(45.2532 34.4002)">
                        <path d="M 7.174 2.7336 C 6.8928 2.0047 6.8928 0.5469 6.049 0.5469 C 5.2053 0.5469 4.424 0 3.5943 0 C 2.7639 0 1.985 0.5469 1.1397 0.5469 C 0.2959 0.5469 0.2959 2.0047 0.0147 2.7344 C -0.2666 3.4625 3.5943 5.8313 3.5943 5.8313 C 3.5943 5.8313 7.4553 3.4625 7.174 2.7336 Z" fill="#808080" fill-rule="nonzero" stroke="none" stroke-linecap="butt" stroke-linejoin="miter" stroke-width="0.500001"/>
                    </g>
                    <g transform="translate(44.8429 56.8925)">
                        <path d="M 0 0.0008 C 0.2578 0.693 0.4609 1.4148 0.6195 2.1578 L 7.4937 2.1578 C 7.8398 1.3977 8.2422 0.6758 8.693 0 Z M 34.5134 0.0016 C 34.9694 0.687 35.3697 1.4081 35.7103 2.1578 L 44.3603 2.1578 L 44.3603 0.0016 Z" fill="#3c6eb4" fill-rule="nonzero" stroke="none" stroke-linecap="butt" stroke-linejoin="miter" stroke-width="0.500001"/>
                    </g>
                    <g transform="translate(15.9655 48.4205)">
                        <path d="M 15.1195 0 C 12.6664 0 10.2633 0.2844 8.8305 0.8516 C 4.8883 2.2922 1.8641 6.225 0.9672 10.9883 C 0.4984 13.1961 0.2289 15.2 0 17.0875 L 30.5359 17.0875 C 30.307 15.2 30.0437 13.1969 29.575 10.9883 C 28.6789 6.225 25.6476 2.293 21.7047 0.8523 C 20.0781 0.2859 17.5719 0.0008 15.1187 0.0008 Z" fill="#cccccc" fill-rule="nonzero" stroke="none" stroke-linecap="butt" stroke-linejoin="miter" stroke-width="0.500001"/>
                    </g>
                    <g transform="translate(22.1936 65.1354)">
                        <path d="M 0.9805 0 C 0.6242 0.0113 0.2806 0.1419 0 0.3727 L 2 0.3727 C 1.7086 0.1338 1.3502 0.003 0.9805 0.0008 Z M 17.8711 0 C 17.5147 0.0111 17.1708 0.1417 16.8898 0.3727 L 18.8914 0.3727 C 18.5997 0.1334 18.2406 0.0025 17.8703 0.0008 Z" fill="#e7e8e9" fill-rule="nonzero" stroke="none" stroke-linecap="butt" stroke-linejoin="miter" stroke-width="0.500001"/>
                    </g>
                    <g transform="translate(25.5608 65.4065)">
                        <path d="M 0.3781 0 L 0 0.1016 L 0.4062 0.1016 Z M 12.2312 0 L 12.2039 0.1016 L 12.6102 0.1016 Z" fill="#a7a9ac" fill-rule="nonzero" stroke="none" stroke-linecap="butt" stroke-linejoin="miter" stroke-width="0.500001"/>
                    </g>
                    <g transform="translate(26.4467 60.5729)">
                        <path d="M 5.3484 0 C 2.4558 0.0075 0.09 2.1905 0 4.9352 L 10.6891 4.9352 C 10.5991 2.1933 8.2381 0.0114 5.3484 0 Z" fill-rule="nonzero" stroke="none" stroke-linecap="butt" stroke-linejoin="miter" stroke-width="0.500001"/>
                    </g>
                    <g transform="translate(29.494 62.9995)">
                        <path d="M 2.3011 0 C 1.7699 0 1.2722 0.3516 0.7324 0.3516 C 0.1927 0.3516 0.1888 1.2797 0.0089 1.7445 C -0.0534 1.907 0.2183 2.2 0.5833 2.5086 L 4.0177 2.5086 C 4.3833 2.2 4.6488 1.907 4.5856 1.7445 C 4.406 1.2797 4.4089 0.3516 3.8692 0.3516 C 3.3302 0.3516 2.8324 0 2.3011 0 Z" fill="#808080" fill-rule="nonzero" stroke="none" stroke-linecap="butt" stroke-linejoin="miter" stroke-width="0.500001"/>
                    </g>
                    <g transform="translate(0 0)">
                        <path d="M 71.6687 0 L 28.1233 0.1282 C 27.7967 0.1297 27.4884 0.2791 27.285 0.5344 L 0.2303 34.7002 C 0.0292 34.9562 -0.0455 35.2891 0.0272 35.6065 L 9.8397 78.0777 C 9.9141 78.3982 10.1306 78.6671 10.428 78.8082 L 49.7131 97.6059 C 50.0095 97.7451 50.353 97.7423 50.6469 97.5981 L 89.825 78.5707 C 90.1211 78.4266 90.3351 78.1554 90.4062 77.834 L 99.9742 35.3088 C 100.0451 34.9905 99.9681 34.6574 99.7648 34.4026 L 72.5156 0.3985 C 72.3089 0.1439 71.9975 -0.0028 71.6695 0 Z M 71.1554 2.1563 L 97.757 35.344 L 88.4179 76.8613 L 50.1795 95.4363 L 11.8272 77.091 L 2.2459 35.6276 L 28.6506 2.2782 Z" fill="#892ca0" fill-rule="nonzero" stroke="none" stroke-linecap="butt" stroke-linejoin="miter" stroke-width="0.500001"/>
                    </g>
                    <g transform="translate(49.5733 51.0541)">
                        <path d="M 33.7423 22.5945 C 33.2689 19.3727 33.0392 15.868 32.165 11.7453 C 31.2056 6.6531 27.9672 2.4484 23.7523 0.9094 C 20.2744 -0.3016 13.0516 -0.3047 9.9898 0.9094 C 5.775 2.4484 2.5367 6.6531 1.5773 11.7453 C 0.7039 15.8688 0.4734 19.3727 0 22.5945" fill="#cccccc" fill-rule="nonzero" stroke="none" stroke-linecap="butt" stroke-linejoin="miter" stroke-width="0.500001"/>
                    </g>
                    <g transform="translate(56.0421 68.923)">
                        <path d="M 1.7859 0 C 1.312 0.0002 0.8575 0.1984 0.5225 0.5509 C 0.1877 0.9034 -0.0003 1.3814 0 1.8797 C -0.0003 2.378 0.1877 2.8559 0.5225 3.2084 C 0.8575 3.5609 1.312 3.7592 1.7859 3.7594 C 2.7727 3.7584 3.5719 2.9169 3.5711 1.8797 C 3.5719 0.8425 2.7727 0.0009 1.7859 0 Z M 19.8406 0 C 19.3667 0.0002 18.9122 0.1984 18.5773 0.5509 C 18.2423 0.9034 18.0544 1.3814 18.0548 1.8797 C 18.0544 2.378 18.2423 2.8559 18.5773 3.2084 C 18.9122 3.5609 19.3667 3.7592 19.8406 3.7594 C 20.8275 3.7584 21.6267 2.9169 21.6258 1.8797 C 21.6267 0.8425 20.8275 0.0009 19.8406 0 Z" fill="#e7e8e9" fill-rule="nonzero" stroke="none" stroke-linecap="butt" stroke-linejoin="miter" stroke-width="0.500001"/>
                    </g>
                    <g transform="translate(54.1515 69.248)">
                        <path d="M 6.6406 0 L 0 1.7789 L 0.2797 2.8195 L 6.9187 1.0406 Z M 19.2937 0 L 19.0141 1.0406 L 25.6547 2.8195 L 25.9345 1.7789 Z M 7.2625 1.0875 L 0.5875 4.9359 L 1.125 5.868 L 7.7992 2.0211 Z M 18.6726 1.0875 L 18.1336 2.0211 L 24.8078 5.868 L 25.3469 4.9359 Z" fill="#a7a9ac" fill-rule="nonzero" stroke="none" stroke-linecap="butt" stroke-linejoin="miter" stroke-width="0.500001"/>
                    </g>
                    <g transform="translate(61.3062 64.0417)">
                        <path d="M 11.4727 5.4453 C 11.4727 8.4523 8.9047 10.8903 5.7367 10.8906 C 2.5684 10.8906 0 8.4527 0 5.4453 C 0 2.438 2.5684 0 5.7367 0 C 8.9047 0.0005 11.4727 2.4383 11.4727 5.4453 Z" fill-rule="nonzero" stroke="none" stroke-linecap="butt" stroke-linejoin="miter" stroke-width="0.500001"/>
                    </g>
                    <g transform="translate(64.5845 66.6401)">
                        <path d="M 4.9061 1.8641 C 4.7139 1.3672 4.7139 0.3719 4.1366 0.3719 C 3.56 0.3719 3.0272 0 2.4584 0 C 1.8905 0 1.3569 0.3727 0.7795 0.3727 C 0.203 0.3727 0.203 1.3672 0.01 1.8648 C -0.1822 2.3617 2.4584 3.9773 2.4584 3.9773 C 2.4584 3.9773 5.0991 2.3617 4.9061 1.8641 Z" fill="#808080" fill-rule="nonzero" stroke="none" stroke-linecap="butt" stroke-linejoin="miter" stroke-width="0.500001"/>
                    </g>
                    <g transform="translate(25.6272 29.7853)">
                        <path d="M 23.2211 0 C 18.1734 0 14.0258 3.9234 14.0258 8.7906 C 14.0258 13.6578 18.1734 17.5813 23.2211 17.5813 C 28.2697 17.5813 32.4172 13.6578 32.4172 8.7906 C 32.4172 3.9234 28.2681 0 23.2211 0 Z M 23.2211 1.6164 C 27.4383 1.6164 30.8016 4.8414 30.8016 8.7906 C 30.8016 12.7406 27.4383 15.9641 23.2211 15.9641 C 19.0047 15.9641 15.6406 12.7406 15.6406 8.7906 C 15.6406 4.8414 19.0047 1.6164 23.2211 1.6164 Z M 6.168 29.9758 C 2.8445 29.9758 0.0898 32.5228 0 35.7228 L 1.6164 35.7228 C 1.7039 33.4416 3.6766 31.5916 6.168 31.5916 C 8.6602 31.5916 10.6305 33.4416 10.718 35.7228 L 12.3336 35.7228 C 12.2453 32.5236 9.4898 29.9758 6.168 29.9758 Z M 41.4173 33.4502 C 37.8353 33.4502 34.8703 36.2314 34.8703 39.6986 C 34.8703 43.1674 37.8353 45.9533 41.4173 45.9533 C 45.0001 45.9533 47.9634 43.1666 47.9634 39.6986 C 47.9634 36.2314 45.0001 33.4502 41.4165 33.4502 Z M 41.4173 35.0666 C 44.1712 35.0666 46.347 37.1502 46.347 39.6994 C 46.347 42.2463 44.1712 44.3377 41.4173 44.3377 C 38.6642 44.3377 36.4876 42.2463 36.4876 39.6986 C 36.4876 37.1517 38.6642 35.0658 41.4173 35.0658 Z" fill="#60605b" fill-rule="nonzero" stroke="none" stroke-linecap="butt" stroke-linejoin="miter" stroke-width="0.500001"/>
                    </g>
                    <g transform="translate(12.4701 65.5081)">
                        <path d="M 0 0 L 0 2.1563 L 37.8611 2.1563 C 37.9548 1.4555 38.0587 0.7375 38.1783 0 Z M 19.1828 8.0805 L 19.1828 10.2305 L 75.1704 10.2305 L 75.1704 8.0805 L 70.8384 8.0805 L 70.8462 8.1398 L 37.1025 8.1398 L 37.1103 8.0805 Z" fill="#3c6eb4" fill-rule="nonzero" stroke="none" stroke-linecap="butt" stroke-linejoin="miter" stroke-width="0.500001"/>
                    </g>
                    <g transform="translate(15.1538 10.7501)">
                        <path d="M 32.593 0 L 32.5916 0 C 28.6992 0 24.9117 0.425 22.4703 1.393 C 15.9992 3.7703 11.1203 10.1625 9.6695 17.8586 C 8.3789 23.9641 8.0367 29.1274 7.35 33.8025 C 7.057 35.801 6.6953 37.7049 6.1812 39.5658 C 3.5555 41.64 1.6695 44.8517 0.9797 48.5111 C 0.4984 50.7869 0.232 52.8393 0 54.758 L 1.6234 54.758 C 1.8484 52.9064 2.1109 50.9611 2.5633 48.8283 L 2.5695 48.8205 L 2.5695 48.8064 C 3.4211 44.2885 6.2961 40.6096 9.9195 39.2869 L 9.9336 39.2791 L 9.9398 39.2728 C 11.1687 38.7853 13.5391 38.4806 15.9305 38.4806 C 18.3187 38.4806 20.7828 38.7783 22.2461 39.2861 C 25.8664 40.6111 28.7391 44.2908 29.5898 48.8064 L 29.5898 48.8205 L 29.5961 48.8283 C 30.0492 50.9611 30.3109 52.9072 30.5359 54.758 L 32.1603 54.758 C 31.9283 52.8377 31.6625 50.7814 31.1805 48.5033 C 30.2351 43.4986 27.0539 39.3205 22.7937 37.765 L 22.7875 37.765 L 22.7812 37.7572 C 20.9906 37.1353 18.4453 36.8666 15.9297 36.865 C 13.4187 36.865 10.9859 37.1252 9.3523 37.7713 C 8.9477 37.9197 8.5555 38.0994 8.1711 38.2931 C 8.4873 36.886 8.748 35.4669 8.9523 34.0392 C 9.6516 29.2719 9.9797 24.1695 11.2445 18.1899 L 11.2523 18.182 L 11.2523 18.1695 C 12.6086 10.9508 17.1945 5.0398 23.0383 2.9008 L 23.0461 2.8945 L 23.0578 2.8945 C 25.093 2.0852 28.8195 1.6164 32.593 1.6172 C 36.3611 1.6172 40.2211 2.0727 42.6009 2.9008 C 48.4447 5.0391 53.0306 10.95 54.3853 18.1688 L 54.3931 18.1844 L 54.3931 18.1899 C 55.6572 24.1695 55.9931 29.2719 56.6923 34.0392 C 57.0072 36.1861 57.4158 38.2658 58.0048 40.3166 C 56.1345 39.751 53.6267 39.4963 51.1337 39.4963 C 48.454 39.4963 45.8626 39.7775 44.129 40.4635 C 39.6025 42.1197 36.2189 46.5572 35.2101 51.8846 C 34.3228 56.0705 34.0869 59.6025 33.6195 62.7775 L 35.222 63.0143 C 35.7023 59.7463 35.9236 56.2752 36.7845 52.215 L 36.7923 52.2072 L 36.7923 52.2018 C 37.7047 47.3541 40.7947 43.3924 44.6908 41.9705 L 44.6962 41.9705 L 44.7103 41.9627 C 46.0384 41.4361 48.5744 41.1111 51.1345 41.1111 C 53.6931 41.1111 56.3283 41.4291 57.9033 41.9767 L 57.9111 41.9767 C 61.7994 43.4033 64.8814 47.3596 65.7939 52.2018 L 65.7939 52.215 C 66.654 56.2744 66.8814 59.7463 67.3618 63.0135 L 68.9658 62.7775 C 68.4993 59.6018 68.2626 56.0697 67.3759 51.8838 C 66.4806 47.1517 63.7103 43.1236 59.9306 41.1205 C 59.1462 38.7666 58.665 36.3603 58.2892 33.8025 C 57.604 29.1305 57.2642 23.9711 55.9759 17.8727 C 54.5275 10.1633 49.6455 3.7523 43.1619 1.3789 L 43.1478 1.3789 C 40.4414 0.4336 36.4915 0.0008 32.593 0 Z M 20.4289 9.7367 C 18.7467 9.7275 17.1564 10.5028 16.1273 11.8336 L 15.6328 12.4695 L 16.9187 13.457 L 17.4117 12.8141 C 18.0942 11.9472 19.1164 11.4153 20.218 11.3539 C 21.2336 11.3109 22.2883 11.7195 23.0101 12.4359 L 23.5851 13.0109 L 24.7281 11.8609 L 24.1531 11.293 C 23.1591 10.3119 21.8233 9.7545 20.4266 9.7383 Z M 46.5009 9.7367 C 45.104 9.7534 43.7681 10.3113 42.7742 11.293 L 42.1994 11.8609 L 43.3359 13.0109 L 43.9117 12.4359 C 44.6567 11.7108 45.6648 11.32 46.704 11.3539 C 47.7783 11.4008 48.8603 11.9609 49.5165 12.8149 L 50.0111 13.457 L 51.2892 12.4695 L 50.7947 11.8336 C 49.7687 10.5034 48.1808 9.728 46.5009 9.7367 Z M 20.3875 16.8578 C 18.1576 16.8588 16.3505 18.7139 16.35 21.0024 C 16.35 23.2911 18.1575 25.1469 20.3875 25.1477 C 21.4594 25.1488 22.4878 24.7125 23.2461 23.935 C 24.0044 23.1575 24.4305 22.1025 24.4305 21.0024 C 24.4303 19.9025 24.0041 18.8477 23.2459 18.0703 C 22.4875 17.293 21.4592 16.8567 20.3875 16.8578 Z M 46.5345 16.8578 C 44.305 16.8592 42.4981 18.7142 42.4976 21.0024 C 42.4976 23.2908 44.3047 25.1464 46.5345 25.1477 C 48.7645 25.1469 50.572 23.2911 50.572 21.0024 C 50.5715 18.7142 48.7647 16.8592 46.5353 16.8578 Z M 33.6945 22.8422 C 33.1023 22.8422 32.6172 23.0242 32.2141 23.1602 C 31.8103 23.2969 31.4875 23.3899 31.2391 23.3899 C 30.7961 23.3899 30.3609 23.6328 30.1242 23.918 C 29.8883 24.2024 29.7766 24.4961 29.6906 24.7758 C 29.5187 25.3328 29.4351 25.8992 29.3594 26.0961 C 29.1859 26.5445 29.3516 26.9016 29.4891 27.136 C 29.6258 27.3703 29.793 27.5547 29.9812 27.7453 C 30.3594 28.125 30.8375 28.5055 31.3203 28.8602 C 31.8148 29.2227 32.3109 29.5524 32.6797 29.7931 L 32.6601 30.1181 C 32.4781 30.2664 32.0351 30.6595 31.3008 30.908 C 30.8664 31.0547 30.4289 31.1072 30.0492 31.0103 C 29.7266 30.9274 29.4055 30.643 29.0758 30.2125 C 29.0969 30.0422 29.1047 29.9727 29.143 29.6922 C 29.2109 29.2016 29.3094 28.6086 29.3539 28.4328 L 27.7844 28.0406 C 27.6906 28.4156 27.6109 28.9625 27.5406 29.4695 C 27.4703 29.9758 27.4187 30.4094 27.4187 30.4094 L 27.3851 30.6985 L 27.5406 30.9414 C 28.1101 31.8367 28.8695 32.3799 29.6508 32.5791 C 30.432 32.7791 31.1898 32.658 31.8226 32.4447 C 32.643 32.1658 33.3117 31.7181 33.6805 31.4367 C 34.0501 31.7181 34.715 32.1674 35.533 32.4447 C 36.1658 32.6588 36.9156 32.7791 37.6969 32.5791 C 38.4781 32.3791 39.2383 31.8367 39.8072 30.9414 L 39.9633 30.6992 L 39.929 30.4094 C 39.929 30.4094 39.8773 29.9758 39.8072 29.4695 C 39.7367 28.9617 39.6555 28.4156 39.5634 28.0406 L 37.9947 28.4328 C 38.0383 28.6086 38.1369 29.2016 38.2055 29.6922 C 38.2431 29.9689 38.2523 30.036 38.2719 30.2063 C 37.9406 30.6408 37.6234 30.9274 37.2984 31.0111 C 36.9189 31.1072 36.482 31.0547 36.0478 30.908 C 35.3134 30.6595 34.8695 30.2664 34.6883 30.1181 L 34.6744 29.8142 C 35.0484 29.5719 35.5556 29.236 36.0672 28.861 C 36.5501 28.5055 37.0283 28.1242 37.4072 27.7438 C 37.5945 27.5539 37.7633 27.3695 37.8994 27.136 C 38.0376 26.9016 38.2015 26.5445 38.0281 26.0953 C 37.9525 25.9 37.8626 25.3328 37.6906 24.775 C 37.6047 24.4969 37.5015 24.2016 37.2648 23.9164 C 37.0283 23.632 36.5931 23.3899 36.1494 23.3899 C 35.9017 23.3899 35.5789 23.2961 35.1758 23.1602 C 34.772 23.0242 34.2875 22.8422 33.6945 22.8422 Z M 33.6945 24.4586 C 33.9328 24.4586 34.2494 24.5508 34.6555 24.6875 C 35.0289 24.8141 35.4986 24.9531 36.0337 24.9789 C 36.0517 25.0063 36.1 25.0961 36.1494 25.2563 C 36.2359 25.5375 36.3244 25.9672 36.4462 26.3852 C 36.407 26.4383 36.3601 26.5047 36.2578 26.6078 C 35.9908 26.8766 35.5547 27.2258 35.107 27.5539 C 34.4195 28.0594 33.9898 28.3227 33.6945 28.5078 C 33.4015 28.3235 32.9633 28.0625 32.2734 27.5547 C 31.8258 27.2266 31.3984 26.8766 31.1312 26.6078 C 31.0281 26.5047 30.9828 26.4383 30.9437 26.3852 C 31.0641 25.9672 31.1531 25.5383 31.2391 25.2563 C 31.2662 25.1594 31.3053 25.0663 31.3555 24.9789 C 31.8898 24.9539 32.3533 24.8141 32.7273 24.6875 C 33.132 24.5508 33.457 24.4586 33.6945 24.4586 Z M 7.9586 43.0799 C 6.8648 43.1267 5.8414 43.6611 5.1727 44.5283 L 4.6805 45.1705 L 5.957 46.158 L 6.4516 45.5142 C 6.8392 45.0297 7.4142 44.7325 8.0336 44.6963 C 8.6172 44.6799 9.1827 44.8992 9.6023 45.3049 L 10.1773 45.8728 L 11.3125 44.7236 L 10.7375 44.1557 C 10.0003 43.4274 8.9939 43.0378 7.9586 43.0799 Z M 25.0195 43.0799 C 23.9858 43.0375 22.9811 43.4274 22.2461 44.1557 L 21.6719 44.7236 L 22.807 45.8721 L 23.3828 45.3049 C 23.8023 44.8991 24.3675 44.6794 24.9508 44.6955 C 25.5708 44.7314 26.1462 45.0291 26.5336 45.5142 L 27.0203 46.158 L 28.3047 45.1705 L 27.8109 44.5283 C 27.1384 43.6589 26.1176 43.1292 25.0195 43.0799 Z M 60.6478 46.1361 L 60.6462 46.1361 C 59.6251 46.1482 58.6484 46.5558 57.922 47.2736 L 57.347 47.8408 L 58.4837 48.9892 L 59.0572 48.4221 C 59.5172 47.9785 60.1372 47.7397 60.7759 47.7603 C 61.4322 47.7877 62.1048 48.133 62.5056 48.6525 L 63.0001 49.2947 L 64.279 48.308 L 63.7845 47.6658 C 63.0783 46.75 62.0039 46.1927 60.8486 46.1424 C 60.7822 46.14 60.7158 46.1361 60.6478 46.1361 Z M 42.8165 46.1361 C 42.7486 46.1361 42.6814 46.1392 42.6134 46.1432 C 41.4564 46.1933 40.3803 46.7503 39.6712 47.6658 L 39.179 48.308 L 40.4633 49.2955 L 40.9555 48.6525 C 41.3767 48.1225 42.0045 47.7978 42.6806 47.7603 C 43.3209 47.7399 43.9425 47.9785 44.4048 48.4221 L 44.9797 48.99 L 46.1165 47.8416 L 45.5415 47.2736 C 44.8148 46.556 43.8378 46.1483 42.8165 46.1369 Z M 8.1273 47.9158 C 6.7014 47.9163 5.5453 49.0996 5.5445 50.5596 C 5.5431 51.2619 5.8145 51.9361 6.2991 52.4333 C 6.7836 52.9305 7.4414 53.2102 8.1273 53.2103 C 8.8133 53.2102 9.4711 52.9305 9.9556 52.4333 C 10.4402 51.9361 10.7116 51.2619 10.7102 50.5596 C 10.7094 49.0996 9.5533 47.9163 8.1273 47.9158 Z M 24.8555 47.9158 C 24.1695 47.9141 23.5109 48.1917 23.0251 48.6877 C 22.5392 49.1836 22.2661 49.8571 22.2656 50.5596 C 22.2642 51.2632 22.5367 51.9385 23.0226 52.4358 C 23.5087 52.9333 24.1683 53.2121 24.8555 53.2103 C 25.5416 53.2102 26.1992 52.9305 26.6837 52.4333 C 27.1683 51.9361 27.4397 51.2619 27.4383 50.5596 C 27.4375 49.0996 26.2816 47.9163 24.8555 47.9158 Z M 42.7876 51.2564 C 41.2647 51.2591 40.0311 52.523 40.0297 54.0822 C 40.0306 55.6416 41.2644 56.9061 42.7876 56.9088 C 43.5205 56.9096 44.2237 56.6122 44.7425 56.0821 C 45.2611 55.5519 45.5528 54.8325 45.5533 54.0822 C 45.5526 53.3321 45.2608 52.6127 44.7422 52.0828 C 44.2234 51.5528 43.5205 51.2555 42.7876 51.2564 Z M 60.6728 51.2564 C 59.94 51.2555 59.2369 51.5528 58.7183 52.0828 C 58.1995 52.6127 57.9078 53.3321 57.9072 54.0822 C 57.9076 54.8325 58.1992 55.5519 58.7179 56.0821 C 59.2365 56.6122 59.9398 56.9096 60.6728 56.9088 C 62.1967 56.9071 63.4314 55.6422 63.4322 54.0822 C 63.4309 52.5224 62.1964 51.2582 60.6728 51.2564 Z M 16.6406 51.4455 C 16.1984 51.4455 15.8562 51.576 15.5984 51.6627 C 15.3406 51.7486 15.168 51.7908 15.0719 51.7908 C 14.7047 51.7908 14.3242 52.0064 14.132 52.2377 C 13.9398 52.4682 13.8609 52.6908 13.8008 52.8861 C 13.6789 53.2791 13.6219 53.64 13.5977 53.7041 C 13.4367 54.1205 13.5898 54.4385 13.6992 54.6244 C 13.7289 54.676 13.7617 54.7143 13.793 54.7588 L 16.2617 54.7588 C 16.1402 54.6785 16.0206 54.595 15.9031 54.5088 C 15.6234 54.3025 15.3508 54.0861 15.2 53.9346 L 15.2 53.9268 C 15.2492 53.7236 15.307 53.4799 15.3422 53.365 C 15.3461 53.3525 15.3453 53.3635 15.35 53.3533 C 15.6359 53.3111 15.9227 53.2541 16.1125 53.1893 C 16.3719 53.1025 16.5516 53.0619 16.6406 53.0619 C 16.7289 53.0619 16.9016 53.1025 17.1609 53.19 C 17.3508 53.2541 17.6398 53.3111 17.925 53.3533 C 17.9289 53.3635 17.9273 53.3533 17.9312 53.365 C 17.9672 53.4799 18.0312 53.7221 18.0797 53.9275 L 18.0734 53.9346 C 17.9226 54.0861 17.6516 54.3025 17.3711 54.508 C 17.2555 54.5935 17.1381 54.6768 17.0195 54.758 L 19.4883 54.758 C 19.5195 54.715 19.5523 54.6752 19.5812 54.6244 C 19.6906 54.4385 19.8445 54.1205 19.6828 53.7041 C 19.6594 53.6408 19.5945 53.2791 19.4719 52.8861 C 19.4094 52.6488 19.2967 52.4277 19.1414 52.2377 C 18.9492 52.0064 18.5766 51.7908 18.2094 51.7908 C 18.1133 51.7908 17.9391 51.7494 17.6812 51.6627 C 17.4234 51.576 17.0828 51.4455 16.6406 51.4455 Z M 51.89 55.0838 C 51.429 55.0838 51.0697 55.2213 50.7939 55.3143 C 50.5181 55.4072 50.3275 55.4549 50.2126 55.4549 C 49.8361 55.4549 49.4501 55.6697 49.2517 55.908 C 49.0548 56.1447 48.9712 56.3783 48.908 56.5846 C 48.7798 56.9971 48.7158 57.3838 48.6853 57.4635 C 48.522 57.8853 48.6806 58.2057 48.7923 58.3963 C 48.9048 58.5885 49.0345 58.7244 49.172 58.8635 C 49.4478 59.1393 49.7822 59.401 50.1181 59.6471 C 50.3954 59.8502 50.6658 60.0346 50.8962 60.1893 C 50.7439 60.3103 50.5415 60.476 50.1712 60.601 C 49.9056 60.6908 49.6587 60.7119 49.4619 60.6619 C 49.3181 60.6252 49.1564 60.458 48.9955 60.2775 C 49.008 60.1783 49.0111 60.1721 49.029 60.0471 C 49.0759 59.715 49.1423 59.3033 49.1642 59.2158 L 47.5962 58.8236 C 47.5244 59.1111 47.4751 59.4752 47.4267 59.8228 C 47.3783 60.1721 47.3455 60.4728 47.3455 60.4728 L 47.3119 60.7564 L 47.4681 61.001 C 47.8845 61.6557 48.4658 62.0783 49.0619 62.2307 C 49.6595 62.383 50.2228 62.2861 50.6861 62.1299 C 51.1097 61.9814 51.5103 61.7739 51.8759 61.5135 C 52.1556 61.7103 52.5689 61.9611 53.0665 62.1307 C 53.5298 62.2869 54.0915 62.383 54.6884 62.2307 C 55.2861 62.0783 55.8673 61.6557 56.2845 61.001 L 56.4408 60.7564 L 56.4064 60.4728 C 56.4064 60.4728 56.3665 60.1728 56.3181 59.8244 C 56.2704 59.476 56.222 59.1111 56.1501 58.8236 L 54.5814 59.2158 C 54.6033 59.3033 54.6775 59.7158 54.7236 60.0471 C 54.7392 60.1721 54.7369 60.1783 54.7494 60.2775 C 54.5892 60.4572 54.4329 60.6252 54.29 60.6619 C 54.0931 60.7119 53.8447 60.6908 53.579 60.601 C 53.2197 60.4791 53.022 60.3166 52.8697 60.1947 C 53.104 60.04 53.3775 59.8541 53.6611 59.6478 C 53.997 59.401 54.3314 59.14 54.6072 58.8635 C 54.7537 58.7253 54.8811 58.5682 54.9861 58.3963 C 55.0986 58.2049 55.2501 57.8846 55.0876 57.4635 C 55.0564 57.3838 54.9915 56.9971 54.8634 56.5846 C 54.8009 56.3783 54.7228 56.1447 54.5267 55.9072 C 54.3283 55.6697 53.9431 55.4541 53.5665 55.4541 C 53.4525 55.4541 53.2619 55.4072 52.9853 55.3135 C 52.7095 55.2197 52.3509 55.0838 51.89 55.0838 Z M 51.89 56.6994 C 51.997 56.6994 52.1876 56.7478 52.465 56.8416 C 52.7409 56.9249 53.0239 56.9835 53.3103 57.0166 C 53.3204 57.0385 53.3103 57.0244 53.322 57.0635 C 53.3642 57.2002 53.4322 57.4627 53.4915 57.7002 L 53.4642 57.7275 C 53.2262 57.9514 52.9733 58.1589 52.7072 58.3486 C 52.3126 58.6377 52.1259 58.7471 51.89 58.8963 C 51.6556 58.7478 51.4681 58.6393 51.072 58.3494 C 50.8053 58.1596 50.5519 57.9518 50.3134 57.7275 C 50.2962 57.7096 50.3025 57.7088 50.2876 57.6924 C 50.3454 57.4596 50.4079 57.1986 50.4494 57.0643 C 50.4619 57.0228 50.4587 57.0385 50.4689 57.0174 C 50.7533 56.9844 51.0342 56.9255 51.3079 56.8416 C 51.5853 56.7478 51.7822 56.6994 51.8892 56.6994 Z" fill="#000000" fill-rule="nonzero" stroke="none" stroke-linecap="butt" stroke-linejoin="miter" stroke-width="0.500001"/>
                    </g>
                    <g transform="translate(19.8944 26.8033)">
                        <path d="M 15.6453 0 C 14.3534 0.0005 13.1175 0.5269 12.2219 1.4578 C 11.6655 2.0277 11.2542 2.723 11.0227 3.4852 C 10.853 4.0409 10.7816 4.622 10.8117 5.2024 C 10.8884 6.7439 11.6731 8.1634 12.9375 9.0484 C 13.2617 9.2727 13.6119 9.4566 13.9805 9.5961 C 15.1316 10.0308 16.4066 10 17.5351 9.5102 C 17.9686 9.3225 18.3717 9.0713 18.7312 8.7649 C 19.1534 8.4091 19.5126 7.9845 19.7937 7.5094 C 20.3858 6.5144 20.6139 5.3445 20.4391 4.2 C 20.3422 3.5606 20.1228 2.9461 19.793 2.3898 C 19.4295 1.78 18.9403 1.2544 18.3578 0.8484 C 18.0334 0.6244 17.683 0.4408 17.3141 0.3016 C 16.7811 0.1014 16.2162 -0.0008 15.6469 0 Z M 41.7939 0 C 41.225 0.0013 40.6608 0.1041 40.1283 0.3039 C 39.6856 0.47 39.2705 0.7011 38.8962 0.9898 C 38.4589 1.3248 38.0812 1.7309 37.779 2.1914 C 37.0492 3.2956 36.7873 4.6444 37.0509 5.9414 C 37.2409 6.8842 37.6987 7.7522 38.3695 8.4414 C 38.6987 8.7786 39.0745 9.0669 39.4853 9.2977 C 39.902 9.5297 40.3509 9.6981 40.8173 9.7977 C 41.3011 9.9003 41.7981 9.9259 42.29 9.8734 C 43.2445 9.7739 44.1464 9.3864 44.8759 8.7625 C 45.358 8.3547 45.7573 7.8583 46.0525 7.3 C 46.518 6.4256 46.7123 5.4324 46.6111 4.4469 C 46.5378 3.7211 46.3075 3.02 45.9361 2.3922 C 45.5323 1.7145 44.9739 1.142 44.3064 0.7219 C 43.9028 0.4709 43.4645 0.2808 43.0056 0.1578 C 42.6105 0.0528 42.2034 -0.0003 41.7947 0 Z M 15.6453 1.6094 L 15.6469 1.6094 C 15.8117 1.6098 15.9762 1.6223 16.1391 1.6469 C 16.5075 1.7038 16.8628 1.8259 17.1883 2.0078 C 17.4641 2.1608 17.7156 2.3534 17.9351 2.5797 C 18.2333 2.885 18.4695 3.2453 18.6305 3.6406 C 18.7791 4.0017 18.8639 4.3858 18.8812 4.7758 C 18.8998 5.1727 18.8519 5.5699 18.7391 5.9508 C 18.6148 6.3628 18.4131 6.7474 18.1445 7.0836 C 17.8803 7.4117 17.5558 7.6861 17.1883 7.8922 C 16.5694 8.235 15.8537 8.3614 15.1547 8.2516 C 14.3637 8.1286 13.6486 7.7108 13.1531 7.082 C 12.8837 6.7464 12.682 6.3617 12.5594 5.9492 C 12.4617 5.625 12.4128 5.288 12.4141 4.9492 C 12.4148 4.6106 12.4641 4.2739 12.5602 3.9492 C 12.6844 3.5375 12.8858 3.1534 13.1539 2.8172 C 13.4172 2.4895 13.7408 2.2155 14.107 2.0094 C 14.5286 1.775 14.9981 1.6398 15.4797 1.6141 C 15.5344 1.6109 15.5898 1.6102 15.6453 1.6102 Z M 41.7939 1.6094 C 42.1198 1.6098 42.444 1.6602 42.7548 1.7586 C 43.1564 1.8864 43.5283 2.0933 43.8486 2.3672 C 44.1722 2.6408 44.4397 2.9745 44.6361 3.35 C 44.842 3.7399 44.969 4.1664 45.0103 4.6055 C 45.0755 5.2763 44.9451 5.9516 44.6353 6.55 C 44.4376 6.9245 44.1706 7.258 43.8486 7.5328 C 43.6084 7.7363 43.34 7.9036 43.0517 8.0297 C 42.25 8.3786 41.3394 8.3786 40.5376 8.0297 C 40.1514 7.8628 39.8022 7.6209 39.5103 7.318 C 39.2126 7.0125 38.977 6.6522 38.8165 6.257 C 38.6683 5.8963 38.5837 5.5124 38.5665 5.1227 C 38.5526 4.8374 38.5734 4.5514 38.6283 4.2711 C 38.7128 3.8449 38.878 3.4386 39.115 3.0742 C 39.3464 2.722 39.6428 2.4172 39.9884 2.1758 C 40.2923 1.9655 40.6303 1.8092 40.9876 1.7141 C 41.2508 1.6445 41.5217 1.6094 41.7939 1.6094 Z M 3.2992 31.0564 C 3.27 31.0555 3.2409 31.0556 3.2117 31.0572 C 1.4187 31.151 0 32.6775 0 34.5057 C 0 36.3932 1.5133 37.9611 3.3875 37.9611 C 5.2617 37.9611 6.7812 36.3932 6.7812 34.5057 C 6.7812 32.6181 5.2617 31.0572 3.3875 31.0572 Z M 20.0281 31.0564 C 19.9987 31.0555 19.9694 31.0556 19.9398 31.0572 C 18.1469 31.151 16.7211 32.6775 16.7211 34.5057 C 16.7211 36.3932 18.2414 37.9611 20.1156 37.9611 C 21.9906 37.9611 23.5031 36.3932 23.5031 34.5057 C 23.5031 32.6181 21.9898 31.0572 20.1156 31.0572 Z M 3.3875 32.6736 C 4.3672 32.6736 5.1648 33.4713 5.1648 34.5057 C 5.1648 35.54 4.3672 36.3447 3.3875 36.3447 C 2.4078 36.3447 1.6148 35.54 1.6148 34.5057 C 1.6148 33.4713 2.4078 32.6736 3.3875 32.6736 Z M 20.1156 32.6736 C 21.0953 32.6736 21.8875 33.4713 21.8875 34.5057 C 21.8875 35.54 21.0953 36.3447 20.1156 36.3447 C 19.1359 36.3447 18.3375 35.54 18.3375 34.5057 C 18.3375 33.4713 19.1359 32.6736 20.1156 32.6736 Z M 38.0478 34.3908 C 36.075 34.3908 34.4775 36.04 34.4775 38.0283 C 34.4775 40.0174 36.075 41.6666 38.0478 41.6666 C 40.0212 41.6666 41.6181 40.0182 41.6181 38.0283 C 41.6181 36.04 40.0212 34.3908 38.0478 34.3908 Z M 55.9329 34.3908 C 53.9603 34.3908 52.3626 36.04 52.3626 38.0283 C 52.3626 40.0174 53.9603 41.6666 55.9329 41.6666 C 57.9064 41.6666 59.5033 40.0182 59.5033 38.0283 C 59.5033 36.04 57.9064 34.3908 55.9329 34.3908 Z M 37.9978 36.0064 L 38.0486 36.0072 C 39.1267 36.0072 40.0017 36.8932 40.0017 38.0283 C 40.0017 39.1642 39.1267 40.0502 38.0486 40.0502 C 36.9705 40.0502 36.0939 39.1642 36.0939 38.0283 C 36.0939 36.9283 36.9142 36.0596 37.947 36.0072 C 37.9639 36.0064 37.9808 36.0064 37.9978 36.0072 Z M 55.8822 36.0064 L 55.9337 36.0072 C 57.0119 36.0072 57.8869 36.8932 57.8869 38.0283 C 57.8869 39.1642 57.0119 40.0502 55.9337 40.0502 C 54.8556 40.0502 53.979 39.1642 53.979 38.0283 C 53.979 36.9283 54.7994 36.0596 55.8322 36.0072 C 55.8489 36.0064 55.8654 36.0064 55.8822 36.0072 Z" fill="#892ca0" fill-rule="nonzero" stroke="none" stroke-linecap="butt" stroke-linejoin="miter" stroke-width="0.500001"/>
                    </g>
                    <g transform="translate(21.1522 28.5205)">
                        <path d="M 13.043 0 C 11.9464 -0.0009 11.0564 0.9223 11.0547 2.0625 C 11.0534 2.6114 11.2625 3.1383 11.6356 3.5267 C 12.0086 3.9152 12.515 4.1333 13.043 4.1328 C 13.5709 4.1333 14.0773 3.9152 14.4505 3.5267 C 14.8234 3.1383 15.0325 2.6114 15.0312 2.0625 C 15.0297 0.9223 14.1397 -0.0009 13.043 0 Z M 39.1783 0 C 38.0815 -0.0009 37.1915 0.9223 37.19 2.0625 C 37.1887 2.6114 37.3978 3.1383 37.7708 3.5267 C 38.1439 3.9152 38.6503 4.1333 39.1783 4.1328 C 39.7059 4.1328 40.212 3.9145 40.5847 3.5261 C 40.9573 3.1378 41.1661 2.6111 41.165 2.0625 C 41.1633 0.923 40.2742 0 39.1783 0 Z M 1.2695 30.7267 C 0.5683 30.7271 0 31.3171 0 32.0447 C -0.0002 32.3944 0.1336 32.73 0.372 32.9774 C 0.6105 33.2247 0.9339 33.3636 1.2711 33.3635 C 1.6083 33.3636 1.9317 33.2247 2.1702 32.9774 C 2.4086 32.73 2.5423 32.3944 2.5422 32.0447 C 2.5422 31.695 2.4083 31.3596 2.1698 31.1124 C 1.9314 30.8652 1.6081 30.7264 1.2711 30.7267 Z M 18.1601 30.9158 C 17.8231 30.9158 17.5 31.0547 17.2617 31.3021 C 17.0234 31.5494 16.8897 31.8849 16.8898 32.2346 C 16.8898 32.5842 17.0239 32.9196 17.2622 33.1667 C 17.5006 33.4139 17.8239 33.5527 18.1609 33.5525 C 18.4983 33.5531 18.822 33.4146 19.0608 33.1672 C 19.2995 32.92 19.4336 32.5844 19.4336 32.2346 C 19.4339 31.8842 19.2997 31.5483 19.0608 31.3008 C 18.8219 31.0535 18.4978 30.9149 18.1601 30.9158 Z M 35.8712 34.108 C 35.122 34.1075 34.5139 34.7363 34.5119 35.5135 C 34.5111 35.8878 34.6539 36.2472 34.9089 36.5122 C 35.1639 36.7774 35.5101 36.9261 35.8712 36.926 C 36.2322 36.9261 36.5784 36.7774 36.8334 36.5122 C 37.0884 36.2472 37.2314 35.8878 37.2306 35.5135 C 37.2284 34.7363 36.6203 34.1075 35.8712 34.108 Z M 54.0329 34.2892 C 53.6717 34.2889 53.3253 34.438 53.0701 34.7033 C 52.8151 34.9686 52.6723 35.3285 52.6736 35.7033 C 52.6753 36.4806 53.2834 37.1099 54.0329 37.1096 C 54.7825 37.1099 55.3906 36.4806 55.3923 35.7033 C 55.3936 35.3285 55.2508 34.9686 54.9958 34.7033 C 54.7406 34.438 54.3942 34.2889 54.0329 34.2892 Z" fill-rule="nonzero" stroke="none" stroke-linecap="butt" stroke-linejoin="miter" stroke-width="0.500001"/>
                    </g>
                </g>
            </g>
            <g transform="translate(0 0)">
                <rect fill="none" fill-opacity="0" height="100" stroke="none" stroke-opacity="0" stroke-width="1" width="100" x="0" y="0"/>
            </g>
        </g>
    </g>
</svg>