<svg xmlns="http://www.w3.org/2000/svg" xmlns:xlink="http://www.w3.org/1999/xlink" xmlns:v="http://vecta.io" width="100.0001" height="100" viewBox="0 0 100.00005371674058 100">
    <style>
        <![CDATA[svg{stroke:#000;stroke-linecap:round;stroke-linejoin:round;fill:#fff;fill-rule:evenodd;font-family:Roboto;font-size:14px;text-anchor:middle;}svg text{paint-order:stroke;white-space:pre;}svg .Text\.cls{stroke:none;}]]>
    </style>
    <g>
        <g>
            <g transform="translate(0 1.4909)">
                <g>
                    <g transform="translate(0 0)">
                        <path d="M 49.6789 0.0055 C 48.7849 0.0579 47.9104 0.2896 47.1075 0.6866 L 12.286 17.296 C 10.4676 18.1614 9.1459 19.808 8.6929 21.7701 L 0.1695 59.0474 C -0.2366 60.797 0.0914 62.6311 1.1069 64.1308 Q 1.2849 64.4026 1.4818 64.6556 L 25.5398 94.5687 C 26.8114 96.1309 28.7204 97.0276 30.7325 97.0182 L 69.319 97.0182 C 71.3374 97.0213 73.2495 96.0809 74.518 94.5406 L 98.5635 64.6213 C 99.8258 63.0591 100.2976 60.997 99.8132 59.0411 L 91.2336 21.7326 C 90.7805 19.7705 89.4527 18.1239 87.6405 17.2584 L 52.8752 0.6897 C 51.8734 0.1956 50.7638 -0.0397 49.6477 0.0055 Z" fill="#326ce5" fill-rule="nonzero" stroke="none" stroke-linecap="butt" stroke-linejoin="miter" stroke-width="2"/>
                    </g>
                    <g transform="translate(13.3548 12.7093)">
                        <path d="M 36.6429 0 C 35.4431 0.0844 34.5337 1.1123 34.5964 2.312 L 34.5964 2.8995 C 34.6525 3.5649 34.7524 4.2242 34.8837 4.8772 C 35.0754 6.1278 35.1445 7.3939 35.09 8.6577 C 34.9712 9.0732 34.7337 9.4482 34.409 9.7357 L 34.3619 10.6167 C 33.0965 10.7229 31.8405 10.9167 30.6032 11.1979 C 25.3981 12.3726 20.6584 15.0721 16.9995 18.962 L 16.2497 18.4309 C 15.8374 18.5558 15.3936 18.509 15.0157 18.3059 C 14.0016 17.5553 13.0628 16.7077 12.2131 15.7751 C 11.7861 15.2651 11.3304 14.78 10.8476 14.3222 L 10.3852 13.9536 C 9.9728 13.6224 9.4667 13.4318 8.9386 13.4069 C 8.2995 13.3729 7.6828 13.6471 7.2796 14.1442 C 6.5735 15.1347 6.8046 16.5062 7.7919 17.2155 L 8.2231 17.5591 C 8.7782 17.9285 9.354 18.2654 9.9477 18.5683 C 11.054 19.1838 12.0974 19.9055 13.0659 20.7554 C 13.3137 21.1088 13.4576 21.5244 13.4814 21.9551 L 14.1626 22.58 C 10.4851 28.0978 8.9761 34.7809 9.9196 41.3452 L 9.0448 41.5952 C 8.8167 41.9576 8.5136 42.267 8.1513 42.495 C 6.9307 42.8209 5.6814 43.0271 4.4207 43.1106 C 3.7518 43.1241 3.0841 43.1763 2.4211 43.2668 L 1.8681 43.3917 L 1.8056 43.3917 C 1.0229 43.5003 0.3682 44.0404 0.1126 44.788 C -0.1429 45.5357 0.044 46.3635 0.5964 46.9285 C 1.1541 47.4907 1.981 47.6903 2.7337 47.4441 L 2.7743 47.4441 L 3.3365 47.3816 C 3.9709 47.1942 4.5956 46.963 5.2049 46.7004 C 6.3766 46.2318 7.592 45.8725 8.8355 45.6382 C 9.2667 45.6632 9.6791 45.81 10.0291 46.06 L 10.9663 45.9037 C 12.9972 52.2056 17.2653 57.5452 22.9641 60.9102 L 22.583 61.707 C 22.7581 62.0725 22.8234 62.4787 22.7705 62.8817 C 22.2548 64.0753 21.6237 65.2188 20.8865 66.2936 C 20.4819 66.8268 20.1085 67.3828 19.7679 67.9589 L 19.5022 68.5213 C 19.1093 69.2029 19.1318 70.0471 19.5602 70.7068 C 19.9886 71.3666 20.7507 71.7306 21.5333 71.6489 C 22.3175 71.5606 22.9855 71.0388 23.2609 70.2991 L 23.5202 69.768 C 23.7576 69.1431 23.9578 68.5057 24.1203 67.8621 C 24.6731 66.4967 24.9731 65.0314 25.7291 64.1253 C 25.9763 63.893 26.2878 63.7405 26.6229 63.6879 L 27.0914 62.8349 C 33.2691 65.2095 40.1049 65.2262 46.294 62.8817 L 46.7095 63.6784 C 47.1347 63.741 47.5157 63.9753 47.7719 64.319 C 48.3594 65.4375 48.8342 66.6092 49.1966 67.8183 C 49.3619 68.4658 49.5644 69.1032 49.8028 69.7273 L 50.0621 70.2585 C 50.3404 70.9952 51.0083 71.5137 51.791 71.6 C 52.5736 71.6863 53.3388 71.3262 53.7707 70.6677 C 54.1987 70.0054 54.218 69.1588 53.8208 68.4776 L 53.549 67.9151 C 53.2083 67.3411 52.8348 66.7871 52.4304 66.2561 C 51.7119 65.2188 51.0933 64.1128 50.5559 62.9536 C 50.4546 62.5254 50.5312 62.0745 50.7682 61.7038 C 50.6349 61.4314 50.5192 61.1507 50.4216 60.8634 C 56.1078 57.4734 60.357 52.115 62.3662 45.8038 L 63.2535 45.96 C 63.572 45.6694 63.9907 45.5163 64.4188 45.5288 C 65.6592 45.7662 66.8745 46.1537 68.0495 46.5911 C 68.6586 46.8724 69.2835 47.1098 69.9177 47.3097 C 70.0679 47.3504 70.2866 47.3847 70.4551 47.4254 L 70.4957 47.4254 C 71.2478 47.6683 72.0727 47.4669 72.6282 46.9049 C 73.1836 46.3425 73.3752 45.5156 73.1234 44.7665 C 72.8659 44.018 72.2082 43.4788 71.4237 43.373 L 70.8175 43.2292 C 70.1547 43.1388 69.487 43.0866 68.8181 43.073 C 67.5557 42.9918 66.3059 42.7856 65.0875 42.4575 C 64.7125 42.2482 64.4002 41.9358 64.1876 41.5577 L 63.3439 41.3078 C 64.2435 34.7465 62.7025 28.0834 59.0137 22.5832 L 59.7509 21.9021 C 59.7196 21.474 59.8604 21.0491 60.1383 20.7211 C 61.0975 19.8962 62.1381 19.1682 63.2315 18.5465 C 63.8252 18.2434 64.4011 17.9065 64.9562 17.5373 L 65.4124 17.1686 C 66.0978 16.7432 66.4779 15.9616 66.3891 15.1598 C 66.3003 14.3579 65.7588 13.6783 64.9967 13.4131 C 64.2355 13.1481 63.3897 13.3437 62.8224 13.9161 L 62.3598 14.2848 C 61.8774 14.7427 61.4215 15.2277 60.9944 15.7376 C 60.1697 16.6812 59.2572 17.5404 58.2668 18.309 C 57.8671 18.4718 57.4299 18.5194 57.0046 18.4465 L 56.214 19.0089 C 51.6524 14.2285 45.5067 11.2603 38.9206 10.6667 C 38.9206 10.3543 38.88 9.8856 38.8736 9.7388 C 38.5205 9.4951 38.2738 9.1233 38.1926 8.7015 C 38.1491 7.4397 38.2287 6.1767 38.4299 4.9303 C 38.5643 4.2741 38.658 3.6181 38.7175 2.9526 L 38.7175 2.3277 C 38.7799 1.1279 37.8738 0.1 36.6711 0.0156 Z M 34.037 16.1406 L 33.4122 27.0542 L 33.3653 27.0542 C 33.334 27.7291 32.9372 28.304 32.3279 28.6289 C 31.7187 28.9539 30.9969 28.857 30.4533 28.4602 L 21.5019 22.1176 C 24.351 19.3193 27.9254 17.3725 31.8219 16.4969 C 32.5529 16.3406 33.2904 16.2219 34.0309 16.1406 Z M 39.2485 16.1406 C 43.9507 16.725 48.328 18.8371 51.7149 22.152 L 42.8478 28.4539 C 42.301 28.8914 41.5512 28.9789 40.917 28.6789 C 40.2827 28.3789 39.8766 27.7416 39.8671 27.0417 Z M 18.2524 26.2232 L 26.4384 33.528 L 26.4384 33.5748 C 26.9479 34.0185 27.1696 34.709 27.0196 35.3682 C 26.8696 36.0276 26.3634 36.5493 25.7167 36.7273 L 25.7167 36.7586 L 15.2124 39.7799 C 14.6926 35.0474 15.7634 30.2766 18.2556 26.22 Z M 54.9739 26.2232 C 57.4607 30.2692 58.5605 35.0152 58.1044 39.7424 L 47.5845 36.7117 L 47.5845 36.6712 C 46.9283 36.493 46.4284 35.9713 46.2815 35.312 C 46.1347 34.6528 46.3536 33.9685 46.8626 33.5187 L 54.9863 26.2481 Z M 34.9649 34.0966 L 38.3145 34.0966 L 40.361 36.6961 L 39.6172 39.9455 L 36.6084 41.3921 L 33.5933 39.9455 L 32.884 36.6961 Z M 45.6943 42.9637 C 45.8347 42.9481 46.0066 42.9481 46.116 42.9637 L 56.9483 44.7915 C 55.3861 49.2906 52.3023 53.1336 48.2782 55.705 L 44.0915 45.5694 C 43.8578 45.0177 43.907 44.3867 44.2234 43.8777 C 44.5395 43.3689 45.0835 43.0454 45.6816 43.0105 Z M 27.5007 43.0105 C 28.1131 43.02 28.6786 43.3355 29.0129 43.8479 C 29.3472 44.3603 29.4003 45.0039 29.1598 45.5663 L 29.1598 45.6069 L 24.9981 55.6612 C 21.0144 53.1086 17.9902 49.3125 16.3809 44.8602 L 27.1195 43.0387 C 27.2383 43.0262 27.3601 43.0262 27.482 43.0387 Z M 36.574 47.3847 C 37.2702 47.3627 37.9192 47.7351 38.2518 48.347 L 38.2924 48.347 L 43.5852 57.8984 L 41.47 58.5232 C 37.5769 59.4137 33.512 59.2044 29.7284 57.9171 L 35.0401 48.3658 C 35.3617 47.8034 35.9556 47.4597 36.6023 47.4441 Z" fill-rule="nonzero" stroke="#ffffff" stroke-linecap="butt" stroke-linejoin="miter" stroke-width="0.11"/>
                    </g>
                </g>
            </g>
            <g>
                <rect fill="none" fill-opacity="0" height="100" stroke="none" stroke-opacity="0" width="100" x="0" y="0"/>
            </g>
        </g>
    </g>
</svg>