<svg xmlns="http://www.w3.org/2000/svg" xmlns:xlink="http://www.w3.org/1999/xlink" xmlns:v="http://vecta.io" width="100" height="100" viewBox="0 0 100 100">
    <style>
        <![CDATA[svg{stroke:#000;stroke-linecap:round;stroke-linejoin:round;fill:#fff;fill-rule:evenodd;font-family:Roboto;font-size:14px;text-anchor:middle;}svg text{paint-order:stroke;white-space:pre;}svg .Text\.cls{stroke:none;}]]>
    </style>
    <g>
        <g>
            <g transform="translate(6.0851 0)">
                <g>
                    <g transform="translate(46.4547 39.0891)">
                        <path d="M 18.8281 21.8219 L 18.8281 0 L 0 10.9313 L 18.8281 21.8219" fill="#00445e" fill-rule="nonzero" stroke="none" stroke-linecap="butt" stroke-linejoin="miter"/>
                    </g>
                    <g transform="translate(22.6922 12.9938)">
                        <path d="M 41.3672 23.9625 L 22.5156 13.0625 L 22.5156 34.8938 L 41.3672 23.9625 M 20.0656 34.8938 L 20.0656 13.0625 L 1.1984 23.9625 L 20.0656 34.8938 M 18.8438 10.9688 L 0 0 L 0 21.875 L 18.8438 10.9844" fill="#00aede" fill-rule="nonzero" stroke="none" stroke-linecap="butt" stroke-linejoin="miter"/>
                    </g>
                    <g transform="translate(23.8906 52.1203)">
                        <path d="M 40.1688 10.8922 L 21.3172 0.0016 L 21.3172 21.825 L 40.1688 10.8938 M 18.8672 21.8234 L 18.8672 0 L 0 10.8906 L 18.8672 21.8219" fill="#00445e" fill-rule="nonzero" stroke="none" stroke-linecap="butt" stroke-linejoin="miter"/>
                    </g>
                    <g transform="translate(1.2468 12.9938)">
                        <path d="M 85.3656 37.025 L 66.4828 26.0938 L 66.4828 47.9172 L 85.3656 37.0266 M 18.9906 21.8609 L 18.9906 0 L 0 10.9688 L 18.9906 21.8594" fill="#00aede" fill-rule="nonzero" stroke="none" stroke-linecap="butt" stroke-linejoin="miter"/>
                    </g>
                    <g transform="translate(22.6922 65.1156)">
                        <path d="M 18.8438 10.9313 L 0 0 L 0 21.8531 L 18.8438 10.9156" fill="#00445e" fill-rule="nonzero" stroke="none" stroke-linecap="butt" stroke-linejoin="miter"/>
                    </g>
                    <g transform="translate(1.2468 65.1141)">
                        <path d="M 18.9891 21.8547 L 18.9891 0 L 0 10.9328 L 18.9906 21.8703" fill="#00aede" fill-rule="nonzero" stroke="none" stroke-linecap="butt" stroke-linejoin="miter"/>
                    </g>
                    <g transform="translate(22.6922 39.0875)">
                        <path d="M 18.8438 10.9313 L 0 0 L 0 21.8234 L 18.8438 10.9328" fill="#00445e" fill-rule="nonzero" stroke="none" stroke-linecap="butt" stroke-linejoin="miter"/>
                    </g>
                    <g transform="translate(46.4547 12.9938)">
                        <path d="M 18.8281 21.8609 L 18.8281 0 L 0 10.9688 L 18.8281 21.8594" fill="#00aede" fill-rule="nonzero" stroke="none" stroke-linecap="butt" stroke-linejoin="miter"/>
                    </g>
                    <g transform="translate(23.8906 0)">
                        <path d="M 21.3172 0.00001 L 21.3172 21.8234 L 40.1688 10.8859 L 21.3172 0 M 0.0016 10.9 L 18.8688 21.8375 L 18.8688 0 L 0.0016 10.9 M 40.1688 89.0688 L 21.3172 78.1781 L 21.3172 99.9938 L 40.1688 89.0563 M 18.8672 100 L 18.8672 78.1766 L 0 89.0672 L 18.8672 100" fill="#00445e" fill-rule="nonzero" stroke="none" stroke-linecap="butt" stroke-linejoin="miter"/>
                    </g>
                    <g transform="translate(0 12.9938)">
                        <path d="M 87.8297 60.95 L 87.8297 39.1266 L 69.0016 50.0172 L 87.8297 60.9484 M 20.2359 47.9172 L 20.2359 26.0422 L 1.2453 37.0109 L 20.2359 47.9016 M 19.0203 50.0188 L 0 39.1281 L 0 60.9516 L 19.0203 50.0063 M 87.8297 34.8813 L 87.8297 13.0625 L 69.0016 23.9625 L 87.8297 34.8938 M 86.6109 10.9688 L 67.7266 0 L 67.7266 21.875 L 86.6094 10.9844 M 86.6094 63.0688 L 67.7266 52.1375 L 67.7266 73.975 L 86.6094 63.0375" fill="#00aede" fill-rule="nonzero" stroke="none" stroke-linecap="butt" stroke-linejoin="miter"/>
                    </g>
                    <g transform="translate(46.4547 65.1141)">
                        <path d="M 18.8281 21.8547 L 18.8281 0 L 0 10.9313 L 18.8281 21.8688" fill="#00445e" fill-rule="nonzero" stroke="none" stroke-linecap="butt" stroke-linejoin="miter"/>
                    </g>
                    <g transform="translate(0 26.0563)">
                        <path d="M 19.0203 10.9 L 0 0 L 0 21.8313 L 19.0203 10.9" fill="#00aede" fill-rule="nonzero" stroke="none" stroke-linecap="butt" stroke-linejoin="miter"/>
                    </g>
                </g>
            </g>
            <g>
                <rect fill="none" fill-opacity="0" height="100" stroke="none" stroke-opacity="0" width="100" x="0" y="0"/>
            </g>
        </g>
    </g>
</svg>