<svg xmlns="http://www.w3.org/2000/svg" xmlns:xlink="http://www.w3.org/1999/xlink" xmlns:v="http://vecta.io" width="100.0001" height="100" viewBox="0 0 100.0000500000001 100">
    <style>
        <![CDATA[svg{stroke:#000;stroke-linecap:round;stroke-linejoin:round;fill:#fff;fill-rule:evenodd;font-family:Roboto;font-size:14px;text-anchor:middle;}svg text{paint-order:stroke;white-space:pre;}svg .Text\.cls{stroke:none;}]]>
    </style>
    <defs>
        <linearGradient id="L-0-0-09904387fd1004683ea.grad" y1="-0.00%" x2="-0.00%" y2="99.84%" x1="-0.00%">
            <stop stop-color="#4387fd" offset="0%"/>
            <stop offset="100%" stop-color="#4683ea"/>
        </linearGradient>
        <clipPath id="mas74gura4e.clip">
            <path d="M 30.1361 84.5234 L 9.6281 48.9996 C 8.0234 46.2199 8.0234 42.7957 9.6281 40.016 L 30.1361 4.4922 C 31.7408 1.7125 34.7064 0 37.9166 0 L 78.9325 0 C 82.142 0 85.1076 1.7125 86.7131 4.4922 L 107.221 40.016 C 108.8257 42.7957 108.8257 46.2199 107.221 48.9996 L 86.7131 84.5234 C 85.1084 87.3031 82.1427 89.0148 78.9325 89.0148 L 37.9166 89.0148 C 34.7072 89.0148 31.7416 87.3023 30.1369 84.5234" stroke="none" stroke-linejoin="miter" stroke-linecap="butt" fill="#000000" fill-rule="nonzero" stroke-width="6.2500059586938" transform="translate(-30.0569 -23.4135)"/>
        </clipPath>
    </defs>
    <g transform="translate(0 0)">
        <g>
            <g transform="translate(0 5.4926)">
                <g>
                    <g transform="translate(0 0)">
                        <path d="M 21.7115 84.5234 L 1.2035 48.9996 C -0.4012 46.2199 -0.4012 42.7957 1.2035 40.016 L 21.7115 4.4922 C 23.3162 1.7125 26.2818 0 29.492 0 L 70.508 0 C 73.7174 0 76.683 1.7125 78.2885 4.4922 L 98.7965 40.016 C 100.4012 42.7957 100.4012 46.2199 98.7965 48.9996 L 78.2885 84.5234 C 76.6838 87.3031 73.7182 89.0148 70.508 89.0148 L 29.492 89.0148 C 26.2826 89.0148 23.317 87.3023 21.7123 84.5234" fill="url(#L-0-0-09904387fd1004683ea.grad)" fill-rule="nonzero" stroke="none" stroke-linecap="butt" stroke-linejoin="miter" stroke-width="6.2500059586938"/>
                    </g>
                    <g>
                        <path clip-path="url(#mas74gura4e.clip)" d="M 66.8576 35.8284 L 39.9667 8.9376 L 19.9431 0 L 0.8023 10.3985 L 0 33.3206 L 33.2401 66.5552 L 46.248 66.4381 Z" fill="#000000" fill-rule="nonzero" opacity="0.07" stroke="none" stroke-linecap="butt" stroke-linejoin="miter" stroke-width="6.2500059586938" transform="translate(30.0569 23.4135)"/>
                    </g>
                    <g transform="translate(29.3983 21.0396)">
                        <path d="M 40.1566 10.9622 L 21.6595 0.2824 C 21.0072 -0.0941 20.2033 -0.0941 19.5509 0.2824 L 1.0539 10.9622 C 0.4016 11.3388 0 12.0349 0 12.788 L 0 34.1468 C 0 34.8999 0.4016 35.596 1.0539 35.9726 L 19.5509 46.6523 C 20.2033 47.0289 21.0072 47.0289 21.6595 46.6523 L 40.1566 35.9726 C 40.8089 35.596 41.2105 34.8999 41.2105 34.1468 L 41.2105 12.788 C 41.2105 12.0349 40.8089 11.3388 40.1566 10.9622 M 37.619 32.103 L 31.1659 28.3772 L 31.1659 18.5623 L 21.6361 24.0623 L 21.6361 35.0702 L 30.1354 30.1631 L 36.5886 33.8889 L 20.6048 43.1172 L 4.6211 33.8889 L 11.0743 30.1631 L 19.5744 35.0702 L 19.5744 24.0623 L 10.0446 18.5623 L 10.0446 28.3772 L 3.5914 32.103 L 3.5914 13.6466 L 19.5752 4.4184 L 19.5752 11.87 L 11.0751 16.7771 L 20.6048 22.2771 L 30.1346 16.7771 L 21.6353 11.87 L 21.6353 4.4184 L 37.619 13.6466 L 37.619 32.103" fill-rule="nonzero" stroke="none" stroke-linecap="butt" stroke-linejoin="miter" stroke-width="6.2500059586938"/>
                    </g>
                </g>
            </g>
            <g>
                <rect fill="none" fill-opacity="0" height="100" stroke="none" stroke-opacity="0" width="100" x="0" y="0"/>
            </g>
        </g>
    </g>
</svg>