<svg xmlns="http://www.w3.org/2000/svg" xmlns:xlink="http://www.w3.org/1999/xlink" xmlns:v="http://vecta.io" width="100" height="100" viewBox="0 0 100 100.00001945135818">
    <style>
        <![CDATA[svg{stroke:#000;stroke-linecap:round;stroke-linejoin:round;fill:#fff;fill-rule:evenodd;font-family:Roboto;font-size:14px;text-anchor:middle;}svg text{paint-order:stroke;white-space:pre;}svg .Text\.cls{stroke:none;}]]>
    </style>
    <g transform="translate(0 0)">
        <g>
            <g transform="translate(13.8424 0)">
                <g>
                    <g transform="translate(1.0905 12.3207)">
                        <path d="M 70.1342 35.8717 C 70.1342 55.6824 54.4325 71.7434 35.0655 71.7434 C 15.6986 71.7434 0 55.6824 0 35.8717 C 0 16.061 15.6986 0 35.0655 0 C 54.4325 0 70.1342 16.061 70.1342 35.8717" fill="#d33833" stroke="none" stroke-linecap="butt" stroke-linejoin="miter" stroke-width="2"/>
                    </g>
                    <g transform="translate(0.6749 14.5924)">
                        <path d="M 1.8405 42.4836 C 1.8405 42.4836 -0.6968 5.0777 33.7688 4.009 L 31.3627 0 L 12.6582 6.2494 L 7.3462 12.3957 L 2.6716 21.348 L 0 31.769 L 0.8031 38.7152" fill="#ef3d3a" fill-rule="nonzero" stroke="none" stroke-linecap="butt" stroke-linejoin="miter" stroke-width="2"/>
                    </g>
                    <g transform="translate(0 11.3771)">
                        <path d="M 12.1364 12.3489 C 5.9807 18.6452 2.1748 27.3381 2.1748 36.9529 C 2.1748 46.5676 5.9869 55.2637 12.1364 61.5537 C 18.2858 67.8438 26.7757 71.7309 36.156 71.7309 C 45.5364 71.7309 54.02 67.8469 60.1757 61.5537 C 66.3314 55.2606 70.1373 46.5645 70.1373 36.9529 C 70.1373 27.3412 66.3251 18.642 60.1757 12.3489 C 54.0263 6.0557 45.5364 2.1717 36.156 2.1717 C 26.7757 2.1717 18.2921 6.0557 12.1364 12.3489 Z M 10.5803 63.0786 C 4.0403 56.3917 0 47.1488 0 36.956 C 0 26.7632 4.0434 17.5203 10.5803 10.8334 C 17.1172 4.1465 26.1663 -0.0031 36.156 0 C 46.1457 0.0031 55.1949 4.1465 61.7318 10.8334 C 68.2687 17.5203 72.3152 26.7632 72.3152 36.956 C 72.3152 47.1488 68.2718 56.3917 61.7318 63.0786 C 55.1918 69.7655 46.1457 73.912 36.156 73.912 C 26.1663 73.912 17.1172 69.7655 10.5803 63.0786" fill="#231f20" fill-rule="nonzero" stroke="none" stroke-linecap="butt" stroke-linejoin="miter" stroke-width="2"/>
                    </g>
                    <g transform="translate(13.2456 1.4998)">
                        <path d="M 37.6715 46.8926 L 32.3595 47.6956 L 25.1414 48.4987 L 20.4669 48.633 L 15.9235 48.4987 L 12.4489 47.43 L 9.3773 44.0866 L 6.9712 37.2747 L 6.44 35.8061 L 3.2341 34.7374 L 1.3592 31.6658 L 0 27.2569 L 1.4686 23.3822 L 4.9433 22.1792 L 7.7493 23.5166 L 9.0867 26.4538 L 10.6896 26.1851 L 11.2208 25.5164 L 10.6896 22.4448 L 10.5553 18.5702 L 11.3583 13.2582 L 11.3271 10.2053 L 13.7644 6.3119 L 18.039 3.2403 L 25.5133 0 L 33.7938 1.203 L 41.0118 6.4119 L 44.3553 11.7239 L 46.4926 15.5986 L 47.0238 25.2164 L 45.4208 33.4969 L 42.4836 40.84 L 39.6776 44.7146" fill="#f0d6b7" stroke="none" stroke-linecap="butt" stroke-linejoin="miter" stroke-width="2"/>
                    </g>
                    <g transform="translate(8.6992 46.5301)">
                        <path d="M 37.6746 24.9727 L 18.5702 25.7758 L 18.5702 28.9817 L 20.1731 40.1994 L 19.3701 41.1369 L 6.0151 36.5966 L 5.0777 34.9937 L 3.7403 19.9013 L 0.6687 10.8178 L 0 8.6805 L 10.6865 1.3374 L 14.03 0 L 16.9672 3.6059 L 19.5044 5.8776 L 22.4417 6.815 L 23.7759 7.215 L 25.3789 14.1612 L 26.5819 15.6298 L 29.6535 14.5612 L 27.5162 18.7014 L 39.1401 24.179 L 37.6715 24.9821" fill="#335061" stroke="none" stroke-linecap="butt" stroke-linejoin="miter" stroke-width="2"/>
                    </g>
                    <g transform="translate(14.1799 2.706)">
                        <path d="M 0.5343 22.1761 L 4.009 20.9731 L 6.815 22.3105 L 8.1524 25.2477 L 9.7553 24.979 L 10.1553 23.376 L 9.3523 20.3044 L 10.1553 12.9551 L 9.4866 8.9461 L 11.8927 6.1401 L 17.1015 1.9998 L 15.6329 0 L 8.2836 3.6059 L 5.212 6.0119 L 3.4747 9.7522 L 0.8031 13.3581 L 0 17.6328 L 0.5312 22.1761" fill="#6d6b6d" stroke="none" stroke-linecap="butt" stroke-linejoin="miter" stroke-width="2"/>
                    </g>
                    <g transform="translate(14.1862 3.1565)">
                        <path d="M 6.0026 9.1642 C 6.0026 9.1642 8.0024 4.2209 16.0235 1.8212 C 24.0447 -0.5786 16.4235 0.0838 16.4235 0.0838 L 7.7368 3.4273 L 4.3933 6.7707 L 2.9247 9.4423 L 5.9963 9.1736 M 1.9967 20.7882 C 1.9967 20.7882 -0.8093 11.4359 9.8803 10.1016 L 9.4804 8.4987 L 2.1373 10.236 L 0 17.1822 L 0.5312 21.7256 L 1.9998 20.7882" fill="#dcd9d8" stroke="none" stroke-linecap="butt" stroke-linejoin="miter" stroke-width="2"/>
                    </g>
                    <g transform="translate(20.4575 30.0738)">
                        <path d="M 0.00001 6.2947 L 1.7498 4.6011 C 1.7859 5.1142 2.1654 5.5376 2.6716 5.6292 C 2.806 6.5666 3.2028 14.9814 8.9211 19.5248 C 9.446 19.9404 4.6464 18.8561 4.6464 18.8561 L 0.3718 12.1755 M 24.5509 3.7544 C 24.5509 3.7544 24.8633 -0.2953 25.957 0.0172 C 27.0506 0.3297 27.0506 1.4233 27.0506 1.4233 C 27.0506 1.4233 24.4009 3.1357 24.5571 3.7606" fill="#f7e4cd" stroke="none" stroke-linecap="butt" stroke-linejoin="miter" stroke-width="2"/>
                    </g>
                    <g transform="translate(37.0559 18.9982)">
                        <path d="M 19.0732 0.00001 C 19.0732 0 16.8703 0.4687 16.6672 2.406 C 16.4641 4.3434 19.0732 2.806 19.4732 2.6748 M 2.9372 0.1344 C 2.9372 0.1344 0 0.5343 0 2.406 C 0 4.2777 3.3434 4.1434 4.2746 3.3434" fill="#f7e4cd" fill-rule="nonzero" stroke="none" stroke-linecap="butt" stroke-linejoin="miter" stroke-width="2"/>
                    </g>
                    <g transform="translate(13.1144 0.3458)">
                        <path d="M 8.6773 27.4735 C 8.6773 27.4735 3.5997 24.3988 3.0685 27.3391 C 2.5373 30.2795 1.3311 32.4168 3.8715 35.4884 L 2.1342 34.9572 L 0.5312 30.8169 L 0 26.8079 L 3.0716 23.602 L 6.5463 23.8707 L 8.5461 25.4737 L 8.6804 27.4735 M 11.0865 19.0555 C 11.0865 19.0555 13.3581 7.3003 24.8477 4.9943 C 34.3062 3.1257 39.2745 5.3942 41.1462 7.5316 C 41.1462 7.5316 32.7282 -2.4863 24.7102 0.5853 C 16.6922 3.6569 10.8178 9.3345 10.9427 12.9061 L 11.0771 19.0524 M 42.0742 8.897 C 42.0742 8.897 38.1996 8.7627 38.0652 12.2405 C 38.079 12.6112 38.1694 12.9751 38.3308 13.3091 C 38.4922 13.6433 41.4056 9.8345 43.2741 11.7062 M 25.1102 13.6685 C 25.1102 13.6685 24.4446 8.3377 19.8982 11.4374 C 16.9609 13.4373 17.2265 16.2495 17.7609 16.7495 C 18.2952 17.2494 18.1514 18.3587 18.5577 17.6244 C 18.9639 16.8901 18.8295 14.4809 20.3013 13.8122 C 21.773 13.1435 24.1759 12.3967 25.1133 13.6404" fill="#f7e4cd" stroke="none" stroke-linecap="butt" stroke-linejoin="miter" stroke-width="2"/>
                    </g>
                    <g transform="translate(8.7023 46.4207)">
                        <path d="M 16.9641 3.709 L 4.4027 9.321 C 4.4027 9.321 9.6116 30.0285 6.94 36.4435 L 5.0652 35.7748 L 4.9308 27.8912 L 1.4686 12.9582 L 0 8.8179 L 13.1238 0 L 16.9984 3.7403 M 18.2608 15.1611 L 20.0419 17.3359 L 20.0419 25.3508 L 17.9046 25.3508 L 17.639 19.1014 C 17.639 18.4327 17.9046 16.0298 17.9046 16.0298 M 18.3014 26.5507 L 12.2895 26.8163 L 14.0268 28.0193 L 18.3014 28.688" fill="#49728b" stroke="none" stroke-linecap="butt" stroke-linejoin="miter" stroke-width="2"/>
                    </g>
                    <g transform="translate(47.5769 71.5028)">
                        <path d="M 0.00001 0.1344 L 4.9433 0 L 6.1463 12.2926 L 1.0687 12.9613 L 0 0.1375" fill="#335061" stroke="none" stroke-linecap="butt" stroke-linejoin="miter" stroke-width="2"/>
                    </g>
                    <g transform="translate(48.9111 44.5209)">
                        <path d="M 0.0031 27.1163 L 7.4837 26.7163 L 10.5553 18.567 C 10.5553 18.1671 13.2269 7.3493 13.2269 7.3493 L 7.215 1.0687 L 6.0119 0 L 2.806 3.206 L 2.806 15.6298 L 0 27.1194" fill="#335061" stroke="none" stroke-linecap="butt" stroke-linejoin="miter" stroke-width="2"/>
                    </g>
                    <g transform="translate(47.58 44.5209)">
                        <path d="M 4.6746 26.182 L 0 27.1194 L 0.6687 30.8597 C 2.406 31.6627 5.3433 29.5223 5.3433 29.5223 M 4.8058 2.806 L 14.1581 9.7522 L 14.4268 6.5463 L 7.3462 0 L 4.8089 2.806" fill="#49728b" stroke="none" stroke-linecap="butt" stroke-linejoin="miter" stroke-width="2"/>
                    </g>
                    <g transform="translate(27.2725 71.6403)">
                        <path d="M 4.3683 26.3163 L 1.603 15.0924 L 0.2281 6.8119 L 0 0.6656 L 12.5176 0 L 20.3075 0 L 19.5982 14.0612 L 20.8012 24.8821 L 20.6668 26.8819 L 10.5115 27.685 L 4.3652 26.3476" stroke="none" stroke-linecap="butt" stroke-linejoin="miter" stroke-width="2"/>
                    </g>
                    <g transform="translate(37.2872 70.6654)">
                        <path d="M 8.5492 0.8374 C 8.5492 0.8374 7.8805 14.733 9.8866 24.5852 C 9.8866 24.5852 5.8776 27.1225 0 27.7912 L 11.2177 27.3912 L 12.5551 26.5882 L 10.9521 4.6777 L 10.5522 0" fill="#dcd9d8" stroke="none" stroke-linecap="butt" stroke-linejoin="miter" stroke-width="2"/>
                    </g>
                    <g transform="translate(52.5201 67.9)">
                        <path d="M 1.4311 14.8268 L 6.64 13.3581 L 16.5266 12.8269 L 17.9952 8.2836 L 15.3236 0.4 L 12.252 0 L 7.9774 1.3374 L 3.8746 3.3372 L 1.6967 2.9372 L 0 3.6028" stroke="none" stroke-linecap="butt" stroke-linejoin="miter" stroke-width="2"/>
                    </g>
                    <g transform="translate(53.8575 70.5654)">
                        <path d="M 0.00001 9.4866 C 0 9.4866 3.4747 7.8837 4.009 8.018 L 2.5404 0.6687 L 4.2777 0 L 5.4807 7.7493 L 13.63 8.1493 C 13.63 8.1493 15.233 5.0777 14.833 1.8998 L 16.3016 6.1744 L 16.436 8.5805 L 14.2987 11.7864 L 11.8927 12.3176 L 7.8836 12.1833 L 6.5463 10.4459 L 1.8717 11.1146 L 0.4031 11.6458" fill="#dcd9d8" stroke="none" stroke-linecap="butt" stroke-linejoin="miter" stroke-width="2"/>
                    </g>
                    <g transform="translate(42.5961 56.8041)">
                        <path d="M 6.0088 13.7612 L 3.0716 6.2807 L 0 1.8748 C 0 1.8748 0.6687 0 1.603 0 L 4.6746 0 L 7.6118 1.0687 L 7.3462 6.0119 L 6.0088 13.7612" fill-rule="nonzero" stroke="none" stroke-linecap="butt" stroke-linejoin="miter" stroke-width="2"/>
                    </g>
                    <g transform="translate(42.3648 56.5448)">
                        <path d="M 6.815 11.4896 C 6.815 11.4896 3.0747 4.2715 3.0747 3.2091 C 3.0747 3.2091 3.7434 1.6061 4.6777 2.0061 C 5.612 2.406 7.6149 3.4747 7.6149 3.4747 L 7.6149 0.9374 L 3.0716 0 L 0 0.4 L 5.2089 12.6926 L 6.2775 12.8269" fill="#dcd9d8" stroke="none" stroke-linecap="butt" stroke-linejoin="miter" stroke-width="2"/>
                    </g>
                    <g transform="translate(25.6632 48.9205)">
                        <path d="M 7.1743 1.4749 L 3.4747 1.0687 L 0 0 L 0 1.203 L 1.6967 3.0778 L 7.0087 5.4839" fill-rule="nonzero" stroke="none" stroke-linecap="butt" stroke-linejoin="miter" stroke-width="2"/>
                    </g>
                    <g transform="translate(26.4694 50.7984)">
                        <path d="M 0.4 0.00001 C 0.4 0 4.5402 1.7373 5.8776 1.3374 L 6.0119 2.9404 L 2.2717 2.1404 L 0 0.5375 L 0.4 0.0062" fill="#dcd9d8" stroke="none" stroke-linecap="butt" stroke-linejoin="miter" stroke-width="2"/>
                    </g>
                    <g transform="translate(47.2894 49.8587)">
                        <path d="M 6.6463 7.4048 C 4.3808 7.3423 2.3342 7.0704 0.5375 6.5611 C 0.6624 5.8268 0.4312 5.105 0.6156 4.5738 C 1.1155 4.2144 1.9529 4.2207 2.7091 4.1363 C 2.0529 3.8145 1.1374 3.6895 0.3843 3.8739 C 0.3656 3.3645 0.1344 3.0489 0 2.649 C 1.2749 2.1928 4.2809 -0.7882 5.9744 0.1992 C 6.7806 0.6679 7.1243 3.3552 7.1868 4.655 C 7.24 5.7362 7.0931 6.8298 6.6463 7.4048" fill="#d33833" stroke="none" stroke-linecap="butt" stroke-linejoin="miter" stroke-width="2"/>
                    </g>
                    <g transform="translate(47.2894 49.8587)">
                        <path d="M 6.6463 7.4048 C 4.3808 7.3423 2.3342 7.0704 0.5375 6.5611 C 0.6624 5.8268 0.4312 5.105 0.6156 4.5738 C 1.1155 4.2144 1.9529 4.2207 2.7091 4.1363 C 2.0529 3.8145 1.1374 3.6895 0.3843 3.8739 C 0.3656 3.3645 0.1344 3.0489 0 2.649 C 1.2749 2.1928 4.2809 -0.7882 5.9744 0.1992 C 6.7806 0.6679 7.1243 3.3552 7.1868 4.655 C 7.24 5.7362 7.0931 6.8298 6.6463 7.4048 Z" fill="none" fill-rule="nonzero" stroke="#d33833" stroke-linecap="butt" stroke-linejoin="miter" stroke-width="0.514"/>
                    </g>
                    <g transform="translate(33.201 50.4503)">
                        <path d="M 9.895 3.1073 L 9.8762 3.6261 C 9.1669 4.0947 8.0264 4.0855 7.2515 4.476 C 8.3951 4.526 9.2982 4.801 10.0793 5.1947 L 10.0293 6.4913 C 8.7326 7.3789 7.5483 8.7036 6.0203 9.535 C 5.3017 9.9287 2.7644 10.9409 1.9957 10.763 C 1.5583 10.663 1.5208 10.1224 1.3489 9.6131 C 0.9802 8.5193 0.1303 6.7915 0.0521 5.151 C -0.0416 3.0793 -0.251 -0.3891 1.9801 0.0357 C 3.8251 0.4272 5.6051 1.0784 7.2671 1.97 C 8.1201 2.4387 8.6107 3.0106 9.9044 3.1105" fill="#d33833" stroke="none" stroke-linecap="butt" stroke-linejoin="miter" stroke-width="2"/>
                    </g>
                    <g transform="translate(33.201 50.4503)">
                        <path d="M 9.895 3.1073 L 9.8762 3.6261 C 9.1669 4.0947 8.0264 4.0855 7.2515 4.476 C 8.3951 4.526 9.2982 4.801 10.0793 5.1947 L 10.0293 6.4913 C 8.7326 7.3789 7.5483 8.7036 6.0203 9.535 C 5.3017 9.9287 2.7644 10.9409 1.9957 10.763 C 1.5583 10.663 1.5208 10.1224 1.3489 9.6131 C 0.9802 8.5193 0.1303 6.7915 0.0521 5.151 C -0.0416 3.0793 -0.251 -0.3891 1.9801 0.0357 C 3.8251 0.4272 5.6051 1.0784 7.2671 1.97 C 8.1201 2.4387 8.6107 3.0106 9.9044 3.1105 Z" fill="none" fill-rule="nonzero" stroke="#d33833" stroke-linecap="butt" stroke-linejoin="miter" stroke-width="0.514"/>
                    </g>
                    <g transform="translate(44.0257 53.1446)">
                        <path d="M 0.3577 2.8845 C 0.1609 1.7598 -0.0703 1.4348 0.0203 0.4474 C 3.0294 -1.5587 3.5918 3.8908 0.3577 2.8845" fill="#d33833" stroke="none" stroke-linecap="butt" stroke-linejoin="miter" stroke-width="2"/>
                    </g>
                    <g transform="translate(44.0257 53.1446)">
                        <path d="M 0.3577 2.8845 C 0.1609 1.7598 -0.0703 1.4348 0.0203 0.4474 C 3.0294 -1.5587 3.5918 3.8908 0.3577 2.8845 Z" fill="none" fill-rule="nonzero" stroke="#d33833" stroke-linecap="butt" stroke-linejoin="miter" stroke-width="0.514"/>
                    </g>
                    <g transform="translate(32.1572 48.9236)">
                        <path d="M 16.5852 8.018 C 16.5852 8.018 15.6477 6.6806 16.3164 6.2807 C 16.9851 5.8807 17.6538 6.2807 18.0538 5.612 C 18.4537 4.9433 18.0538 4.5433 18.1881 3.7372 C 18.3225 2.931 18.9912 2.7997 19.6567 2.6685 C 20.3223 2.5373 22.194 2.2685 22.4627 2.9372 L 21.6597 0.5312 L 20.0567 0 L 14.9791 2.9372 L 14.7103 4.4058 L 14.7103 7.3431 M 2.524 12.4239 L 2.0052 6.1744 C 1.6928 3.0653 2.7552 3.6059 5.4487 3.6059 C 5.8611 3.6059 7.9485 4.0965 8.1359 4.409 C 8.864 5.8963 6.886 5.5651 8.9796 6.69 C 10.7169 7.6368 13.7854 6.1151 13.0824 4.009 C 12.6886 3.5403 11.0357 3.8621 10.442 3.5559 L 7.311 1.9311 C 5.983 1.2436 2.9145 0.2375 1.499 1.1999 C -2.0881 3.6372 1.724 9.7366 3.0052 12.2801" fill="#ef3d3a" stroke="none" stroke-linecap="butt" stroke-linejoin="miter" stroke-width="2"/>
                    </g>
                    <g transform="translate(15.7829 11.8538)">
                        <path d="M 22.4448 2.1636 C 18.8045 1.32 16.9953 3.6885 15.8892 6.1476 C 14.9049 5.9102 15.2642 4.5697 15.5767 3.8853 C 16.2016 2.0918 18.8576 -0.2924 21.0012 0.0294 C 21.9261 0.1701 23.176 1.0137 22.4761 2.1636 M 40.1869 6.2789 L 40.3588 6.2851 C 41.1806 7.9943 41.9211 9.8067 42.9304 11.2847 C 42.2336 12.9033 37.6653 14.3375 37.734 11.4284 C 38.7214 10.9972 40.4275 11.3409 41.3056 10.7878 C 40.7994 9.3973 40.0682 8.2131 40.1807 6.2476 M 24.3071 6.3539 C 25.0883 7.785 25.3383 9.2911 26.4507 10.3691 C 26.9506 10.8566 27.9193 11.4503 27.4412 12.8064 C 27.1 13.3287 26.6102 13.7368 26.0351 13.9782 C 24.3009 14.4906 20.2544 14.0844 21.6605 11.9221 C 23.0979 11.9846 25.0227 12.8533 26.0976 11.8127 C 25.2727 10.5004 23.8072 7.8912 24.3478 6.357 M 39.5651 20.9025 C 36.9528 22.5805 34.0406 24.4022 29.7598 23.9835 C 28.8442 23.1898 28.4974 21.4212 29.3848 20.2495 C 29.8472 21.0431 29.5566 22.5086 30.8472 22.7274 C 33.2751 23.1429 36.1029 21.2431 37.8465 20.5776 C 38.9308 18.7496 37.7528 18.0778 36.7779 16.9029 C 34.778 14.4969 32.1002 11.5096 32.197 7.9037 C 33.0032 7.3194 33.0719 8.7974 33.1907 9.0661 C 34.2343 11.5034 36.8591 14.6281 38.7745 16.7217 C 39.2433 17.2372 40.0244 17.7309 40.1057 18.0715 C 40.3557 19.0621 39.4589 20.2463 39.562 20.9057 M 5.0964 19.1339 C 4.2777 18.6652 4.084 16.6092 3.1216 16.5498 C 1.7467 16.4654 1.9967 19.2214 2.0029 20.8307 C 1.0562 19.9714 0.8905 17.331 1.5842 15.9717 C 0.7937 15.5843 0.4375 16.3998 0 16.6904 C 0.5624 12.5908 5.9994 14.8156 5.0933 19.1371 M 41.1993 22.5743 C 39.9494 24.8865 38.2621 27.4363 34.6937 27.5113 C 34.6218 26.7614 34.5687 25.6271 34.6968 25.1771 C 37.4247 24.9147 39.1089 23.5273 41.1962 22.5743 M 24.104 24.0741 C 26.3788 25.2709 30.5628 25.399 33.6563 25.3084 C 33.8219 25.9864 33.8188 26.8239 33.825 27.6519 C 29.8472 27.8488 25.1477 26.8707 24.1384 24.0741 M 23.7009 26.3052 C 25.2758 30.2579 30.6847 29.8048 35.2467 29.6923 C 35.0468 30.2048 34.6093 30.811 34.0687 31.0297 C 32.6064 31.6547 28.5755 32.0765 26.5475 30.9985 C 25.2602 30.311 24.4352 28.7674 23.7291 27.8613 C 23.4166 27.4238 21.6917 26.3052 23.7041 26.2989" fill="#231f20" stroke="none" stroke-linecap="butt" stroke-linejoin="miter" stroke-width="2"/>
                    </g>
                    <g transform="translate(49.3236 58.1976)">
                        <path d="M 5.8057 1.7937 L 0 10.996 C 0.9187 8.2963 1.3124 3.7779 1.4499 0.3282 C 3.3716 -0.5717 5.0183 0.5313 5.8057 1.7968" fill="#81b0c4" stroke="none" stroke-linecap="butt" stroke-linejoin="miter" stroke-width="2"/>
                    </g>
                    <g transform="translate(59.5289 71.3591)">
                        <path d="M 5.537 0.00001 C 3.4684 0.4125 2.0154 2.4248 0 2.2935 C 1.1093 0.7312 3.0497 0.1062 5.537 0 M 6.4494 3.2372 C 4.7621 3.4153 2.7841 3.6872 1.0749 3.5497 C 1.8873 2.3123 5.0027 2.7372 6.4494 3.2372 M 7.0337 6.0244 C 5.1402 6.0651 2.7841 6.0276 0.9843 5.8776 C 2.0467 4.7339 5.8057 5.4526 7.0337 6.0244" fill="#231f20" stroke="none" stroke-linecap="butt" stroke-linejoin="miter" stroke-width="2"/>
                    </g>
                    <g transform="translate(49.2986 85.0111)">
                        <path d="M 2.2654 0.0092 C 2.5373 2.384 3.4841 4.7994 3.3591 7.4022 C 2.3123 7.7553 1.7092 8.0647 0.3062 8.0584 L 0 0.3498 C 0.6874 0.3966 1.7092 -0.1439 2.2623 0.0373" fill="#dcd9d8" stroke="none" stroke-linecap="butt" stroke-linejoin="miter" stroke-width="2"/>
                    </g>
                    <g transform="translate(41.2181 49.961)">
                        <path d="M 7.2931 0.00001 C 6.3432 0.6249 5.5307 1.3967 4.6183 2.0623 C 2.5935 2.1623 1.4874 1.9217 0 0.7593 C 0.025 0.6656 0.175 0.7062 0.1781 0.5937 C 2.3467 1.5624 5.1027 0.2 7.2931 0" fill="#f0d6b7" stroke="none" stroke-linecap="butt" stroke-linejoin="miter" stroke-width="2"/>
                    </g>
                    <g transform="translate(37.1278 59.3977)">
                        <path d="M 0.00001 5.3433 C 0.5937 2.7622 2.931 1.4249 5.0495 0 C 7.2368 2.781 8.568 6.3432 10.0334 9.7929 C 6.5713 8.7492 3.0341 7.0556 0.0031 5.3401" fill="#81b0c4" stroke="none" stroke-linecap="butt" stroke-linejoin="miter" stroke-width="2"/>
                    </g>
                    <g transform="translate(7.5628 0)">
                        <path d="M 41.742 85.364 C 41.6545 87.4732 41.9482 90.8635 42.0482 93.0727 C 43.4543 93.0758 44.0543 92.7665 45.101 92.4165 C 45.2198 89.8105 44.2761 87.4013 44.0074 85.0234 C 43.4543 84.8766 42.4357 85.414 41.7451 85.3359 Z M 19.894 73.3651 C 20.8189 81.8706 22.1594 88.9887 24.6186 96.5505 C 30.0743 98.2066 36.6487 98.3503 41.4733 96.8567 C 40.589 92.6071 40.9733 87.4295 40.4577 82.8893 L 39.7328 72.5683 C 33.8896 71.3497 25.631 72.2871 19.8971 73.3558 Z M 41.142 72.6308 C 41.092 76.2867 41.3045 79.8864 41.5857 83.5454 L 45.2417 82.908 C 44.8198 79.3865 44.8667 75.4243 44.0074 72.309 C 43.0075 72.3184 42.1326 72.2965 41.1389 72.6308 Z M 48.257 72.0434 C 47.5914 71.8871 46.8196 72.0371 46.1791 72.0496 L 47.429 81.4394 C 48.4289 81.4706 48.9601 81.0019 49.7881 80.8394 C 49.8319 78.0959 49.5475 74.315 48.2258 72.0434 Z M 59.031 81.8862 C 61.1183 81.38 62.4276 78.824 61.8432 76.1992 C 61.4527 74.4369 60.7558 71.1153 60.009 69.9873 C 59.4591 69.153 57.9624 68.0594 56.7687 68.8249 C 54.8251 70.0686 51.4036 70.431 49.9881 71.934 C 50.6974 74.2994 50.9193 77.546 51.213 80.5426 C 53.6409 80.6926 56.625 79.8739 58.6435 80.7426 C 57.2374 81.1988 55.4063 81.2019 54.1908 81.8675 C 55.1845 82.3487 57.5155 82.2518 59.0341 81.8831 Z M 39.6328 69.1999 C 38.1642 65.7533 36.8362 62.1818 34.6489 59.407 C 32.5303 60.8288 30.1962 62.1662 29.5993 64.7503 C 32.6303 66.4689 36.1706 68.1562 39.6297 69.203 Z M 43.245 58.529 C 43.1075 61.9756 42.7138 66.497 41.7951 69.1968 C 43.9824 66.4064 45.7541 63.1567 47.6008 59.9945 C 46.8134 58.7321 45.1635 57.6291 43.245 58.5259 Z M 39.1828 57.0729 C 38.3517 56.9791 37.6517 58.0259 36.5675 57.5728 L 35.8425 58.4103 C 38.2267 61.285 39.2797 65.3596 41.1545 68.7343 C 42.1419 65.4909 42.0295 61.9381 42.2482 58.3978 C 40.8921 58.4852 40.139 57.1697 39.186 57.0698 Z M 36.5487 53.5982 C 36.4612 54.5825 36.6893 54.9043 36.8862 56.0355 C 40.1203 57.0479 39.5547 51.5984 36.5487 53.5982 Z M 32.9615 52.4202 C 31.2997 51.5285 29.5195 50.8774 27.6745 50.486 C 25.4435 50.0579 25.6528 53.5295 25.7466 55.6011 C 25.8216 57.2416 26.6746 58.9758 27.0433 60.0632 C 27.2183 60.5726 27.2558 61.11 27.6901 61.2131 C 28.4588 61.3912 30.993 60.3788 31.7148 59.9851 C 33.2459 59.1508 34.427 57.7978 35.7238 56.9416 L 35.7738 55.6449 C 34.9926 55.2574 34.0927 54.9793 32.9459 54.9262 C 33.7271 54.5356 34.8645 54.5419 35.5707 54.0763 L 35.5894 53.5576 C 34.2958 53.4576 33.8083 52.8826 32.9522 52.4171 Z M 19.6503 50.0017 C 18.4941 51.1765 22.8937 52.7764 24.2967 52.8639 C 24.2873 52.1202 24.7217 51.4203 24.6342 50.8859 C 22.9687 50.5922 20.7814 50.786 19.6534 50.0017 Z M 33.899 50.5516 C 33.8927 50.6672 33.7427 50.6235 33.7208 50.7172 C 35.2082 51.8796 36.3144 52.1233 38.3392 52.0202 L 41.0139 49.9579 C 38.8266 50.1548 36.0675 51.514 33.899 50.5516 Z M 46.979 54.52 C 46.9165 53.2139 46.5728 50.5329 45.7666 50.0641 C 44.073 49.0767 41.0639 52.0577 39.7922 52.5139 C 39.9296 52.9139 40.1609 53.2326 40.1765 53.7388 C 40.9264 53.5513 41.8482 53.6763 42.5013 54.0013 C 41.7451 54.0857 40.9389 54.0794 40.4077 54.4387 C 40.2202 54.9699 40.4515 55.6886 40.3296 56.4261 C 42.1232 56.9323 44.173 57.201 46.4384 57.2697 C 46.8759 56.6979 47.0321 55.6043 46.979 54.52 Z M 17.7004 51.139 C 17.338 50.8797 14.8788 47.6831 14.5757 47.8144 C 10.1293 49.5642 5.9734 52.5952 2.2581 55.4699 C 5.8015 63.0692 7.2264 72.384 7.4826 81.3581 C 11.5448 83.2549 15.1069 85.9921 20.6064 86.2764 L 19.0253 73.5026 C 17.6411 72.9183 15.6569 73.5276 14.3633 73.3214 C 14.3508 71.759 16.3412 72.6339 16.5068 71.5903 C 16.6318 70.7966 15.4132 70.7372 15.81 69.4874 C 16.8224 69.8561 17.3536 70.6685 18.4348 70.9716 C 19.4222 68.8156 18.4223 64.9972 18.5597 63.1598 C 18.591 62.8223 18.7285 61.285 19.4878 61.5537 C 20.1596 61.7912 19.4503 65.6471 19.519 67.3501 C 19.5815 68.9218 19.3315 70.4748 19.9659 71.4309 C 25.2872 70.706 30.693 70.2373 36.4487 70.0811 C 35.1832 69.5374 33.6771 69.0187 32.0272 68.0937 C 31.1336 67.5938 28.3151 66.5408 28.0589 65.6877 C 27.6464 64.3347 29.14 63.6129 29.3931 62.4536 C 26.7059 63.9222 26.184 61.0475 25.5497 59.0164 C 24.9748 57.1729 24.6436 55.798 24.5061 54.7356 C 22.1938 53.6326 19.719 52.5483 17.7254 51.1016 Z M 44.6261 48.2018 C 48.332 46.4051 49.0007 54.9199 47.5477 57.6572 C 47.7727 58.4759 48.5476 58.7883 48.8601 59.5227 L 42.3919 70.3435 C 43.9605 69.3655 46.2041 70.1686 48.0164 69.4061 C 48.6913 69.1405 49.1788 67.5938 49.6912 66.3595 C 51.0974 62.9598 52.5722 58.6727 53.2284 55.423 C 53.3753 54.6825 53.7815 53.0732 53.6909 52.4139 C 53.5284 51.2359 51.9317 50.361 51.1161 49.6017 L 47.1165 45.8145 C 46.4822 46.7519 45.1229 47.3769 44.6042 48.1393 Z M 9.1669 15.3455 C 7.4014 17.289 7.7701 20.9262 7.9857 23.5166 C 11.1729 21.5105 15.41 23.6728 15.3725 27.0881 C 16.8974 27.0475 15.9412 25.1821 15.6663 23.9853 C 14.7663 20.0669 17.1849 15.811 15.7756 12.227 C 13.0415 12.4332 10.798 13.5519 9.17 15.3455 Z M 21.7969 4.0715 C 17.7973 5.2026 12.679 8.1086 11.0386 11.6958 C 12.3103 11.5083 13.1946 10.8709 14.4445 10.7584 C 14.9195 10.7271 15.5381 10.9584 16.085 10.8209 C 17.1692 10.5521 18.0848 8.118 18.9066 7.2118 C 19.7065 6.3275 20.6658 5.9494 21.322 5.1433 C 21.7438 4.9402 22.3688 4.9558 22.3906 4.3215 C 22.2032 4.1246 22.0157 4.009 21.7657 4.009 Z M 42.5981 5.1339 C 38.4517 2.7997 31.4304 1.0405 27.0183 3.2372 C 23.4562 5.012 18.6441 7.9493 17.0036 11.6739 C 18.5347 15.2673 16.5506 18.5577 16.4224 22.2042 C 16.3537 24.1415 17.3349 25.8382 17.4098 27.9537 C 16.8849 28.8192 15.285 28.9223 14.1726 28.8661 C 13.7977 26.9975 13.1415 24.8977 11.2229 24.6852 C 8.5044 24.3884 6.5109 26.6413 6.3859 28.9973 C 6.239 31.7658 8.5107 36.356 11.7354 36.0373 C 12.979 35.9123 13.2852 34.6624 14.6414 34.6781 C 15.3757 36.1467 13.5071 36.606 13.3165 37.6528 C 13.2665 37.9246 13.4727 38.9839 13.5915 39.4807 C 14.1758 41.8993 15.4819 45.0271 16.7662 46.8676 C 18.3973 49.2017 21.597 49.5548 25.0466 49.7829 C 25.6622 48.458 27.9276 48.5643 29.4056 48.9143 C 27.637 48.2143 25.9903 46.5145 24.6248 45.0084 C 23.0625 43.2835 21.4688 41.4306 21.3907 39.1745 C 24.3498 43.2804 26.7965 46.8676 32.1772 48.6736 C 36.2487 50.0391 41.0077 48.0487 44.1355 45.8489 C 45.4354 44.9365 46.2103 43.4866 47.1352 42.1617 C 50.588 37.1622 52.1973 30.1004 51.8473 23.226 C 51.7004 20.3919 51.7067 17.5703 50.7536 15.6642 C 49.76 13.6706 46.3978 11.8833 44.4292 13.6894 C 44.0636 11.752 46.0666 10.5521 48.4164 11.2521 C 46.7415 9.0898 44.9792 6.49 42.5981 5.1464 Z M 50.3256 69.0874 C 53.5659 67.475 59.6216 64.7503 61.6558 69.0936 C 62.4057 70.6935 63.2869 73.3995 63.6743 75.0525 C 64.2243 77.3835 63.0494 82.2831 60.684 83.0674 C 58.5685 83.7548 56.0969 83.7173 53.5471 83.2049 C 53.2472 82.9549 52.9128 82.5174 52.6785 82.0675 C 50.8568 81.9956 49.1538 82.1612 47.7164 82.9111 C 47.8539 84.2548 46.9415 84.4735 46.0916 84.7547 C 45.4573 87.2639 47.3571 90.5417 46.904 92.829 C 46.579 94.4601 44.573 94.71 43.1012 95.0163 C 43.0544 95.9537 43.1637 96.6786 43.2668 97.4442 C 42.9294 98.6847 41.417 99.394 39.9859 99.569 C 35.2738 100.1314 28.1182 100.3908 23.5812 98.7566 C 22.3156 95.6537 21.3189 91.8822 20.269 88.3356 C 15.8475 88.8043 12.2697 86.4296 8.9013 84.8672 C 7.7326 84.3266 6.089 84.0235 5.6828 83.0986 C 5.261 82.1987 5.4328 80.4739 5.3297 78.849 C 5.0641 74.6931 4.8298 70.6779 3.7674 66.4189 C 3.2737 64.5066 2.4144 62.8255 1.8144 60.9819 C 1.2613 59.2758 0.2927 57.1697 0.0396 55.4637 C -0.3354 52.942 2.0394 52.8014 3.558 51.7077 C 5.9015 50.0204 7.7451 49.083 10.2918 47.5581 C 11.0417 47.105 13.3165 45.9958 13.5727 45.4333 C 14.0852 44.3897 12.6915 42.9179 12.3228 42.0993 C 11.7291 40.8056 11.426 39.7057 11.3417 38.4277 C 9.2075 38.0902 7.592 36.8216 6.614 35.3905 C 4.9985 33.022 3.8767 28.6411 5.2766 25.307 C 5.386 25.0446 5.9015 24.5259 6.014 24.1259 C 6.1703 23.3322 5.7141 22.2761 5.6859 21.4324 C 5.5391 17.0984 6.4202 13.3706 9.3356 12.0583 C 10.523 7.3712 14.757 5.7776 18.7503 3.4278 C 20.244 2.5529 21.8876 1.9904 23.5874 1.3655 C 29.6806 -0.8781 39.036 -0.4562 44.0949 3.3716 C 46.2384 4.9964 49.6694 8.418 50.8943 10.9021 C 54.1346 17.4484 53.9034 28.3911 51.6379 36.356 C 51.3348 37.4247 50.888 38.9964 50.2756 40.2807 C 49.8444 41.1775 48.5101 42.9679 48.6726 43.7647 C 48.8382 44.5834 51.7192 46.7707 52.3379 47.3675 C 53.4503 48.4393 55.5626 49.8673 55.7344 51.2172 C 55.9219 52.6545 55.1001 54.6294 54.6845 56.0198 L 50.3724 69.0812" fill="#231f20" stroke="none" stroke-linecap="butt" stroke-linejoin="miter" stroke-width="2"/>
                    </g>
                    <g transform="translate(36.1814 36.6633)">
                        <path d="M 0.084 0.3114 C 0.2589 0.0771 1.2276 -0.2823 2.5839 0.3739 C 2.5839 0.3739 0.9809 0.6426 1.1151 3.3111 L 0.4464 3.1768 C 0.4464 3.1768 -0.241 0.752 0.0902 0.3083" fill="#f7e4cd" stroke="none" stroke-linecap="butt" stroke-linejoin="miter" stroke-width="2"/>
                    </g>
                    <g transform="translate(46.5113 59.2133)">
                        <path d="M 1.4686 0.7343 C 1.4686 1.1405 1.1405 1.4686 0.7343 1.4686 C 0.3281 1.4686 0 1.1405 0 0.7343 C 0 0.3281 0.3281 0 0.7343 0 C 1.1405 0 1.4686 0.3281 1.4686 0.7343 M 2.1998 4.1715 C 2.1998 4.5777 1.8717 4.9058 1.4655 4.9058 C 1.0593 4.9058 0.7312 4.5777 0.7312 4.1715 C 0.7312 3.7653 1.0593 3.4372 1.4655 3.4372 C 1.8717 3.4372 2.1998 3.7653 2.1998 4.1715" fill="#1d1919" stroke="none" stroke-linecap="butt" stroke-linejoin="miter" stroke-width="2"/>
                    </g>
                </g>
            </g>
            <g>
                <rect fill="none" fill-opacity="0" height="100" stroke="none" stroke-opacity="0" width="100" x="0" y="0"/>
            </g>
        </g>
    </g>
</svg>