<svg xmlns="http://www.w3.org/2000/svg" xmlns:xlink="http://www.w3.org/1999/xlink" xmlns:v="http://vecta.io" width="100" height="100" viewBox="0 0 100 100">
    <style>
        <![CDATA[svg{stroke:#000;stroke-linecap:round;stroke-linejoin:round;fill:#fff;fill-rule:evenodd;font-family:Roboto;font-size:14px;text-anchor:middle;}svg text{paint-order:stroke;white-space:pre;}svg .Text\.cls{stroke:none;}]]>
    </style>
    <g>
        <g>
            <g transform="translate(5.8134 0)">
                <g>
                    <g transform="translate(38.1438 37.1749)">
                        <path d="M 6.0173 34.5742 L 23.9673 24.2224 L 23.9673 3.5186 L 17.95 0 L 0 31.1066 L 6.0173 34.5742 Z" stroke="none" stroke-linejoin="miter" stroke-linecap="butt" fill="#4285f4" fill-rule="nonzero" stroke-width="6.250005960470162"/>
                    </g>
                    <g transform="translate(26.2111 30.2907)">
                        <path d="M 0 10.4029 L 0 31.1066 L 6.0173 34.5742 L 24.0183 3.5186 L 17.95 0 L 0 10.4029 Z" stroke="none" stroke-linejoin="miter" stroke-linecap="butt" fill="#669df6" fill-rule="nonzero" stroke-width="6.250005960470162"/>
                    </g>
                    <g transform="translate(0 29.6277)">
                        <path d="M 40.6425 48.2917 L 19.1228 35.849 L 19.1228 11.0658 L 0 0 L 0 46.9149 L 40.6425 70.3722 L 40.6425 48.2917 Z" stroke="none" stroke-linejoin="miter" stroke-linecap="butt" fill="#aecbfa" fill-rule="nonzero" stroke-width="6.250005960470162"/>
                    </g>
                    <g transform="translate(3.4676 0)">
                        <path d="M 19.1739 34.5742 L 40.6935 22.1315 L 62.2131 34.5742 L 81.387 23.5084 L 40.6935 0 L 0 23.5084 L 19.1739 34.5742 Z" stroke="none" stroke-linejoin="miter" stroke-linecap="butt" fill="#aecbfa" fill-rule="nonzero" stroke-width="6.250005960470162"/>
                    </g>
                    <g transform="translate(47.6797 29.6277)">
                        <path d="M 21.5196 35.849 L 0 48.2917 L 0 70.3722 L 40.6935 46.9149 L 40.6935 0 L 21.5196 11.0658 L 21.5196 35.849 Z" stroke="none" stroke-linejoin="miter" stroke-linecap="butt" fill="#aecbfa" fill-rule="nonzero" stroke-width="6.250005960470162"/>
                    </g>
                </g>
            </g>
            <g class="l0rzlnx25sa.lay" v:layer_name="Collect Layer">
                <rect fill="none" fill-opacity="0" height="100" stroke="none" stroke-opacity="0" width="100" x="0" y="0"/>
            </g>
        </g>
    </g>
</svg>