<svg xmlns="http://www.w3.org/2000/svg" xmlns:xlink="http://www.w3.org/1999/xlink" xmlns:v="http://vecta.io" width="100" height="100.0001" viewBox="0 0 100 100.0000666237961">
    <style>
        <![CDATA[svg{stroke:#000;stroke-linecap:round;stroke-linejoin:round;fill:#fff;fill-rule:evenodd;font-family:Roboto;font-size:14px;text-anchor:middle;}svg text{paint-order:stroke;white-space:pre;}svg .Text\.cls{stroke:none;}]]>
    </style>
    <g>
        <g>
            <g transform="translate(10.7286 0)">
                <g>
                    <g transform="translate(33.6513 51.6828)">
                        <path d="M 0.0799 29.4543 C 0.0877 29.4543 0.0955 29.4809 0.0955 29.5325 L 0.1222 30.6267 L 0.2862 29.792 C 0.2425 29.2667 -0.1701 29.5341 0.0799 29.4731 Z M 22.6763 0.0016 C 22.6685 0.0094 22.6499 0.0094 22.6421 0.0172 C 22.6499 0.025 22.6685 0.0328 22.6763 0.0438 C 22.6685 0.036 22.6763 0.0172 22.6763 0 Z" fill="#fefefe" fill-rule="nonzero" stroke="none" stroke-linecap="butt" stroke-linejoin="miter"/>
                    </g>
                    <g transform="translate(42.093 15.53)">
                        <path d="M 0 0 Z" fill="#fefefe" fill-rule="nonzero" stroke="none" stroke-linecap="butt" stroke-linejoin="miter"/>
                    </g>
                    <g transform="translate(17.7723 15.1707)">
                        <path d="M 36.4216 72.9682 L 36.628 69.2134 C 36.9719 66.4838 36.6436 63.695 37.3596 60.9969 C 37.7129 59.6025 36.5842 57.9644 38.0318 56.7418 L 37.6722 55.5539 C 37.2658 54.8817 37.4737 54.2281 37.716 53.5731 C 37.6894 51.1782 37.716 48.7849 38.1459 46.4168 L 38.5414 36.5372 C 38.5336 36.5292 38.5148 36.5214 38.507 36.5105 C 31.4725 39.7401 24.8397 35.2193 23.711 29.7933 C 22.9701 26.2291 23.3671 22.8605 26.1497 20.1388 C 26.6139 19.6823 27.0094 19.1571 27.4409 18.6569 C 28.5774 11.8412 27.7535 5.5883 21.9633 0.7173 C 22.8325 0.217 23.6172 0.5015 24.3082 0.3734 C 17.1799 -1.4244 8.5196 3.4609 5.6495 10.9205 C 4.7897 13.159 4.3239 15.4538 4.4693 17.8706 C 11.5507 14.5878 17.913 18.5084 19.6435 24.4768 C 21.46 30.6859 16.6202 37.2577 10.186 37.3515 C 8.3101 37.3781 6.528 37.067 4.7522 36.5418 L 5.1477 46.8247 C 5.3978 49.0726 5.6636 51.3111 5.5541 53.578 L 5.6057 55.1801 L 5.5541 56.2478 C 6.0794 58.4005 6.1919 60.614 6.3545 62.8196 C 6.339 62.7633 6.3275 62.7058 6.3201 62.6476 C 6.3279 62.7102 6.3467 62.7602 6.3545 62.804 L 6.897 74.0514 C 7.0095 75.6021 6.4499 76.3761 5.0211 76.7714 C 3.3328 77.2452 1.6711 77.8141 0 78.3471 C 2.2385 78.6568 4.4443 78.691 6.6484 78.6395 C 9.0339 78.5879 10.1188 77.5452 10.3533 75.1599 L 10.7659 70.6389 L 11.2302 62.4399 L 11.5663 62.4399 L 11.5663 70.2341 L 11.7039 73.7825 C 12.0478 79.2852 12.2119 79.2507 6.7266 80.3482 C 6.5968 80.3746 6.4858 80.4512 6.367 80.5044 L 7.3487 81.1609 C 7.4519 81.1875 7.5363 81.2297 7.5895 81.3252 C 8.8979 81.3329 10.2157 81.4455 11.5085 81.3252 C 13.8596 81.1015 14.971 79.8431 15.143 77.5108 C 15.2462 76.0101 15.4009 74.5141 15.5307 73.015 C 15.3243 71.025 15.6245 69.0709 15.9949 67.1153 L 15.9684 66.0212 C 15.9684 65.9695 15.9527 65.9353 15.9527 65.9429 C 15.7026 66.0055 16.1169 65.7367 16.1591 66.2618 L 16.2966 65.5648 L 16.2966 74.5907 L 16.3748 77.7594 C 16.4186 81.5924 16.1763 81.9365 12.5246 83.0306 C 11.5163 83.3323 10.4658 83.4997 9.4669 83.8481 C 8.7431 84.0982 7.8224 83.9607 7.1424 84.8126 C 10.1125 84.7001 12.8951 85.0362 15.662 84.5891 C 18.5227 84.1248 19.6576 82.9696 20.2422 80.1808 C 20.6721 78.1486 20.8675 76.0226 21.6366 73.9279 C 21.7492 74.1514 21.8352 74.2405 21.8602 74.375 L 23.0326 80.1966 C 23.5672 82.9086 24.6693 84.064 27.4096 84.5453 C 30.261 85.0362 33.1467 84.7017 36.1012 84.7689 C 35.6791 84.0451 35.0163 84.1655 34.4817 84.0107 C 32.648 83.4762 30.7768 83.0198 28.9791 82.4006 C 27.6707 81.9441 26.7312 81.1095 26.7484 79.4977 L 26.764 66.2696 L 27.3002 66.2696 L 27.8598 74.5549 C 28.1959 80.9452 28.9541 81.6424 35.3696 81.2891 C 35.7291 80.6857 36.6202 81.1594 36.9547 80.5138 C 35.4134 80.506 34.069 79.7636 32.6558 79.2913 C 31.8633 79.0257 31.4162 78.3098 31.4334 77.4155 C 31.5022 72.8852 31.3302 68.3378 31.9414 63.8248 L 32.8981 75.2019 C 33.0357 76.9762 33.8361 78.3628 35.7119 78.4847 C 38.2131 78.641 40.7502 78.5285 43.2733 78.5285 C 41.9383 77.8563 40.5689 77.4609 39.2089 77.0279 C 36.1262 76.0367 36.1449 76.0273 36.4263 72.8946 Z M 17.0267 8.3521 C 17.014 9.6117 15.996 10.6295 14.7365 10.6422 C 13.3844 10.6688 12.3683 9.8919 12.3417 8.1363 C 12.4886 6.8623 13.2015 5.9916 14.7178 5.9574 C 16.3279 5.9306 17.0517 7.0171 17.0251 8.3521 Z M 27.3784 46.0212 C 27.3862 49.5072 24.7178 52.5492 21.6679 52.5398 C 18.7916 52.532 15.8527 49.1382 15.9574 45.9336 L 15.4228 42.7041 C 17.4816 44.1078 19.2121 45.5459 21.5288 45.596 C 23.8971 45.6397 25.7573 44.4235 27.6957 43.0041 C 28.1084 44.1406 27.0673 45.0285 27.3768 46.018 Z" fill="#fe733e" fill-rule="nonzero" stroke="none" stroke-linecap="butt" stroke-linejoin="miter"/>
                    </g>
                    <g transform="translate(0 0.0001)">
                        <path d="M 23.3359 68.7516 L 22.8356 68.553 C 20.4908 67.5885 18.4351 66.1066 16.5405 64.4621 C 9.703 58.5531 5.1915 51.1559 4.0972 42.183 C 2.8576 31.986 5.1399 22.5723 11.9446 14.4857 C 18.1538 7.1135 26.0684 2.8162 35.5179 1.8236 C 46.0167 0.7293 55.4461 3.6682 63.3873 10.9184 C 70.0105 16.9636 73.8609 24.456 74.8675 33.2663 C 75.7118 40.7698 74.3596 48.0185 70.5016 54.6075 C 66.9968 60.5947 62.3288 65.45 56.015 68.5249 L 55.4993 68.775 C 55.2585 69.4316 55.0428 70.0834 55.4555 70.7556 C 55.6024 70.6259 55.7306 70.4633 55.9026 70.368 C 65.4383 65.3219 72.0506 57.8199 75.1428 47.3823 C 75.4085 46.4959 75.8228 46.0566 76.8154 46.1598 C 78.1598 46.2974 78.535 45.4016 78.535 44.2839 L 78.5428 31.3998 C 78.5428 30.4619 78.3193 29.4614 77.3626 29.3582 C 75.6055 29.1519 75.3898 27.8685 75.038 26.6195 C 72.9511 19.3536 68.9899 13.2916 63.0495 8.6488 C 50.9063 -0.8871 37.5753 -2.6066 23.5891 3.8339 C 13.2077 8.6142 6.5859 16.9087 3.5892 28.0092 C 3.4016 28.697 3.486 29.5161 2.3151 29.2598 C 0.6423 28.9159 0.0172 29.8976 0.0077 31.3779 L 0 44.2621 C 0 45.6924 0.7238 46.4506 2.101 46.1129 C 3.3516 45.8034 3.6689 46.4318 3.9268 47.3948 C 5.0461 51.5107 6.9157 55.2734 9.445 58.7125 C 13.1499 63.7336 17.6613 67.7792 23.3968 70.3304 L 23.3343 68.7203 Z" fill="#b5d2f3" fill-rule="nonzero" stroke="none" stroke-linecap="butt" stroke-linejoin="miter"/>
                    </g>
                    <g transform="translate(15.7901 71.4044)">
                        <path d="M 7.5535 0.0016 C 6.2795 3.5751 2.8857 3.4876 0 4.3849 C 2.1698 4.9445 4.377 5.5885 6.5452 5.2196 C 7.8365 4.9961 8.0866 5.4604 8.2757 6.2279 L 8.3195 6.4092 L 8.3539 6.5656 C 8.1897 4.352 8.0788 2.1479 7.5535 0 Z" fill="#fe684b" fill-rule="nonzero" stroke="none" stroke-linecap="butt" stroke-linejoin="miter"/>
                    </g>
                    <g transform="translate(55.0509 71.9219)">
                        <path d="M 0.081 4.2551 C 2.837 5.5057 5.4382 4.2473 8.1003 3.8846 C 5.4991 2.7825 2.1319 3.35 0.7626 0 C -0.6912 1.2224 0.4499 2.8607 0.0826 4.2551 Z" fill="#fe6446" fill-rule="nonzero" stroke="none" stroke-linecap="butt" stroke-linejoin="miter"/>
                    </g>
                    <g transform="translate(33.2413 80.7572)">
                        <path d="M 0.8339 0 L 0.6964 0.6972 L 0.5322 1.532 C 0.1618 3.486 -0.1399 5.44 0.068 7.4316 C 0.7134 7.7677 0.2243 8.654 0.8496 9.0167 L 0.8496 0 Z" fill="#fed6c8" fill-rule="nonzero" stroke="none" stroke-linecap="butt" stroke-linejoin="miter"/>
                    </g>
                    <g transform="translate(28.5539 77.6058)">
                        <path d="M 0.4643 0.0016 L 0 8.2007 L 0.8004 7.7943 L 0.8004 0 L 0.4643 0 Z" fill="#feebe3" fill-rule="nonzero" stroke="none" stroke-linecap="butt" stroke-linejoin="miter"/>
                    </g>
                    <g transform="translate(20.9253 95.674)">
                        <path d="M 0 0.828 L 4.4443 0.828 L 4.2035 0.6639 L 3.2218 0.0073 C 2.2479 -0.0443 1.335 0.1715 0.0016 0.8249 Z" fill="#fe9166" fill-rule="nonzero" stroke="none" stroke-linecap="butt" stroke-linejoin="miter"/>
                    </g>
                    <g transform="translate(53.1513 95.6918)">
                        <path d="M 0 0.8103 L 4.3239 0.8103 C 3.4454 0.3022 2.584 -0.1277 1.5851 0.0349 C 1.249 0.6915 0.3533 0.1912 0 0.8103 Z" fill="#fe8f64" fill-rule="nonzero" stroke="none" stroke-linecap="butt" stroke-linejoin="miter"/>
                    </g>
                    <g transform="translate(3.7824 1.5867)">
                        <path d="M 52.2374 66.9148 C 58.5497 63.8509 63.2113 58.9924 66.7238 52.9974 C 70.5819 46.4084 71.9341 39.1581 71.0899 31.6562 C 70.1004 22.8396 66.2392 15.3471 59.6111 9.3255 C 51.6699 2.0675 42.239 -0.8777 31.7544 0.2244 C 22.3157 1.2061 14.3917 5.5128 8.181 12.8866 C 1.3559 20.9716 -0.917 30.3822 0.3226 40.5807 C 1.4169 49.563 5.9299 56.9524 12.7659 62.8598 C 14.6699 64.5043 16.7099 65.9941 19.061 66.9508 C 19.2252 67.0195 19.3737 67.0883 19.5613 67.1493 C 19.6738 64.8826 19.4049 62.6472 19.1548 60.3962 L 18.639 60.0257 C 16.8913 58.7751 15.3921 57.2009 13.8867 55.6674 C 13.4303 55.2031 12.8613 54.8076 12.8613 54.0479 C 11.8452 54.7795 11.1136 54.2714 10.5164 53.4617 C 7.2086 48.9486 5.2108 43.9447 4.9451 38.2984 C 4.7043 33.3211 5.1514 28.4813 7.243 23.8229 C 9.9036 17.9061 13.9962 13.3852 19.4893 10.0258 C 20.4195 9.4568 20.9541 9.9633 21.5997 10.3854 C 22.2281 10.3229 22.7878 10.1103 23.1942 9.5928 L 23.116 9.4115 C 22.5642 8.2485 22.5376 6.9307 23.8664 6.6211 C 25.2014 6.3022 25.9611 7.4027 25.9674 8.7909 C 35.9314 5.5331 45.1982 6.8603 53.5615 13.2414 C 59.8144 18.0124 63.3973 24.4107 64.504 32.2143 C 65.9172 42.2471 62.5234 50.5666 55.5311 57.6011 C 54.7026 58.4296 53.7741 59.1768 52.7236 59.7365 C 52.5444 59.829 52.3637 59.9181 52.1811 60.0038 C 51.7512 62.3721 51.7247 64.7669 51.7512 67.1602 L 52.2515 66.9101 Z" fill="#e2f5fc" fill-rule="nonzero" stroke="none" stroke-linecap="butt" stroke-linejoin="miter"/>
                    </g>
                    <g transform="translate(10.7723 8.6833)">
                        <path d="M 48.5255 50.5327 C 55.51 43.4981 58.9053 35.1771 57.4984 25.1459 C 56.4042 17.3344 52.8213 10.9205 46.5558 6.173 C 38.2082 -0.2253 28.9179 -1.5416 18.9805 1.7225 C 18.9649 1.7303 18.9461 1.749 18.9289 1.7569 C 18.1473 2.2571 17.5345 3.3326 16.4059 2.6604 C 16.3371 2.6166 16.2761 2.5822 16.2073 2.5307 C 15.8009 3.0465 15.2506 3.2622 14.6129 3.3232 C 14.5863 3.4264 14.5503 3.5217 14.5191 3.6249 C 13.8047 5.6321 11.6584 6.1573 10.2202 7.3767 C 6.3184 10.6407 3.4248 14.5675 1.7194 19.2884 C -1.0194 26.917 -0.4598 34.3939 3.2091 41.6113 C 3.8031 42.7838 4.5347 43.8936 5.3195 44.9535 C 5.7533 45.5274 5.9507 46.2457 5.8713 46.9607 C 5.8713 47.7361 6.4403 48.1409 6.8968 48.6052 C 8.4131 50.1372 9.9028 51.6973 11.649 52.9635 L 12.1648 53.334 L 11.7693 43.0511 C 8.7726 41.0877 6.5841 38.5896 6.2043 34.8691 C 5.7306 30.2795 7.6581 26.8857 11.4145 24.4143 C 11.4301 24.4065 11.4489 24.3877 11.4661 24.3799 C 11.3191 21.9678 11.785 19.6589 12.6463 17.4298 C 15.5008 9.9669 24.1642 5.074 31.3034 6.8639 C 36.0666 7.6393 39.9589 9.8028 42.7494 13.7703 C 44.9801 16.9483 46.1338 20.4531 45.8758 24.3627 C 48.5646 26.4043 50.7328 28.7976 51.0861 32.3383 C 51.5597 37.1014 49.5275 40.5796 45.521 43.0089 L 45.521 43.0526 L 45.1255 52.9322 C 45.3131 52.8462 45.496 52.7759 45.6679 52.6665 C 46.7356 52.1068 47.6657 51.3581 48.4927 50.5217 Z" fill="#cdecf6" fill-rule="nonzero" stroke="none" stroke-linecap="butt" stroke-linejoin="miter"/>
                    </g>
                    <g transform="translate(39.7434 15.5378)">
                        <path d="M 7.9396 17.122 C 10.9098 15.6682 13.7611 16.4498 16.6124 17.3878 L 16.9313 17.4909 C 17.1721 13.5719 16.0184 10.0656 13.8049 6.8985 C 11.0145 2.9279 7.1221 0.766 2.3855 0 C 1.6539 0.1376 0.8692 -0.1563 0 0.3439 C 5.8215 5.2181 6.6234 11.471 5.4775 18.2835 L 7.9584 17.1205 Z" fill="#fe6b3c" fill-rule="nonzero" stroke="none" stroke-linecap="butt" stroke-linejoin="miter"/>
                    </g>
                    <g transform="translate(41.16 31.8633)">
                        <path d="M 20.7328 9.1505 C 20.3795 5.6113 18.2097 3.2165 15.5226 1.1749 L 15.2038 1.0717 C 12.3429 0.1338 9.4854 -0.651 6.531 0.806 L 4.5925 1.7439 L 4.058 1.994 L 2.7668 3.476 C -0.0237 6.196 -0.4114 9.5647 0.3281 13.1305 C 1.4568 18.5642 8.088 23.0882 15.1317 19.8648 C 15.1396 19.857 15.1585 19.857 15.1663 19.8492 C 19.1713 17.4106 21.2113 13.9089 20.7314 9.1724 Z M 10.1999 18.6674 C 5.6275 18.633 2.0618 14.9985 2.1024 10.4089 C 2.146 5.888 5.854 2.3051 10.3953 2.3395 C 14.9756 2.3739 18.4817 5.9818 18.4458 10.6152 C 18.4116 15.2142 14.8286 18.7127 10.1952 18.6658 Z" fill="#fe6142" fill-rule="nonzero" stroke="none" stroke-linecap="butt" stroke-linejoin="miter"/>
                    </g>
                    <g transform="translate(16.9013 31.8396)">
                        <path d="M 5.2809 1.2236 C 1.5258 3.6935 -0.4032 7.0888 0.0706 11.6784 C 0.4489 15.3989 2.6373 17.897 5.6168 19.851 C 7.4083 20.3856 9.1811 20.6951 11.0678 20.6686 C 17.477 20.5748 22.3418 14.0092 20.5253 7.7938 C 18.8059 1.8285 12.42 -2.0905 5.362 1.1923 C 5.3276 1.2001 5.3106 1.2189 5.2934 1.2267 Z M 10.4145 18.6895 C 5.72 18.7051 2.087 15.1066 2.1042 10.4388 C 2.1121 5.8585 5.6872 2.31 10.2956 2.2834 C 14.9541 2.2569 18.6746 5.9258 18.659 10.506 C 18.6433 15.0081 14.9477 18.6707 10.4175 18.6879 Z" fill="#fe6143" fill-rule="nonzero" stroke="none" stroke-linecap="butt" stroke-linejoin="miter"/>
                    </g>
                    <g transform="translate(33.7302 61.1059)">
                        <path d="M 1.0875 0.7582 C 0.7686 0.4393 0.5357 0.0078 0.0026 0 C -0.1005 3.2046 2.8274 6.5968 5.7131 6.6062 C 8.7708 6.614 11.4314 3.5735 11.4236 0.0875 C 10.2699 0.6816 9.5368 1.904 8.2112 2.2667 C 5.5537 2.9905 3.1385 2.8091 1.0891 0.7597 Z" fill="#070909" fill-rule="nonzero" stroke="none" stroke-linecap="butt" stroke-linejoin="miter"/>
                    </g>
                    <g transform="translate(33.1966 57.8778)">
                        <path d="M 12.2729 0.3001 C 10.3345 1.707 8.4836 2.9357 6.106 2.892 C 3.7814 2.8482 2.0416 1.4022 0 0 L 0.5346 3.2296 C 1.0692 3.2453 1.3162 3.6673 1.6195 3.9878 C 3.6611 6.02 6.0982 6.2185 8.7416 5.4947 C 10.0672 5.1352 10.8003 3.919 11.954 3.3156 C 11.6445 2.3245 12.6856 1.4397 12.2729 0.3017 Z" fill="#fdfcfb" fill-rule="nonzero" stroke="none" stroke-linecap="butt" stroke-linejoin="miter"/>
                    </g>
                    <g transform="translate(30.1155 21.1349)">
                        <path d="M 2.3761 0.0008 C 0.852 0.0274 0.1376 0.8965 0 2.1799 C 0.0266 3.937 1.0427 4.703 2.3949 4.6858 C 3.6544 4.6731 4.6723 3.6552 4.685 2.3957 C 4.7116 1.0513 3.9878 -0.0336 2.3777 0.0008 Z" fill="#fea777" fill-rule="nonzero" stroke="none" stroke-linecap="butt" stroke-linejoin="miter"/>
                    </g>
                    <g transform="translate(8.6554 11.3689)">
                        <path d="M 7.9726 44.2516 C 8.052 43.5367 7.8546 42.8184 7.4208 42.2444 C 6.6454 41.1845 5.9045 40.0747 5.3104 38.9022 C 1.6415 31.6848 1.0897 24.2079 3.8207 16.5793 C 5.5402 11.8428 8.4197 7.9347 12.3215 4.6676 C 13.7597 3.4639 15.9044 2.9449 16.6204 0.9158 C 16.6548 0.822 16.6892 0.7173 16.7142 0.6141 C 16.0686 0.192 15.5339 -0.316 14.6038 0.2546 C 9.1091 3.6155 5.0181 8.1332 2.3575 14.0516 C 0.2628 18.71 -0.1828 23.5513 0.0595 28.5271 C 0.3347 34.1516 2.3262 39.1633 5.6309 43.6904 C 6.2249 44.5001 6.9659 45.0082 7.9757 44.2766 Z" fill="#fdfefe" fill-rule="nonzero" stroke="none" stroke-linecap="butt" stroke-linejoin="miter"/>
                    </g>
                    <g transform="translate(26.5214 8.18)">
                        <path d="M 3.1533 2.2601 C 3.169 2.2523 3.1877 2.2337 3.2049 2.2257 C 3.1893 0.8221 2.4233 -0.2628 1.1039 0.056 C -0.2154 0.3749 -0.1967 1.6927 0.3536 2.8463 L 0.4317 3.0277 C 0.4954 3.0747 0.5618 3.118 0.6303 3.1576 C 1.7589 3.8376 2.3701 2.751 3.1533 2.2617 Z" fill="#fbfdfe" fill-rule="nonzero" stroke="none" stroke-linecap="butt" stroke-linejoin="miter"/>
                    </g>
                    <g transform="translate(19.0025 34.1323)">
                        <path d="M 40.6081 8.354 C 40.6424 3.73 37.1376 0.1205 32.5574 0.0783 C 27.9929 0.0439 24.3066 3.6268 24.2644 8.1477 C 24.2213 10.3227 25.055 12.4237 26.578 13.9773 C 28.1009 15.5308 30.1848 16.4062 32.3605 16.4062 C 36.9938 16.4406 40.5767 12.9436 40.6111 8.3556 Z M 32.7606 9.2497 C 31.2098 9.2763 30.3063 8.3978 30.1687 6.8736 C 30.039 5.4667 31.3147 4.127 32.7262 4.2208 C 34.2425 4.3334 35.0945 5.2213 35.2742 6.8049 C 35.068 8.218 34.3441 9.2247 32.7731 9.2513 Z M 8.1915 0.0001 C 3.5845 0.0267 0.0188 3.5737 0 8.1555 C -0.0076 12.8233 3.6173 16.4406 8.3101 16.4062 C 12.8405 16.3906 16.5329 12.7295 16.5515 8.2336 C 16.5593 3.644 12.8405 -0.0249 8.1882 0.0001 Z M 8.1993 9.2497 C 6.6672 9.2654 5.745 8.39 5.6245 6.8471 C 5.512 5.4402 6.7969 4.1083 8.2165 4.2287 C 9.717 4.3584 10.5924 5.2291 10.7175 6.8127 C 10.5299 8.2665 9.7358 9.2325 8.1851 9.2513 Z" fill="#fefefe" fill-rule="nonzero" stroke="none" stroke-linecap="butt" stroke-linejoin="miter"/>
                    </g>
                    <g transform="translate(49.1651 38.3475)">
                        <path d="M 2.5666 0.0057 C 1.1536 -0.0975 -0.122 1.2281 0.0093 2.6584 C 0.1469 4.1904 1.052 5.0611 2.6012 5.0346 C 4.1769 5.008 4.9083 4.0028 5.1023 2.5881 C 4.921 1.003 4.0706 0.1182 2.5543 0.0041 Z" fill="#090b0b" fill-rule="nonzero" stroke="none" stroke-linecap="butt" stroke-linejoin="miter"/>
                    </g>
                    <g transform="translate(24.6217 38.3549)">
                        <path d="M 2.5987 0.0077 C 1.1917 -0.1127 -0.1057 1.2051 0.0068 2.6261 C 0.1272 4.1674 1.0495 5.0459 2.5815 5.0287 C 4.1322 5.0131 4.9263 4.047 5.1139 2.5901 C 4.9669 0.9956 4.0884 0.1265 2.6127 0.0061 Z" fill="#090c0c" fill-rule="nonzero" stroke="none" stroke-linecap="butt" stroke-linejoin="miter"/>
                    </g>
                </g>
            </g>
            <g>
                <rect fill="none" fill-opacity="0" height="100" stroke="none" stroke-opacity="0" width="100" x="0" y="0"/>
            </g>
        </g>
    </g>
</svg>