<svg xmlns="http://www.w3.org/2000/svg" xmlns:xlink="http://www.w3.org/1999/xlink" xmlns:v="http://vecta.io" width="100" height="100" viewBox="0 0 100 100.00000909127357">
    <style>
        <![CDATA[svg{stroke:#000;stroke-linecap:round;stroke-linejoin:round;fill:#fff;fill-rule:evenodd;font-family:Roboto;font-size:14px;text-anchor:middle;}svg text{paint-order:stroke;white-space:pre;}svg .Text\.cls{stroke:none;}]]>
    </style>
    <g>
        <g>
            <g transform="translate(0.0001 0)">
                <path d="M 49.9999 0.00001 C 77.6148 0 99.9997 22.9492 99.9997 51.2645 C 99.9997 73.9109 85.6897 93.1198 65.8348 99.9045 C 63.2998 100.4098 62.3998 98.8107 62.3998 97.4435 C 62.3998 95.7541 62.4598 90.2341 62.4598 83.3738 C 62.4598 78.5959 60.8598 75.4758 59.0648 73.884 C 70.1998 72.6145 81.8997 68.2786 81.8997 48.5887 C 81.8997 42.9906 79.9597 38.4203 76.7498 34.829 C 77.2698 33.5351 78.9848 28.3202 76.2598 21.2597 C 76.2598 21.2597 72.0698 19.8852 62.5248 26.516 C 58.5298 25.3808 54.2498 24.8095 49.9999 24.79 C 45.7499 24.8095 41.4749 25.3808 37.4849 26.516 C 27.9299 19.8852 23.7299 21.2597 23.7299 21.2597 C 21.0149 28.3202 22.7299 33.5351 23.2449 34.829 C 20.05 38.4203 18.095 42.9906 18.095 48.5887 C 18.095 68.2298 29.7699 72.6292 40.8749 73.9255 C 39.4449 75.2048 38.1499 77.4656 37.6999 80.7786 C 34.8499 82.0896 27.6099 84.3552 23.1499 76.5208 C 23.1499 76.5208 20.5049 71.594 15.485 71.2351 C 15.485 71.2351 10.61 71.1692 15.145 74.3503 C 15.145 74.3503 18.4199 75.925 20.6949 81.8503 C 20.6949 81.8503 23.6299 91.0007 37.5399 87.9001 C 37.5649 92.1848 37.6099 96.2253 37.6099 97.4435 C 37.6099 98.7985 36.6899 100.3854 34.1949 99.9094 C 14.3249 93.1345 0 73.9158 0 51.2645 C 0 22.9492 22.3899 0 49.9999 0" fill="#000000" stroke="none" stroke-linecap="butt" stroke-linejoin="miter" stroke-width="40.077"/>
            </g>
            <g transform="translate(0 0)">
                <rect fill="none" fill-opacity="0" height="100" stroke="none" stroke-opacity="0" stroke-width="1" width="100" x="0" y="0"/>
            </g>
        </g>
    </g>
</svg>