<svg xmlns="http://www.w3.org/2000/svg" xmlns:xlink="http://www.w3.org/1999/xlink" xmlns:v="http://vecta.io" width="100" height="100" viewBox="0 0 100.00003338552216 100">
    <style>
        <![CDATA[svg{stroke:#000;stroke-linecap:round;stroke-linejoin:round;fill:#fff;fill-rule:evenodd;font-family:Roboto;font-size:14px;text-anchor:middle;}svg text{paint-order:stroke;white-space:pre;}svg .Text\.cls{stroke:none;}]]>
    </style>
    <defs>
        <linearGradient id="L108136394180052CC1002684FF.grad" x1="108.63%" y1="13.82%" x2="63.63%" y2="94.64%">
            <stop offset="18%" stop-color="#0052CC"/>
            <stop offset="100%" stop-color="#2684FF"/>
        </linearGradient>
    </defs>
    <g transform="translate(0 0)">
        <g>
            <g transform="translate(0 3.5711)">
                <g>
                    <g transform="translate(0 0)">
                        <path d="M 3.2453 0.0003 C 2.2988 -0.0123 1.3953 0.4079 0.7773 1.1483 C 0.1592 1.8887 -0.1102 2.8734 0.0413 3.8383 L 13.6424 89.1015 C 13.9922 91.2554 15.789 92.8389 17.9037 92.8568 L 83.1536 92.8568 C 84.7407 92.8779 86.1036 91.6957 86.3575 90.0775 L 99.9586 3.8548 C 100.1103 2.8899 99.8407 1.9052 99.2228 1.1648 C 98.6046 0.4245 97.7011 0.0042 96.7546 0.0168 L 3.2453 0.0003 Z M 60.5171 61.6236 L 39.6911 61.6236 L 34.0521 31.2007 L 65.5636 31.2007 L 60.5171 61.6236 Z" fill="#2684ff" fill-rule="nonzero" stroke="none" stroke-linecap="butt" stroke-linejoin="miter" stroke-width="25.0006"/>
                    </g>
                    <g transform="translate(15.1018 31.2011)">
                        <path d="M 80.5331 0 L 50.4631 0 L 45.4171 30.4229 L 24.591 30.4229 L 0 60.5647 C 0.7794 61.2604 1.7731 61.6475 2.8035 61.6564 L 68.0692 61.6564 C 69.6567 61.6775 71.0196 60.4954 71.2735 58.8772 L 80.5331 0 Z" fill="url(#L108136394180052CC1002684FF.grad)" stroke="none" stroke-linecap="butt" stroke-linejoin="miter" stroke-width="25.0006"/>
                    </g>
                </g>
            </g>
            <g>
                <rect fill="none" fill-opacity="0" height="100" stroke="none" stroke-opacity="0" stroke-width="1" width="100" x="0" y="0"/>
            </g>
        </g>
    </g>
</svg>