<svg xmlns="http://www.w3.org/2000/svg" xmlns:xlink="http://www.w3.org/1999/xlink" xmlns:v="http://vecta.io" width="100" height="100" viewBox="0 0 100 100">
    <style>
        <![CDATA[svg{stroke:#000;stroke-linecap:round;stroke-linejoin:round;fill:#fff;fill-rule:evenodd;font-family:Roboto;font-size:14px;text-anchor:middle;}svg text{paint-order:stroke;white-space:pre;}svg .Text\.cls{stroke:none;}]]>
    </style>
    <defs>
        <linearGradient x1="0%" y1="100%" x2="100%" y2="0%" id="L0100100002E27AD100527FFF.grad">
            <stop stop-color="#2E27AD" offset="0%"/>
            <stop stop-color="#527FFF" offset="100%"/>
        </linearGradient>
    </defs>
    <g>
        <g>
            <g>
                <path d="M 0 0 L 100 0 L 100 100 L 0 100 Z" fill="url(#L0100100002E27AD100527FFF.grad)" stroke="none" stroke-linecap="butt" stroke-linejoin="miter"/>
            </g>
            <g transform="translate(15 15)">
                <path d="M 18.2854 20.1309 L 15.7633 20.1309 L 15.7633 11.4039 C 15.7633 10.7056 16.2135 10.1659 16.9209 10.1659 L 25.8518 10.1571 L 25.8518 12.6505 L 19.9374 12.6505 L 26.0145 18.6735 L 24.2086 20.4663 L 18.2009 14.5568 L 18.2854 20.1309 Z M 53.3733 33.7153 L 55.7086 34.7488 L 47.532 52.8064 L 45.1978 51.7729 L 53.3733 33.7153 Z M 55.0113 46.8309 L 60.0153 43.219 L 55.6078 38.7994 L 57.43 37.0229 L 62.8791 42.4885 C 63.1401 42.7503 63.2738 43.1119 63.2423 43.4784 C 63.2133 43.8449 63.0229 44.1815 62.7215 44.3973 L 56.5183 48.873 L 55.0113 46.8309 Z M 43.7071 35.8285 L 45.2141 37.8706 L 40.1371 41.5348 L 44.5596 45.9556 L 42.7425 47.7348 L 37.2745 42.269 C 37.0121 42.0073 36.8772 41.6456 36.9088 41.2791 C 36.9378 40.9114 37.1269 40.576 37.4296 40.359 L 43.7071 35.8285 Z M 71.25 15.1628 L 71.25 68.7346 C 71.25 69.434 70.6775 70 69.97 70 L 30.896 70 C 30.5555 70 30.2315 69.8666 29.9919 69.6285 C 29.7523 69.3916 29.635 69.0886 29.635 68.7533 L 29.635 53.7925 L 32.1571 53.7925 L 32.1571 67.5065 L 68.7279 67.5065 L 68.7279 16.3908 L 32.1571 16.3908 L 32.1571 13.8973 L 69.97 13.8973 C 70.6775 13.8973 71.25 14.4633 71.25 15.1628 L 71.25 15.1628 Z M 26.4773 28.2346 C 26.4773 25.826 28.4584 23.8661 30.896 23.8661 C 33.3336 23.8661 35.3147 25.826 35.3147 28.2346 C 35.3147 30.6433 33.3336 32.6031 30.896 32.6031 C 28.4584 32.6031 26.4773 30.6433 26.4773 28.2346 L 26.4773 28.2346 Z M 6.9359 67.5115 C 4.4983 67.5115 2.5171 65.5516 2.5171 63.143 C 2.5171 60.7344 4.4983 58.7745 6.9359 58.7745 C 9.3735 58.7745 11.3546 60.7344 11.3546 63.143 C 11.3546 65.5516 9.3735 67.5115 6.9359 67.5115 L 6.9359 67.5115 Z M 2.5171 38.2085 C 2.5171 35.7998 4.4983 33.8399 6.9359 33.8399 C 9.4139 33.8399 11.3546 35.7586 11.3546 38.2085 C 11.3546 40.6171 9.3735 42.577 6.9359 42.577 C 4.4983 42.577 2.5171 40.6171 2.5171 38.2085 L 2.5171 38.2085 Z M 2.5221 6.857 C 2.5221 4.4509 4.502 2.4935 6.9359 2.4935 C 9.3698 2.4935 11.3496 4.4509 11.3496 6.857 C 11.3496 9.2619 9.3698 11.2205 6.9359 11.2205 C 4.502 11.2205 2.5221 9.2619 2.5221 6.857 L 2.5221 6.857 Z M 32.1571 44.0606 L 32.1571 34.9645 C 35.369 34.3685 37.8269 31.5796 37.8269 28.2346 C 37.8269 24.457 34.717 21.3826 30.896 21.3826 C 27.075 21.3826 23.9653 24.457 23.9653 28.2346 C 23.9653 31.5796 26.423 34.3685 29.635 34.9645 L 29.635 44.0606 C 29.635 45.5143 28.6526 46.8321 27.1595 47.418 L 14.0961 52.5434 C 12.0053 53.3636 10.4681 54.977 9.8035 56.9131 C 9.2625 56.6688 8.8023 56.493 8.1969 56.392 L 8.1969 44.9595 C 11.4756 44.4184 13.8666 41.6008 13.8666 38.2085 C 13.8666 34.7538 11.5185 31.9935 8.1969 31.4674 L 8.1969 13.6118 C 11.4795 13.0719 13.8718 10.2519 13.8718 6.857 C 13.8718 3.0756 10.7606 0 6.9359 0 C 3.111 0 0 3.0756 0 6.857 C 0 10.1571 2.5271 12.9199 5.6747 13.5681 L 5.6747 31.5022 C 2.531 32.1506 0.005 34.9109 0.005 38.2085 C 0.005 41.506 2.531 44.2663 5.6747 44.9146 L 5.6747 56.4369 C 2.531 57.0851 0.005 59.8454 0.005 63.143 C 0.005 66.9206 3.1149 69.995 6.9359 69.995 C 10.7569 69.995 13.8666 66.9206 13.8666 63.143 C 13.8666 61.3639 13.1705 59.7456 12.0431 58.5264 C 12.2525 56.938 13.3761 55.5468 15.0394 54.8946 L 28.1028 49.7694 C 30.577 48.7981 32.1571 46.5578 32.1571 44.0606 L 32.1571 44.0606 Z" stroke="none" stroke-linecap="butt" stroke-linejoin="miter"/>
            </g>
        </g>
    </g>
</svg>