<svg xmlns="http://www.w3.org/2000/svg" xmlns:xlink="http://www.w3.org/1999/xlink" xmlns:v="http://vecta.io" width="100" height="100" viewBox="0 0 100 100">
    <style>
        <![CDATA[svg{stroke:#000;stroke-linecap:round;stroke-linejoin:round;fill:#fff;fill-rule:evenodd;font-family:Roboto;font-size:14px;text-anchor:middle;}svg text{paint-order:stroke;white-space:pre;}svg .Text\.cls{stroke:none;}]]>
    </style>
    <g>
        <g>
            <g transform="translate(5.0972 0)">
                <g>
                    <g transform="translate(5.032 0)">
                        <path d="M 0.00001 28.125 L 66.3742 28.125 C 73.6888 28.125 80.2204 24.771 84.603 19.5349 C 75.4611 7.6598 61.1129 0 44.9682 0 C 25.1996 0 8.1148 11.4751 0 28.125" fill="#f0bf1a" fill-rule="nonzero" stroke="none" stroke-linecap="butt" stroke-linejoin="miter" stroke-width="2.7972171240769983"/>
                    </g>
                    <g transform="translate(0 35.9376)">
                        <path d="M 65.781 0.00001 L 2.0189 0 C 0.7132 4.4626 0 9.1781 0 14.0623 C 0 18.9469 0.7132 23.6628 2.0189 28.125 L 65.781 28.125 C 73.4373 28.125 79.8437 21.8751 79.8437 14.0623 C 79.8437 6.2499 73.5938 0 65.781 0" fill="#07a5de" fill-rule="nonzero" stroke="none" stroke-linecap="butt" stroke-linejoin="miter" stroke-width="2.7972171240769983"/>
                    </g>
                    <g transform="translate(5.0321 71.875)">
                        <path d="M 84.7735 8.373 C 80.4187 3.2544 73.9397 0 66.6864 0 L 0 0 C 8.1148 16.6502 25.1997 28.125 44.9678 28.125 C 61.2121 28.125 75.6407 20.3733 84.7735 8.373" fill="#3ebeb0" fill-rule="nonzero" stroke="none" stroke-linecap="butt" stroke-linejoin="miter" stroke-width="2.7972171240769983"/>
                    </g>
                    <g transform="translate(0.0001 35.9376)">
                        <path d="M 2.0189 0 C 0.7128 4.4626 0 9.1781 0 14.0623 C 0 18.9469 0.7128 23.6628 2.0189 28.125 L 43.7498 28.125 C 44.8436 23.9062 45.4684 19.2188 45.4684 14.0623 C 45.4684 8.9062 44.8436 4.2188 43.7498 0 L 2.0189 0 Z" fill="#231f20" fill-rule="nonzero" stroke="none" stroke-linecap="butt" stroke-linejoin="miter" stroke-width="2.7972171240769983"/>
                    </g>
                    <g transform="translate(4.9999 6.7188)">
                        <path d="M 19.8439 0.00001 C 11.406 5 4.3749 12.4999 0 21.4064 L 36.8751 21.4064 C 33.125 12.8124 27.1877 5.6251 19.8439 0" fill="#d7a229" fill-rule="nonzero" stroke="none" stroke-linecap="butt" stroke-linejoin="miter" stroke-width="2.7972171240769983"/>
                    </g>
                    <g transform="translate(4.9999 71.875)">
                        <path d="M 21.4064 22.1877 C 28.5937 16.4064 34.3749 8.7501 37.9689 0 L 0 0 C 4.6874 9.3752 12.1876 17.1876 21.4064 22.1877" fill="#019b8f" fill-rule="nonzero" stroke="none" stroke-linecap="butt" stroke-linejoin="miter" stroke-width="2.7972171240769983"/>
                    </g>
                </g>
            </g>
            <g>
                <rect fill="none" fill-opacity="0" height="100" stroke="none" stroke-opacity="0" width="100" x="0" y="0"/>
            </g>
        </g>
    </g>
</svg>