<svg xmlns="http://www.w3.org/2000/svg" xmlns:xlink="http://www.w3.org/1999/xlink" xmlns:v="http://vecta.io" width="100" height="100" viewBox="0 0 100 100">
    <style>
        <![CDATA[svg{stroke:#000;stroke-linecap:round;stroke-linejoin:round;fill:#fff;fill-rule:evenodd;font-family:Roboto;font-size:14px;text-anchor:middle;}svg text{paint-order:stroke;white-space:pre;}svg .Text\.cls{stroke:none;}]]>
    </style>
    <defs>
        <linearGradient id="L11179111129010E7FF1033D5FF2560BDFF4086AAFF56A39AFF71B790FF85C489FF100C887FF.grad" x1="11.14%" y1="179.02%" x2="111.56%" y2="129.62%">
            <stop offset="0%" stop-color="#10E7FF"/>
            <stop offset="10.299999999999999%" stop-color="#33D5FF"/>
            <stop offset="25.5%" stop-color="#60BDFF"/>
            <stop offset="40.8%" stop-color="#86AAFF"/>
            <stop offset="56.00000000000001%" stop-color="#A39AFF"/>
            <stop offset="71%" stop-color="#B790FF"/>
            <stop offset="85.8%" stop-color="#C489FF"/>
            <stop offset="100%" stop-color="#C887FF"/>
        </linearGradient>
        <linearGradient id="L38360113290010E7FF1033D5FF2560BDFF4086AAFF56A39AFF71B790FF85C489FF100C887FF.grad" x1="38.23%" y1="360.44%" x2="113.83%" y2="290.02%">
            <stop offset="0%" stop-color="#10E7FF"/>
            <stop offset="10.299999999999999%" stop-color="#33D5FF"/>
            <stop offset="25.5%" stop-color="#60BDFF"/>
            <stop offset="40.8%" stop-color="#86AAFF"/>
            <stop offset="56.00000000000001%" stop-color="#A39AFF"/>
            <stop offset="71%" stop-color="#B790FF"/>
            <stop offset="85.8%" stop-color="#C489FF"/>
            <stop offset="100%" stop-color="#C887FF"/>
        </linearGradient>
    </defs>
    <g>
        <g>
            <g transform="translate(7.3937 0)">
                <g>
                    <g>
                        <path d="M 42.6063 100 L 0 75 L 0 25 L 42.6063 0 L 85.2126 25 L 85.2126 75 L 42.6063 100 Z M 5.915 71.488 L 42.4677 92.976 L 79.0204 71.488 L 79.0204 28.5582 L 42.5139 7.0702 L 5.8688 28.5582 C 5.915 28.512 5.915 71.488 5.915 71.488 Z" fill="url(#L11179111129010E7FF1033D5FF2560BDFF4086AAFF56A39AFF71B790FF85C489FF100C887FF.grad)" fill-rule="nonzero" stroke="none" stroke-linecap="butt" stroke-linejoin="miter"/>
                    </g>
                    <g transform="translate(14.5102 36.414)">
                        <path d="M 46.4418 0 L 31.5157 26.2477 L 36.3679 34.7967 L 56.146 0 C 56.1923 0 46.4418 0 46.4418 0 Z M 29.7597 0 L 14.8336 26.2477 L 19.6858 34.7967 L 39.464 0 C 39.5102 0 29.7597 0 29.7597 0 Z M 0 0 L 19.7782 34.7967 L 24.6303 26.2477 L 9.7043 0 C 9.7043 0 0 0 0 0 Z M 0 0 L 19.7782 34.7967 L 24.6303 26.2477 L 9.7043 0 C 9.7043 0 0 0 0 0 Z M 29.7597 0 L 14.8336 26.2477 L 19.6858 34.7967 L 39.464 0 C 39.5102 0 29.7597 0 29.7597 0 Z" fill="url(#L38360113290010E7FF1033D5FF2560BDFF4086AAFF56A39AFF71B790FF85C489FF100C887FF.grad)" fill-rule="nonzero" stroke="none" stroke-linecap="butt" stroke-linejoin="miter"/>
                    </g>
                </g>
            </g>
            <g class="l0rzlnx25sa.lay" v:layer_name="Collect Layer">
                <rect fill="none" fill-opacity="0" height="100" stroke="none" stroke-opacity="0" width="100" x="0" y="0"/>
            </g>
        </g>
    </g>
</svg>