<svg xmlns="http://www.w3.org/2000/svg" xmlns:xlink="http://www.w3.org/1999/xlink" xmlns:v="http://vecta.io" width="100" height="100" viewBox="0 0 100.00004538191115 100">
    <style>
        <![CDATA[svg{stroke:#000;stroke-linecap:round;stroke-linejoin:round;fill:#fff;fill-rule:evenodd;font-family:Roboto;font-size:14px;text-anchor:middle;}svg text{paint-order:stroke;white-space:pre;}svg .Text\.cls{stroke:none;}]]>
    </style>
    <g class="l0rzlnx25sa.lay" v:layer_name="Collect Layer">
        <g>
            <g class="syslog-ng.lay" transform="translate(0 41.7226)" v:layer_name="syslog-ng">
                <g>
                    <g transform="translate(0 3.3237)" class="syslog-ng.lay" v:layer_name="syslog-ng">
                        <path d="M 0 8.9485 L 1.3103 6.8392 C 2.4609 7.6063 3.7073 7.9897 4.7619 7.9897 C 5.3691 7.9897 5.6568 7.798 5.6568 7.4465 L 5.6568 7.4145 C 5.6568 7.031 5.1135 6.8712 4.0588 6.5516 C 2.0454 6.0403 0.4794 5.3691 0.4794 3.3557 L 0.4794 3.3237 C 0.4794 1.1825 2.1732 0 4.5062 0 C 5.9764 0 7.4784 0.4155 8.629 1.1505 L 7.4145 3.3557 C 6.3918 2.7804 5.2413 2.4289 4.4423 2.4289 C 3.899 2.4289 3.6433 2.6206 3.6433 2.9083 L 3.6433 2.9402 C 3.6433 3.3237 4.2186 3.5155 5.2733 3.8351 C 7.2547 4.3784 8.8207 5.0815 8.8207 7.031 L 8.8207 7.063 C 8.8207 9.2681 7.1588 10.4187 4.7299 10.4187 C 3.0361 10.4187 1.3742 9.9393 0 8.9485 Z" stroke="none" stroke-linejoin="miter" stroke-linecap="butt" fill="#04aada" fill-rule="nonzero"/>
                    </g>
                    <g transform="translate(10.0671 3.5155)" class="syslog-ng.lay" v:layer_name="syslog-ng">
                        <path d="M 0.4794 12.1764 L 1.566 9.7156 C 2.1093 10.0351 2.7165 10.2589 3.1 10.2589 C 3.4516 10.2589 3.7073 10.163 3.899 9.8434 L 0 0 L 3.6753 0 L 5.6887 6.0403 L 7.5743 0 L 11.1857 0 L 7.5104 9.7795 C 6.6475 12.1125 5.6887 13.0393 3.7073 13.0393 C 2.4609 13.0393 1.4062 12.6878 0.4794 12.1764 Z" stroke="none" stroke-linejoin="miter" stroke-linecap="butt" fill="#04aada" fill-rule="nonzero"/>
                    </g>
                    <g transform="translate(22.1796 3.3237)" class="syslog-ng.lay" v:layer_name="syslog-ng">
                        <path d="M 0 8.9485 L 1.3103 6.8073 C 2.4609 7.5743 3.7073 7.9578 4.7619 7.9578 C 5.3691 7.9578 5.6568 7.7661 5.6568 7.4145 L 5.6568 7.3825 C 5.6568 6.999 5.1135 6.8392 4.0588 6.5197 C 2.0773 6.0083 0.5113 5.3372 0.5113 3.3237 L 0.5113 3.3237 C 0.5113 1.1825 2.2052 0 4.5382 0 C 6.0083 0 7.5104 0.4155 8.6609 1.1505 L 7.4465 3.3557 C 6.4238 2.7804 5.2733 2.4289 4.4743 2.4289 C 3.931 2.4289 3.6753 2.6206 3.6753 2.9083 L 3.6753 2.9402 C 3.6753 3.3237 4.2506 3.5155 5.3052 3.8351 C 7.2867 4.3784 8.8527 5.0815 8.8527 7.031 L 8.8527 7.063 C 8.8527 9.2681 7.1908 10.4187 4.7619 10.4187 C 3.0681 10.4187 1.4062 9.9393 0 8.9485 Z" stroke="none" stroke-linejoin="miter" stroke-linecap="butt" fill="#04aada" fill-rule="nonzero"/>
                    </g>
                    <g transform="translate(33.4612 0.032)" class="syslog-ng.lay" v:layer_name="syslog-ng">
                        <path d="M 0 0 L 3.5155 0 L 3.5155 13.4867 L 0 13.4867 L 0 0 Z" stroke="none" stroke-linejoin="miter" stroke-linecap="butt" fill="#04aada" fill-rule="nonzero"/>
                    </g>
                    <g transform="translate(39.4375 3.2918)" class="syslog-ng.lay" v:layer_name="syslog-ng">
                        <path d="M 0 5.2732 L 0 5.2413 C 0 2.3969 2.333 0 5.5609 0 C 8.7568 0 11.0578 2.365 11.0578 5.2093 L 11.0578 5.2413 C 11.0578 8.0856 8.7248 10.4826 5.497 10.4826 C 2.3011 10.4826 0 8.1496 0 5.2732 Z M 7.6382 5.2732 L 7.6382 5.2413 C 7.6382 4.0268 6.7434 2.9722 5.497 2.9722 C 4.2186 2.9722 3.4196 3.9949 3.4196 5.1774 L 3.4196 5.2093 C 3.4196 6.4238 4.3145 7.4784 5.5609 7.4784 C 6.8392 7.5104 7.6382 6.4877 7.6382 5.2732 Z" stroke="none" stroke-linejoin="miter" stroke-linecap="butt" fill="#04aada" fill-rule="nonzero"/>
                    </g>
                    <g transform="translate(52.5088 3.3237)" class="syslog-ng.lay" v:layer_name="syslog-ng">
                        <path d="M 0.3196 12.0486 L 1.4382 9.7156 C 2.5248 10.3228 3.5794 10.6743 4.9217 10.6743 C 6.6795 10.6743 7.5423 9.8114 7.5423 8.2135 L 7.5423 7.8299 C 6.8392 8.6289 5.9124 9.332 4.4423 9.332 C 1.9815 9.332 0 7.5423 0 4.698 L 0 4.666 C 0 1.7897 2.0134 0 4.3145 0 C 5.8166 0 6.7114 0.6072 7.4465 1.4062 L 7.4465 0.2237 L 10.962 0.2237 L 10.962 7.798 C 10.962 9.6197 10.5465 10.898 9.6516 11.7929 C 8.7568 12.6878 7.3506 13.1991 5.2413 13.1991 C 3.3877 13.1991 1.7578 12.8156 0.3196 12.0486 Z M 7.5423 4.698 L 7.5423 4.666 C 7.5423 3.5475 6.6795 2.7485 5.497 2.7485 C 4.2825 2.7485 3.4516 3.5794 3.4516 4.698 L 3.4516 4.7299 C 3.4516 5.8485 4.3145 6.6475 5.497 6.6475 C 6.7114 6.6155 7.5423 5.7846 7.5423 4.698 Z" stroke="none" stroke-linejoin="miter" stroke-linecap="butt" fill="#04aada" fill-rule="nonzero"/>
                    </g>
                    <g transform="translate(66.1234 6.2001)" class="syslog-ng.lay" v:layer_name="syslog-ng">
                        <path d="M 0 0 L 6.0722 0 L 6.0722 3.1 L 0 3.1 L 0 0 Z" stroke="none" stroke-linejoin="miter" stroke-linecap="butt" fill="#04aada" fill-rule="nonzero"/>
                    </g>
                    <g transform="translate(74.8162 3.2918)" class="syslog-ng.lay" v:layer_name="syslog-ng">
                        <path d="M 0 0.2237 L 3.5155 0.2237 L 3.5155 1.6299 C 4.1547 0.799 5.0815 0 6.5197 0 C 8.6609 0 9.9073 1.4062 9.9073 3.6753 L 9.9073 10.2269 L 6.3918 10.2269 L 6.3918 4.7939 C 6.3918 3.7073 5.8166 3.1 4.9856 3.1 C 4.1227 3.1 3.5155 3.7073 3.5155 4.7939 L 3.5155 10.2269 L 0 10.2269 L 0 0.2237 Z" stroke="none" stroke-linejoin="miter" stroke-linecap="butt" fill="#04aada" fill-rule="nonzero"/>
                    </g>
                    <g transform="translate(87.0566 3.3237)" class="syslog-ng.lay" v:layer_name="syslog-ng">
                        <path d="M 0.3196 12.0486 L 1.4382 9.7156 C 2.5248 10.3228 3.5794 10.6743 4.9217 10.6743 C 6.6795 10.6743 7.5423 9.8114 7.5423 8.2135 L 7.5423 7.8299 C 6.8392 8.6289 5.9124 9.332 4.4423 9.332 C 1.9815 9.332 0 7.5423 0 4.698 L 0 4.666 C 0 1.7897 2.0134 0 4.3145 0 C 5.8166 0 6.7114 0.6072 7.4465 1.4062 L 7.4465 0.2237 L 10.962 0.2237 L 10.962 7.798 C 10.962 9.6197 10.5465 10.898 9.6516 11.7929 C 8.7568 12.6878 7.3506 13.1991 5.2413 13.1991 C 3.3877 13.1991 1.7578 12.8156 0.3196 12.0486 Z M 7.5743 4.698 L 7.5743 4.666 C 7.5743 3.5475 6.7114 2.7485 5.5289 2.7485 C 4.3145 2.7485 3.4835 3.5794 3.4835 4.698 L 3.4835 4.7299 C 3.4835 5.8485 4.3464 6.6475 5.5289 6.6475 C 6.7114 6.6155 7.5743 5.7846 7.5743 4.698 Z" stroke="none" stroke-linejoin="miter" stroke-linecap="butt" fill="#04aada" fill-rule="nonzero"/>
                    </g>
                    <g transform="translate(98.402 0)" class="syslog-ng.lay" v:layer_name="syslog-ng">
                        <path d="M 0 0.799 C 0 0.3515 0.3516 0 0.799 0 C 1.2464 0 1.598 0.3515 1.598 0.799 C 1.598 1.2464 1.2464 1.598 0.799 1.598 C 0.3516 1.598 0 1.2464 0 0.799 Z M 0.0959 0.799 C 0.0959 1.1825 0.4155 1.5021 0.799 1.5021 C 1.1825 1.5021 1.5021 1.1825 1.5021 0.799 C 1.5021 0.4155 1.1825 0.0959 0.799 0.0959 C 0.4155 0.0959 0.0959 0.3835 0.0959 0.799 Z M 0.799 0.8949 L 0.6392 0.8949 L 0.6392 1.2464 L 0.5113 1.2464 L 0.5113 0.3196 L 0.8949 0.3196 C 1.0547 0.3196 1.1825 0.4155 1.1825 0.6072 C 1.1825 0.799 0.9907 0.8949 0.9588 0.8949 L 1.2144 1.2784 L 1.0547 1.2784 L 0.799 0.8949 Z M 0.6072 0.4474 L 0.6072 0.799 L 0.8629 0.799 C 0.9588 0.799 1.0227 0.7351 1.0227 0.6392 C 1.0227 0.5433 0.9588 0.4794 0.8629 0.4794 L 0.6072 0.4794 Z" stroke="none" stroke-linejoin="miter" stroke-linecap="butt" fill="#444444" fill-rule="nonzero"/>
                    </g>
                </g>
            </g>
            <g class="l0rzlnx25sa.lay" v:layer_name="Collect Layer">
                <rect fill="none" fill-opacity="0" height="100" stroke="none" stroke-opacity="0" width="100" x="0" y="0"/>
            </g>
        </g>
    </g>
</svg>