<svg xmlns="http://www.w3.org/2000/svg" xmlns:xlink="http://www.w3.org/1999/xlink" xmlns:v="http://vecta.io" width="100" height="100" viewBox="0 0 100 100.00001013869905">
    <style>
        <![CDATA[svg{stroke:#000;stroke-linecap:round;stroke-linejoin:round;fill:#fff;fill-rule:evenodd;font-family:Roboto;font-size:14px;text-anchor:middle;}svg text{paint-order:stroke;white-space:pre;}svg .Text\.cls{stroke:none;}]]>
    </style>
    <g>
        <g>
            <g transform="translate(0.0002 0)">
                <path d="M 48.2956 0.0297 C 20.7 0.9713 -0.9081 24.1044 0.0294 51.7042 C 0.971 79.3039 24.1042 100.912 51.7039 99.9704 C 79.3036 99.0037 100.9076 75.8623 99.9701 48.2584 C 99.0076 20.6795 75.8787 -0.912 48.2956 0.0297 Z M 51.7164 91.2871 C 50.5427 91.3234 49.3681 91.3095 48.1956 91.2454 L 48.0164 85.083 L 28.4375 77.4831 L 28.0375 84.883 C 16.5849 77.6293 9.4348 65.2049 8.9168 51.6583 C 8.0418 28.8961 25.7875 9.7337 48.5498 8.8587 L 48.6081 8.8587 C 56.6638 8.5549 64.6308 10.6285 71.5162 14.8212 L 49.9748 38.4584 L 81.3078 23.1003 C 83.2814 25.3914 84.9972 27.8925 86.4244 30.5585 L 51.1706 42.1709 L 90.3077 40.8251 C 90.8494 43.1876 91.191 45.6209 91.3119 48.125 L 52.5039 45.5709 L 90.3619 58.9791 C 86.4119 76.8581 70.862 90.5496 51.7164 91.2871 Z M 27.8583 37.6585 L 29.0583 37.6585 L 29.0583 48.2375 L 28.0833 48.2375 L 28.0833 51.9042 L 29.7833 51.9042 L 29.5041 57.4166 L 46.9914 63.704 L 46.4623 51.9042 L 48.1914 51.9042 L 48.1914 48.2375 L 47.2123 48.2375 L 47.2123 37.6585 L 48.3914 37.6585 L 38.2832 25.9044 L 27.8583 37.6585 Z M 43.8373 48.2375 L 40.0373 48.2375 L 40.0373 41.5251 L 36.2374 41.5251 L 36.2374 48.2375 L 32.4374 48.2375 L 32.4374 37.6585 L 43.8373 37.6585 L 43.8373 48.2375 Z M 47.1706 67.1248 L 47.3039 70.1456 L 29.1708 63.6332 L 29.3708 60.2332 L 47.1706 67.1248 Z M 29.0583 65.7499 L 47.4373 72.8831 L 47.5706 75.8831 L 28.8833 69.1707 L 29.0583 65.7499 Z M 47.7248 78.6164 L 47.8581 81.5955 L 28.5916 74.7081 L 28.7916 71.2873 L 47.7248 78.6164 Z" fill="#000000" fill-rule="nonzero" stroke="none" stroke-linecap="butt" stroke-linejoin="miter" stroke-width="33.333630034650476"/>
            </g>
            <g class="l0rzlnx25sa.lay" transform="translate(0 0)" v:layer_name="Collect Layer">
                <rect fill="none" fill-opacity="0" height="100" stroke="none" stroke-opacity="0" width="100" x="0" y="0"/>
            </g>
        </g>
    </g>
</svg>