<svg xmlns="http://www.w3.org/2000/svg" xmlns:xlink="http://www.w3.org/1999/xlink" xmlns:v="http://vecta.io" width="100" height="100" viewBox="0 0 100 100">
    <style>
        <![CDATA[svg{stroke:#000;stroke-linecap:round;stroke-linejoin:round;fill:#fff;fill-rule:evenodd;font-family:Roboto;font-size:14px;text-anchor:middle;}svg text{paint-order:stroke;white-space:pre;}svg .Text\.cls{stroke:none;}]]>
    </style>
    <g>
        <g>
            <g>
                <rect fill="none" fill-opacity="0" height="100" stroke="none" stroke-opacity="0" stroke-width="1" width="100" x="0" y="0"/>
            </g>
            <g transform="translate(0 21.9364)">
                <path d="M 22.4428 27.8258 C 15.0917 29.6179 10.0842 33.1536 10.0842 37.2002 C 10.0842 39.7266 12.0138 42.0248 15.1839 43.8169 C 14.2182 42.3014 13.7153 40.6453 13.7153 38.9922 C 13.7621 34.8113 17.0228 30.9053 22.4443 27.8274 Z M 100 43.6763 C 100 41.0109 98.3439 38.5767 95.5894 36.5549 C 95.819 37.383 96.0034 38.2111 96.0034 39.036 C 96.0034 46.6167 85.3901 53.1413 70.3176 55.852 C 72.0727 56.0389 73.8366 56.1306 75.6017 56.127 C 89.0632 56.0817 100 50.5227 100 43.6763 Z M 91.3162 39.5406 C 91.3162 36.7377 88.9258 34.166 84.8385 32.0521 C 85.8041 33.2005 86.3072 34.4426 86.3072 35.7284 C 86.3072 42.4826 71.9722 47.9494 54.2375 47.9494 C 36.5481 47.9494 22.1678 42.4811 22.1678 35.7284 C 22.1678 34.8535 22.3975 34.0285 22.8553 33.2473 C 20.007 35.1316 18.3977 37.2908 18.3977 39.5875 C 18.3977 46.8933 34.7091 52.821 54.8328 52.821 C 74.9564 52.821 91.3147 46.8026 91.3147 39.5406 Z M 75.4189 39.1579 C 67.9756 43.9357 45.0928 45.7746 35.2622 39.6172 C 27.544 34.7925 30.2079 27.1181 8.1078 10.3036 C 5.2127 8.0975 8.6593 5.757 10.8186 7.2726 C 12.9778 8.7881 11.0029 9.1568 15.3651 13.5221 C 24.1864 22.3434 24.0942 14.3971 25.4738 17.4281 C 28.4141 23.7246 34.8482 30.0632 34.8482 30.0632 C 41.3259 34.2894 46.4724 35.2097 56.0296 28.7305 C 62.0948 24.6417 59.6137 35.255 74.4533 27.5821 C 79.8748 24.7792 79.6451 26.6634 85.1588 18.9889 C 87.4555 15.8173 91.8209 21.4263 86.8587 22.2075 C 84.8823 22.5293 81.5309 24.6886 80.1045 28.0883 C 78.0374 33.188 78.9092 36.9565 75.4173 39.161 Z M 34.1607 26.2181 C 32.3234 25.3901 30.3952 22.2653 29.6579 21.0263 C 31.725 19.0046 30.8985 15.6517 29.7048 13.8127 C 28.5563 11.9754 27.1315 12.48 25.616 10.7817 C 24.0536 9.0818 26.2127 4.6727 28.1893 8.071 C 35.587 20.7982 40.4572 15.5142 46.4755 14.733 C 52.2642 13.9987 57.4123 17.1703 58.9747 8.2084 C 59.2497 6.7398 60.6746 6.4164 60.812 8.8053 C 60.9494 11.2426 61.8682 17.1219 65.0383 17.8562 C 68.21 18.6374 70.7815 17.1219 71.5158 16.2938 C 72.2503 15.4658 72.6644 15.5595 72.9847 17.6718 C 73.3065 19.7389 74.133 22.634 78.5905 19.417 C 87.7336 12.8925 85.1151 10.3661 88.6992 8.6678 C 90.7209 7.7022 93.9364 10.827 89.296 13.1706 C 82.6793 16.5251 81.9903 20.6591 77.8093 23.2793 C 70.7786 27.6899 72.9393 23.4636 61.6385 21.8544 C 57.2732 21.2575 55.8952 26.0806 52.4954 24.7026 C 44.7303 21.4841 39.2619 22.1294 34.1623 26.2181 Z M 58.6497 2.6479 C 58.9247 4.5774 59.2465 4.5321 59.9355 4.6696 C 60.623 4.854 61.4979 3.7509 61.4979 2.7401 C 61.5448 1.6839 61.0386 1.0402 60.0293 1.0839 C 58.9731 1.1308 58.6044 1.6355 58.6513 2.6463 Z M 92.6474 6.0945 C 93.4754 6.8757 95.6784 6.3695 96.1846 5.7727 C 97.5172 4.304 97.5627 3.4291 96.8721 2.4182 C 96.1846 1.4527 94.7582 1.5902 93.3348 2.6479 C 91.9115 3.7056 92.1865 5.6789 92.6474 6.0945 Z M 92.0505 15.8345 C 91.3631 16.7532 91.3162 17.4437 91.8209 17.9484 C 92.3722 18.4999 93.4769 18.9593 94.258 18.3624 C 95.0392 17.7187 95.0392 16.8 94.3957 16.0188 C 93.7082 15.1908 92.7864 15.1908 92.0521 15.8345 Z M 22.3053 4.3478 C 23.3615 4.6696 23.8677 5.6805 24.7426 4.5321 C 25.2018 3.9806 25.2473 3.1994 24.6489 2.3729 C 24.2817 1.8683 22.535 1.498 21.8006 2.2354 C 21.0663 2.9729 21.7538 4.165 22.3053 4.3493 Z M 0.7568 3.7041 C 2.6863 4.8993 3.9284 6.6882 5.3971 5.0821 C 5.9017 4.5306 6.5001 3.5666 5.4439 1.6355 C 4.6627 0.2106 2.1364 -0.341 1.263 0.2106 C 0.3427 0.7168 -0.7744 2.7854 0.7568 3.7041 Z M 18.5368 12.8472 C 19.1336 13.4909 20.1929 13.444 20.8335 13.0769 C 21.4304 12.7097 21.3382 11.7441 20.7398 10.9176 C 20.3726 10.413 19.2711 10.1364 18.5337 10.9176 C 17.7962 11.6988 18.1196 12.3863 18.5337 12.8472 Z" fill="#41bf47" fill-rule="nonzero" stroke="none" stroke-linecap="butt" stroke-linejoin="miter" stroke-width="1"/>
            </g>
        </g>
    </g>
</svg>