<svg xmlns="http://www.w3.org/2000/svg" xmlns:xlink="http://www.w3.org/1999/xlink" xmlns:v="http://vecta.io" width="100" height="100" viewBox="0 0 100 100">
    <style>
        <![CDATA[svg{stroke:#000;stroke-linecap:round;stroke-linejoin:round;fill:#fff;fill-rule:evenodd;font-family:Roboto;font-size:14px;text-anchor:middle;}svg text{paint-order:stroke;white-space:pre;}svg .Text\.cls{stroke:none;}]]>
    </style>
    <g class="l0rzlnx25sa.lay" v:layer_name="Collect Layer">
        <g>
            <g transform="translate(0 13.9174)" class="l0rzlnx25sa.lay" v:layer_name="Collect Layer">
                <path d="M 97.9358 27.5379 C 95.684 25.9755 90.5236 25.3896 86.4892 26.1708 C 86.0201 22.2647 83.8621 18.8469 80.1091 15.8196 L 77.951 14.2573 L 76.4498 16.5032 C 74.5734 19.4328 73.6351 23.5342 73.9165 27.4403 C 74.0104 28.8074 74.4795 31.2487 75.8868 33.397 C 74.5734 34.1783 71.8524 35.1548 68.2871 35.1548 L 0.4512 35.1548 L 0.2635 35.9361 C -0.3934 39.8421 -0.3934 52.0487 7.3004 61.4234 C 13.1176 68.5519 21.7495 72.1652 33.1024 72.1652 C 57.6847 72.1652 75.8868 60.3492 84.425 38.9633 C 87.8027 39.0609 95.0272 38.9633 98.6864 31.6394 C 98.7803 31.444 98.9679 31.0535 99.6247 29.5886 L 100 28.8074 L 97.9358 27.5379 L 97.9358 27.5379 Z M 54.6822 0 L 44.3615 0 L 44.3615 9.7652 L 54.6822 9.7652 L 54.6822 0 L 54.6822 0 Z M 54.6822 11.7183 L 44.3615 11.7183 L 44.3615 21.4835 L 54.6822 21.4835 L 54.6822 11.7183 L 54.6822 11.7183 Z M 42.485 11.7183 L 32.1642 11.7183 L 32.1642 21.4835 L 42.485 21.4835 L 42.485 11.7183 L 42.485 11.7183 Z M 30.2876 11.7183 L 19.9669 11.7183 L 19.9669 21.4835 L 30.2876 21.4835 L 30.2876 11.7183 L 30.2876 11.7183 Z M 18.0903 23.4366 L 7.7696 23.4366 L 7.7696 33.2018 L 18.0903 33.2018 L 18.0903 23.4366 L 18.0903 23.4366 Z M 30.2876 23.4366 L 19.9669 23.4366 L 19.9669 33.2018 L 30.2876 33.2018 L 30.2876 23.4366 L 30.2876 23.4366 Z M 42.485 23.4366 L 32.1642 23.4366 L 32.1642 33.2018 L 42.485 33.2018 L 42.485 23.4366 L 42.485 23.4366 Z M 54.6822 23.4366 L 44.3615 23.4366 L 44.3615 33.2018 L 54.6822 33.2018 L 54.6822 23.4366 L 54.6822 23.4366 Z M 66.8796 23.4366 L 56.5588 23.4366 L 56.5588 33.2018 L 66.8796 33.2018 L 66.8796 23.4366 L 66.8796 23.4366 Z" stroke="none" stroke-linejoin="miter" stroke-linecap="butt" fill="#2396ed" fill-rule="nonzero" stroke-width="3.1250402334311627"/>
            </g>
            <g>
                <rect fill="none" fill-opacity="0" height="100" stroke="none" stroke-opacity="0" width="100" x="0" y="0"/>
            </g>
        </g>
    </g>
</svg>