<svg xmlns="http://www.w3.org/2000/svg" xmlns:xlink="http://www.w3.org/1999/xlink" xmlns:v="http://vecta.io" width="100" height="100" viewBox="0 0 100 100">
    <style>
        <![CDATA[svg{stroke:#000;stroke-linecap:round;stroke-linejoin:round;fill:#fff;fill-rule:evenodd;font-family:Roboto;font-size:14px;text-anchor:middle;}svg text{paint-order:stroke;white-space:pre;}svg .Text\.cls{stroke:none;}]]>
    </style>
    <g>
        <g>
            <g>
                <path d="M 50 0 C 22.3859 0 0 22.3844 0 50 C 0 77.6156 22.3875 100 50 100 C 77.6125 100 100 77.6141 100 50 C 100 22.3859 77.6125 0 50 0 Z M 50 93.5781 C 42.1438 93.5781 35.7734 88.3281 35.7734 81.8594 L 64.2109 81.8594 C 64.2109 88.3313 57.8406 93.5781 49.9844 93.5781 Z M 73.5156 77.9797 L 26.5 77.9797 L 26.5 69.4578 L 73.5156 69.4578 L 73.5156 77.9797 Z M 73.3469 65.0734 L 26.6359 65.0734 L 26.1719 64.5359 C 21.3594 58.6922 20.2281 55.6297 19.1281 52.5359 C 19.1094 52.4328 24.9625 53.7328 29.1125 54.6656 C 29.1125 54.6656 31.2484 55.1594 34.3688 55.7281 C 31.3719 52.2125 29.5922 47.7484 29.5922 43.1813 C 29.5922 33.1578 37.2797 24.4 34.5063 17.3219 C 37.2063 17.5406 40.0922 23.0187 40.2875 31.5813 C 43.1578 27.6156 44.3578 20.375 44.3578 15.9344 C 44.3578 11.3375 47.3891 5.9969 50.4172 5.8141 C 47.7141 10.2672 51.1172 14.0797 54.1391 23.5484 C 55.2734 27.1047 55.1281 33.0891 56.0031 36.8844 C 56.2938 29.0016 57.6484 17.5016 62.65 13.5313 C 60.4438 18.5313 62.9781 24.7891 64.7094 27.7969 C 67.5063 32.65 69.1984 36.3281 69.1984 43.2656 C 69.1984 47.9281 67.4766 52.3172 64.5734 55.7656 C 67.875 55.1453 70.1547 54.5875 70.1547 54.5875 L 80.8766 52.4937 C 80.8766 52.4922 79.3188 58.9 73.3328 65.0719 Z" fill="#da4e31" fill-rule="nonzero" stroke="none" stroke-linecap="butt" stroke-linejoin="miter"/>
            </g>
            <g class="l0rzlnx25sa.lay" v:layer_name="Collect Layer">
                <rect fill="none" fill-opacity="0" height="100" stroke="none" stroke-opacity="0" width="100" x="0" y="0"/>
            </g>
        </g>
    </g>
</svg>