<svg xmlns="http://www.w3.org/2000/svg" xmlns:xlink="http://www.w3.org/1999/xlink" xmlns:v="http://vecta.io" width="100" height="100" viewBox="0 0 100 100">
    <style>
        <![CDATA[svg{stroke:#000;stroke-linecap:round;stroke-linejoin:round;fill:#fff;fill-rule:evenodd;font-family:Roboto;font-size:14px;text-anchor:middle;}svg text{paint-order:stroke;white-space:pre;}svg .Text\.cls{stroke:none;}]]>
    </style>
    <defs>
        <clipPath id="masdn7zlha6.clip">
            <path d="M 41.009 11.4157 C 41.009 11.4157 40.9739 11.5613 40.9287 11.8072 C 40.512 11.9278 40.0955 12.0431 39.6788 12.1788 C 39.1015 12.3544 38.5342 12.5653 37.9569 12.7711 C 37.3895 12.992 36.8122 13.2129 36.2501 13.4639 C 35.1154 13.9509 33.991 14.498 32.8916 15.1155 C 31.8273 15.713 30.7781 16.3706 29.7591 17.0834 C 29.6135 17.0131 29.4981 16.9629 29.4981 16.9629 C 19.0914 12.987 9.8495 17.7711 9.8495 17.7711 C 9.0061 28.8403 14.0062 35.8184 14.995 37.0835 C 14.7491 37.7661 14.5182 38.4589 14.3073 39.1566 C 13.5392 41.6667 12.9619 44.242 12.6055 46.9027 C 12.5553 47.2842 12.51 47.6707 12.4648 48.0573 C 2.8514 52.8063 0 62.5402 0 62.5402 C 8.0271 71.7722 17.3846 72.3444 17.3846 72.3444 C 17.3946 72.3394 17.3998 72.3294 17.4098 72.3244 C 18.5994 74.4478 19.9749 76.4709 21.5261 78.3534 C 22.1737 79.1415 22.8564 79.9046 23.5643 80.6425 C 20.6376 89.011 23.976 95.974 23.976 95.974 C 32.9116 96.3103 38.7802 92.0634 40.0152 91.0844 C 40.9036 91.3856 41.8073 91.6517 42.7158 91.8876 C 45.4618 92.5954 48.2732 93.0121 51.0843 93.1325 C 51.7871 93.1627 52.49 93.1777 53.1878 93.1727 L 53.5292 93.1727 L 53.75 93.1677 L 54.1918 93.1527 L 54.6287 93.1325 L 54.6387 93.1475 C 58.8455 99.1516 66.2501 100 66.2501 100 C 71.5161 94.4478 71.8173 88.9407 71.8173 87.7511 L 71.8173 87.7511 C 71.8173 87.7511 71.8173 87.7109 71.8173 87.6708 C 71.8173 87.5703 71.8123 87.505 71.8123 87.505 C 71.8123 87.505 71.8123 87.505 71.8123 87.505 C 71.8073 87.4197 71.8073 87.3394 71.7972 87.2491 C 72.9017 86.476 73.9558 85.6426 74.9548 84.749 C 77.0633 82.8413 78.9056 80.6727 80.4318 78.3283 C 80.5774 78.1075 80.7178 77.8866 80.8535 77.6607 C 86.8122 78.002 91.0142 73.971 91.0142 73.971 C 90.0252 67.7611 86.486 64.734 85.7481 64.1618 L 85.7481 64.1618 C 85.7481 64.1618 85.7179 64.1365 85.6727 64.1065 C 85.6326 64.0763 85.6024 64.0562 85.6024 64.0562 C 85.6024 64.0562 85.6024 64.0562 85.6024 64.0562 C 85.5673 64.0312 85.5221 64.001 85.472 63.9709 C 85.5071 63.5945 85.5423 63.2229 85.5623 62.8514 C 85.6074 62.1838 85.6224 61.5111 85.6276 60.8484 L 85.6224 60.3514 L 85.6176 60.1004 L 85.6176 59.975 C 85.6176 59.8042 85.6124 59.8695 85.6124 59.8042 L 85.5924 59.3875 L 85.5623 58.8253 C 85.5523 58.6296 85.5371 58.464 85.5221 58.2882 C 85.5071 58.1176 85.4921 57.9418 85.472 57.771 L 85.4117 57.254 L 85.3414 56.742 C 85.241 56.0592 85.1104 55.3816 84.9548 54.7138 C 84.3323 52.0382 83.2882 49.498 81.9076 47.2139 C 80.5272 44.9298 78.8103 42.9066 76.8776 41.2048 C 74.9448 39.498 72.776 38.1275 70.5021 37.1035 C 68.228 36.0793 65.8384 35.4217 63.4589 35.1206 C 62.2691 34.965 61.0843 34.9047 59.9097 34.9197 L 59.473 34.9297 L 59.3625 34.9348 C 59.3323 34.9348 59.1969 34.9397 59.2119 34.9397 L 59.0313 34.9498 L 58.5944 34.98 C 58.4288 34.99 58.258 35.0051 58.1124 35.0201 C 57.5101 35.0803 56.9128 35.1607 56.3203 35.2711 C 53.9609 35.7129 51.7319 36.5663 49.7691 37.7411 C 47.8062 38.9157 46.0994 40.3866 44.7089 42.0532 C 43.3233 43.7148 42.244 45.5573 41.501 47.4648 C 40.7581 49.3725 40.3414 51.3404 40.226 53.253 C 40.1958 53.73 40.1858 54.2068 40.1958 54.6788 C 40.1958 54.7943 40.2008 54.9148 40.2058 55.0302 L 40.221 55.4118 C 40.236 55.6425 40.2561 55.8685 40.2761 56.0944 C 40.3716 57.0632 40.5472 57.9921 40.8083 58.8905 C 41.3253 60.6828 42.1587 62.3042 43.1828 63.6798 C 44.2069 65.0602 45.4318 66.1998 46.732 67.0884 C 48.0321 67.9769 49.4227 68.6145 50.7982 69.0211 C 52.1788 69.4278 53.5494 69.6034 54.8394 69.5984 C 55.0001 69.5984 55.1607 69.5934 55.3213 69.5884 C 55.4066 69.5884 55.4921 69.5782 55.5774 69.5782 C 55.6627 69.5734 55.748 69.5682 55.8335 69.5632 C 55.9689 69.5482 56.1095 69.5382 56.245 69.5231 C 56.2752 69.5231 56.3203 69.5131 56.3605 69.5081 L 56.4859 69.4929 C 56.5714 69.4829 56.6517 69.4679 56.737 69.4579 C 56.9076 69.4378 57.0532 69.4026 57.2039 69.3776 C 57.3545 69.3475 57.5051 69.3173 57.6557 69.2772 C 57.9519 69.2119 58.238 69.1215 58.5241 69.0362 C 59.0864 68.8505 59.6134 68.6245 60.1054 68.3735 C 60.5974 68.1225 61.0493 67.8365 61.471 67.5402 C 61.5915 67.4549 61.7069 67.3644 61.8224 67.2741 C 62.2741 66.9228 62.3444 66.2601 61.983 65.8183 C 61.6668 65.4317 61.1244 65.3313 60.6927 65.5723 C 60.5874 65.6327 60.477 65.6878 60.3665 65.743 C 59.99 65.9237 59.5984 66.0945 59.1817 66.23 C 58.7652 66.3604 58.3333 66.4709 57.8816 66.5512 C 57.6557 66.5814 57.4298 66.6165 57.1989 66.6365 C 57.0834 66.6517 56.9679 66.6567 56.8475 66.6567 C 56.732 66.6617 56.6065 66.6718 56.5011 66.6667 C 56.3906 66.6667 56.2802 66.6617 56.1647 66.6617 C 56.0241 66.6567 55.8836 66.6465 55.743 66.6417 C 55.743 66.6417 55.6727 66.6417 55.728 66.6365 L 55.6827 66.6315 L 55.5874 66.6215 C 55.5221 66.6165 55.4619 66.6115 55.3966 66.6015 C 55.2711 66.5864 55.1457 66.5714 55.0202 66.5512 C 54.011 66.4106 52.987 66.1145 52.003 65.6677 C 51.014 65.221 50.0703 64.6085 49.2169 63.8404 C 48.3635 63.0773 47.6204 62.1536 47.0383 61.1094 C 46.4558 60.0703 46.0493 58.9107 45.8585 57.6959 C 45.7632 57.0884 45.723 56.4609 45.738 55.8485 C 45.748 55.6778 45.753 55.5121 45.7632 55.3415 C 45.7632 55.3866 45.768 55.3163 45.768 55.3113 L 45.7732 55.251 L 45.7832 55.1255 C 45.7882 55.0402 45.7982 54.9599 45.8083 54.8746 C 45.8433 54.5432 45.8936 54.2068 45.9538 53.8806 C 46.4208 51.2349 47.746 48.6546 49.7942 46.6917 C 50.3062 46.2049 50.8584 45.748 51.4459 45.3463 C 52.0332 44.9448 52.6606 44.5834 53.3133 44.2822 C 53.9659 43.9809 54.6487 43.735 55.3465 43.5442 C 56.0442 43.3585 56.762 43.233 57.4901 43.1677 C 57.8515 43.1375 58.218 43.1225 58.5843 43.1225 C 58.6797 43.1225 58.755 43.1275 58.8303 43.1275 L 59.1266 43.1375 L 59.3123 43.1425 C 59.3875 43.1425 59.3123 43.1425 59.3475 43.1475 L 59.4228 43.1527 L 59.7189 43.1727 C 60.507 43.238 61.2952 43.3485 62.0683 43.5241 C 63.6195 43.8706 65.1255 44.4378 66.5312 45.2159 C 69.3423 46.7722 71.737 49.2069 73.2079 52.1436 C 73.9508 53.6044 74.4628 55.1807 74.7239 56.8073 C 74.7842 57.2139 74.8344 57.6256 74.8695 58.0371 L 74.8945 58.3483 L 74.9097 58.6597 C 74.9147 58.765 74.9147 58.8655 74.9197 58.971 C 74.9197 59.0714 74.9247 59.1867 74.9247 59.262 L 74.9247 59.5281 L 74.9197 59.8294 C 74.9097 60.0301 74.8945 60.3565 74.8845 60.5573 C 74.8495 61.0041 74.8142 61.4558 74.7541 61.9027 C 74.6988 62.3444 74.6236 62.7862 74.5431 63.2279 C 74.4528 63.6646 74.3625 64.1015 74.2471 64.5332 C 74.0311 65.4016 73.7501 66.2501 73.4237 67.0834 C 72.766 68.75 71.8877 70.3313 70.8283 71.7922 C 68.7048 74.7088 65.8083 77.0933 62.5152 78.5894 C 60.8685 79.3324 59.1316 79.8796 57.3445 80.1758 C 56.4509 80.3263 55.5472 80.4166 54.6437 80.4468 L 54.4779 80.4519 L 54.3324 80.4519 L 54.0412 80.4569 L 53.5944 80.4569 L 53.3736 80.4569 C 53.499 80.4569 53.3534 80.4569 53.3584 80.4519 L 53.2681 80.4468 C 52.7811 80.4368 52.2993 80.4118 51.8173 80.3765 C 49.8845 80.231 47.972 79.8896 46.1194 79.3474 C 44.2672 78.8103 42.4699 78.0923 40.7681 77.1888 C 37.3695 75.3715 34.3323 72.8815 31.9529 69.8796 C 30.7581 68.3835 29.7138 66.7771 28.8504 65.0853 C 27.987 63.3936 27.3093 61.6216 26.8073 59.8092 C 26.3102 57.9969 25.999 56.1397 25.8785 54.2721 L 25.8584 53.9207 L 25.8536 53.8354 L 25.8536 53.76 L 25.8484 53.6044 L 25.8384 53.2981 L 25.8334 53.223 L 25.8334 53.1175 L 25.8334 52.9017 L 25.8282 52.4649 L 25.8282 52.3796 C 25.8282 52.3946 25.8282 52.3946 25.8282 52.3494 L 25.8282 52.1788 C 25.8282 51.9529 25.8384 51.7219 25.8434 51.496 C 25.8785 50.5723 25.9539 49.6235 26.0743 48.6748 C 26.1948 47.7259 26.3504 46.7722 26.5462 45.8233 C 26.7419 44.8796 26.9729 43.9408 27.234 43.0221 C 27.7611 41.1797 28.4187 39.3926 29.1968 37.7058 C 30.7581 34.3273 32.8063 31.3503 35.266 28.9509 C 35.8785 28.3484 36.5161 27.7811 37.1788 27.249 C 37.8414 26.7169 38.5292 26.2249 39.2369 25.7631 C 39.9397 25.2962 40.6677 24.8745 41.4157 24.483 C 41.7871 24.2821 42.1687 24.1065 42.5502 23.9207 C 42.741 23.8354 42.9368 23.7499 43.1275 23.6648 C 43.3183 23.5794 43.5141 23.494 43.7098 23.4187 C 44.4881 23.0874 45.2913 22.8112 46.0944 22.5503 C 46.3003 22.49 46.501 22.4247 46.7019 22.3645 C 46.9027 22.2992 47.1136 22.254 47.3144 22.1937 C 47.7209 22.0784 48.1376 21.983 48.5493 21.8775 C 48.7551 21.8223 48.9658 21.7872 49.1718 21.742 C 49.3825 21.6969 49.5885 21.6516 49.7992 21.6114 C 50.0102 21.5713 50.2209 21.5361 50.4267 21.496 L 50.7431 21.4408 L 51.0593 21.3907 C 51.2701 21.3605 51.481 21.3253 51.6918 21.2952 C 51.9277 21.255 52.1686 21.235 52.4046 21.1997 C 52.6005 21.1747 52.9167 21.1396 53.1125 21.1144 C 53.2631 21.0994 53.4087 21.0844 53.5594 21.0693 L 53.8554 21.0393 L 54.006 21.0241 L 54.1817 21.0141 C 54.4227 20.9991 54.6587 20.984 54.8996 20.969 L 55.2561 20.9438 C 55.2561 20.9438 55.3866 20.9388 55.2711 20.9388 L 55.3465 20.9338 L 55.4971 20.9288 C 55.7028 20.9186 55.9038 20.9086 56.1095 20.8986 C 56.9228 20.8735 57.7309 20.8735 58.5291 20.8986 C 60.1306 20.9638 61.7018 21.1396 63.2279 21.4208 C 66.2851 21.988 69.1617 22.972 71.7622 24.2571 C 74.3675 25.5322 76.7018 27.0985 78.73 28.8001 C 78.8554 28.9056 78.981 29.0161 79.1065 29.1215 C 79.232 29.232 79.3524 29.3374 79.4729 29.4477 C 79.7188 29.6637 79.9549 29.8896 80.1908 30.1054 C 80.4268 30.3263 80.6527 30.5522 80.8836 30.7732 C 81.1045 30.9989 81.3303 31.22 81.5462 31.4508 C 82.4046 32.3595 83.2029 33.2832 83.9208 34.2119 C 85.3615 36.0643 86.5111 37.9317 87.4297 39.6988 C 87.49 39.8093 87.5452 39.9197 87.6005 40.03 C 87.6556 40.1407 87.7109 40.2511 87.7611 40.3614 C 87.8665 40.5773 87.9769 40.7931 88.0723 41.009 C 88.1728 41.225 88.2731 41.4357 88.3685 41.6467 C 88.4589 41.8574 88.5493 42.0682 88.6396 42.2691 C 88.981 43.0974 89.2923 43.8806 89.5482 44.6286 C 89.9699 45.8283 90.2761 46.9127 90.517 47.8515 C 90.6125 48.2279 90.9689 48.479 91.3556 48.4438 C 91.7571 48.4087 92.0634 48.0774 92.0734 47.6757 C 92.0934 46.6667 92.0684 45.4769 91.9529 44.1215 C 91.8023 42.4448 91.516 40.502 90.9487 38.3686 C 90.3916 36.2349 89.5633 33.9007 88.3584 31.4759 C 87.1486 29.0562 85.5723 26.5362 83.5241 24.1015 C 82.726 23.1476 81.8525 22.2039 80.9088 21.2852 C 82.3143 15.6928 79.1968 10.8434 79.1968 10.8434 C 73.8152 10.5071 70.3916 12.5152 69.1215 13.4337 C 68.9106 13.3434 68.6948 13.2531 68.4789 13.1626 C 67.5602 12.7912 66.6215 12.4448 65.6527 12.1385 C 64.6838 11.8324 63.6948 11.5511 62.6858 11.3152 C 61.6718 11.0793 60.6426 10.8785 59.5934 10.7179 C 59.4077 10.6929 59.227 10.6676 59.0413 10.6376 C 56.7019 3.1375 49.96 0 49.96 0 C 42.4398 4.744 41.009 11.4157 41.009 11.4157" stroke="none" stroke-linejoin="miter" stroke-linecap="butt" fill="#000000" fill-rule="nonzero" stroke-width="0.032130152218164995" transform="translate(0 0.02)"/>
        </clipPath>
        <linearGradient y2="406.61%" x2="-66.80%" y1="406.61%" x1="-67.19%" id="L-67406-664060FFF200100F15A29.grad">
            <stop offset="0%" stop-color="#FFF200"/>
            <stop offset="100%" stop-color="#F15A29"/>
        </linearGradient>
    </defs>
    <g>
        <g>
            <g transform="translate(3.9602 0)">
                <path clip-path="url(#masdn7zlha6.clip)" d="M 0 0 L 92.0884 0 L 92.0884 100.015 L 0 100.015 Z" fill="url(#L-67406-664060FFF200100F15A29.grad)" fill-rule="nonzero" stroke="none" stroke-linecap="butt" stroke-linejoin="miter" stroke-width="0.032130152218164995" transform="translate(0 -0.02)"/>
            </g>
            <g class="l0rzlnx25sa.lay" v:layer_name="Collect Layer">
                <rect fill="none" fill-opacity="0" height="100" stroke="none" stroke-opacity="0" width="100" x="0" y="0"/>
            </g>
        </g>
    </g>
</svg>