<svg xmlns="http://www.w3.org/2000/svg" xmlns:xlink="http://www.w3.org/1999/xlink" xmlns:v="http://vecta.io" width="100" height="100" viewBox="0 0 100 100">
    <style>
        <![CDATA[svg{stroke:#000;stroke-linecap:round;stroke-linejoin:round;fill:#fff;fill-rule:evenodd;font-family:Roboto;font-size:14px;text-anchor:middle;}svg text{paint-order:stroke;white-space:pre;}svg .Text\.cls{stroke:none;}]]>
    </style>
    <g>
        <g>
            <g transform="translate(5.2628 0)">
                <path d="M 46.2623 0.0282 C 41.6539 0.3415 37.881 1.0595 33.7948 2.3911 C 20.5701 6.6993 9.5778 16.8952 3.9903 30.0416 C 1.9667 34.7806 0.7787 39.4934 0.1651 45.1201 C -0.0829 47.3656 -0.0437 53.1098 0.2304 55.4988 C 1.1443 63.384 3.5725 70.4598 7.6065 76.9351 C 11.2749 82.849 16.3403 88.071 22.1367 91.9614 C 28.6381 96.3087 35.9489 98.9328 44.0429 99.8335 C 45.9751 100.0555 51.641 100.0555 53.5731 99.8335 C 63.1946 98.763 71.5367 95.3296 79.1217 89.2982 C 80.845 87.9274 85.1139 83.6454 86.5108 81.8699 C 87.1375 81.0866 87.6335 80.4077 87.6205 80.3425 C 87.5422 80.1205 66.7195 64.0368 66.6411 64.1412 C 66.5889 64.1934 66.2886 64.5981 65.9623 65.0159 C 65.1529 66.1125 63.3643 67.8749 62.0588 68.8932 C 56.3016 73.3711 48.9908 74.6766 42.15 72.4572 C 40.7792 72.0134 38.2204 70.7731 36.9932 69.9507 C 30.9488 65.9167 27.1237 59.2586 26.5493 51.739 C 25.8835 42.953 30.2569 34.1931 37.5416 29.7413 C 44.5913 25.4332 53.0248 25.4332 60.0745 29.7413 C 63.2468 31.6865 66.0406 34.5978 67.9727 37.9921 L 68.5341 38.9712 L 79.0042 30.7205 C 84.7484 26.1773 89.4612 22.4044 89.4743 22.3261 C 89.4743 22.0781 87.3202 19.1276 85.8711 17.3913 C 84.2262 15.4331 80.8711 12.1302 78.965 10.6158 C 71.7717 4.8585 63.3382 1.3467 54.1606 0.2762 C 52.5026 0.0804 47.6853 -0.0632 46.2623 0.0282 Z" stroke="none" stroke-linejoin="miter" stroke-linecap="butt" fill-rule="nonzero" stroke-width="0.13333333333333333" fill="#052782"/>
            </g>
            <g class="l0rzlnx25sa.lay" v:layer_name="Collect Layer">
                <rect fill="none" fill-opacity="0" height="100" stroke="none" stroke-opacity="0" width="100" x="0" y="0"/>
            </g>
        </g>
    </g>
</svg>