<svg xmlns="http://www.w3.org/2000/svg" xmlns:xlink="http://www.w3.org/1999/xlink" xmlns:v="http://vecta.io" width="100" height="100" viewBox="0 0 100 100">
    <style>
        <![CDATA[svg{stroke:#000;stroke-linecap:round;stroke-linejoin:round;fill:#fff;fill-rule:evenodd;font-family:Roboto;font-size:14px;text-anchor:middle;}svg text{paint-order:stroke;white-space:pre;}svg .Text\.cls{stroke:none;}]]>
    </style>
    <g>
        <g>
            <g transform="translate(0 1.1494)">
                <g>
                    <g transform="translate(25.0001 0)">
                        <path d="M 24.9999 0 L 0 24.4252 L 50 24.4252 L 50 0 Z" fill="#f1df36" fill-rule="nonzero" stroke="none" stroke-linecap="butt" stroke-linejoin="miter" stroke-width="0.4597686634563623"/>
                    </g>
                    <g transform="translate(75.0001 24.4253)">
                        <path d="M 0 48.8506 L 24.9999 24.4254 L 24.9999 0 L 0 0 Z" fill="#faaf42" fill-rule="nonzero" stroke="none" stroke-linecap="butt" stroke-linejoin="miter" stroke-width="0.4597686634563623"/>
                    </g>
                    <g transform="translate(25.0001 73.276)">
                        <path d="M 0 0 L 0 24.4252 L 24.9999 24.4252 L 50 0 Z" fill="#9ad7ec" fill-rule="nonzero" stroke="none" stroke-linecap="butt" stroke-linejoin="miter" stroke-width="0.4597686634563623"/>
                    </g>
                    <g transform="translate(0 24.4253)">
                        <path d="M 0 24.4254 L 0 48.8506 L 25.0001 48.8506 L 25.0001 0 Z" fill="#07b1d5" fill-rule="nonzero" stroke="none" stroke-linecap="butt" stroke-linejoin="miter" stroke-width="0.4597686634563623"/>
                    </g>
                    <g transform="translate(75.0001 0)">
                        <path d="M 0 0 L 24.9999 0 L 24.9999 24.4252 L 0 24.4252 Z" fill="#f69421" fill-rule="nonzero" stroke="none" stroke-linecap="butt" stroke-linejoin="miter" stroke-width="0.4597686634563623"/>
                    </g>
                    <g transform="translate(0 73.276)">
                        <path d="M 0 0 L 25.0001 0 L 25.0001 24.4252 L 0 24.4252 Z" fill="#1280c4" fill-rule="nonzero" stroke="none" stroke-linecap="butt" stroke-linejoin="miter" stroke-width="0.4597686634563623"/>
                    </g>
                </g>
            </g>
            <g class="l0rzlnx25sa.lay" v:layer_name="Collect Layer">
                <rect fill="none" fill-opacity="0" height="100" stroke="none" stroke-opacity="0" width="100" x="0" y="0"/>
            </g>
        </g>
    </g>
</svg>