<svg xmlns="http://www.w3.org/2000/svg" xmlns:xlink="http://www.w3.org/1999/xlink" xmlns:v="http://vecta.io" width="100" height="100" viewBox="0 0 100.00003857666036 100">
    <style>
        <![CDATA[svg{stroke:#000;stroke-linecap:round;stroke-linejoin:round;fill:#fff;fill-rule:evenodd;font-family:Roboto;font-size:14px;text-anchor:middle;}svg text{paint-order:stroke;white-space:pre;}svg .Text\.cls{stroke:none;}]]>
    </style>
    <g transform="translate(0 0)">
        <g>
            <g transform="translate(0 6.4968)">
                <g>
                    <g transform="translate(0 6.1926)">
                        <path d="M 83.1441 49.175 L 75.987 18.0972 C 75.6085 16.4713 74.5131 15.1048 73.0085 14.3815 L 44.0372 0.5449 C 43.2877 0.1893 42.4688 0.0036 41.6392 0.0011 C 40.8096 -0.0014 41.4335 0.0011 41.3502 0.0011 L 41.3233 0.0011 C 40.5969 0.0401 39.8854 0.2215 39.229 0.5351 L 10.2749 14.3815 C 8.7586 15.1103 7.655 16.4878 7.2744 18.1266 L 0.1344 49.1848 C -0.0222 49.8789 -0.0422 50.5969 0.0756 51.2986 C 0.0952 51.4064 0.1148 51.5142 0.1393 51.6195 C 0.2773 52.2502 0.5261 52.8515 0.8741 53.3953 C 0.9721 53.5447 1.0774 53.6917 1.1876 53.8313 L 21.2432 78.7489 C 22.308 80.0453 23.8937 80.8018 25.5713 80.8137 L 25.5713 80.8137 L 57.7097 80.8137 L 57.7097 80.8137 C 59.3866 80.8044 60.9722 80.0484 62.0353 78.7513 L 80.4326 55.8667 L 82.0688 53.8288 C 82.4053 53.4087 82.6769 52.9406 82.8746 52.44 C 83.2857 51.4048 83.3779 50.2703 83.1392 49.1823 Z" fill-rule="nonzero" stroke="none" stroke-linecap="butt" stroke-linejoin="miter"/>
                    </g>
                    <g transform="translate(0 6.1926)">
                        <path d="M 75.987 18.0972 C 75.8028 17.307 75.4456 16.5674 74.9411 15.9319 L 68.656 21.056 C 68.8795 21.4259 69.0486 21.8259 69.1581 22.244 C 69.4765 22.6359 75.0366 46.439 75.0366 46.9828 C 75.1784 47.6508 75.1692 48.342 75.0097 49.006 C 74.9632 49.203 74.9043 49.3969 74.8333 49.5865 C 74.6837 49.9869 74.4775 50.3639 74.221 50.7059 C 74.221 50.7475 72.984 52.3176 72.9767 52.3592 C 72.9007 52.8491 58.8756 70.4332 58.5449 70.7639 C 58.0723 71.3331 57.4769 71.7878 56.8034 72.0939 C 56.2507 72.3486 55.6548 72.4966 55.0472 72.5299 L 55.0472 72.5299 C 54.67 72.8091 38.1783 72.9806 37.6712 72.9806 C 37.4263 72.9806 29.0984 72.9414 28.873 72.8655 L 28.873 72.8655 C 27.5075 72.8212 26.221 72.2139 25.319 71.1876 C 24.6748 70.8594 9.1775 51.546 9.0698 50.8063 C 8.984 50.6887 8.9032 50.5614 8.8248 50.4438 C 8.5538 49.989 8.3602 49.4923 8.2517 48.9741 C 8.2321 48.886 8.2174 48.7978 8.2027 48.7096 C 8.1103 48.1348 8.1236 47.5479 8.2419 46.9779 C 8.2419 46.417 13.7995 22.6114 14.1375 22.217 C 14.3189 21.5158 14.6629 20.8671 15.1418 20.3237 C 15.5376 19.8724 16.0166 19.5015 16.5526 19.2312 C 16.9347 18.8687 39.1605 8.2604 39.7214 8.236 C 40.2515 7.9982 40.8213 7.8611 41.4016 7.8318 L 41.4237 7.8318 L 41.6564 7.8318 C 42.32 7.8382 42.975 7.9833 43.5792 8.258 C 44.069 8.2898 60.1419 15.9368 65.2391 18.4866 L 71.2768 13.5634 L 44.0372 0.5449 C 43.2877 0.1893 42.4688 0.0036 41.6392 0.0011 C 40.8096 -0.0014 41.4335 0.0011 41.3502 0.0011 L 41.3233 0.0011 C 40.5969 0.0401 39.8854 0.2215 39.229 0.5351 L 10.2749 14.3815 C 8.7586 15.1103 7.655 16.4878 7.2744 18.1266 L 0.1344 49.1848 C -0.0222 49.8789 -0.0422 50.5969 0.0756 51.2986 C 0.0952 51.4064 0.1148 51.5142 0.1393 51.6195 C 0.2773 52.2502 0.5261 52.8515 0.8741 53.3953 C 0.9721 53.5447 1.0774 53.6917 1.1876 53.8313 L 21.2432 78.7489 C 22.308 80.0453 23.8937 80.8018 25.5713 80.8137 L 25.5713 80.8137 L 57.7097 80.8137 L 57.7097 80.8137 C 59.3866 80.8044 60.9722 80.0484 62.0353 78.7513 L 80.4326 55.8667 L 82.0688 53.8288 C 82.4053 53.4087 82.6769 52.9406 82.8746 52.44 C 83.2857 51.4048 83.3779 50.2703 83.1392 49.1823 Z" fill="#1180c4" fill-rule="nonzero" stroke="none" stroke-linecap="butt" stroke-linejoin="miter"/>
                    </g>
                    <g transform="translate(16.2809 21.8428)">
                        <path d="M 46.0557 10.7332 C 46.041 10.6867 46.0214 10.6426 46.0067 10.5985 L 39.6799 15.7569 C 40.7723 18.4096 42.5408 25.5324 42.5408 26.9408 C 42.5866 27.2745 42.5808 27.6132 42.5236 27.9451 C 42.5041 28.0455 42.4845 28.1435 42.4575 28.2414 C 42.4039 28.4396 42.33 28.6316 42.2371 28.8146 C 42.2224 28.942 41.7962 29.5764 41.7766 29.7013 C 41.5463 31.144 36.2606 38.1566 35.271 39.1461 C 34.9996 39.4504 34.6832 39.7114 34.3329 39.9201 C 34.0496 40.0906 33.7459 40.2247 33.4291 40.3194 L 33.4291 40.3194 C 32.295 41.1595 25.5519 41.6567 24.0357 41.6567 C 23.2837 41.6567 19.8717 41.5367 19.1883 41.3114 L 19.1883 41.3114 C 18.4492 41.1981 17.7549 40.8856 17.1799 40.4075 C 15.2522 39.4278 8.8519 31.3252 8.5164 29.1036 C 8.4821 29.0326 8.4502 28.9616 8.4208 28.8881 C 8.3144 28.6199 8.2388 28.3405 8.1955 28.0553 C 8.1955 28.0063 8.1808 27.9573 8.1759 27.9083 C 8.1367 27.5878 8.1367 27.2638 8.1759 26.9433 C 8.1759 25.263 10.569 15.9602 11.5806 14.7723 C 11.8369 14.1654 12.2739 13.6523 12.8322 13.3026 C 13.9785 12.2126 22.7424 8.0609 24.4276 7.9826 C 24.7043 7.8981 24.9908 7.8503 25.28 7.8405 L 25.4147 7.8405 C 25.747 7.8402 26.0773 7.8906 26.3944 7.9899 C 27.8224 8.0781 34.1884 11.0222 36.9048 12.6437 L 42.9327 7.7278 C 39.0014 5.6213 27.8126 0.3405 26.85 0.2817 C 26.3891 0.0963 25.8969 0.0007 25.4 0 L 25.2065 0 C 24.773 0.0198 24.3459 0.1116 23.9426 0.2719 C 22.8183 0.3258 7.3235 7.7058 6.552 8.4308 C 5.6762 8.9074 5.0187 9.7044 4.7174 10.6548 C 4.0438 11.4484 0.0635 28.0014 0.0635 29.1232 C -0.014 29.5684 -0.0206 30.0231 0.0439 30.4704 C 0.0439 30.539 0.0635 30.6075 0.0782 30.6761 C 0.1557 31.0754 0.2902 31.4614 0.4775 31.8224 C 0.5314 31.9204 0.5853 32.0184 0.6465 32.1115 C 0.862 33.5811 11.8157 47.2977 13.1016 47.9541 C 13.8414 48.7083 14.8305 49.1672 15.8841 49.2449 L 15.8841 49.2449 C 16.3373 49.3943 22.206 49.4752 22.7057 49.4752 C 23.7197 49.4752 35.3347 49.1421 36.0916 48.5811 L 36.0916 48.5811 C 36.5522 48.5233 37 48.3892 37.4167 48.1843 C 37.9292 47.9275 38.3849 47.5701 38.7565 47.1336 C 39.4178 46.4747 49.0733 34.1714 49.2276 33.2088 C 49.2399 33.1255 50.0702 32.0233 50.08 31.94 C 50.2538 31.6765 50.393 31.3916 50.4939 31.0925 C 50.5436 30.949 50.5845 30.8026 50.6164 30.6541 C 50.7241 30.156 50.7316 29.6414 50.6385 29.1404 C 50.6434 28.0553 46.6901 11.5219 46.0557 10.7332 Z" fill="#08b1d5" fill-rule="nonzero" stroke="none" stroke-linecap="butt" stroke-linejoin="miter"/>
                    </g>
                    <g transform="translate(32.5883 37.5324)">
                        <path d="M 10.3663 10.6805 C 9.7926 11.1743 8.996 11.3177 8.286 11.0552 C 7.576 10.7926 7.0645 10.1653 6.9501 9.417 C 6.8357 8.6687 7.1365 7.9173 7.7357 7.4546 L 14.5793 1.8725 C 10.9298 -0.9274 5.7617 -0.5493 2.5586 2.7518 C -0.6445 6.053 -0.8667 11.2302 2.042 14.7936 C 4.9506 18.357 10.0673 19.1763 13.9431 16.6993 C 17.819 14.2222 19.2245 9.2346 17.2124 5.0983 Z" fill="#faaf42" fill-rule="nonzero" stroke="none" stroke-linecap="butt" stroke-linejoin="miter"/>
                    </g>
                    <g transform="translate(39.6463 44.6009)">
                        <path d="M 29.0758 32.0249 L 31.6991 28.7598 L 3.465 0.5258 C 2.6411 -0.2065 1.3892 -0.1696 0.6098 0.6098 C -0.1696 1.3892 -0.2065 2.6411 0.5258 3.465 Z" fill="#231f20" fill-rule="nonzero" opacity="0.3" stroke="none" stroke-linecap="butt" stroke-linejoin="miter"/>
                    </g>
                    <g transform="translate(39.5571 0)">
                        <path d="M 60.1595 15.2441 L 51.5524 12.5351 L 52.1696 12.0771 C 52.7925 11.6438 53.1304 10.9059 53.0514 10.1512 C 52.9724 9.3965 52.489 8.7446 51.7899 8.4497 C 51.0907 8.1548 50.2865 8.2636 49.6909 8.7337 L 49.0026 9.2407 L 48.9487 0.3984 C 48.8899 0.0408 48.5886 -0.1135 48.3119 0.0922 L 44.6157 2.9384 C 44.3365 3.1442 44.2459 3.6169 44.2459 3.9916 L 44.2998 12.736 L 41.5271 14.791 L 41.4732 5.912 C 41.4144 5.5544 41.1107 5.4 40.8339 5.6058 L 37.1378 8.4471 C 36.8585 8.6529 36.7704 8.986 36.7704 9.4979 L 36.8218 18.2765 L 0.8428 44.9283 C -0.0812 45.6128 -0.2753 46.9166 0.4092 47.8406 C 1.0937 48.7645 2.3976 48.9586 3.3215 48.2741 L 39.2883 21.6224 L 47.9028 24.3338 C 48.2555 24.4318 48.7405 24.4955 49.0173 24.2897 L 52.7893 21.4484 C 53.0661 21.2427 53.0073 20.9096 52.6816 20.7479 L 44.1087 18.0536 L 46.7296 16.1112 L 55.3808 18.8325 C 55.611 18.9207 56.216 18.9941 56.4953 18.7884 L 60.2673 15.9471 C 60.5441 15.7389 60.4829 15.4033 60.1595 15.2441 Z" fill="#464547" fill-rule="nonzero" stroke="none" stroke-linecap="butt" stroke-linejoin="miter"/>
                    </g>
                </g>
            </g>
            <g class="l0rzlnx25sa.lay" v:layer_name="Collect Layer">
                <rect fill="none" fill-opacity="0" height="100" stroke="none" stroke-opacity="0" width="100" x="0" y="0"/>
            </g>
        </g>
    </g>
</svg>