<svg xmlns="http://www.w3.org/2000/svg" xmlns:xlink="http://www.w3.org/1999/xlink" xmlns:v="http://vecta.io" width="100" height="100" viewBox="0 0 100.00001776366003 100">
    <style>
        <![CDATA[svg{stroke:#000;stroke-linecap:round;stroke-linejoin:round;fill:#fff;fill-rule:evenodd;font-family:Roboto;font-size:14px;text-anchor:middle;}svg text{paint-order:stroke;white-space:pre;}svg .Text\.cls{stroke:none;}]]>
    </style>
    <g transform="translate(0 0)">
        <g>
            <g transform="translate(0 1.4796)">
                <g>
                    <g transform="translate(18.5923 0)">
                        <path d="M 31.4076 0 L 0 42.739 L 31.4076 82.4673 L 62.4308 43.2434 Z" fill="#0ab1d5" fill-rule="nonzero" stroke="none" stroke-linecap="butt" stroke-linejoin="miter" stroke-width="1.3333331214057242"/>
                    </g>
                    <g transform="translate(28.1959 82.4673)">
                        <path d="M 2.5092 14.5735 L 2.5115 14.5735 L 41.1036 14.5644 L 41.1075 14.5644 C 42.0084 14.5644 42.9037 14.3702 43.7299 14.0164 L 21.8042 0 L 0 14.0735 C 0.7944 14.397 1.6494 14.5735 2.5092 14.5735" fill="#f1df36" fill-rule="nonzero" stroke="none" stroke-linecap="butt" stroke-linejoin="miter" stroke-width="1.3333333333333335"/>
                    </g>
                    <g transform="translate(49.9998 43.2434)">
                        <path d="M 31.0232 0 L 0 39.2239 L 21.926 53.2403 C 22.9236 52.8133 23.8198 52.153 24.4987 51.3112 L 46.5884 23.831 L 48.5549 21.3848 C 48.9608 20.8806 49.2841 20.315 49.5223 19.7156 C 49.6352 19.4318 49.7285 19.1409 49.8017 18.8445 Z" fill="#faaf42" fill-rule="nonzero" stroke="none" stroke-linecap="butt" stroke-linejoin="miter" stroke-width="1.3333333333333335"/>
                    </g>
                    <g transform="translate(0.166 42.7389)">
                        <path d="M 0 19.2427 C 0.1715 19.998 0.4732 20.7239 0.8983 21.3736 C 1.0162 21.5542 1.1424 21.7292 1.2762 21.898 L 25.3422 51.8206 C 26.0469 52.6956 26.9857 53.3762 28.0299 53.8018 L 49.8341 39.7283 L 18.4262 0 Z" fill="#faaf42" fill-rule="nonzero" stroke="none" stroke-linecap="butt" stroke-linejoin="miter" stroke-width="1.3333333333333335"/>
                    </g>
                    <g transform="translate(0 18.8905)">
                        <path d="M 10.2012 0 C 9.4929 0.8124 8.9824 1.7941 8.735 2.8712 L 0.1616 40.166 C -0.0296 40.9972 -0.0487 41.8642 0.0913 42.7051 C 0.1128 42.8346 0.1369 42.9634 0.166 43.091 L 18.5922 23.8483 Z" fill="#9ad7ec" fill-rule="nonzero" stroke="none" stroke-linecap="butt" stroke-linejoin="miter" stroke-width="1.3333333333333335"/>
                    </g>
                    <g transform="translate(81.0229 19.0147)">
                        <path d="M 18.7786 43.0731 C 19.0247 42.0795 19.0471 41.031 18.8171 40.0327 L 10.2266 2.7165 C 9.994 1.7056 9.5284 0.7794 8.8837 0 L 0 24.2286 Z" fill="#9ad7ec" fill-rule="nonzero" stroke="none" stroke-linecap="butt" stroke-linejoin="miter" stroke-width="1.3333333333333335"/>
                    </g>
                    <g transform="translate(39.2555 22.9158)">
                        <path d="M 11.609 22.8233 L 23.5569 10.6675 L 15.7379 10.6675 L 6.0822 20.9786 L 6.0822 0 L 0 0 L 0 39.3239 L 6.0822 39.3239 L 6.0822 27.5387 L 7.0437 26.6031 L 16.885 39.3239 L 24.8351 39.3239 Z" fill-rule="nonzero" stroke="none" stroke-linecap="butt" stroke-linejoin="miter" stroke-width="1.3333333333333335"/>
                    </g>
                    <g transform="translate(10.2012 0.0001)">
                        <path d="M 28.3193 15.6209 L 39.7983 0.0003 C 39.7954 0.0003 39.7919 0 39.7886 0 C 39.7748 0 39.761 0.0009 39.7471 0.0009 C 39.6492 0.0015 39.551 0.0032 39.4527 0.0082 C 39.4413 0.0088 39.4301 0.0112 39.4189 0.0118 C 38.5498 0.0591 37.6901 0.2777 36.9053 0.6532 L 2.1359 17.2659 C 1.3097 17.6606 0.5871 18.2174 0 18.8903 L 8.391 42.7387 L 28.3193 15.612 Z" fill="#1280c4" fill-rule="nonzero" stroke="none" stroke-linecap="butt" stroke-linejoin="miter" stroke-width="1.3333333333333335"/>
                    </g>
                    <g transform="translate(50.0003 0.0003)">
                        <path d="M 37.6692 17.265 L 2.878 0.653 C 1.9842 0.225 0.9921 0.0015 0 0 L 31.0226 43.2431 L 39.9063 19.0142 C 39.3039 18.2847 38.5451 17.6833 37.6692 17.265" fill="#1280c4" fill-rule="nonzero" stroke="none" stroke-linecap="butt" stroke-linejoin="miter" stroke-width="1.3333333333333335"/>
                    </g>
                </g>
            </g>
            <g class="l0rzlnx25sa.lay" v:layer_name="Collect Layer">
                <rect fill="none" fill-opacity="0" height="100" stroke="none" stroke-opacity="0" width="100" x="0" y="0"/>
            </g>
        </g>
    </g>
</svg>