<svg xmlns="http://www.w3.org/2000/svg" xmlns:xlink="http://www.w3.org/1999/xlink" xmlns:v="http://vecta.io" width="100" height="100" viewBox="0 0 100 100">
    <style>
        <![CDATA[svg{stroke:#000;stroke-linecap:round;stroke-linejoin:round;fill:#fff;fill-rule:evenodd;font-family:Roboto;font-size:14px;text-anchor:middle;}svg text{paint-order:stroke;white-space:pre;}svg .Text\.cls{stroke:none;}]]>
    </style>
    <g>
        <g>
            <g transform="translate(6.5816 0)">
                <g>
                    <g transform="translate(41.6541 4.0392)">
                        <path d="M 1.7803 34.0921 L 1.7976 34.0921 C 2.7463 34.0935 3.5301 33.3647 3.5301 32.4174 L 3.5301 0.9877 L 1.7615 0 L 0 0.9834 L 0 32.4174 C 0 33.3661 0.7853 34.0964 1.7325 34.0921 L 1.7803 34.0921 Z" fill="#50f0ff" fill-rule="nonzero" stroke="none" stroke-linecap="butt" stroke-linejoin="miter"/>
                    </g>
                    <g transform="translate(3.666 52.1205)">
                        <path d="M 29.1592 0.2773 L 0 19.8469 L 0 22.0755 L 1.6617 22.9851 L 31.1245 3.2116 C 31.8809 2.704 32.0689 1.6902 31.5801 0.9208 C 31.5598 0.8876 31.5381 0.8558 31.5179 0.8225 C 31.0117 0.0098 29.9546 -0.2563 29.1592 0.2773 Z" fill="#0744dd" fill-rule="nonzero" stroke="none" stroke-linecap="butt" stroke-linejoin="miter"/>
                    </g>
                    <g transform="translate(51.346 52.135)">
                        <path d="M 0.7263 3.213 L 30.1632 22.9692 L 31.8191 22.061 L 31.8191 19.8281 L 2.6917 0.2787 C 1.8948 -0.2564 0.8377 0.0083 0.3315 0.8225 C 0.3127 0.8528 0.2925 0.8847 0.2737 0.915 C -0.2195 1.6873 -0.0329 2.7039 0.7263 3.213 Z" fill="#ffc900" fill-rule="nonzero" stroke="none" stroke-linecap="butt" stroke-linejoin="miter"/>
                    </g>
                    <g>
                        <path d="M 86.6966 26.1844 L 86.6966 24.1656 L 84.8889 23.1561 L 84.7544 23.0853 L 45.1394 0.9603 L 43.4156 0 L 41.699 0.9603 L 2.0767 23.0853 L 1.9422 23.1561 L 0.1345 24.1656 L 0.1345 26.1844 L 0 26.2625 L 0.1345 26.3334 L 0.1345 76.2871 L 1.9697 77.2907 L 40.5608 98.4338 L 41.0482 98.7013 L 43.4213 100 L 45.7873 98.7013 L 46.2746 98.4338 L 84.8658 77.2907 L 86.6952 76.2871 L 86.6952 26.3406 L 86.8369 26.2625 L 86.6966 26.1844 Z M 45.2291 94.9876 L 45.2291 59.3177 C 45.2291 58.3459 44.4337 57.5505 43.4618 57.5519 L 43.4156 57.5519 C 42.4437 57.5505 41.6483 58.3459 41.6483 59.3177 L 41.6483 94.9861 L 5.3277 75.1056 L 3.666 74.1959 L 3.666 27.9791 L 32.5866 43.8234 C 33.4211 44.2804 34.4811 43.9738 34.941 43.1408 L 34.9612 43.1032 C 35.4269 42.2601 35.1174 41.1914 34.2729 40.7286 L 5.7283 25.0897 L 41.6541 5.024 L 43.4156 4.0406 L 45.1842 5.0283 L 81.1028 25.0911 L 52.5351 40.7416 C 51.6949 41.2015 51.4317 42.2528 51.8974 43.0902 C 51.9046 43.1047 51.9133 43.1191 51.9205 43.1321 C 52.3775 43.9608 53.3985 44.2905 54.2286 43.835 L 83.1651 27.9791 L 83.1651 74.1974 L 81.5092 75.1056 L 45.2291 94.9876 Z" fill-rule="nonzero" stroke="none" stroke-linecap="butt" stroke-linejoin="miter"/>
                    </g>
                    <g transform="translate(38.312 42.72)">
                        <path d="M 0 5.1223 C 0 2.2846 2.2846 0 5.1223 0 C 7.9601 0 10.2447 2.2846 10.2447 5.1223 C 10.2447 7.9601 7.9601 10.2447 5.1223 10.2447 C 2.2846 10.2447 0 7.9601 0 5.1223 Z" fill="#ff0036" fill-rule="nonzero" stroke="none" stroke-linecap="butt" stroke-linejoin="miter"/>
                    </g>
                    <g transform="translate(42.2106 4.5768)">
                        <path d="M 28.5724 18.8165 L 0.9027 3.3063 C 0.0524 2.829 -0.2513 1.7531 0.2259 0.9027 C 0.7032 0.0524 1.7791 -0.2513 2.6295 0.2259 L 30.2991 15.7361 C 31.1494 16.2134 31.4531 17.2893 30.9759 18.1397 C 30.4987 18.99 29.4227 19.2937 28.5724 18.8165 Z M 16.4476 20.0139 L 0.9042 11.3007 C 0.0538 10.8235 -0.2499 9.7475 0.2274 8.8972 C 0.7046 8.0468 1.7806 7.7431 2.6309 8.2204 L 18.1744 16.9336 C 19.0247 17.4108 19.3284 18.4868 18.8512 19.3371 C 18.374 20.1875 17.298 20.4897 16.4476 20.0139 Z M 21.5396 22.8672 C 20.6893 22.39 20.3856 21.314 20.8628 20.4637 C 21.3401 19.6133 22.416 19.3096 23.2664 19.7869 C 24.1167 20.2641 24.4204 21.3401 23.9432 22.1904 C 23.4659 23.0408 22.39 23.3445 21.5396 22.8672 Z M 6.1046 22.4811 L 0.9418 19.5873 C 0.0914 19.1101 -0.2123 18.0341 0.265 17.1838 C 0.7422 16.3334 1.8182 16.0297 2.6685 16.5069 L 7.8313 19.4007 C 8.6817 19.878 8.9854 20.9539 8.5082 21.8043 C 8.0309 22.6546 6.955 22.9583 6.1046 22.4811 Z M 13.8952 27.2361 L 10.9059 25.5614 C 10.0556 25.0842 9.7519 24.0082 10.2291 23.1579 C 10.7063 22.3075 11.7823 22.0038 12.6326 22.4811 L 15.6219 24.1558 C 16.4722 24.633 16.7759 25.7089 16.2987 26.5593 C 15.8215 27.4096 14.7455 27.7133 13.8952 27.2361 Z" fill="#50f0ff" fill-rule="nonzero" stroke="none" stroke-linecap="butt" stroke-linejoin="miter"/>
                    </g>
                </g>
            </g>
            <g class="l0rzlnx25sa.lay" v:layer_name="Collect Layer">
                <rect fill="none" fill-opacity="0" height="100" stroke="none" stroke-opacity="0" width="100" x="0" y="0"/>
            </g>
        </g>
    </g>
</svg>