<svg xmlns="http://www.w3.org/2000/svg" xmlns:xlink="http://www.w3.org/1999/xlink" xmlns:v="http://vecta.io" width="100" height="100" viewBox="0 0 100 100">
    <style>
        <![CDATA[svg{stroke:#000;stroke-linecap:round;stroke-linejoin:round;fill:#fff;fill-rule:evenodd;font-family:Roboto;font-size:14px;text-anchor:middle;}svg text{paint-order:stroke;white-space:pre;}svg .Text\.cls{stroke:none;}]]>
    </style>
    <g>
        <g>
            <g transform="translate(0 1.6119)">
                <g>
                    <g transform="translate(0 9.5086)">
                        <path d="M 88.43 87.2675 L 82.8358 87.2675 C 82.8358 42.2327 45.6751 5.5942 0 5.5942 L 0 0 C 48.7609 0 88.43 39.1468 88.43 87.2675 Z" fill="#549dd0" fill-rule="nonzero" stroke="none" stroke-linecap="butt" stroke-linejoin="miter" stroke-width="0.9999923706345728"/>
                    </g>
                    <g transform="translate(33.9996 2.1844)">
                        <path d="M 58.2971 64.5592 C 51.5806 36.3171 28.6916 12.715 0 4.4794 L 1.2856 0 C 31.569 8.6976 55.7411 33.6129 62.8318 63.4821 Z" fill="#549dd0" fill-rule="nonzero" stroke="none" stroke-linecap="butt" stroke-linejoin="miter" stroke-width="0.9999923706345728"/>
                    </g>
                    <g transform="translate(63.4118 0)">
                        <path d="M 33.186 40.2265 C 26.2686 25.1412 14.4826 11.9894 0 3.1888 L 1.9384 0 C 17.0512 9.1847 29.352 22.9166 36.5882 38.6673 Z" fill="#549dd0" fill-rule="nonzero" stroke="none" stroke-linecap="butt" stroke-linejoin="miter" stroke-width="0.9999923706345728"/>
                    </g>
                </g>
            </g>
            <g class="l0rzlnx25sa.lay" v:layer_name="Collect Layer">
                <rect fill="none" fill-opacity="0" height="100" stroke="none" stroke-opacity="0" width="100" x="0" y="0"/>
            </g>
        </g>
    </g>
</svg>