<svg xmlns="http://www.w3.org/2000/svg" xmlns:xlink="http://www.w3.org/1999/xlink" xmlns:v="http://vecta.io" width="100" height="100" viewBox="0 0 100 100">
    <style>
        <![CDATA[svg{stroke:#000;stroke-linecap:round;stroke-linejoin:round;fill:#fff;fill-rule:evenodd;font-family:Roboto;font-size:14px;text-anchor:middle;}svg text{paint-order:stroke;white-space:pre;}svg .Text\.cls{stroke:none;}]]>
    </style>
    <g>
        <g>
            <g transform="translate(3.5711 0)">
                <g>
                    <g transform="translate(0 0)">
                        <path d="M 3.5716 26.7856 L 42.0896 1.3069 C 44.72 -0.4356 48.1378 -0.4356 50.7682 1.3069 L 89.2862 26.7856 C 91.5219 28.2732 92.863 30.7824 92.8577 33.4678 L 92.8577 66.5036 C 92.8726 69.1991 91.5304 71.7212 89.2862 73.2144 L 50.7682 98.6931 C 48.1378 100.4356 44.72 100.4356 42.0896 98.6931 L 3.5716 73.2144 C 1.3359 71.7268 -0.0052 69.2176 0.0001 66.5322 L 0.0001 33.4964 C -0.0148 30.8009 1.3274 28.2788 3.5716 26.7856 Z" fill="#0366d6" fill-rule="nonzero" stroke="none" stroke-linecap="butt" stroke-linejoin="miter" stroke-width="25.000321867448747"/>
                    </g>
                    <g transform="translate(18.5716 21.8749)">
                        <path d="M 30.9537 12.5001 L 30.9537 9.375 L 25.793 9.375 C 25.5183 9.3741 25.2552 9.2641 25.0617 9.0692 C 24.8681 8.8743 24.7599 8.6104 24.7609 8.3357 L 24.7609 1.0429 C 24.7589 0.4703 25.2204 0.0039 25.793 0 L 33.0145 0 C 33.2898 0.0009 33.5534 0.1115 33.7471 0.3071 C 33.9407 0.5028 34.0485 0.7676 34.0466 1.0429 L 34.0466 12.5001 L 49.5253 12.5001 C 51.2419 12.5099 52.626 13.9084 52.6181 15.6251 L 52.6181 28.1251 L 54.6824 28.1251 C 54.9577 28.1261 55.2213 28.2366 55.415 28.4323 C 55.6087 28.6279 55.7165 28.8927 55.7146 29.168 L 55.7146 39.5859 C 55.7155 39.8606 55.6073 40.1244 55.4137 40.3193 C 55.2202 40.5142 54.9571 40.6242 54.6824 40.6252 L 52.6181 40.6252 L 52.6181 46.8752 C 52.6229 47.7002 52.2997 48.4933 51.7196 49.0801 C 51.1396 49.6668 50.3503 49.9991 49.5253 50.0038 L 6.1893 50.0038 C 5.3643 49.9991 4.575 49.6668 3.9949 49.0801 C 3.4149 48.4933 3.0917 47.7002 3.0965 46.8752 L 3.0965 40.6252 L 1.0322 40.6252 C 0.7575 40.6242 0.4944 40.5142 0.3009 40.3193 C 0.1073 40.1244 -0.0009 39.8606 0 39.5859 L 0 29.168 C -0.0019 28.8927 0.1059 28.6279 0.2996 28.4323 C 0.4933 28.2366 0.7569 28.1261 1.0322 28.1251 L 3.0965 28.1251 L 3.0965 15.6251 C 3.0886 13.9084 4.4727 12.5099 6.1893 12.5001 Z" fill-rule="nonzero" stroke="none" stroke-linecap="butt" stroke-linejoin="miter" stroke-width="25.000321867448747"/>
                    </g>
                    <g transform="translate(50.5419 48.9546)">
                        <path d="M 4.287 10.049 C 4.5212 10.2908 4.8434 10.4273 5.1799 10.4273 C 5.5165 10.4273 5.8387 10.2908 6.0728 10.049 L 12.5621 3.499 C 13.0504 3.0039 13.0504 2.2083 12.5621 1.7132 L 11.2299 0.3704 C 10.9976 0.1335 10.6796 0 10.3478 0 C 10.0159 0 9.698 0.1335 9.4656 0.3704 L 5.1799 4.6882 L 3.4835 2.974 C 3.2493 2.7322 2.9272 2.5957 2.5906 2.5957 C 2.2541 2.5957 1.9319 2.7322 1.6978 2.974 L 0.3692 4.3168 C -0.1231 4.8103 -0.1231 5.6091 0.3692 6.1026 Z" fill="#0366d6" fill-rule="nonzero" stroke="none" stroke-linecap="butt" stroke-linejoin="miter" stroke-width="25.000321867448747"/>
                    </g>
                    <g transform="translate(29.909 48.9546)">
                        <path d="M 4.2877 10.049 C 4.5201 10.2859 4.838 10.4194 5.1699 10.4194 C 5.5017 10.4194 5.8196 10.2859 6.052 10.049 L 12.5413 3.499 C 13.0297 3.0039 13.0297 2.2083 12.5413 1.7132 L 11.2092 0.3704 C 10.9768 0.1335 10.6589 0 10.327 0 C 9.9952 0 9.6773 0.1335 9.4449 0.3704 L 5.1591 4.6882 L 3.4627 2.974 C 3.2292 2.7377 2.9109 2.6048 2.5788 2.6048 C 2.2466 2.6048 1.9283 2.7377 1.6948 2.974 L 0.3663 4.3168 C -0.1221 4.8119 -0.1221 5.6075 0.3663 6.1026 Z" fill="#0366d6" fill-rule="nonzero" stroke="none" stroke-linecap="butt" stroke-linejoin="miter" stroke-width="25.000321867448747"/>
                    </g>
                </g>
            </g>
            <g class="l0rzlnx25sa.lay" v:layer_name="Collect Layer">
                <rect fill="none" fill-opacity="0" height="100" stroke="none" stroke-opacity="0" width="100" x="0" y="0"/>
            </g>
        </g>
    </g>
</svg>