
<svg xmlns="http://www.w3.org/2000/svg" xml:space="preserve" width="2955px" height="2955px" version="1.1" style="shape-rendering:geometricPrecision; text-rendering:geometricPrecision; image-rendering:optimizeQuality; fill-rule:evenodd; clip-rule:evenodd"
viewBox="0 0 3616 3616"
 xmlns:xlink="http://www.w3.org/1999/xlink">
 <defs>
  <style type="text/css">
   <![CDATA[
    .str0 {stroke:#FEFEFE;stroke-width:2.89071}
    .fil0 {fill:none}
    .fil3 {fill:#FEFEFE}
    .fil1 {fill:#008DD2}
    .fil2 {fill:#008DD2}
   ]]>
  </style>
 </defs>
 <g id="Layer_x0020_1">
  <metadata id="CorelCorpID_0Corel-Layer"/>
  <g id="SP_x0020_Logo_x0020_Blue">
   <rect id="Frame" class="fil0 str0" x="1" y="1" width="3613" height="3613"/>
   <g id="TECHNOLOGIES">
    <path id="S" class="fil1" d="M3301 3104c0,6 0,11 0,14 0,32 20,39 68,39l62 0c57,0 77,-6 77,-45 0,-33 -15,-39 -52,-39l-99 0c-61,0 -85,-16 -85,-65 0,-52 30,-65 101,-65l53 0c43,0 72,1 89,15 11,9 16,25 16,46l0 7 -29 0 0 -4c0,-33 -14,-39 -58,-39l-80 0c-46,0 -62,7 -62,39 0,35 19,40 64,40l84 0c30,0 51,1 64,9 18,11 23,28 23,57 0,54 -26,71 -97,71l-80 0c-61,0 -88,-17 -88,-62 0,-5 1,-11 1,-18l28 0z"/>
    <polygon id="E" class="fil1" points="3003,2946 3235,2946 3235,2972 3032,2972 3032,3046 3226,3046 3226,3072 3032,3072 3032,3154 3235,3154 3235,3181 3003,3181 "/>
    <polygon id="I" class="fil1" points="2914,3181 2914,2946 2943,2946 2943,3181 "/>
    <path id="G" class="fil1" d="M2833 3100l0 -12 -121 0 0 -26 150 0 0 38c0,31 0,53 -19,69 -15,13 -42,15 -82,15l-84 0c-36,0 -62,-2 -79,-17 -17,-14 -23,-36 -23,-70l0 -64c0,-36 6,-59 23,-74 16,-14 42,-16 79,-16l84 0c72,0 99,12 99,66 0,4 0,8 -1,13l-26 0 0 -4c0,-37 -15,-49 -55,-49l-112 0c-26,0 -41,3 -51,17 -8,11 -8,26 -8,45l0 63c0,19 0,34 8,45 9,14 25,17 51,17l111 0c47,0 56,-12 56,-56z"/>
    <path id="O" class="fil1" d="M2327 2969c-27,0 -44,3 -54,17 -9,11 -9,26 -9,46l0 61c0,20 0,35 9,46 10,14 27,17 54,17l106 0c27,0 44,-3 55,-17 8,-10 8,-24 8,-42l0 -69c0,-18 0,-32 -8,-42 -11,-14 -28,-17 -55,-17l-106 0zm-71 198c-17,-14 -24,-36 -24,-70l0 -64c0,-36 6,-59 24,-74 18,-14 45,-16 85,-16l78 0c40,0 68,2 85,16 17,14 24,36 24,71l0 66c0,35 -6,57 -24,71 -18,15 -45,17 -85,17l-78 0c-39,0 -66,-2 -85,-17z"/>
    <polygon id="L" class="fil1" points="1989,2946 2019,2946 2019,3155 2201,3155 2201,3181 1989,3181 "/>
    <path id="O_0" class="fil1" d="M1736 2969c-27,0 -44,3 -54,17 -9,11 -9,26 -9,46l0 61c0,20 0,35 9,46 10,14 27,17 54,17l107 0c26,0 43,-3 54,-17 8,-10 9,-24 9,-42l0 -69c0,-18 -1,-32 -9,-42 -11,-14 -28,-17 -54,-17l-107 0zm-71 198c-17,-14 -23,-36 -23,-70l0 -64c0,-36 5,-59 23,-74 18,-14 45,-16 85,-16l79 0c39,0 67,2 85,16 16,14 23,36 23,71l0 66c0,35 -6,57 -23,71 -18,15 -46,17 -85,17l-79 0c-39,0 -66,-2 -85,-17z"/>
    <polygon id="N" class="fil1" points="1302,3181 1302,2946 1348,2946 1560,3154 1560,2946 1589,2946 1589,3181 1546,3181 1331,2969 1331,3181 "/>
    <polygon id="H" class="fil1" points="973,3181 973,2946 1002,2946 1002,3047 1215,3047 1215,2946 1244,2946 1244,3181 1215,3181 1215,3072 1002,3072 1002,3181 "/>
    <path id="C" class="fil1" d="M670 3167c-17,-14 -22,-36 -22,-70l0 -64c0,-36 5,-59 22,-74 17,-14 42,-16 79,-16l74 0c72,0 98,12 98,66 0,4 0,8 0,13l-26 0 0 -4c0,-37 -15,-49 -55,-49l-102 0c-25,0 -41,4 -51,17 -8,11 -8,26 -8,45l0 63c0,19 0,34 8,45 10,14 26,17 51,17l101 0c43,0 58,-10 58,-49l0 -7 27 0c0,4 0,8 0,12 0,27 -5,45 -19,57 -15,13 -42,15 -82,15l-73 0c-37,0 -63,-2 -80,-17z"/>
    <polygon id="E_1" class="fil1" points="378,2946 610,2946 610,2972 407,2972 407,3046 601,3046 601,3072 407,3072 407,3154 610,3154 610,3181 378,3181 "/>
    <polygon id="T" class="fil1" points="196,3181 196,2972 80,2972 80,2946 341,2946 341,2972 225,2972 225,3181 "/>
   </g>
   <path id="Ellipse" class="fil2" d="M1821 433c621,0 1124,503 1124,1124 0,621 -503,1124 -1124,1124 -621,0 -1124,-503 -1124,-1124 0,-621 503,-1124 1124,-1124z"/>
   <path id="SP" class="fil3" d="M2511 1128l-644 0 -697 0c-189,0 -283,82 -283,246l0 31c0,164 94,246 283,246l337 0c52,0 77,21 77,62l0 31c0,41 -25,61 -77,61l-611 0 0 185 611 0c189,0 283,-82 283,-246l0 -31c0,-164 -94,-246 -283,-246l-337 0c-51,0 -77,-21 -77,-62l0 -31c0,-41 26,-61 77,-61l696 0 645 0c51,0 77,20 77,61l0 31c0,41 -26,62 -77,62l-621 0 0 523 207 0 0 -339 414 0c188,0 283,-82 283,-246l0 -31c0,-164 -95,-246 -283,-246z"/>
  </g>
 </g>
</svg>
