<?xml version="1.0" encoding="UTF-8" standalone="no"?><!DOCTYPE svg PUBLIC "-//W3C//DTD SVG 1.1//EN" "http://www.w3.org/Graphics/SVG/1.1/DTD/svg11.dtd"><svg width="100%" height="100%" viewBox="0 0 4417 1117" version="1.1" xmlns="http://www.w3.org/2000/svg" xmlns:xlink="http://www.w3.org/1999/xlink" xml:space="preserve" xmlns:serif="http://www.serif.com/" style="fill-rule:evenodd;clip-rule:evenodd;stroke-linejoin:round;stroke-miterlimit:2;"><rect id="horizontal_white_no_slogan" x="0.515" y="0.358" width="4416.01" height="1116.56" style="fill:none;"/><g id="TECHNOLOGIES"><path id="S" d="M3940.79,588.339l0,14.425c0,25.965 17.31,34.62 60.585,34.62l54.816,0c51.93,0 69.24,-5.77 69.24,-40.39c0,-28.85 -14.425,-34.62 -46.16,-34.62l-89.436,-0c-51.93,-0 -75.01,-14.425 -75.01,-57.7c-0,-46.161 28.85,-57.701 89.436,-57.701l49.045,0c37.505,0 63.47,0 77.895,14.425c8.655,8.655 14.425,20.195 14.425,40.391l0,5.77l-25.965,-0l0,-2.885c0,-31.736 -11.54,-34.621 -51.93,-34.621l-69.241,0c-40.39,0 -54.815,5.77 -54.815,34.621c0,28.85 14.425,34.62 54.815,34.62l75.011,-0c25.965,-0 46.16,-0 57.7,8.655c14.425,8.655 20.195,23.08 20.195,49.045c0,49.045 -23.08,63.471 -86.55,63.471l-72.126,-0c-51.93,-0 -75.01,-14.426 -75.01,-54.816l-0,-17.31l23.08,0Z" style="fill:#fff;"/><path id="E" d="M3678.26,449.858l204.836,0l-0,23.08l-178.871,0l-0,66.356l173.101,-0l-0,23.08l-173.101,-0l-0,72.125l178.871,0l-0,23.08l-204.836,0l-0,-207.721Z" style="fill:#fff;"/><rect id="I" x="3600.36" y="449.858" width="25.965" height="207.721" style="fill:#fff;"/><path id="G" d="M3528.24,585.454l-0,-8.655l-106.746,0l-0,-23.08l132.711,-0l-0,31.735c-0,28.85 -0,46.16 -17.31,60.585c-14.425,11.54 -37.506,14.426 -72.126,14.426l-75.01,-0c-31.735,-0 -54.816,-2.886 -69.241,-14.426c-14.425,-14.425 -20.195,-31.735 -20.195,-63.47l0,-54.815c0,-31.735 5.77,-54.816 20.195,-66.356c14.425,-11.54 37.506,-14.425 69.241,-14.425l75.01,0c63.471,0 86.551,11.54 86.551,57.701l-0,11.54l-23.08,-0l-0,-2.885c-0,-31.736 -14.425,-43.276 -49.046,-43.276l-98.09,0c-23.08,0 -37.505,2.885 -46.161,14.425c-5.77,11.541 -5.77,23.081 -5.77,40.391l0,54.815c0,17.31 0,31.735 5.77,40.39c8.656,11.54 23.081,14.425 46.161,14.425l98.09,0c40.391,0 49.046,-8.655 49.046,-49.045Z" style="fill:#fff;"/><path id="O" d="M3081.06,470.053c-23.08,0 -37.505,2.885 -49.045,14.425c-5.77,11.541 -5.77,23.081 -5.77,40.391l-0,54.815c-0,17.31 -0,31.735 5.77,40.39c11.54,11.54 25.965,14.425 49.045,14.425l95.206,0c23.08,0 37.505,-2.885 46.16,-14.425c8.655,-8.655 8.655,-20.195 8.655,-37.505l-0,-60.585c-0,-14.425 -0,-28.85 -8.655,-37.506c-8.655,-11.54 -23.08,-14.425 -46.16,-14.425l-95.206,0Zm-63.47,175.986c-14.426,-14.425 -20.196,-31.735 -20.196,-63.47l0,-54.815c0,-31.735 5.77,-54.816 20.196,-66.356c17.31,-11.54 40.39,-14.425 75.01,-14.425l69.24,0c37.506,0 60.586,2.885 75.011,14.425c17.31,11.54 23.08,31.736 23.08,63.471l0,57.7c0,31.735 -5.77,51.93 -23.08,63.47c-14.425,11.54 -37.505,14.426 -75.011,14.426l-69.24,-0c-34.62,-0 -57.7,-2.886 -75.01,-14.426Z" style="fill:#fff;"/><path id="L" d="M2783.9,449.858l25.965,0l0,184.641l158.676,0l0,23.08l-184.641,0l0,-207.721Z" style="fill:#fff;"/><path id="O_0" d="M2558.87,470.053c-23.08,0 -37.505,2.885 -49.046,14.425c-5.77,11.541 -5.77,23.081 -5.77,40.391l0,54.815c0,17.31 0,31.735 5.77,40.39c11.541,11.54 25.966,14.425 49.046,14.425l95.205,0c23.08,0 37.506,-2.885 46.161,-14.425c8.655,-8.655 8.655,-20.195 8.655,-37.505l-0,-60.585c-0,-14.425 -0,-28.85 -8.655,-37.506c-8.655,-11.54 -23.081,-14.425 -46.161,-14.425l-95.205,0Zm-63.471,175.986c-14.425,-14.425 -20.195,-31.735 -20.195,-63.47l0,-54.815c0,-31.735 5.77,-54.816 20.195,-66.356c17.311,-11.54 40.391,-14.425 75.011,-14.425l69.24,0c37.505,0 60.586,2.885 75.011,14.425c17.31,11.54 23.08,31.736 23.08,63.471l-0,57.7c-0,31.735 -5.77,51.93 -23.08,63.47c-14.425,11.54 -37.506,14.426 -75.011,14.426l-69.24,-0c-34.62,-0 -57.7,-2.886 -75.011,-14.426Z" style="fill:#fff;"/><path id="N" d="M2175.16,657.579l0,-207.721l40.391,0l187.526,184.641l-0,-184.641l25.965,0l0,207.721l-37.505,0l-190.411,-187.526l-0,187.526l-25.966,0Z" style="fill:#fff;"/><path id="H" d="M1883.78,657.579l-0,-207.721l25.965,0l-0,89.436l190.411,-0l0,-89.436l23.08,0l0,207.721l-23.08,0l0,-95.205l-190.411,-0l-0,95.205l-25.965,0Z" style="fill:#fff;"/><path id="C" d="M1615.47,646.039c-14.425,-14.425 -17.31,-31.735 -17.31,-63.47l-0,-54.815c-0,-31.735 2.885,-54.816 17.31,-66.356c17.31,-11.54 37.505,-14.425 72.126,-14.425l63.47,0c63.47,0 86.55,11.54 86.55,57.701l0,11.54l-23.08,-0l0,-2.885c0,-31.736 -11.54,-43.276 -49.045,-43.276l-89.436,0c-20.195,0 -34.62,2.885 -43.275,14.425c-8.655,11.541 -8.655,23.081 -8.655,40.391l0,54.815c0,17.31 0,31.735 8.655,40.39c8.655,11.54 23.08,14.425 43.275,14.425l89.436,0c37.505,0 51.93,-8.655 51.93,-43.275l0,-5.77l23.08,0l0,11.54c0,23.08 -2.885,40.39 -14.425,49.045c-14.425,11.54 -37.505,14.426 -75.01,14.426l-63.47,-0c-31.736,-0 -54.816,-2.886 -72.126,-14.426Z" style="fill:#fff;"/><path id="E_1" d="M1358.7,449.858l204.836,0l-0,23.08l-178.871,0l-0,66.356l170.216,-0l-0,23.08l-170.216,-0l-0,72.125l178.871,0l-0,23.08l-204.836,0l-0,-207.721Z" style="fill:#fff;"/><path id="T" d="M1197.14,657.579l-0,-184.641l-100.976,0l-0,-23.08l230.801,0l0,23.08l-103.86,0l-0,184.641l-25.965,0Z" style="fill:#fff;"/></g><g><path id="Ellipse_16" d="M580.817,139.719c228.613,-0 414,185.387 414,414c0,228.613 -185.387,414 -414,414c-228.613,-0 -414,-185.387 -414,-414c0,-228.613 185.387,-414 414,-414Z" style="fill:#008dd2;"/><path id="SP_17" d="M823.233,380.565l-484.832,-0c-68.352,-0 -102.57,33.06 -102.57,98.933l-0,12.48c-0,65.956 34.218,98.934 102.57,98.934l121.745,-0c18.68,-0 28.019,8.017 28.019,24.63l0,12.398c0,16.53 -9.339,24.712 -28.019,24.712l-224.315,0c7.439,25.788 17.77,50.748 30.746,74.221l193.569,0c68.353,0 102.571,-32.978 102.571,-98.933l-0,-12.315c-0,-65.956 -34.218,-99.017 -102.571,-99.017l-121.745,0c-18.679,0 -27.936,-8.182 -27.936,-24.63l-0,-12.48c-0,-16.448 9.257,-24.713 27.936,-24.713l484.832,0c18.679,0 27.936,8.265 27.936,24.713l0,12.48c0,16.448 -9.257,24.63 -27.936,24.63l-224.315,0l-0,210.265l74.551,0l0,-135.961l149.764,-0c68.353,-0 102.57,-32.978 102.57,-98.934l0,-12.48c0,-65.873 -34.217,-98.933 -102.57,-98.933Z" style="fill:#fefefe;"/></g></svg>